<?xml version="1.0" encoding="UTF-8"?>
<svg width="122px" height="44px" viewBox="0 0 122 44" version="1.1" xmlns="http://www.w3.org/2000/svg" xmlns:xlink="http://www.w3.org/1999/xlink">
    <!-- Generator: Sketch 56 (81588) - https://sketch.com -->
    <title>Group 24</title>
    <desc>Created with Sketch.</desc>
    <g id="Homepage" stroke="none" stroke-width="1" fill="none" fill-rule="evenodd">
        <g id="OVERVIEW-page" transform="translate(-758.000000, -2083.000000)">
            <g id="Group-33" transform="translate(732.000000, 2064.000000)">
                <g id="Group-24" transform="translate(26.000000, 19.000000)">
                    <g id="Group-3" fill="#FFFFFF">
                        <path d="M42.0447859,21.0588345 C42.0447859,32.6108145 32.6329317,41.9758203 21.0224777,41.9758203 C9.41202379,41.9758203 -4.23785595e-05,32.6108145 -4.23785595e-05,21.0588345 C-4.23785595e-05,9.50664367 9.41202379,0.141216167 21.0224777,0.141216167 C32.6329317,0.141216167 42.0447859,9.50664367 42.0447859,21.0588345" id="Fill-1"></path>
                    </g>
                    <path d="M23.8333333,19.7082214 C23.8333333,20.4677452 23.2176951,21.0833333 22.4583333,21.0833333 C21.6989716,21.0833333 21.0833333,20.4677452 21.0833333,19.7082214 C21.0833333,18.9489214 21.6989716,18.3333333 22.4583333,18.3333333 C23.2176951,18.3333333 23.8333333,18.9489214 23.8333333,19.7082214" id="Fill-4" fill="#772953"></path>
                    <path d="M23.702315,17.4166667 L21.0833333,17.4166667 L21.0833333,7.85139426 C21.0833333,5.5441208 23.1393887,3.66666667 25.6666667,3.66666667 C28.1939447,3.66666667 30.25,5.5441208 30.25,7.85139426 L30.25,10.2430287 L27.6310184,10.2426069 L27.6310184,7.85139426 C27.6310184,7.37243466 27.4265909,6.9219469 27.0556186,6.58302657 C26.6846462,6.24473894 26.1914794,6.05787932 25.6666667,6.05787932 C24.5835475,6.05787932 23.702315,6.86268329 23.702315,7.85139426 L23.702315,17.4166667 Z" id="Fill-6" fill="#772953"></path>
                    <path d="M32.0834488,22 C29.5562345,22 27.5,19.9683739 27.5,17.4706151 L27.5,11 L30.1191466,11 L30.1191466,17.4706151 C30.1191466,18.5412136 31.000357,19.4120735 32.0834488,19.4120735 C33.1665407,19.4120735 34.0475201,18.5412136 34.0475201,17.4706151 L34.0475201,11 L36.6666667,11 L36.6666667,17.4706151 C36.6666667,18.6804599 36.1899122,19.817714 35.3241779,20.6735079 C34.4586746,21.5290736 33.3076729,22 32.0834488,22" id="Fill-8" fill="#772953"></path>
                    <path d="M11,34.3748881 C11,35.1344119 10.3843618,35.75 9.625,35.75 C8.86563823,35.75 8.25,35.1344119 8.25,34.3748881 C8.25,33.6155881 8.86563823,33 9.625,33 C10.3843618,33 11,33.6155881 11,34.3748881" id="Fill-10" fill="#772953"></path>
                    <path d="M10.8689156,31.1666667 L8.25,31.1666667 L8.25,17.9541618 C8.25,15.6360781 10.3060035,13.75 12.8332178,13.75 C15.3604322,13.75 17.4166667,15.6360781 17.4166667,17.9541618 L17.4166667,20.3565702 L14.7975201,20.3565702 L14.7975201,17.9541618 C14.7975201,17.4727903 14.5933287,17.0202332 14.2221347,16.6799679 C13.8511717,16.3399145 13.3577863,16.1521966 12.8332178,16.1521966 C11.750126,16.1521966 10.8689156,16.9606974 10.8689156,17.9541618 L10.8689156,31.1666667 Z" id="Fill-12" fill="#772953"></path>
                    <path d="M19.2501155,33 C16.7229012,33 14.6666667,30.9681456 14.6666667,28.4701585 L14.6666667,22 L17.2858133,22 L17.2858133,28.4706151 C17.2858133,29.5405288 18.1670236,30.411617 19.2501155,30.411617 C20.3332073,30.411617 21.2144177,29.5405288 21.2144177,28.4701585 L21.2144177,22 L23.8333333,22 L23.8333333,28.4706151 C23.8333333,29.6800033 23.3565789,30.8172574 22.4910756,31.6732797 C21.6253412,32.5288454 20.4741086,33 19.2501155,33" id="Fill-14" fill="#772953"></path>
                    <path d="M66.9166667,26.7116363 C66.9166667,28.1361375 66.7757691,29.4533205 66.4960552,30.6636078 C66.2148844,31.8743176 65.730588,32.928064 65.0435823,33.8252695 C64.3553279,34.722475 63.4439683,35.4208883 62.3076305,35.9186081 C61.1712926,36.4167505 59.7467079,36.6666667 58.0353332,36.6666667 C57.0253245,36.6666667 56.0989802,36.5737139 55.257341,36.3888646 C54.4157017,36.2031704 53.671671,35.9830413 53.0264975,35.7265762 C52.3804915,35.470111 51.8408351,35.199703 51.4060714,34.9149295 C50.9704753,34.630156 50.6410205,34.3739021 50.4166667,34.1457453 L51.7636224,31.7957303 C52.0162807,32.0238871 52.3319995,32.2731695 52.7107787,32.5433663 C53.089558,32.8146194 53.5318141,33.0632681 54.0367143,33.2912136 C54.5418228,33.5195817 55.1027075,33.7044309 55.7204091,33.8466064 C56.3372782,33.9892044 57.010756,34.0601865 57.7408427,34.0601865 C59.9011333,34.0601865 61.4934631,33.4832456 62.5180403,32.3299975 C63.541993,31.1763268 64.0541775,29.2040381 64.0541775,26.4124974 L64.0541775,6.41666667 L66.9166667,6.41666667 L66.9166667,26.7116363 Z" id="Fill-16" fill="#FFFFFF"></path>
                    <path d="M89.8333333,34.5325998 C88.9975983,34.7650282 87.8735977,35.0256232 86.4626137,35.3154599 C85.0503476,35.6048666 83.3218228,35.75 81.2763982,35.75 C79.6049281,35.75 78.2080476,35.5035958 77.084047,35.0110024 C75.9604738,34.518409 75.0531532,33.8226288 74.3616578,32.923662 C73.6699487,32.0253402 73.1729096,30.9380225 72.870327,29.6621389 C72.567958,28.3869003 72.4166667,26.9809343 72.4166667,25.4442406 L72.4166667,12.8333333 L75.2258133,12.8333333 L75.2258133,24.5306529 C75.2258133,26.1253999 75.3407777,27.4737427 75.571561,28.5750362 C75.8019171,29.6771898 76.1767264,30.5684162 76.6951342,31.2493604 C77.2139695,31.9307347 77.8836687,32.4233281 78.7048729,32.7275707 C79.5260771,33.0324583 80.5267795,33.184472 81.708476,33.184472 C83.0335572,33.184472 84.1857647,33.1124429 85.1657393,32.9670945 C86.1452866,32.8226062 86.7649827,32.6916636 87.0241867,32.5755569 L87.0241867,12.8333333 L89.8333333,12.8333333 L89.8333333,34.5325998 Z" id="Fill-18" fill="#FFFFFF"></path>
                    <path d="M91.3670271,44 C91.0215351,44 90.589379,43.9568713 90.0712575,43.8712513 C89.5526701,43.7849939 89.1685054,43.6842894 88.9166667,43.5702002 L89.3409019,41.2928776 C89.5610569,41.349816 89.8590234,41.4069668 90.2359661,41.4645426 C90.6131417,41.5219059 90.9742426,41.5508 91.3197345,41.5508 C93.1727643,41.5508 94.4056324,41.0778715 95.018339,40.132652 C95.6310456,39.1874324 95.937166,37.7692844 95.937166,35.8786328 L95.937166,13.75 L99,13.75 L99,35.7498841 C99,38.5570736 98.4182782,40.6334122 97.2562324,41.9801748 C96.0939536,43.3263 94.1302639,44 91.3670271,44" id="Fill-20" fill="#FFFFFF"></path>
                    <path d="M121.916667,34.5325998 C121.080504,34.7650282 119.956931,35.0256232 118.545947,35.3154599 C117.133681,35.6048666 115.404942,35.75 113.359732,35.75 C111.688261,35.75 110.291381,35.5035958 109.16738,35.0110024 C108.043807,34.518409 107.136273,33.8226288 106.444991,32.923662 C105.753282,32.0253402 105.256243,30.9380225 104.95366,29.6621389 C104.651078,28.3869003 104.5,26.9809343 104.5,25.4442406 L104.5,12.8333333 L107.30936,12.8333333 L107.30936,24.5306529 C107.30936,26.1253999 107.423684,27.4737427 107.654894,28.5750362 C107.88525,29.6771898 108.259846,30.5684162 108.778468,31.2493604 C109.297089,31.9307347 109.967002,32.4233281 110.787993,32.7275707 C111.60941,33.0324583 112.610113,33.184472 113.791809,33.184472 C115.116463,33.184472 116.269098,33.1124429 117.249073,32.9670945 C118.22862,32.8226062 118.848316,32.6916636 119.10752,32.5755569 L119.10752,12.8333333 L121.916667,12.8333333 L121.916667,34.5325998 Z" id="Fill-22" fill="#FFFFFF"></path>
                </g>
            </g>
        </g>
    </g>
</svg>