<?xml version="1.0" encoding="UTF-8"?>
<svg width="217px" height="44px" viewBox="0 0 217 44" version="1.1" xmlns="http://www.w3.org/2000/svg" xmlns:xlink="http://www.w3.org/1999/xlink">
    <!-- Generator: Sketch 56 (81588) - https://sketch.com -->
    <title>Group 34</title>
    <desc>Created with Sketch.</desc>
    <defs>
        <polygon id="path-1" points="0.000174715909 0.22854 25.4061974 0.22854 25.4061974 8.08888889 0.000174715909 8.08888889"></polygon>
    </defs>
    <g id="Homepage" stroke="none" stroke-width="1" fill="none" fill-rule="evenodd">
        <g id="Partner-logos---MouseOver-Public-Cloud-Copy" transform="translate(-171.000000, -765.000000)">
            <g id="Group-34" transform="translate(171.000000, 765.000000)">
                <g id="Group-15">
                    <path d="M43.1742264,21.9243544 C43.1742264,33.8423725 33.5121165,43.5093544 21.5871495,43.5093544 C9.66508352,43.5093544 7.25274726e-05,33.8423725 7.25274726e-05,21.9243544 C7.25274726e-05,10.0012599 9.66508352,0.3393544 21.5871495,0.3393544 C33.5142923,0.340079605 43.1742264,10.0012599 43.1742264,21.9243544" id="Fill-6" fill="#FFFFFF"></path>
                    <g id="Group-14" transform="translate(9.000000, 9.000000)">
                        <path d="M2.38075658,1.82076576e-13 C1.07113487,1.82076576e-13 2.13162821e-14,1.08904682 2.13162821e-14,2.42056856 L2.13162821e-14,8.125 L6.41183036,8.125 L6.41183036,7.19302437 C6.41183036,6.46978022 6.98836936,5.8836001 7.69971805,5.8836001 L18.5505757,5.8836001 C19.2616306,5.8836001 19.8381696,6.46978022 19.8381696,7.19302437 L19.8381696,8.125 L25.625,8.125 L25.625,2.42056856 C25.625,1.08904682 24.5535714,1.82076576e-13 23.2442434,1.82076576e-13 L2.38075658,1.82076576e-13 Z" id="Fill-1" fill="#772953"></path>
                        <g id="Group-5" transform="translate(0.000000, 16.875000)">
                            <mask id="mask-2" fill="white">
                                <use xlink:href="#path-1"></use>
                            </mask>
                            <g id="Clip-4"></g>
                            <path d="M19.6688182,1.13016222 C19.6688182,1.82985111 19.097206,2.39694 18.3919361,2.39694 L7.01414489,2.39694 C6.30916619,2.39694 5.73755398,1.82985111 5.73755398,1.13016222 L5.73755398,0.22854 L0.000174715909,0.22854 L0.000174715909,5.74689556 C0.000174715909,7.03505111 1.06244744,8.08891778 2.36058665,8.08891778 L23.0457855,8.08891778 C24.3439247,8.08891778 25.4061974,7.03505111 25.4061974,5.74689556 L25.4061974,0.22854 L19.6688182,0.22854 L19.6688182,1.13016222 Z" id="Fill-3" fill="#772953" mask="url(#mask-2)"></path>
                        </g>
                        <polygon id="Fill-6" fill="#772953" points="0 15.625 6.25 15.625 6.25 9.375 0 9.375"></polygon>
                        <polygon id="Fill-8" fill="#772953" points="19.375 15.625 25.625 15.625 25.625 9.375 19.375 9.375"></polygon>
                    </g>
                </g>
                <path d="M71.972,22.712 C71.972,24.1760073 71.7620021,25.507994 71.342,26.708 C70.9219979,27.908006 70.3340038,28.9279958 69.578,29.768 C68.8219962,30.6080042 67.9280052,31.2619977 66.896,31.73 C65.8639948,32.1980023 64.7240062,32.432 63.476,32.432 C62.2279938,32.432 61.0880052,32.1980023 60.056,31.73 C59.0239948,31.2619977 58.1300038,30.6080042 57.374,29.768 C56.6179962,28.9279958 56.0300021,27.908006 55.61,26.708 C55.1899979,25.507994 54.98,24.1760073 54.98,22.712 C54.98,21.2479927 55.1899979,19.916006 55.61,18.716 C56.0300021,17.515994 56.6179962,16.4900043 57.374,15.638 C58.1300038,14.7859957 59.0239948,14.1260023 60.056,13.658 C61.0880052,13.1899977 62.2279938,12.956 63.476,12.956 C64.7240062,12.956 65.8639948,13.1899977 66.896,13.658 C67.9280052,14.1260023 68.8219962,14.7859957 69.578,15.638 C70.3340038,16.4900043 70.9219979,17.515994 71.342,18.716 C71.7620021,19.916006 71.972,21.2479927 71.972,22.712 Z M69.488,22.712 C69.488,20.3839884 68.9480054,18.5300069 67.868,17.15 C66.7879946,15.7699931 65.3240092,15.08 63.476,15.08 C61.6279908,15.08 60.1640054,15.7699931 59.084,17.15 C58.0039946,18.5300069 57.464,20.3839884 57.464,22.712 C57.464,25.0400116 58.0039946,26.8879932 59.084,28.256 C60.1640054,29.6240068 61.6279908,30.308 63.476,30.308 C65.3240092,30.308 66.7879946,29.6240068 67.868,28.256 C68.9480054,26.8879932 69.488,25.0400116 69.488,22.712 Z M79.388,28.652 C79.6040011,28.8200008 79.8739984,28.999999 80.198,29.192 C80.5220016,29.384001 80.8999978,29.5639992 81.332,29.732 C81.7640022,29.9000008 82.2319975,30.0379995 82.736,30.146 C83.2400025,30.2540005 83.7679972,30.308 84.32,30.308 C85.4720058,30.308 86.4379961,30.110002 87.218,29.714 C87.9980039,29.317998 88.6279976,28.7780034 89.108,28.094 C89.5880024,27.4099966 89.9359989,26.6060046 90.152,25.682 C90.3680011,24.7579954 90.476,23.7800052 90.476,22.748 C90.476,20.2999878 89.8640061,18.4220065 88.64,17.114 C87.4159939,15.8059935 85.7960101,15.152 83.78,15.152 C82.6279942,15.152 81.6980035,15.2059995 80.99,15.314 C80.2819965,15.4220005 79.7480018,15.5359994 79.388,15.656 L79.388,28.652 Z M79.388,38.66 L77.048,38.66 L77.048,14.036 C77.7440035,13.7959988 78.6319946,13.5680011 79.712,13.352 C80.7920054,13.1359989 82.1599917,13.028 83.816,13.028 C85.1840068,13.028 86.4259944,13.2499978 87.542,13.694 C88.6580056,14.1380022 89.617996,14.7799958 90.422,15.62 C91.226004,16.4600042 91.8499978,17.479994 92.294,18.68 C92.7380022,19.880006 92.96,21.2359924 92.96,22.748 C92.96,24.1640071 92.7740019,25.4659941 92.402,26.654 C92.0299981,27.8420059 91.4840036,28.8619957 90.764,29.714 C90.0439964,30.5660043 89.1620052,31.2319976 88.118,31.712 C87.0739948,32.1920024 85.8800067,32.432 84.536,32.432 C83.3119939,32.432 82.2500045,32.2580017 81.35,31.91 C80.4499955,31.5619983 79.796002,31.2320016 79.388,30.92 L79.388,38.66 Z M96.92,22.676 C96.92,21.0439918 97.1539977,19.6220061 97.622,18.41 C98.0900023,17.1979939 98.7019962,16.1840041 99.458,15.368 C100.214004,14.5519959 101.077995,13.946002 102.05,13.55 C103.022005,13.153998 104.023995,12.956 105.056,12.956 C107.336011,12.956 109.153993,13.6999926 110.51,15.188 C111.866007,16.6760074 112.544,18.9679845 112.544,22.064 C112.544,22.256001 112.538,22.447999 112.526,22.64 C112.514,22.832001 112.496,23.0119992 112.472,23.18 L99.404,23.18 C99.4760004,25.4600114 100.039995,27.2119939 101.096,28.436 C102.152005,29.6600061 103.831988,30.272 106.136,30.272 C107.408006,30.272 108.415996,30.1520012 109.16,29.912 C109.904004,29.6719988 110.443998,29.4680008 110.78,29.3 L111.212,31.316 C110.875998,31.508001 110.246005,31.7359987 109.322,32 C108.397995,32.2640013 107.312006,32.396 106.064,32.396 C104.431992,32.396 103.040006,32.1560024 101.888,31.676 C100.735994,31.1959976 99.7880037,30.5240043 99.044,29.66 C98.2999963,28.7959957 97.7600017,27.7700059 97.424,26.582 C97.0879983,25.3939941 96.92,24.0920071 96.92,22.676 Z M110.132,21.2 C110.084,19.2559903 109.628004,17.7440054 108.764,16.664 C107.899996,15.5839946 106.676008,15.044 105.092,15.044 C104.251996,15.044 103.502003,15.2119983 102.842,15.548 C102.181997,15.8840017 101.606002,16.3339972 101.114,16.898 C100.621998,17.4620028 100.238001,18.1159963 99.962,18.86 C99.6859986,19.6040037 99.5240002,20.3839959 99.476,21.2 L110.132,21.2 Z M117.764,14.036 C118.460003,13.843999 119.395994,13.6280012 120.572,13.388 C121.748006,13.1479988 123.187991,13.028 124.892,13.028 C126.308007,13.028 127.489995,13.231998 128.438,13.64 C129.386005,14.048002 130.141997,14.6299962 130.706,15.386 C131.270003,16.1420038 131.671999,17.0479947 131.912,18.104 C132.152001,19.1600053 132.272,20.3239936 132.272,21.596 L132.272,32 L129.932,32 L129.932,22.352 C129.932,21.0319934 129.842001,19.9160046 129.662,19.004 C129.481999,18.0919954 129.182002,17.3480029 128.762,16.772 C128.341998,16.1959971 127.790003,15.7820013 127.106,15.53 C126.421997,15.2779987 125.564005,15.152 124.532,15.152 C123.427994,15.152 122.474004,15.2119994 121.67,15.332 C120.865996,15.4520006 120.344001,15.5599995 120.104,15.656 L120.104,32 L117.764,32 L117.764,14.036 Z M142.064,30.344 C143.408007,30.344 144.517996,30.1220022 145.394,29.678 C146.270004,29.2339978 146.708,28.4840053 146.708,27.428 C146.708,26.9239975 146.630001,26.4920018 146.474,26.132 C146.317999,25.7719982 146.060002,25.4480014 145.7,25.16 C145.339998,24.8719986 144.866003,24.5960013 144.278,24.332 C143.689997,24.0679987 142.964004,23.7560018 142.1,23.396 C141.403997,23.1079986 140.744003,22.8140015 140.12,22.514 C139.495997,22.2139985 138.944002,21.866002 138.464,21.47 C137.983998,21.073998 137.600001,20.6000028 137.312,20.048 C137.023999,19.4959972 136.88,18.824004 136.88,18.032 C136.88,16.5199924 137.449994,15.2960047 138.59,14.36 C139.730006,13.4239953 141.29599,12.956 143.288,12.956 C144.560006,12.956 145.609996,13.0639989 146.438,13.28 C147.266004,13.4960011 147.847998,13.6879992 148.184,13.856 L147.644,15.944 C147.355999,15.7999993 146.870003,15.6080012 146.186,15.368 C145.501997,15.1279988 144.500007,15.008 143.18,15.008 C142.651997,15.008 142.154002,15.0619995 141.686,15.17 C141.217998,15.2780005 140.804002,15.4459989 140.444,15.674 C140.083998,15.9020011 139.796001,16.1899983 139.58,16.538 C139.363999,16.8860017 139.256,17.3119975 139.256,17.816 C139.256,18.3200025 139.351999,18.7519982 139.544,19.112 C139.736001,19.4720018 140.017998,19.7899986 140.39,20.066 C140.762002,20.3420014 141.217997,20.5999988 141.758,20.84 C142.298003,21.0800012 142.915997,21.3439986 143.612,21.632 C144.332004,21.9200014 145.021997,22.2139985 145.682,22.514 C146.342003,22.8140015 146.923997,23.1739979 147.428,23.594 C147.932003,24.0140021 148.339998,24.5179971 148.652,25.106 C148.964002,25.6940029 149.12,26.4319956 149.12,27.32 C149.12,29.0000084 148.490006,30.2719957 147.23,31.136 C145.969994,32.0000043 144.248011,32.432 142.064,32.432 C140.431992,32.432 139.184004,32.2940014 138.32,32.018 C137.455996,31.7419986 136.880001,31.5320007 136.592,31.388 L137.204,29.264 C137.276,29.3120002 137.431999,29.3899995 137.672,29.498 C137.912001,29.6060005 138.235998,29.7259993 138.644,29.858 C139.052002,29.9900007 139.537997,30.1039995 140.102,30.2 C140.666003,30.2960005 141.319996,30.344 142.064,30.344 Z M155.852,13.388 L163.268,13.388 L163.268,15.368 L155.852,15.368 L155.852,25.268 C155.852,26.3240053 155.941999,27.1819967 156.122,27.842 C156.302001,28.5020033 156.559998,29.0119982 156.896,29.372 C157.232002,29.7320018 157.639998,29.9719994 158.12,30.092 C158.600002,30.2120006 159.127997,30.272 159.704,30.272 C160.688005,30.272 161.479997,30.1580011 162.08,29.93 C162.680003,29.7019989 163.147998,29.492001 163.484,29.3 L164.06,31.244 C163.723998,31.4600011 163.136004,31.7059986 162.296,31.982 C161.455996,32.2580014 160.544005,32.396 159.56,32.396 C158.407994,32.396 157.442004,32.2460015 156.662,31.946 C155.881996,31.6459985 155.258002,31.1900031 154.79,30.578 C154.321998,29.9659969 153.992001,29.2040046 153.8,28.292 C153.607999,27.3799954 153.512,26.3000062 153.512,25.052 L153.512,7.916 L155.852,7.484 L155.852,13.388 Z M173.456,30.308 C174.368005,30.308 175.165997,30.2780003 175.85,30.218 C176.534003,30.1579997 177.115998,30.0800005 177.596,29.984 L177.596,23.432 C177.331999,23.3119994 176.912003,23.1860007 176.336,23.054 C175.759997,22.9219993 174.968005,22.856 173.96,22.856 C173.383997,22.856 172.784003,22.8979996 172.16,22.982 C171.535997,23.0660004 170.960003,23.2459986 170.432,23.522 C169.903997,23.7980014 169.472002,24.1759976 169.136,24.656 C168.799998,25.1360024 168.632,25.771996 168.632,26.564 C168.632,27.2600035 168.745999,27.8479976 168.974,28.328 C169.202001,28.8080024 169.525998,29.1919986 169.946,29.48 C170.366002,29.7680014 170.869997,29.9779993 171.458,30.11 C172.046003,30.2420007 172.711996,30.308 173.456,30.308 Z M173.24,12.956 C174.464006,12.956 175.501996,13.1299983 176.354,13.478 C177.206004,13.8260017 177.895997,14.3059969 178.424,14.918 C178.952003,15.5300031 179.335999,16.2559958 179.576,17.096 C179.816001,17.9360042 179.936,18.8479951 179.936,19.832 L179.936,31.568 C179.695999,31.6400004 179.348002,31.7179996 178.892,31.802 C178.435998,31.8860004 177.908003,31.9759995 177.308,32.072 C176.707997,32.1680005 176.042004,32.2459997 175.31,32.306 C174.577996,32.3660003 173.828004,32.396 173.06,32.396 C172.075995,32.396 171.170004,32.2880011 170.342,32.072 C169.513996,31.8559989 168.794003,31.5140023 168.182,31.046 C167.569997,30.5779977 167.090002,29.9780037 166.742,29.246 C166.393998,28.5139963 166.22,27.6200053 166.22,26.564 C166.22,25.555995 166.411998,24.6920036 166.796,23.972 C167.180002,23.2519964 167.72,22.6580023 168.416,22.19 C169.112003,21.7219977 169.939995,21.3800011 170.9,21.164 C171.860005,20.9479989 172.903994,20.84 174.032,20.84 C174.368002,20.84 174.721998,20.8579998 175.094,20.894 C175.466002,20.9300002 175.825998,20.9779997 176.174,21.038 C176.522002,21.0980003 176.821999,21.1579997 177.074,21.218 C177.326001,21.2780003 177.5,21.3319998 177.596,21.38 L177.596,20.228 C177.596,19.5799968 177.548,18.9500031 177.452,18.338 C177.356,17.7259969 177.146002,17.1740025 176.822,16.682 C176.497998,16.1899975 176.042003,15.7940015 175.454,15.494 C174.865997,15.1939985 174.092005,15.044 173.132,15.044 C171.763993,15.044 170.744003,15.139999 170.072,15.332 C169.399997,15.524001 168.908002,15.6799994 168.596,15.8 L168.272,13.748 C168.680002,13.555999 169.309996,13.3760008 170.162,13.208 C171.014004,13.0399992 172.039994,12.956 173.24,12.956 Z M193.616,32.396 C192.175993,32.396 190.904006,32.1680023 189.8,31.712 C188.695994,31.2559977 187.778004,30.6020043 187.046,29.75 C186.313996,28.8979957 185.756002,27.8780059 185.372,26.69 C184.987998,25.5019941 184.796,24.1880072 184.796,22.748 C184.796,21.2839927 184.993998,19.952006 185.39,18.752 C185.786002,17.551994 186.355996,16.5200043 187.1,15.656 C187.844004,14.7919957 188.743995,14.1260023 189.8,13.658 C190.856005,13.1899977 192.043993,12.956 193.364,12.956 C194.372005,12.956 195.313996,13.0399992 196.19,13.208 C197.066004,13.3760008 197.743998,13.5919987 198.224,13.856 L197.612,15.872 C197.131998,15.6319988 196.592003,15.4400007 195.992,15.296 C195.391997,15.1519993 194.588005,15.08 193.58,15.08 C191.51599,15.08 189.950005,15.7459933 188.882,17.078 C187.813995,18.4100067 187.28,20.2999878 187.28,22.748 C187.28,23.8520055 187.399999,24.8659954 187.64,25.79 C187.880001,26.7140046 188.269997,27.5059967 188.81,28.166 C189.350003,28.8260033 190.045996,29.3419981 190.898,29.714 C191.750004,30.0860019 192.787994,30.272 194.012,30.272 C195.020005,30.272 195.865997,30.1580011 196.55,29.93 C197.234003,29.7019989 197.731998,29.5040008 198.044,29.336 L198.548,31.352 C198.115998,31.5920012 197.438005,31.8259989 196.514,32.054 C195.589995,32.2820011 194.624005,32.396 193.616,32.396 Z M207.44,21.884 C208.184004,22.3880025 208.981996,23.035996 209.834,23.828 C210.686004,24.620004 211.525996,25.4779954 212.354,26.402 C213.182004,27.3260046 213.961996,28.2739951 214.694,29.246 C215.426004,30.2180049 216.043997,31.1359957 216.548,32 L213.776,32 C213.199997,31.0399952 212.546004,30.0980046 211.814,29.174 C211.081996,28.2499954 210.314004,27.3800041 209.51,26.564 C208.705996,25.7479959 207.902004,25.0040034 207.098,24.332 C206.293996,23.6599966 205.532004,23.0960023 204.812,22.64 L204.812,32 L202.472,32 L202.472,4.496 L204.812,4.064 L204.812,21.776 C205.412003,21.1999971 206.083996,20.5400037 206.828,19.796 C207.572004,19.0519963 208.321996,18.2960038 209.078,17.528 C209.834004,16.7599962 210.547997,16.0160036 211.22,15.296 C211.892003,14.5759964 212.467998,13.9400028 212.948,13.388 L215.756,13.388 C215.203997,13.9640029 214.580003,14.6119964 213.884,15.332 C213.187997,16.0520036 212.462004,16.8019961 211.706,17.582 C210.949996,18.3620039 210.200004,19.1239963 209.456,19.868 C208.711996,20.6120037 208.040003,21.283997 207.44,21.884 Z" id="openstack" fill="#FFFFFF" fill-rule="nonzero"></path>
            </g>
        </g>
    </g>
</svg>