<?xml version="1.0" encoding="UTF-8" standalone="no"?>
<svg xmlns="http://www.w3.org/2000/svg" height="40px" width="175px" version="1.1" xmlns:xlink="http://www.w3.org/1999/xlink" viewBox="0 0 175 40"><!-- Generator: Sketch 56 (81588) - https://sketch.com -->
 <title>ubuntu_black-orange_hex</title>
 <desc>Created with Sketch.</desc>
 <g id="Homepage" fill-rule="evenodd" fill="none">
  <g id="OVERVIEW-page" transform="translate(-170 -1832)">
   <g id="Group-18" transform="translate(144 1813)">
    <g id="ubuntu_black-orange_hex" transform="translate(26 19)">
     <g id="Group" fill="#fff">
      <path id="Path" d="m21.13 38.611c-1.066 0.27-2.473 0.556-4.222 0.859s-3.773 0.454-6.072 0.454c-1.9991 0-3.682-0.295-5.0479-0.883-1.3661-0.589-2.4655-1.422-3.2981-2.499-0.8331-1.078-1.4328-2.348-1.7993-3.812-0.36677-1.465-0.54946-3.087-0.54946-4.872v-14.742h4.6476v13.732c0 3.198 0.4997 5.487 1.4992 6.866 0.9994 1.38 2.6815 2.07 5.047 2.07 0.5 0 1.016-0.017 1.55-0.051 0.532-0.033 1.032-0.075 1.499-0.126 0.466-0.05 0.89-0.101 1.274-0.151 0.382-0.051 0.657-0.109 0.824-0.176v-22.164h4.648v25.495z"/>
      <path id="Shape" fill-rule="nonzero" d="m32.474 14.277c0.566-0.37 1.424-0.757 2.574-1.161 1.149-0.404 2.473-0.606 3.973-0.606 1.865 0 3.523 0.337 4.972 1.01s2.674 1.615 3.673 2.827c1 1.212 1.757 2.659 2.274 4.342 0.516 1.683 0.775 3.534 0.775 5.553 0 2.121-0.309 4.031-0.925 5.731-0.617 1.7-1.492 3.138-2.624 4.316-1.133 1.178-2.498 2.088-4.098 2.726-1.599 0.639-3.398 0.959-5.397 0.959-2.166 0-4.081-0.151-5.747-0.454-1.667-0.302-3.032-0.605-4.098-0.908v-37.613l4.648-0.80765v14.086zm0 21.002c0.466 0.135 1.124 0.261 1.974 0.379 0.849 0.118 1.907 0.176 3.173 0.176 2.499 0 4.498-0.833 5.997-2.499s2.249-4.03 2.249-7.093c0-1.345-0.133-2.607-0.4-3.787-0.267-1.177-0.699-2.195-1.299-3.054-0.6-0.858-1.375-1.531-2.324-2.02-0.949-0.487-2.091-0.731-3.423-0.731-1.267 0-2.432 0.219-3.498 0.656-1.067 0.438-1.883 0.892-2.449 1.363v16.61z"/>
      <path id="Path" d="m76.651 38.611c-1.067 0.27-2.474 0.556-4.223 0.859-1.75 0.303-3.773 0.454-6.072 0.454-2 0-3.682-0.295-5.048-0.883-1.366-0.589-2.466-1.422-3.298-2.499-0.833-1.078-1.433-2.348-1.799-3.812-0.367-1.465-0.55-3.087-0.55-4.872v-14.742h4.648v13.732c0 3.198 0.499 5.487 1.499 6.866 1 1.38 2.681 2.07 5.048 2.07 0.499 0 1.015-0.017 1.548-0.051 0.533-0.033 1.033-0.075 1.5-0.126 0.466-0.05 0.891-0.101 1.274-0.151 0.383-0.051 0.658-0.109 0.825-0.176v-22.164h4.647v25.495h0.001z"/>
      <path id="Path" d="m83.346 13.873c1.066-0.269 2.481-0.555 4.248-0.858 1.766-0.303 3.799-0.455 6.097-0.455 2.066 0 3.781 0.296 5.147 0.884 1.362 0.589 2.452 1.413 3.272 2.474 0.82 1.06 1.39 2.331 1.73 3.812 0.33 1.481 0.5 3.113 0.5 4.897v14.741h-4.652v-13.732c0-1.615-0.109-2.995-0.325-4.14-0.217-1.143-0.574-2.069-1.074-2.776-0.501-0.707-1.167-1.22-1.999-1.54-0.834-0.32-1.867-0.48-3.099-0.48-0.499 0-1.017 0.018-1.549 0.051-0.533 0.034-1.041 0.076-1.524 0.126-0.484 0.051-0.917 0.11-1.3 0.177-0.383 0.068-0.658 0.118-0.824 0.151v22.163h-4.647v-25.495h-0.001z"/>
      <path id="Path" d="m115.08 13.116h9.84v3.938h-9.84v12.116c0 1.313 0.1 2.398 0.3 3.256 0.2 0.86 0.5 1.533 0.9 2.02 0.4 0.489 0.9 0.834 1.5 1.035 0.6 0.202 1.3 0.304 2.1 0.304 1.43 0 2.56-0.16 3.4-0.48 0.83-0.32 1.39-0.547 1.69-0.682l1 3.838c-0.46 0.235-1.29 0.538-2.47 0.907-1.18 0.37-2.52 0.556-4.02 0.556-1.77 0-3.23-0.227-4.38-0.681-1.15-0.455-2.07-1.136-2.77-2.045s-1.19-2.028-1.47-3.357c-0.29-1.33-0.43-2.87-0.43-4.62v-23.426l4.65-0.8069v8.1279z"/>
      <path id="Path" d="m150.21 38.611c-1.07 0.27-2.47 0.556-4.22 0.859s-3.77 0.454-6.07 0.454c-2 0-3.69-0.295-5.05-0.883-1.37-0.589-2.47-1.422-3.3-2.499-0.83-1.078-1.43-2.348-1.8-3.812-0.37-1.465-0.55-3.087-0.55-4.872v-14.742h4.65v13.732c0 3.198 0.5 5.487 1.5 6.866 1 1.38 2.68 2.07 5.05 2.07 0.5 0 1.01-0.017 1.55-0.051 0.53-0.033 1.03-0.075 1.49-0.126 0.47-0.05 0.89-0.101 1.28-0.151 0.38-0.051 0.66-0.109 0.82-0.176v-22.164h4.65v25.495z"/>
     </g>
     <g id="Group" transform="translate(154.08)">
      <ellipse id="Oval" rx="10.422" ry="10.574" cy="10.763" cx="10.488" fill="#fff"/>
      <path id="Shape" fill-rule="nonzero" fill="#772953" d="m5.0799 10.763c0 0.751-0.5999 1.36-1.3405 1.36-0.7397 0-1.3396-0.609-1.3396-1.36s0.5999-1.3592 1.3396-1.3592c0.7404 0 1.3405 0.6082 1.3405 1.3592zm7.6231 6.611c0.37 0.65 1.189 0.872 1.83 0.497s0.861-1.207 0.491-1.857-1.19-0.872-1.83-0.497c-0.641 0.375-0.861 1.207-0.491 1.857zm2.321-11.862c0.37-0.6502 0.15-1.4817-0.491-1.8566-0.64-0.3754-1.46-0.1526-1.83 0.4974-0.37 0.6502-0.15 1.4816 0.491 1.8568 0.64 0.3758 1.46 0.1528 1.83-0.4976zm-4.535 1.3739c1.996 0 3.635 1.5528 3.806 3.5337l1.939-0.031c-0.092-1.4721-0.721-2.7956-1.691-3.7717-0.513 0.2011-1.109 0.1738-1.623-0.1274s-0.835-0.8112-0.92-1.3636c-0.482-0.1328-0.989-0.2039-1.511-0.2039-0.9173 0-1.7842 0.2176-2.5538 0.6047l0.9437 1.7191c0.4888-0.2305 1.0349-0.3599 1.6101-0.3599zm-3.8216 3.8767c0-1.3114 0.6422-2.4709 1.6247-3.1724l-0.9956-1.6884c-1.1534 0.7813-2.0124 1.9735-2.3748 3.3707 0.4288 0.3506 0.7038 0.8881 0.7038 1.4901 0 0.603-0.2747 1.14-0.7038 1.491 0.3624 1.397 1.2214 2.589 2.3748 3.371l0.9956-1.689c-0.9825-0.701-1.6247-1.861-1.6247-3.173zm3.8216 3.878c-0.5752 0-1.1213-0.13-1.6104-0.361l-0.9436 1.72c0.7698 0.387 1.6364 0.604 2.553 0.604 0.523 0 1.03-0.071 1.512-0.203 0.085-0.553 0.406-1.063 0.92-1.364s1.109-0.328 1.623-0.127c0.969-0.977 1.599-2.3 1.691-3.772l-1.94-0.031c-0.17 1.981-1.809 3.534-3.805 3.534z"/>
     </g>
    </g>
   </g>
  </g>
 </g>
</svg>
