<?xml version="1.0" encoding="UTF-8" standalone="no"?>
<svg xmlns="http://www.w3.org/2000/svg" height="22px" width="22px" version="1.1" xmlns:xlink="http://www.w3.org/1999/xlink" viewBox="0 0 22 22"><!-- Generator: Sketch 56 (81588) - https://sketch.com -->
 <title>Group 11</title>
 <desc>Created with Sketch.</desc>
 <g id="Homepage" fill-rule="evenodd" fill="none">
  <g id="OVERVIEW-page" transform="translate(-170 -2632)">
   <g id="Group-26" transform="translate(144 2608)">
    <g id="Group-31">
     <g id="Group-11" transform="translate(26 24)">
      <g id="Group-30">
       <g id="picto-ubuntu" fill-rule="nonzero">
        <g id="Group-38">
         <path id="Shape" fill="#2C001E" d="m22 11c0 6.072-4.922 11-11 11-6.0775 0-11-4.928-11-11 0-6.0775 4.9225-11 11-11 6.078 0 11 4.9225 11 11z"/>
         <path id="Shape" fill="#fff" d="m11 15.704c-2.5979 0-4.7039-2.106-4.7039-4.704 0-2.5982 2.106-4.7039 4.7039-4.7039 2.598 0 4.704 2.1057 4.704 4.7039 0 2.598-2.106 4.704-4.704 4.704z"/>
         <path id="Shape" fill="#fff" d="m18.526 11c0 4.157-3.369 7.526-7.526 7.526-4.1569 0-7.5263-3.369-7.5263-7.526 0-4.1567 3.3694-7.5263 7.5263-7.5263 4.157-0.0002 7.526 3.3695 7.526 7.5263zm-7.526-5.6956c-3.146 0-5.6956 2.5501-5.6956 5.6956 0 3.146 2.5496 5.695 5.6956 5.695s5.695-2.549 5.695-5.695c0-3.1456-2.549-5.6956-5.695-5.6956z"/>
        </g>
       </g>
      </g>
     </g>
    </g>
   </g>
  </g>
 </g>
</svg>
