<?xml version="1.0" encoding="UTF-8" standalone="no"?>
<svg xmlns="http://www.w3.org/2000/svg" height="22px" width="22px" version="1.1" xmlns:xlink="http://www.w3.org/1999/xlink" viewBox="0 0 22 22"><!-- Generator: Sketch 56 (81588) - https://sketch.com -->
 <title>Group 11</title>
 <desc>Created with Sketch.</desc>
 <defs>
  <polygon id="path-1" points="0 0.000028351 21.943 0.000028351 21.943 21.943 0 21.943"/>
  <polygon id="path-3" points="0 0 21.948 0 21.948 21.943 0 21.943"/>
 </defs>
 <g id="Homepage" fill-rule="evenodd" fill="none">
  <g id="OVERVIEW-page" transform="translate(-367 -2632)">
   <g id="Group-26" transform="translate(144 2608)">
    <g id="Group-31" transform="translate(197)">
     <g id="Group-11" transform="translate(26 24)">
      <g id="Group-30">
       <g id="picto-ubuntu">
        <g id="Group-10">
         <g id="Group-7">
          <g id="Group-3">
           <mask id="mask-2" fill="white">
            <use xlink:href="#path-1"/>
           </mask>
           <path id="Fill-1" fill="#fff" mask="url(#mask-2)" d="m21.943 10.972c0 6.059-4.912 10.971-10.971 10.971-6.0598 0-10.972-4.912-10.972-10.971 0-6.0598 4.9122-10.972 10.972-10.972 6.059 0.000028351 10.971 4.9122 10.971 10.972"/>
          </g>
          <g id="Group-6">
           <mask id="mask-4" fill="white">
            <use xlink:href="#path-3"/>
           </mask>
           <path id="Fill-4" fill="#2C001E" mask="url(#mask-4)" d="m15.907 10.971h-4.321l-6.2272-4.1147 0.2582-0.622 4.69 0.9633 0.014-3.556 2.39 2.7724 3.884-4.2221 0.577 0.3425-1.888 5.5653 5.69-1.6449c-1.726-3.8029-5.559-6.4548-10.001-6.4548-6.0502 0-10.973 4.9232-10.973 10.975-0.0002268 3.3 1.4642 6.265 3.7774 8.278v-2.095c0-0.569 0.4605-1.029 1.0289-1.029 0.5681 0 1.0288 0.461 1.0288 1.029v3.511c0.224 0.119 0.453 0.231 0.6861 0.335v-3.846c0-0.569 0.4604-1.029 1.0285-1.029 0.5682 0 1.0286 0.461 1.0286 1.029v4.527c0.2262 0.051 0.4553 0.094 0.6861 0.131v-4.658c0-0.568 0.461-1.029 1.0296-1.029 0.568 0 1.028 0.461 1.028 1.029v4.775c0 0.004-0.001 0.007-0.001 0.01 0.231-0.007 0.46-0.021 0.687-0.043v-8.858c0-0.568 0.461-1.029 1.029-1.029s1.028 0.461 1.028 1.029v8.463c4.551-1.339 7.883-5.552 7.883-10.53 0-1.2655-0.216-2.4811-0.612-3.6129l-5.429 3.6089zm-2.89 1.553c0.285 0 0.515 0.23 0.515 0.514 0 0.285-0.23 0.515-0.515 0.515-0.283 0-0.514-0.23-0.514-0.515 0-0.284 0.231-0.514 0.514-0.514z"/>
          </g>
         </g>
        </g>
       </g>
      </g>
     </g>
    </g>
   </g>
  </g>
 </g>
</svg>
