<?xml version="1.0" encoding="UTF-8" standalone="no"?>
<svg xmlns="http://www.w3.org/2000/svg" height="22px" width="22px" version="1.1" xmlns:xlink="http://www.w3.org/1999/xlink" viewBox="0 0 22 22"><!-- Generator: Sketch 56 (81588) - https://sketch.com -->
 <title>Group 11</title>
 <desc>Created with Sketch.</desc>
 <g id="Homepage" fill-rule="evenodd" fill="none">
  <g id="OVERVIEW-page" transform="translate(-1152 -2632)">
   <g id="Group-26" transform="translate(144 2608)">
    <g id="Group-31" transform="translate(982)">
     <g id="Group-11" transform="translate(26 24)">
      <g id="Group-37" fill-rule="nonzero">
       <g id="picto-ubuntu" fill="#2C001E">
        <path id="Shape" d="m22 11c0 6.072-4.922 11-11 11-6.0775 0-11-4.928-11-11 0-6.0775 4.9225-11 11-11 6.078 0 11 4.9225 11 11z"/>
       </g>
       <path id="Path" fill="#fff" d="m18.205 12.297c-0.14 0-0.303 0.024-0.442 0.047l-1.999-4.0587c0.767-0.641 0.883-1.8278 0.255-2.6112-0.627-0.7833-1.79-0.902-2.557-0.2611s-0.884 1.8278-0.256 2.6111c0.07 0.095 0.14 0.1662 0.233 0.2374l-2 4.0595c-0.279-0.072-0.558-0.072-0.837 0l-1.976-4.0357c0.7673-0.641 0.8835-1.8278 0.2558-2.6112-0.6278-0.7833-1.7902-0.902-2.5574-0.2611-0.7673 0.6409-0.8835 1.8278-0.2558 2.6111 0.0698 0.095 0.1628 0.19 0.2558 0.2612l-2.0227 4.0587c-0.1395-0.047-0.3023-0.071-0.465-0.071-0.9997 0-1.8367 0.831-1.8367 1.852 0 1.02 0.8137 1.875 1.8134 1.875 0.9998 0 1.8367-0.831 1.8367-1.852 0-0.546-0.2325-1.068-0.651-1.424l2.0227-4.0827c0.1395 0.0238 0.3023 0.0475 0.4418 0.0475s0.279-0.0237 0.4185-0.0475l1.9761 4.0357c-0.7672 0.641-0.8834 1.828-0.2557 2.611 0.6275 0.783 1.7905 0.902 2.5575 0.261s0.883-1.828 0.256-2.611c-0.07-0.095-0.163-0.19-0.256-0.261l1.999-4.0594c0.14 0.0475 0.303 0.0475 0.442 0.0475 0.14 0 0.279-0.0238 0.419-0.0475l1.999 4.0354c-0.767 0.665-0.883 1.828-0.232 2.611 0.65 0.783 1.79 0.902 2.557 0.238 0.767-0.665 0.883-1.828 0.232-2.612-0.348-0.379-0.86-0.593-1.371-0.593z"/>
      </g>
     </g>
    </g>
   </g>
  </g>
 </g>
</svg>
