<?xml version="1.0" encoding="UTF-8" standalone="no"?>
<svg xmlns="http://www.w3.org/2000/svg" height="377px" width="380px" version="1.1" xmlns:xlink="http://www.w3.org/1999/xlink" viewBox="0 0 380 377"><!-- Generator: Sketch 55 (78076) - https://sketchapp.com -->
 <title>Group 92</title>
 <desc>Created with Sketch.</desc>
 <defs>
  <polygon id="path-1" points="0.13686 0.30334 74.552 0.30334 74.552 73.737 0.13686 73.737"/>
  <polygon id="path-3" points="0.15315 0.30334 74.568 0.30334 74.568 73.737 0.15315 73.737"/>
  <polygon id="path-5" points="0.13686 0.000444 74.552 0.000444 74.552 74 0.13686 74"/>
  <polygon id="path-7" points="0.64466 0.000444 75 0.000444 75 74 0.64466 74"/>
  <polygon id="path-9" points="0 0.2139 74 0.2139 74 73.648 0 73.648"/>
  <polygon id="path-11" points="3.3751e-13 0.061272 51.911 0.061272 51.911 50.162 3.3751e-13 50.162"/>
 </defs>
 <g id="Homepage" fill-rule="evenodd" fill="none">
  <g id="OVERVIEW-page" transform="translate(-871 -219)">
   <g id="Group-92" transform="translate(871 219)">
    <path id="Fill-1" fill="#772953" d="m343 217c-20.44 0-37 16.56-37 37 0 20.43 16.56 37 37 37 20.43 0 37-16.57 37-37 0-20.44-16.57-37-37-37"/>
    <path id="Fill-3" fill="#772953" d="m78 120c0 20.45-16.548 37-37 37s-37-16.55-37-37c0-20.452 16.548-37 37-37s37 16.548 37 37"/>
    <path id="Fill-5" fill="#fff" d="m50.805 103.3c2.357 1.41 5.304 0.54 6.679-1.8 1.374-2.409 0.522-5.419-1.769-6.824-2.357-1.404-5.302-0.535-6.678 1.805-1.373 2.408-0.588 5.419 1.768 6.819m-10.017 32.3c-2.159 0-4.19-0.46-6.023-1.33l-3.405 6.22c2.817 1.4 6.024 2.27 9.428 2.27 1.964 0 3.863-0.27 5.696-0.8 0.328-2.01 1.506-3.88 3.339-4.95 1.834-1.07 3.994-1.2 5.892-0.47 3.602-3.61 5.959-8.56 6.285-14.04l-6.939-0.14c-0.72 7.36-6.809 13.24-14.273 13.24m0-29.15c7.464 0 13.553 5.82 14.207 13.31l6.941-0.14c-0.328-5.48-2.685-10.43-6.285-14.04-1.834 0.73-3.994 0.6-5.892-0.47-1.835-1.07-3.013-2.94-3.341-4.95-1.833-0.534-3.73-0.803-5.695-0.803-3.405 0-6.546 0.803-9.427 2.273l3.403 6.22c1.899-0.94 3.93-1.4 6.089-1.4m-14.272 14.58c0-4.95 2.421-9.3 6.089-11.91l-3.602-6.08c-4.255 2.94-7.463 7.35-8.772 12.64 1.571 1.27 2.554 3.21 2.554 5.41 0 2.21-0.983 4.15-2.554 5.42 1.309 5.22 4.517 9.7 8.772 12.64l3.602-6.09c-3.732-2.74-6.089-7.09-6.089-12.03m24.289 17.65c-2.356 1.41-3.141 4.42-1.768 6.82 1.376 2.41 4.321 3.21 6.678 1.81s3.143-4.42 1.769-6.82c-1.375-2.34-4.388-3.15-6.679-1.81m-34.895-22.67c-2.685 0-4.91 2.21-4.91 5.02 0 2.74 2.161 5.01 4.91 5.01 2.685 0 4.91-2.21 4.91-5.01-0.066-2.75-2.225-5.02-4.91-5.02"/>
    <path id="Fill-7" fill="#772953" d="m339 84c-20.44 0-37 16.56-37 37 0 20.43 16.56 37 37 37 20.43 0 37-16.57 37-37 0-20.44-16.57-37-37-37"/>
    <path id="Fill-9" fill="#fff" d="m364 112c0 1-0.14 1.94-0.41 2.77-0.28 0.85-0.7 1.59-1.26 2.21-0.57 0.62-1.3 1.11-2.16 1.46-0.87 0.34-1.91 0.52-3.09 0.52s-2.22-0.18-3.07-0.52c-0.85-0.35-1.57-0.84-2.13-1.46s-0.98-1.37-1.25-2.21c-0.27-0.83-0.4-1.77-0.4-2.77v-8.54h3.36v8.24c0 0.77 0.09 1.43 0.25 1.97 0.17 0.55 0.41 0.99 0.72 1.32s0.68 0.58 1.1 0.74c0.43 0.17 0.91 0.25 1.44 0.25 0.54 0 1.02-0.08 1.45-0.25 0.43-0.16 0.8-0.41 1.11-0.74s0.56-0.77 0.72-1.32c0.17-0.54 0.26-1.2 0.26-1.97v-8.24h3.36v8.54zm-14.03-13.716c-0.17-0.538-0.41-0.983-0.72-1.316-0.31-0.337-0.68-0.587-1.11-0.745-0.43-0.163-0.92-0.242-1.45-0.242s-1.01 0.081-1.44 0.24c-0.42 0.16-0.79 0.411-1.1 0.747-0.31 0.332-0.55 0.777-0.71 1.314-0.17 0.547-0.26 1.205-0.26 1.978v19.56h-3.36v-19.862c0-0.999 0.13-1.933 0.4-2.772 0.27-0.842 0.69-1.583 1.25-2.209 0.56-0.622 1.28-1.112 2.13-1.459 0.86-0.342 1.89-0.518 3.07-0.518s2.21 0.176 3.08 0.52c0.87 0.346 1.6 0.836 2.16 1.459 0.56 0.626 0.99 1.366 1.26 2.207 0.28 0.839 0.42 1.773 0.42 2.773v2.691h-3.36v-2.39c0-0.768-0.09-1.431-0.26-1.975v-0.001zm-10.14 23.836c0-0.93 0.75-1.68 1.67-1.68s1.67 0.75 1.67 1.68c0 0.92-0.75 1.68-1.67 1.68-0.93 0-1.67-0.76-1.67-1.68zm3.35 10.99c0 1.01-0.14 1.95-0.42 2.78-0.27 0.84-0.69 1.58-1.26 2.21-0.56 0.62-1.29 1.11-2.16 1.45-0.86 0.35-1.91 0.52-3.08 0.52-1.19 0-2.21-0.17-3.06-0.52-0.86-0.34-1.58-0.83-2.14-1.45-0.56-0.63-0.98-1.37-1.25-2.21s-0.4-1.77-0.4-2.78v-8.53h3.36v8.24c0 0.76 0.09 1.43 0.26 1.97s0.41 0.98 0.72 1.32c0.31 0.33 0.68 0.58 1.09 0.74 0.43 0.16 0.91 0.25 1.44 0.25s1.02-0.09 1.45-0.25 0.8-0.41 1.11-0.74c0.31-0.34 0.56-0.78 0.73-1.32s0.25-1.21 0.25-1.97v-8.24h3.36v8.54-0.01zm-14.03-13.71c-0.17-0.54-0.41-0.98-0.72-1.32-0.31-0.33-0.68-0.58-1.11-0.74s-0.92-0.24-1.45-0.24-1.02 0.08-1.44 0.24-0.79 0.41-1.1 0.74c-0.3 0.34-0.55 0.78-0.71 1.32-0.18 0.55-0.26 1.21-0.26 1.98v19.56h-3.36v-19.87c0-1 0.13-1.93 0.4-2.77s0.69-1.58 1.25-2.21c0.56-0.62 1.28-1.11 2.13-1.45 0.85-0.35 1.89-0.52 3.07-0.52s2.22 0.17 3.08 0.52c0.87 0.34 1.6 0.83 2.16 1.45 0.56 0.63 0.99 1.37 1.26 2.21 0.28 0.84 0.42 1.77 0.42 2.77v2.7h-3.36v-2.4c0-0.76-0.09-1.43-0.26-1.97zm-7.29 25.11c-0.31 0.32-0.73 0.49-1.18 0.49s-0.87-0.17-1.18-0.5c-0.32-0.31-0.49-0.73-0.49-1.18s0.17-0.87 0.49-1.19c0.31-0.32 0.73-0.49 1.18-0.49s0.87 0.17 1.18 0.49c0.32 0.31 0.49 0.74 0.49 1.19s-0.17 0.87-0.49 1.19z"/>
    <g id="Group-13" transform="translate(216)">
     <mask id="mask-2" fill="white">
      <use xlink:href="#path-1"/>
     </mask>
     <path id="Fill-11" fill="#772953" mask="url(#mask-2)" d="m74.552 37.02c0 20.278-16.658 36.717-37.207 36.717-20.551 0-37.208-16.439-37.208-36.717-0.00014-20.278 16.658-36.717 37.208-36.717 20.547-0.00024 37.207 16.439 37.207 36.717"/>
    </g>
    <path id="Fill-14" fill="#fff" d="m250.21 51.003c-4.8 0.009-13.17 0.088-16.5 0.588-1.8 0.279-1.66 1.442-1.71 2.401v0.018c0.05 0.958-0.09 2.122 1.71 2.4 4.43 0.665 17.81 0.587 19.78 0.587h0.02c1.96 0 15.34 0.078 19.77-0.587 1.8-0.278 1.67-1.442 1.72-2.4-0.05-0.963 0.09-2.139-1.72-2.419-4.43-0.666-17.81-0.588-19.77-0.588-0.5-0.003-1.7-0.003-3.3-0.003v0.003z"/>
    <path id="Fill-16" fill="#fff" d="m250.21 18.003c-4.8 0.009-13.17 0.088-16.5 0.588-1.8 0.279-1.66 1.441-1.71 2.401v0.018c0.05 0.958-0.09 2.122 1.71 2.4 4.43 0.665 17.81 0.587 19.78 0.587h0.02c1.96 0 15.34 0.078 19.77-0.588 1.8-0.277 1.67-1.442 1.72-2.401-0.05-0.961 0.09-2.138-1.72-2.417-4.43-0.666-17.81-0.588-19.77-0.588-0.49 0-1.7-0.003-3.3 0z"/>
    <path id="Fill-18" fill="#fff" d="m250.21 40.006c-4.8 0.008-13.17 0.089-16.5 0.588-1.8 0.278-1.66 1.44-1.71 2.398v0.018c0.05 0.959-0.09 2.122 1.71 2.399 4.43 0.666 17.81 0.588 19.78 0.588h0.02c1.96 0 15.34 0.078 19.77-0.588 1.8-0.277 1.67-1.44 1.72-2.398-0.05-0.962 0.09-2.137-1.72-2.417-4.43-0.666-17.81-0.588-19.77-0.588-0.5-0.005-1.7-0.007-3.3-0.005v0.005z"/>
    <path id="Fill-20" fill="#fff" d="m250.21 29.004c-4.8 0.008-13.17 0.089-16.5 0.588-1.8 0.279-1.66 1.44-1.71 2.4v0.018c0.05 0.958-0.09 2.121 1.71 2.399 4.43 0.666 17.81 0.588 19.78 0.588h0.02c1.96 0 15.34 0.077 19.77-0.588 1.8-0.278 1.67-1.441 1.72-2.399-0.05-0.963 0.09-2.137-1.72-2.418-4.43-0.664-17.81-0.588-19.77-0.588-0.5-0.004-1.7-0.004-3.3-0.004v0.004z"/>
    <g id="Group-24" transform="translate(89)">
     <mask id="mask-4" fill="white">
      <use xlink:href="#path-3"/>
     </mask>
     <path id="Fill-22" fill="#772953" mask="url(#mask-4)" d="m37.361 0.30276c-20.54 0-37.208 16.446-37.208 36.717 0.00015 20.27 16.668 36.717 37.208 36.717 20.541 0 37.207-16.447 37.207-36.717 0-20.271-16.666-36.717-37.207-36.717"/>
    </g>
    <polygon id="Fill-25" points="127 51 137 45.323 137 34 127 39.676" fill="#fff"/>
    <polygon id="Fill-27" points="143.87 29.732 143.87 48.278 127 57.537 127 61 147 50.01 147 28" fill="#fff"/>
    <polygon id="Fill-29" points="126.48 27 116 32.984 126.48 39 137 32.984" fill="#fff"/>
    <polygon id="Fill-31" points="126.5 19.562 143.79 29 147 27.235 126.5 16 106 27.235 109.25 29" fill="#fff"/>
    <polygon id="Fill-33" points="109.17 29.762 106 28 106 50.01 126 61 126 57.537 109.17 48.278" fill="#fff"/>
    <polygon id="Fill-35" points="116 45.323 126 51 126 39.708 116 34" fill="#fff"/>
    <path id="Fill-37" fill="#888" d="m142.05 80.023c-0.14-0.37 0.02-0.814 0.41-0.962 0.37-0.163 0.82 0.014 0.97 0.385 0.17 0.385-0.01 0.814-0.39 0.977-0.1 0.03-0.19 0.059-0.3 0.059-0.28 0-0.57-0.177-0.69-0.459m2.92 6.856c-0.15-0.37 0.03-0.799 0.41-0.962 0.37-0.163 0.82 0.015 0.97 0.4 0.17 0.37-0.01 0.799-0.39 0.962-0.09 0.045-0.19 0.059-0.3 0.059-0.28 0-0.55-0.162-0.69-0.459m2.94 6.871c-0.17-0.385 0.01-0.814 0.39-0.977 0.39-0.148 0.82 0.015 0.99 0.4 0.16 0.37-0.03 0.814-0.41 0.962-0.09 0.045-0.19 0.06-0.28 0.06-0.3 0-0.57-0.163-0.69-0.445m2.92 6.86c-0.17-0.37 0.01-0.818 0.39-0.966 0.39-0.163 0.82 0.015 0.99 0.386 0.16 0.38-0.02 0.81-0.41 0.98-0.09 0.03-0.19 0.06-0.28 0.06-0.3 0-0.57-0.18-0.69-0.46m2.92 6.85c-0.17-0.37 0.01-0.81 0.4-0.96 0.38-0.16 0.81 0.02 0.98 0.39 0.16 0.38-0.02 0.81-0.41 0.97-0.09 0.05-0.19 0.06-0.28 0.06-0.3 0-0.57-0.18-0.69-0.46m2.92 6.86c-0.17-0.37 0.01-0.8 0.4-0.96 0.38-0.17 0.83 0.01 0.97 0.4 0.17 0.37-0.01 0.8-0.38 0.96-0.11 0.04-0.2 0.06-0.3 0.06-0.29 0-0.57-0.16-0.69-0.46m64.29 150.92c-0.17-0.37 0.01-0.81 0.39-0.96 0.39-0.16 0.82 0.02 0.99 0.39 0.15 0.38-0.02 0.81-0.41 0.97-0.09 0.03-0.19 0.06-0.28 0.06-0.3 0-0.57-0.17-0.69-0.46m2.92 6.86c-0.17-0.37 0.01-0.81 0.4-0.96 0.38-0.16 0.81 0.01 0.97 0.4 0.17 0.37-0.01 0.8-0.4 0.96-0.09 0.05-0.19 0.06-0.29 0.06-0.29 0-0.56-0.16-0.68-0.46m2.92 6.87c-0.17-0.38 0.01-0.81 0.4-0.98 0.38-0.16 0.82 0.02 0.97 0.4 0.17 0.37-0.01 0.82-0.4 0.97-0.09 0.04-0.19 0.06-0.28 0.06-0.31 0-0.57-0.17-0.69-0.45m2.92 6.86c-0.17-0.39 0.01-0.82 0.4-0.98 0.38-0.15 0.82 0.03 0.97 0.4 0.17 0.37-0.01 0.82-0.39 0.96-0.1 0.05-0.19 0.06-0.29 0.06-0.29 0-0.57-0.16-0.69-0.44m2.92 6.85c-0.16-0.37 0.01-0.81 0.4-0.96 0.37-0.16 0.82 0.02 0.97 0.39 0.17 0.38-0.01 0.81-0.39 0.97-0.1 0.03-0.19 0.06-0.3 0.06-0.28 0-0.56-0.17-0.68-0.46m2.93 6.86c-0.16-0.37 0.02-0.8 0.39-0.96 0.39-0.16 0.82 0.01 0.99 0.4 0.15 0.37-0.03 0.8-0.41 0.96-0.09 0.05-0.19 0.06-0.28 0.06-0.3 0-0.57-0.16-0.69-0.46"/>
    <path id="Fill-39" fill="#888" d="m235.96 80.423c-0.38-0.163-0.55-0.592-0.41-0.977 0.17-0.371 0.6-0.548 0.99-0.385 0.38 0.148 0.56 0.592 0.41 0.962-0.12 0.282-0.41 0.459-0.69 0.459-0.11 0-0.21-0.029-0.3-0.059m-2.92 6.856c-0.39-0.163-0.55-0.592-0.4-0.962 0.16-0.385 0.59-0.563 0.98-0.4 0.38 0.163 0.56 0.592 0.39 0.962-0.12 0.297-0.39 0.459-0.69 0.459-0.09 0-0.19-0.014-0.28-0.059m-2.92 6.856c-0.39-0.148-0.57-0.592-0.4-0.962 0.16-0.385 0.59-0.548 0.98-0.4 0.38 0.163 0.56 0.592 0.39 0.977-0.12 0.282-0.39 0.445-0.69 0.445-0.09 0-0.19-0.015-0.28-0.06m-2.92 6.875c-0.39-0.17-0.57-0.6-0.4-0.98 0.16-0.371 0.6-0.549 0.97-0.386 0.39 0.148 0.57 0.596 0.4 0.966-0.12 0.28-0.39 0.46-0.69 0.46-0.1 0-0.19-0.03-0.28-0.06m-2.92 6.85c-0.39-0.16-0.57-0.59-0.4-0.97 0.16-0.37 0.6-0.55 0.97-0.39 0.39 0.15 0.57 0.59 0.41 0.96-0.12 0.28-0.41 0.46-0.69 0.46-0.11 0-0.2-0.01-0.29-0.06m-2.93 6.86c-0.38-0.16-0.56-0.59-0.39-0.96 0.15-0.39 0.6-0.57 0.97-0.4 0.39 0.16 0.55 0.59 0.4 0.96-0.12 0.3-0.4 0.46-0.68 0.46-0.11 0-0.2-0.02-0.3-0.06m-64.28 150.92c-0.39-0.16-0.57-0.59-0.4-0.97 0.16-0.37 0.6-0.55 0.99-0.39 0.37 0.15 0.55 0.59 0.38 0.96-0.11 0.29-0.38 0.46-0.68 0.46-0.09 0-0.2-0.03-0.29-0.06m-2.92 6.86c-0.39-0.16-0.57-0.59-0.4-0.96 0.16-0.39 0.6-0.56 0.97-0.4 0.39 0.15 0.57 0.59 0.41 0.96-0.12 0.3-0.41 0.46-0.69 0.46-0.09 0-0.2-0.01-0.29-0.06m-2.93 6.86c-0.38-0.15-0.56-0.6-0.39-0.97 0.15-0.38 0.6-0.56 0.97-0.4 0.39 0.17 0.57 0.6 0.41 0.98-0.12 0.28-0.41 0.45-0.69 0.45-0.11 0-0.2-0.02-0.3-0.06m-2.92 6.85c-0.38-0.14-0.56-0.59-0.39-0.96 0.15-0.37 0.6-0.55 0.97-0.4 0.38 0.16 0.57 0.59 0.41 0.98-0.12 0.28-0.41 0.44-0.69 0.44-0.11 0-0.2-0.01-0.3-0.06m-2.92 6.87c-0.38-0.16-0.56-0.59-0.41-0.97 0.17-0.37 0.6-0.55 0.99-0.39 0.38 0.15 0.56 0.59 0.39 0.96-0.1 0.29-0.39 0.46-0.67 0.46-0.11 0-0.2-0.03-0.3-0.06m-2.92 6.86c-0.39-0.16-0.55-0.59-0.41-0.96 0.17-0.39 0.6-0.56 0.99-0.4 0.38 0.16 0.56 0.59 0.41 0.96-0.14 0.3-0.41 0.46-0.71 0.46-0.09 0-0.19-0.01-0.28-0.06"/>
    <path id="Fill-41" fill="#888" d="m298.57 143.04c-0.16-0.39 0.02-0.82 0.4-0.98s0.82 0.03 0.97 0.4c0.16 0.37-0.02 0.81-0.4 0.96-0.09 0.05-0.19 0.06-0.28 0.06-0.3 0-0.57-0.16-0.69-0.44m-6.89 2.88c-0.16-0.37 0.02-0.81 0.39-0.97 0.39-0.15 0.82 0.03 0.98 0.4 0.17 0.38-0.01 0.81-0.4 0.97-0.09 0.03-0.19 0.06-0.28 0.06-0.3 0-0.57-0.17-0.69-0.46m-6.88 2.89c-0.17-0.37 0.01-0.81 0.38-0.96 0.39-0.16 0.82 0.01 0.98 0.39 0.15 0.38-0.02 0.81-0.4 0.97-0.09 0.05-0.19 0.06-0.28 0.06-0.3 0-0.58-0.18-0.68-0.46m-6.9 2.89c-0.15-0.37 0.01-0.81 0.4-0.96 0.37-0.16 0.81 0.01 0.96 0.38 0.17 0.39-0.01 0.82-0.38 0.98-0.11 0.05-0.2 0.06-0.3 0.06-0.28 0-0.57-0.18-0.68-0.46m-6.89 2.89c-0.17-0.37 0.01-0.8 0.4-0.96 0.37-0.17 0.8 0.01 0.97 0.4 0.16 0.37-0.02 0.8-0.41 0.96-0.08 0.04-0.17 0.06-0.28 0.06-0.28 0-0.56-0.18-0.68-0.46m-6.89 2.9c-0.16-0.38 0.02-0.81 0.39-0.97 0.38-0.17 0.81 0.01 0.98 0.4 0.15 0.37-0.02 0.81-0.4 0.96-0.09 0.04-0.2 0.06-0.29 0.06-0.29 0-0.56-0.17-0.68-0.45m-151.61 63.59c-0.16-0.37 0.02-0.81 0.4-0.96 0.38-0.16 0.81 0.02 0.97 0.39 0.16 0.38-0.01 0.81-0.4 0.97-0.09 0.03-0.18 0.06-0.28 0.06-0.29 0-0.57-0.17-0.69-0.46m-6.89 2.89c-0.16-0.37 0.02-0.81 0.39-0.96 0.39-0.16 0.82 0.01 0.98 0.4 0.17 0.37-0.01 0.8-0.4 0.96-0.09 0.05-0.19 0.06-0.28 0.06-0.3 0-0.57-0.18-0.69-0.46m-6.897 2.89c-0.149-0.37 0.029-0.8 0.401-0.96 0.372-0.17 0.818 0.01 0.986 0.4 0.14 0.37-0.02 0.8-0.406 0.96-0.089 0.04-0.193 0.06-0.297 0.06-0.283 0-0.551-0.16-0.684-0.46m-6.888 2.9c-0.148-0.38 0.015-0.81 0.402-0.97 0.372-0.15 0.818 0.01 0.982 0.4 0.148 0.37-0.03 0.81-0.402 0.96-0.104 0.04-0.193 0.06-0.297 0.06-0.283 0-0.566-0.16-0.685-0.45m-6.887 2.89c-0.164-0.38 0.015-0.81 0.402-0.98 0.372-0.14 0.818 0.03 0.967 0.4 0.163 0.37-0.015 0.82-0.402 0.97-0.089 0.04-0.178 0.06-0.283 0.06-0.282 0-0.565-0.17-0.684-0.45m-6.887 2.89c-0.164-0.37 0.015-0.81 0.387-0.96 0.386-0.16 0.818 0.01 0.981 0.38 0.164 0.39-0.014 0.82-0.401 0.98-0.089 0.03-0.194 0.06-0.283 0.06-0.297 0-0.565-0.18-0.684-0.46"/>
    <path id="Fill-43" fill="#888" d="m78.448 143.42c-0.372-0.15-0.551-0.6-0.387-0.97s0.595-0.55 0.967-0.4c0.387 0.17 0.565 0.59 0.401 0.98-0.119 0.28-0.401 0.44-0.684 0.44-0.104 0-0.193-0.01-0.297-0.05m6.902 2.9c-0.387-0.16-0.566-0.59-0.402-0.98 0.164-0.37 0.595-0.55 0.967-0.4 0.387 0.16 0.565 0.61 0.402 0.98-0.119 0.28-0.387 0.46-0.685 0.46-0.089 0-0.193-0.03-0.282-0.06m6.887 2.89c-0.387-0.16-0.55-0.59-0.402-0.98 0.164-0.37 0.595-0.55 0.982-0.38 0.372 0.14 0.55 0.59 0.402 0.96-0.134 0.28-0.402 0.46-0.699 0.46-0.09 0-0.194-0.03-0.283-0.06m6.887 2.89c-0.372-0.17-0.55-0.6-0.401-0.98 0.163-0.37 0.595-0.55 0.981-0.39 0.386 0.15 0.546 0.6 0.406 0.97-0.123 0.28-0.406 0.46-0.703 0.46-0.089 0-0.194-0.02-0.283-0.06m6.886 2.89c-0.37-0.17-0.55-0.6-0.39-0.97 0.15-0.38 0.6-0.56 0.97-0.4 0.39 0.17 0.57 0.6 0.4 0.97-0.12 0.28-0.4 0.46-0.68 0.46-0.11 0-0.19-0.02-0.3-0.06m6.9 2.89c-0.38-0.15-0.56-0.6-0.4-0.97 0.17-0.38 0.6-0.56 0.97-0.4 0.39 0.17 0.56 0.6 0.4 0.98-0.12 0.28-0.39 0.44-0.68 0.44-0.09 0-0.2-0.01-0.29-0.05m151.6 63.62c-0.37-0.17-0.55-0.6-0.39-0.98 0.15-0.37 0.59-0.55 0.97-0.39 0.38 0.15 0.56 0.59 0.4 0.97-0.12 0.28-0.4 0.45-0.69 0.45-0.1 0-0.19-0.03-0.29-0.05m6.9 2.88c-0.39-0.16-0.57-0.59-0.4-0.96 0.16-0.38 0.59-0.56 0.96-0.4 0.39 0.15 0.57 0.59 0.41 0.96-0.12 0.29-0.39 0.46-0.69 0.46-0.09 0-0.19-0.01-0.28-0.06m6.89 2.89c-0.39-0.16-0.55-0.59-0.4-0.96 0.16-0.38 0.59-0.56 0.98-0.4 0.37 0.16 0.55 0.59 0.38 0.96-0.12 0.3-0.38 0.46-0.68 0.46-0.09 0-0.19-0.01-0.28-0.06m6.88 2.89c-0.37-0.15-0.55-0.59-0.38-0.96 0.15-0.39 0.59-0.56 0.96-0.4 0.38 0.16 0.55 0.59 0.4 0.98-0.11 0.28-0.4 0.44-0.68 0.44-0.1 0-0.21-0.01-0.3-0.06m6.89 2.89c-0.37-0.15-0.55-0.59-0.39-0.96 0.15-0.37 0.6-0.55 0.97-0.4 0.39 0.16 0.57 0.59 0.4 0.98-0.12 0.28-0.4 0.44-0.68 0.44-0.11 0-0.2-0.01-0.3-0.06m6.9 2.9c-0.38-0.16-0.56-0.6-0.4-0.97s0.6-0.55 0.97-0.39c0.38 0.15 0.56 0.6 0.4 0.97-0.12 0.28-0.39 0.44-0.68 0.44-0.09 0-0.2-0.01-0.29-0.05"/>
    <polygon id="Fill-45" points="348 258 322 232 348 241.45" fill="#fff"/>
    <polygon id="Fill-47" points="330 277 348 259.35 342.51 254" fill="#fff"/>
    <polygon id="Fill-49" points="349 259 361 247.23 349 242" fill="#fff"/>
    <polygon id="Fill-51" points="364.56 241 349 241 369 250" fill="#fff"/>
    <g id="Group-55" transform="translate(216 303)">
     <mask id="mask-6" fill="white">
      <use xlink:href="#path-5"/>
     </mask>
     <path id="Fill-53" fill="#772953" mask="url(#mask-6)" d="m37.345 0.000444c-20.551 0-37.208 16.563-37.208 36.997-0.00014 20.435 16.657 37.003 37.208 37.003 20.549 0 37.207-16.568 37.207-37.003 0-20.434-16.658-36.997-37.207-36.997"/>
    </g>
    <g id="Group-58" transform="translate(89 303)">
     <mask id="mask-8" fill="white">
      <use xlink:href="#path-7"/>
     </mask>
     <path id="Fill-56" fill="#772953" mask="url(#mask-8)" d="m37.822 0.000444c-20.532 0-37.177 16.563-37.177 36.997-0.00034 20.435 16.645 37.003 37.177 37.003 20.533 0 37.178-16.568 37.178-37.003 0-20.434-16.645-36.997-37.178-36.997"/>
    </g>
    <path id="Fill-59" fill="#fff" d="m107 348v9.33c0 1.48 1.19 2.67 2.67 2.67h34.66c1.48 0 2.67-1.19 2.67-2.67v-9.33h-8v2.67c0 0.73-0.59 1.33-1.33 1.33h-21.34c-0.74 0-1.33-0.6-1.33-1.33v-2.67h-8zm32-2.67h8v-10.66h-8v10.66zm-32 0h8v-10.66h-8v10.66zm2.67-25.33c-1.48 0-2.67 1.19-2.67 2.67v9.33h8v-2.67c0-0.73 0.59-1.33 1.33-1.33h21.34c0.73 0 1.33 0.6 1.33 1.33v2.67h8v-9.33c0-1.48-1.19-2.67-2.67-2.67h-34.66z"/>
    <path id="Fill-61" fill="#888" d="m190.3 112.23c-0.15 0-0.28-0.03-0.4-0.07-0.13 0.04-0.27 0.07-0.4 0.07-0.62 0-1.12-0.5-1.12-1.11 0-0.63 0.5-1.12 1.12-1.12 0.13 0 0.28 0.03 0.4 0.07 0.14-0.04 0.27-0.07 0.42-0.07h0.01c0.61 0 1.1 0.51 1.1 1.13-0.01 0.61-0.5 1.1-1.11 1.1h-0.02zm-9.86-0.61c-0.07-0.61 0.39-1.16 1-1.22s1.16 0.39 1.22 1-0.39 1.16-1 1.22c-0.04 0.01-0.07 0.01-0.12 0.01-0.56 0-1.04-0.43-1.1-1.01zm17.69 1.09c-0.61-0.06-1.06-0.63-0.99-1.24 0.06-0.61 0.63-1.05 1.24-0.98 0.61 0.08 1.06 0.63 0.98 1.24-0.06 0.56-0.55 0.99-1.1 0.99-0.04 0-0.09-0.01-0.13-0.01zm-25.54 0.24c-0.12-0.6 0.27-1.19 0.86-1.31 0.61-0.14 1.21 0.25 1.33 0.86 0.13 0.61-0.27 1.19-0.87 1.32-0.07 0.02-0.15 0.02-0.22 0.02-0.52 0-0.98-0.36-1.1-0.89zm33.27 1.04c-0.59-0.14-0.98-0.73-0.85-1.33 0.13-0.61 0.73-0.98 1.33-0.86 0.6 0.13 0.98 0.73 0.84 1.34-0.1 0.52-0.56 0.88-1.08 0.88-0.08 0-0.15-0.02-0.24-0.03zm-40.93 1.1c-0.19-0.6 0.13-1.22 0.71-1.42 0.6-0.17 1.22 0.15 1.42 0.73 0.18 0.6-0.15 1.22-0.73 1.4-0.12 0.05-0.23 0.06-0.34 0.06-0.48 0-0.91-0.3-1.06-0.77zm48.5 0.97c-0.6-0.2-0.91-0.82-0.71-1.42 0.19-0.58 0.83-0.89 1.41-0.7 0.58 0.2 0.89 0.82 0.7 1.4-0.15 0.48-0.58 0.77-1.06 0.77-0.12 0-0.22-0.01-0.34-0.05zm-55.91 1.94c-0.25-0.58 0-1.23 0.57-1.47 0.56-0.25 1.22 0 1.47 0.58 0.25 0.55-0.01 1.21-0.58 1.46-0.15 0.06-0.3 0.09-0.45 0.09-0.43 0-0.83-0.24-1.01-0.66zm63.21 0.9c-0.55-0.26-0.8-0.91-0.55-1.48 0.26-0.56 0.91-0.81 1.48-0.56 0.56 0.25 0.8 0.92 0.55 1.49-0.18 0.4-0.6 0.65-1.02 0.65-0.14 0-0.31-0.03-0.46-0.1zm-70.29 2.76c-0.29-0.53-0.12-1.22 0.43-1.53 0.54-0.3 1.21-0.1 1.52 0.43 0.3 0.54 0.12 1.21-0.41 1.52-0.18 0.1-0.38 0.15-0.55 0.15-0.39 0-0.78-0.21-0.99-0.57zm77.27 0.82c-0.54-0.31-0.72-0.99-0.4-1.53 0.31-0.54 0.99-0.71 1.53-0.4 0.52 0.31 0.71 0.99 0.4 1.52-0.21 0.35-0.58 0.56-0.97 0.56-0.19 0-0.38-0.04-0.56-0.15zm-83.91 3.54c-0.36-0.5-0.24-1.19 0.26-1.54 0.49-0.36 1.19-0.24 1.55 0.25 0.36 0.5 0.24 1.2-0.25 1.56-0.21 0.13-0.43 0.21-0.66 0.21-0.34 0-0.68-0.16-0.9-0.48zm90.48 0.73c-0.49-0.36-0.61-1.05-0.24-1.55 0.36-0.5 1.06-0.61 1.55-0.25h0.02c0.49 0.36 0.59 1.06 0.23 1.56-0.22 0.3-0.56 0.46-0.9 0.46-0.23 0-0.45-0.07-0.66-0.22zm-96.66 4.3c-0.4-0.46-0.35-1.16 0.11-1.58 0.46-0.4 1.16-0.35 1.57 0.11s0.36 1.17-0.1 1.58c-0.21 0.19-0.48 0.28-0.74 0.28-0.3 0-0.61-0.14-0.84-0.39zm102.78 0.64c-0.48-0.42-0.51-1.11-0.09-1.58 0.4-0.46 1.11-0.5 1.57-0.09 0.45 0.42 0.49 1.12 0.08 1.58-0.21 0.25-0.52 0.37-0.82 0.37-0.27 0-0.54-0.09-0.74-0.28zm-108.4 5c-0.46-0.43-0.47-1.13-0.06-1.58 0.42-0.46 1.12-0.49 1.58-0.06 0.44 0.42 0.47 1.12 0.06 1.58-0.23 0.24-0.52 0.36-0.82 0.36-0.28 0-0.55-0.11-0.76-0.3zm113.96 0.52c-0.42-0.45-0.39-1.16 0.07-1.58 0.45-0.41 1.16-0.37 1.58 0.08 0.42 0.46 0.37 1.16-0.08 1.57-0.22 0.2-0.49 0.3-0.75 0.3-0.3 0-0.6-0.13-0.82-0.37zm-118.99 5.65c-0.49-0.37-0.59-1.07-0.22-1.56 0.37-0.5 1.07-0.59 1.56-0.22s0.6 1.07 0.23 1.56c-0.23 0.3-0.55 0.45-0.9 0.45-0.23 0-0.46-0.08-0.67-0.23zm123.96 0.42c-0.36-0.49-0.26-1.19 0.23-1.56s1.19-0.25 1.57 0.24c0.35 0.49 0.25 1.19-0.24 1.56-0.2 0.15-0.43 0.22-0.66 0.22-0.34 0-0.68-0.16-0.9-0.46zm-128.31 6.23c-0.54-0.31-0.7-0.99-0.39-1.53 0.33-0.52 1.01-0.7 1.53-0.37 0.54 0.31 0.7 1 0.39 1.53-0.21 0.34-0.58 0.54-0.97 0.54-0.19 0-0.39-0.06-0.56-0.17zm132.63 0.32c-0.31-0.54-0.13-1.22 0.4-1.54 0.53-0.31 1.21-0.13 1.52 0.41 0.31 0.53 0.14 1.2-0.38 1.53-0.18 0.1-0.38 0.15-0.57 0.15-0.39 0-0.76-0.2-0.97-0.55zm-136.29 6.75c-0.57-0.25-0.81-0.92-0.54-1.49 0.27-0.55 0.92-0.79 1.49-0.52 0.55 0.26 0.79 0.92 0.53 1.48-0.19 0.41-0.59 0.65-1.01 0.65-0.16 0-0.32-0.04-0.47-0.12zm139.92 0.19c-0.25-0.55-0.01-1.22 0.55-1.47 0.57-0.25 1.22-0.01 1.49 0.55 0.25 0.57 0 1.22-0.55 1.47-0.16 0.08-0.31 0.11-0.48 0.11-0.41 0-0.81-0.24-1.01-0.66zm-142.84 7.22c-0.58-0.19-0.88-0.83-0.68-1.41 0.21-0.58 0.85-0.9 1.43-0.69 0.58 0.2 0.89 0.84 0.68 1.42-0.16 0.46-0.59 0.75-1.06 0.75-0.11 0-0.23-0.03-0.37-0.07zm145.74 0.09c-0.19-0.6 0.12-1.22 0.7-1.43 0.58-0.19 1.22 0.12 1.41 0.71 0.2 0.59-0.12 1.21-0.69 1.42-0.12 0.03-0.24 0.04-0.36 0.04-0.46 0-0.91-0.28-1.06-0.74zm-147.86 7.59c-0.6-0.15-0.97-0.75-0.82-1.34 0.13-0.61 0.74-0.98 1.34-0.84 0.59 0.15 0.96 0.75 0.83 1.34-0.12 0.52-0.58 0.87-1.09 0.87-0.09 0-0.18-0.02-0.26-0.03zm149.99-0.05c-0.15-0.59 0.24-1.19 0.83-1.32 0.61-0.15 1.21 0.24 1.34 0.83 0.13 0.6-0.24 1.19-0.85 1.34-0.07 0.01-0.16 0.03-0.23 0.03-0.51 0-0.97-0.36-1.09-0.88zm-151.3 7.9c-0.63-0.09-1.04-0.64-0.97-1.26 0.07-0.61 0.64-1.04 1.25-0.96s1.04 0.64 0.97 1.25c-0.08 0.57-0.57 0.97-1.12 0.97h-0.13zm152.62-0.16c-0.07-0.61 0.38-1.18 0.98-1.25 0.61-0.08 1.17 0.37 1.24 0.98s-0.36 1.16-0.97 1.23c-0.04 0.02-0.09 0.02-0.13 0.02-0.57 0-1.04-0.42-1.12-0.98zm-153.14 8.09c-0.61-0.01-1.1-0.52-1.09-1.14 0.02-0.61 0.54-1.11 1.15-1.09 0.62 0.03 1.1 0.54 1.08 1.16-0.01 0.6-0.5 1.07-1.11 1.07h-0.03zm153.68-0.27c-0.02-0.62 0.47-1.13 1.1-1.14 0.61 0 1.11 0.49 1.13 1.1 0.01 0.62-0.48 1.13-1.09 1.13h-0.03c-0.59 0-1.1-0.48-1.11-1.09zm-154.58 7.2c-0.06-0.62 0.41-1.14 1.03-1.2 0.61-0.05 1.15 0.42 1.19 1.04 0.04 0.61-0.42 1.15-1.03 1.19h-0.09c-0.58 0-1.07-0.45-1.1-1.03zm155.34 1.85c-0.61-0.06-1.07-0.6-1.01-1.21 0.04-0.61 0.59-1.07 1.2-1.02 0.61 0.06 1.07 0.59 1.01 1.2v0.02c-0.04 0.58-0.53 1.01-1.11 1.01h-0.09zm-154.34 6.16c-0.1-0.61 0.3-1.19 0.91-1.3 0.59-0.1 1.17 0.3 1.29 0.91 0.11 0.6-0.3 1.19-0.91 1.29-0.06 0.02-0.13 0.02-0.19 0.02-0.53 0-1.01-0.37-1.1-0.92zm153.15 1.71c-0.6-0.12-1-0.7-0.88-1.31 0.1-0.6 0.7-1 1.29-0.88 0.61 0.11 1.02 0.69 0.9 1.3-0.11 0.53-0.59 0.9-1.1 0.9-0.06 0-0.14 0-0.21-0.01zm-151.32 6.16c-0.18-0.6 0.16-1.21 0.76-1.39 0.59-0.16 1.2 0.18 1.38 0.76 0.16 0.6-0.18 1.22-0.77 1.39-0.09 0.03-0.2 0.04-0.3 0.04-0.49 0-0.94-0.31-1.07-0.8zm149.32 1.55c-0.58-0.18-0.92-0.81-0.74-1.39 0.18-0.59 0.8-0.94 1.38-0.76 0.6 0.18 0.94 0.81 0.76 1.4-0.15 0.48-0.59 0.79-1.07 0.79-0.1 0-0.21-0.01-0.33-0.04zm-146.7 6.08c-0.23-0.57 0.04-1.22 0.62-1.46 0.57-0.22 1.22 0.06 1.44 0.63 0.24 0.58-0.04 1.22-0.61 1.45-0.13 0.05-0.28 0.08-0.41 0.08-0.45 0-0.86-0.27-1.04-0.7zm143.94 1.37c-0.58-0.24-0.85-0.89-0.61-1.46 0.24-0.56 0.89-0.83 1.46-0.59 0.56 0.22 0.84 0.87 0.6 1.45-0.17 0.44-0.59 0.69-1.04 0.69-0.13 0-0.28-0.03-0.41-0.09zm-140.54 5.96c-0.28-0.55-0.07-1.23 0.46-1.51 0.55-0.29 1.22-0.08 1.52 0.46 0.28 0.55 0.08 1.22-0.47 1.52-0.17 0.09-0.35 0.11-0.53 0.11-0.38 0-0.78-0.2-0.98-0.58zm137 1.18c-0.54-0.3-0.75-0.98-0.45-1.52 0.3-0.53 0.97-0.74 1.52-0.44 0.53 0.28 0.73 0.96 0.45 1.5-0.21 0.37-0.6 0.59-0.99 0.59-0.18 0-0.37-0.04-0.53-0.13zm-132.86 5.76c-0.34-0.52-0.21-1.21 0.31-1.56 0.51-0.35 1.2-0.2 1.55 0.31 0.34 0.52 0.21 1.2-0.32 1.54-0.17 0.14-0.4 0.2-0.61 0.2-0.37 0-0.71-0.18-0.93-0.49zm128.62 0.96c-0.52-0.34-0.65-1.04-0.3-1.54 0.34-0.52 1.04-0.64 1.55-0.3 0.5 0.34 0.64 1.04 0.3 1.55-0.23 0.32-0.57 0.49-0.93 0.49-0.22 0-0.44-0.06-0.62-0.2zm-123.79 5.51c-0.4-0.48-0.33-1.19 0.15-1.58 0.48-0.38 1.18-0.33 1.56 0.15 0.4 0.48 0.33 1.18-0.15 1.58-0.21 0.16-0.44 0.25-0.7 0.25-0.32 0-0.64-0.15-0.86-0.4zm118.87 0.76c-0.48-0.4-0.54-1.1-0.14-1.58 0.4-0.46 1.1-0.52 1.58-0.13 0.48 0.4 0.52 1.1 0.13 1.57-0.22 0.27-0.53 0.41-0.84 0.41-0.27 0-0.53-0.09-0.73-0.27zm-113.41 5.18c-0.45-0.44-0.45-1.14-0.01-1.58 0.43-0.43 1.13-0.45 1.57-0.02 0.45 0.43 0.45 1.15 0.02 1.58-0.23 0.22-0.51 0.34-0.81 0.34-0.28 0-0.55-0.1-0.77-0.32zm107.87 0.55c-0.41-0.45-0.4-1.16 0.05-1.58h-0.02c0.45-0.43 1.15-0.42 1.58 0.03 0.43 0.44 0.42 1.14-0.03 1.58-0.21 0.2-0.49 0.31-0.77 0.31-0.29 0-0.58-0.12-0.81-0.34zm-101.83 4.8c-0.48-0.39-0.57-1.09-0.18-1.56 0.39-0.49 1.09-0.57 1.58-0.18 0.47 0.39 0.55 1.09 0.16 1.58-0.21 0.27-0.54 0.41-0.86 0.41-0.26 0-0.49-0.09-0.7-0.25zm95.75 0.33c-0.37-0.49-0.28-1.19 0.19-1.58 0.49-0.37 1.19-0.28 1.58 0.19 0.37 0.5 0.28 1.19-0.19 1.58-0.21 0.15-0.47 0.24-0.7 0.24-0.33 0-0.66-0.15-0.88-0.43zm-89.19 4.39c-0.52-0.35-0.67-1.03-0.34-1.55 0.34-0.52 1.02-0.67 1.54-0.33 0.52 0.33 0.67 1.03 0.33 1.53-0.21 0.35-0.57 0.53-0.94 0.53-0.21 0-0.41-0.06-0.59-0.18zm82.62 0.09c-0.33-0.52-0.17-1.21 0.35-1.54 0.52-0.32 1.21-0.17 1.54 0.35 0.32 0.52 0.16 1.22-0.35 1.54-0.19 0.12-0.4 0.17-0.59 0.17-0.37 0-0.74-0.18-0.95-0.52zm-75.63 3.92h0.01c-0.55-0.28-0.77-0.95-0.49-1.5 0.27-0.55 0.94-0.77 1.49-0.49s0.77 0.95 0.49 1.5c-0.19 0.39-0.58 0.61-1 0.61-0.16 0-0.34-0.04-0.5-0.12zm68.62-0.13c-0.27-0.57-0.04-1.23 0.51-1.5s1.23-0.05 1.5 0.5 0.04 1.22-0.51 1.51c-0.16 0.07-0.32 0.1-0.49 0.1-0.41 0-0.82-0.22-1.01-0.61zm-61.23 3.41c-0.58-0.23-0.86-0.87-0.64-1.45 0.21-0.58 0.86-0.86 1.43-0.64 0.58 0.21 0.88 0.87 0.65 1.45-0.18 0.43-0.59 0.71-1.04 0.71-0.13 0-0.27-0.03-0.4-0.07zm53.88-0.38c-0.22-0.58 0.08-1.22 0.66-1.42 0.58-0.23 1.22 0.07 1.43 0.65 0.22 0.58-0.08 1.22-0.66 1.43-0.12 0.06-0.25 0.07-0.38 0.07-0.45 0-0.88-0.28-1.05-0.73zm-46.21 2.86c-0.59-0.16-0.95-0.77-0.78-1.37 0.16-0.59 0.77-0.93 1.36-0.79 0.6 0.17 0.96 0.78 0.79 1.37-0.13 0.51-0.58 0.84-1.08 0.84-0.09 0-0.2-0.02-0.29-0.05zm38.58-0.59c-0.16-0.6 0.21-1.21 0.81-1.36 0.59-0.15 1.2 0.21 1.35 0.81 0.15 0.59-0.21 1.2-0.8 1.35-0.09 0.03-0.2 0.04-0.28 0.04-0.5 0-0.96-0.34-1.08-0.84zm-30.68 2.27c-0.61-0.09-1.02-0.67-0.92-1.28 0.09-0.59 0.67-1.01 1.26-0.92 0.61 0.1 1.03 0.67 0.94 1.28-0.09 0.55-0.56 0.94-1.1 0.94-0.06 0-0.12 0-0.18-0.02zm22.86-0.8c-0.09-0.61 0.33-1.19 0.94-1.28s1.17 0.34 1.26 0.95-0.32 1.18-0.93 1.27c-0.06 0-0.11 0.01-0.17 0.01-0.53 0-1.02-0.4-1.1-0.95zm-14.84 1.67c-0.61-0.03-1.09-0.57-1.04-1.18 0.03-0.61 0.55-1.09 1.17-1.06 0.61 0.05 1.09 0.57 1.04 1.18-0.03 0.61-0.52 1.06-1.1 1.06h-0.07zm6.91-1.02c-0.03-0.62 0.45-1.14 1.06-1.17s1.13 0.44 1.16 1.07c0.03 0.61-0.45 1.13-1.06 1.16h-0.04c-0.6 0-1.1-0.46-1.12-1.06z"/>
    <path id="Fill-63" fill="#888" d="m189.3 111.19c0-0.1 0.09-0.19 0.19-0.19 0.09 0 0.18 0.09 0.18 0.19 0 0.11-0.09 0.18-0.18 0.18-0.1 0-0.19-0.07-0.19-0.18zm1 0.18c-0.09 0-0.18-0.07-0.18-0.18 0-0.1 0.09-0.19 0.19-0.19s0.18 0.09 0.18 0.19c0 0.11-0.08 0.18-0.18 0.18h-0.01zm-8.93 0.24c-0.02-0.1 0.05-0.19 0.16-0.21 0.1 0 0.19 0.08 0.21 0.17 0.01 0.1-0.06 0.19-0.17 0.21h-0.03c-0.09 0-0.17-0.06-0.17-0.17zm16.85 0.26c-0.11-0.02-0.18-0.11-0.17-0.21 0.02-0.11 0.11-0.18 0.21-0.17 0.1 0.02 0.18 0.11 0.16 0.21-0.01 0.09-0.09 0.17-0.17 0.17h-0.03zm-24.72 0.98c-0.01-0.1 0.05-0.2 0.15-0.22 0.11-0.01 0.2 0.05 0.23 0.15 0.01 0.09-0.05 0.19-0.15 0.22h-0.03c-0.09 0-0.17-0.06-0.2-0.15zm32.55 0.32c-0.11-0.03-0.18-0.12-0.15-0.23 0.03-0.1 0.12-0.16 0.22-0.13 0.11 0.01 0.16 0.12 0.15 0.21-0.03 0.09-0.1 0.15-0.19 0.15h-0.03zm-40.23 1.73c-0.03-0.1 0.03-0.21 0.12-0.24 0.11-0.03 0.21 0.02 0.24 0.12 0.03 0.11-0.03 0.21-0.12 0.24h-0.06c-0.07 0-0.15-0.04-0.18-0.12zm47.86 0.38c-0.08-0.03-0.14-0.15-0.11-0.24 0.04-0.11 0.14-0.15 0.23-0.12 0.11 0.03 0.15 0.13 0.12 0.24-0.03 0.07-0.09 0.12-0.18 0.12h-0.06zm-55.29 2.45c-0.04-0.09 0-0.19 0.09-0.24 0.11-0.04 0.21 0 0.25 0.11 0.05 0.09 0 0.19-0.1 0.24-0.01 0.01-0.04 0.01-0.07 0.01-0.06 0-0.14-0.04-0.17-0.12zm62.69 0.44c-0.08-0.05-0.13-0.15-0.08-0.24 0.03-0.11 0.14-0.15 0.23-0.11 0.11 0.05 0.14 0.17 0.09 0.26-0.03 0.06-0.09 0.1-0.16 0.1-0.03 0-0.05 0-0.08-0.01zm-69.79 3.17c-0.06-0.09-0.01-0.21 0.06-0.26 0.09-0.06 0.21-0.03 0.25 0.06 0.06 0.09 0.03 0.21-0.06 0.27-0.03 0.02-0.06 0.02-0.09 0.02-0.07 0-0.13-0.03-0.16-0.09zm76.85 0.47c-0.09-0.05-0.12-0.17-0.07-0.25 0.06-0.09 0.16-0.12 0.25-0.07 0.09 0.04 0.12 0.16 0.08 0.25-0.05 0.06-0.11 0.09-0.17 0.09-0.03 0-0.06 0-0.09-0.02zm-83.55 3.83c-0.06-0.09-0.05-0.19 0.04-0.25 0.08-0.06 0.2-0.05 0.26 0.04 0.05 0.08 0.04 0.2-0.05 0.26-0.03 0.03-0.06 0.03-0.1 0.03-0.06 0-0.12-0.03-0.15-0.08zm90.19 0.53c-0.08-0.06-0.1-0.18-0.04-0.27 0.06-0.08 0.18-0.11 0.27-0.03 0.07 0.06 0.1 0.18 0.03 0.25-0.03 0.05-0.09 0.08-0.15 0.08-0.03 0-0.08-0.02-0.11-0.03zm-96.42 4.46c-0.07-0.08-0.06-0.2 0.02-0.27 0.07-0.06 0.19-0.06 0.26 0.03 0.06 0.07 0.06 0.19-0.01 0.25-0.04 0.03-0.09 0.05-0.13 0.05-0.05 0-0.09-0.02-0.14-0.06zm102.59 0.55c-0.07-0.06-0.09-0.18-0.01-0.27 0.07-0.08 0.19-0.08 0.26 0 0.08 0.06 0.08 0.18 0.02 0.25-0.05 0.05-0.09 0.06-0.13 0.06-0.06 0-0.09-0.01-0.14-0.04zm-108.28 5.04c-0.07-0.08-0.07-0.19-0.01-0.27h0.01c0.06-0.07 0.18-0.07 0.25 0 0.08 0.06 0.09 0.18 0.02 0.25-0.05 0.05-0.09 0.06-0.14 0.06-0.04 0-0.08-0.01-0.13-0.04zm113.91 0.58c-0.07-0.07-0.06-0.19 0.02-0.27 0.07-0.06 0.19-0.06 0.27 0.02 0.05 0.07 0.05 0.19-0.02 0.27-0.04 0.03-0.09 0.04-0.13 0.04-0.05 0-0.11-0.01-0.14-0.06zm-118.99 5.57c-0.09-0.08-0.1-0.18-0.05-0.27 0.06-0.08 0.18-0.09 0.27-0.03 0.08 0.06 0.09 0.18 0.03 0.25-0.03 0.06-0.09 0.08-0.15 0.08-0.04 0-0.07-0.02-0.1-0.03zm124.03 0.61c-0.07-0.09-0.04-0.19 0.03-0.27 0.09-0.04 0.19-0.03 0.27 0.05 0.06 0.09 0.03 0.21-0.05 0.27-0.03 0.01-0.07 0.03-0.12 0.03-0.04 0-0.1-0.03-0.13-0.08zm-128.47 6.03c-0.09-0.06-0.12-0.18-0.06-0.27 0.04-0.09 0.16-0.1 0.25-0.06 0.09 0.06 0.12 0.16 0.06 0.25-0.03 0.06-0.09 0.09-0.16 0.09-0.03 0-0.06 0-0.09-0.01zm132.84 0.63c-0.05-0.09-0.03-0.2 0.06-0.26 0.09-0.04 0.21-0.01 0.25 0.08h0.02c0.04 0.09 0.01 0.19-0.08 0.25-0.03 0.02-0.06 0.02-0.09 0.02-0.07 0-0.13-0.03-0.16-0.09zm-136.57 6.43c-0.11-0.05-0.14-0.17-0.09-0.25 0.04-0.09 0.15-0.14 0.24-0.09 0.08 0.04 0.13 0.14 0.08 0.25-0.03 0.06-0.08 0.1-0.16 0.1-0.03 0-0.06 0-0.07-0.01zm140.24 0.64c-0.05-0.09 0-0.19 0.09-0.24 0.1-0.04 0.21 0 0.25 0.09s0 0.21-0.09 0.26c-0.03 0-0.06 0.01-0.09 0.01-0.06 0-0.13-0.04-0.16-0.12zm-143.25 6.76c-0.1-0.03-0.14-0.13-0.11-0.24 0.04-0.09 0.14-0.13 0.23-0.1 0.11 0.03 0.15 0.13 0.12 0.24-0.03 0.07-0.1 0.12-0.18 0.12-0.01 0-0.04 0-0.06-0.02zm146.18 0.66c-0.03-0.09 0.01-0.19 0.11-0.22 0.09-0.05 0.21 0.01 0.24 0.12 0.03 0.09-0.03 0.19-0.12 0.22-0.03 0.02-0.04 0.02-0.06 0.02-0.07 0-0.14-0.05-0.17-0.14zm-148.39 7.03c-0.1-0.01-0.16-0.12-0.13-0.22 0.01-0.11 0.12-0.17 0.22-0.14 0.09 0.02 0.16 0.12 0.13 0.23-0.01 0.09-0.1 0.13-0.17 0.13h-0.05zm150.54 0.66c-0.03-0.09 0.03-0.19 0.13-0.22 0.11-0.02 0.2 0.04 0.23 0.15 0.01 0.1-0.05 0.19-0.14 0.22h-0.04c-0.09 0-0.17-0.06-0.18-0.15zm-151.95 7.23c-0.1-0.02-0.18-0.12-0.16-0.21 0.01-0.11 0.1-0.18 0.2-0.17 0.11 0.02 0.17 0.11 0.17 0.21-0.02 0.09-0.11 0.17-0.2 0.17h-0.01zm153.29 0.64c-0.02-0.11 0.06-0.2 0.16-0.21 0.11 0 0.2 0.07 0.21 0.16 0.02 0.11-0.06 0.2-0.16 0.21h-0.02c-0.09 0-0.18-0.06-0.19-0.16zm-153.9 7.33c-0.1 0-0.19-0.09-0.18-0.2 0-0.1 0.09-0.18 0.18-0.18 0.1 0 0.19 0.09 0.19 0.2-0.01 0.1-0.09 0.18-0.19 0.18zm154.45 0.64c-0.02-0.1 0.07-0.19 0.18-0.19 0.1 0 0.17 0.07 0.19 0.18 0 0.1-0.09 0.19-0.19 0.19-0.11 0-0.18-0.07-0.18-0.18zm-154.45 7.18c-0.01-0.1 0.07-0.19 0.16-0.19 0.11-0.02 0.2 0.06 0.21 0.16 0 0.11-0.07 0.2-0.18 0.21h-0.01c-0.09 0-0.18-0.07-0.18-0.18zm154.34 1c-0.1-0.01-0.17-0.1-0.16-0.21 0.02-0.1 0.11-0.18 0.21-0.16 0.09 0 0.18 0.09 0.16 0.19-0.01 0.11-0.09 0.18-0.19 0.18h-0.02zm-153.34 6.96h-0.02c-0.01-0.11 0.06-0.2 0.16-0.21 0.09-0.03 0.2 0.04 0.21 0.15 0.02 0.1-0.04 0.19-0.15 0.21-0.01 0-0.03 0.01-0.03 0.01-0.09 0-0.16-0.07-0.17-0.16zm152.26 0.97c-0.1-0.03-0.16-0.12-0.15-0.22 0.01-0.11 0.12-0.17 0.22-0.15 0.09 0.01 0.17 0.12 0.15 0.21v0.01c-0.03 0.08-0.1 0.15-0.19 0.15h-0.03zm-150.47 6.85c-0.03-0.1 0.03-0.21 0.12-0.24 0.11-0.03 0.21 0.03 0.24 0.14 0.03 0.09-0.03 0.19-0.13 0.22-0.02 0.02-0.03 0.02-0.05 0.02-0.09 0-0.16-0.06-0.18-0.14zm148.57 0.91c-0.09-0.03-0.15-0.13-0.12-0.23 0.03-0.09 0.13-0.15 0.22-0.12 0.11 0.03 0.17 0.13 0.14 0.22v0.01c-0.03 0.08-0.11 0.12-0.18 0.12h-0.06zm-145.98 6.68c-0.03-0.11 0.01-0.21 0.1-0.26 0.11-0.03 0.21 0.02 0.24 0.12 0.05 0.09 0 0.2-0.1 0.24-0.02 0-0.05 0.02-0.06 0.02-0.08 0-0.15-0.05-0.18-0.12zm143.3 0.86c-0.1-0.04-0.15-0.16-0.1-0.25 0.04-0.09 0.15-0.14 0.24-0.09 0.09 0.03 0.15 0.13 0.1 0.24-0.03 0.07-0.1 0.12-0.18 0.12-0.01 0-0.04-0.02-0.06-0.02zm-139.94 6.41c-0.05-0.09-0.02-0.2 0.09-0.26 0.09-0.04 0.19-0.01 0.25 0.09 0.04 0.09 0 0.2-0.09 0.24-0.03 0.01-0.06 0.03-0.09 0.03-0.06 0-0.12-0.03-0.16-0.1zm136.5 0.8c-0.09-0.06-0.12-0.16-0.08-0.25s0.16-0.14 0.25-0.08c0.09 0.05 0.12 0.15 0.08 0.26-0.03 0.06-0.11 0.09-0.17 0.09-0.02 0-0.06 0-0.08-0.02zm-132.42 6.09c-0.06-0.09-0.03-0.21 0.06-0.27 0.08-0.04 0.2-0.03 0.26 0.06s0.03 0.2-0.05 0.26c-0.04 0.03-0.07 0.03-0.1 0.03-0.06 0-0.12-0.03-0.17-0.08zm128.26 0.72c-0.1-0.06-0.11-0.16-0.05-0.25h-0.01c0.06-0.09 0.17-0.11 0.26-0.05s0.11 0.16 0.05 0.25c-0.03 0.06-0.09 0.08-0.15 0.08-0.05 0-0.08 0-0.1-0.03zm-123.49 5.71c-0.07-0.09-0.06-0.19 0.02-0.27 0.09-0.06 0.21-0.06 0.27 0.03 0.07 0.08 0.06 0.2-0.02 0.26-0.04 0.03-0.09 0.04-0.12 0.04-0.06 0-0.12-0.01-0.15-0.06zm118.66 0.65c-0.09-0.06-0.09-0.18-0.03-0.27 0.06-0.08 0.17-0.09 0.26-0.02 0.08 0.06 0.08 0.18 0.02 0.27-0.03 0.03-0.09 0.06-0.15 0.06-0.03 0-0.07-0.01-0.1-0.04zm-113.26 5.26c-0.08-0.07-0.08-0.19 0-0.27 0.06-0.07 0.18-0.07 0.25 0 0.07 0.08 0.07 0.2 0 0.27-0.03 0.03-0.07 0.05-0.12 0.05-0.06 0-0.1-0.02-0.13-0.05zm107.79 0.56c-0.06-0.08-0.06-0.2 0.01-0.26 0.08-0.07 0.2-0.07 0.25 0 0.08 0.08 0.08 0.2 0 0.27-0.02 0.03-0.09 0.05-0.13 0.05s-0.09-0.02-0.13-0.06zm-101.83 4.77c-0.08-0.08-0.09-0.2-0.03-0.27 0.06-0.08 0.17-0.09 0.26-0.03 0.08 0.06 0.09 0.18 0.03 0.25-0.04 0.06-0.1 0.08-0.15 0.08-0.04 0-0.08-0.02-0.11-0.03zm95.81 0.46c-0.06-0.07-0.05-0.19 0.04-0.25 0.08-0.08 0.2-0.06 0.26 0.03 0.06 0.07 0.04 0.19-0.03 0.27-0.03 0.01-0.08 0.03-0.12 0.03-0.05 0-0.11-0.03-0.15-0.08zm-89.34 4.2c-0.08-0.04-0.11-0.16-0.05-0.25 0.05-0.09 0.16-0.1 0.25-0.04v-0.02c0.09 0.06 0.12 0.18 0.06 0.27-0.03 0.04-0.11 0.07-0.17 0.07-0.03 0-0.06 0-0.09-0.03zm82.83 0.39c-0.06-0.09-0.03-0.21 0.06-0.25 0.09-0.06 0.19-0.03 0.25 0.06 0.06 0.07 0.03 0.19-0.06 0.25-0.03 0.02-0.06 0.03-0.09 0.03-0.07 0-0.13-0.03-0.16-0.09zm-75.92 3.61c-0.08-0.05-0.13-0.17-0.08-0.26 0.04-0.09 0.16-0.12 0.25-0.07 0.09 0.04 0.13 0.15 0.09 0.25-0.05 0.06-0.11 0.09-0.18 0.09-0.02 0-0.05 0-0.08-0.01zm68.97 0.28c-0.05-0.09 0-0.21 0.09-0.25 0.09-0.05 0.2 0 0.25 0.09 0.04 0.09 0 0.21-0.09 0.25-0.03 0.02-0.05 0.02-0.07 0.02-0.08 0-0.15-0.05-0.18-0.11zm-61.68 2.96v0.02c-0.09-0.05-0.15-0.15-0.11-0.26 0.03-0.08 0.15-0.14 0.24-0.1s0.15 0.15 0.1 0.24c-0.03 0.07-0.09 0.12-0.16 0.12-0.03 0-0.04 0-0.07-0.02zm54.37 0.18c-0.03-0.09 0.01-0.19 0.11-0.24 0.09-0.03 0.2 0.02 0.24 0.12 0.03 0.09-0.01 0.2-0.12 0.24-0.01 0-0.03 0.02-0.06 0.02-0.07 0-0.14-0.06-0.17-0.14zm-46.8 2.31c-0.09-0.03-0.14-0.14-0.12-0.23 0.02-0.1 0.12-0.16 0.23-0.13 0.09 0.01 0.15 0.12 0.13 0.22-0.03 0.08-0.1 0.14-0.19 0.14h-0.05zm39.2 0.07c-0.03-0.1 0.03-0.21 0.14-0.24 0.1-0.01 0.2 0.05 0.23 0.15 0.02 0.09-0.04 0.2-0.14 0.23h-0.03c-0.09 0-0.17-0.06-0.2-0.14zm-31.4 1.59c-0.1-0.02-0.17-0.11-0.16-0.21 0.03-0.11 0.12-0.17 0.22-0.15 0.09 0.01 0.17 0.1 0.15 0.21-0.01 0.09-0.09 0.16-0.18 0.16-0.01 0-0.03 0-0.03-0.01zm23.62-0.03c-0.02-0.09 0.04-0.2 0.15-0.21 0.1-0.02 0.19 0.06 0.22 0.16 0 0.11-0.06 0.2-0.17 0.21h-0.03c-0.08 0-0.16-0.06-0.17-0.16zm-15.69 0.9c-0.11-0.02-0.18-0.11-0.18-0.2 0.01-0.1 0.09-0.18 0.19-0.18s0.18 0.09 0.18 0.2c0 0.1-0.09 0.18-0.18 0.18h-0.01zm7.76-0.14c0-0.1 0.08-0.19 0.18-0.19 0.11-0.02 0.2 0.07 0.2 0.18 0 0.09-0.08 0.18-0.18 0.19-0.1 0-0.2-0.09-0.2-0.18z"/>
    <g id="Group-67" transform="translate(0 217)">
     <mask id="mask-10" fill="white">
      <use xlink:href="#path-9"/>
     </mask>
     <path id="Fill-65" fill="#772953" mask="url(#mask-10)" d="m74 36.931c0 20.276-16.563 36.717-37 36.717-20.432 0-37-16.441-37-36.717-0.000148-20.281 16.568-36.717 37-36.717 20.437-0.0001 37 16.436 37 36.717"/>
    </g>
    <path id="Fill-68" fill="#fff" d="m56 262.15c0-0.59-0.474-1.06-1.058-1.06h-20.119v-33.03c0-0.28-0.111-0.55-0.309-0.75-0.199-0.2-0.469-0.31-0.751-0.31h-8.468c-0.584 0-1.058 0.48-1.058 1.07v42.6c0 0.59 0.474 1.07 1.058 1.07h25.41c0.282 0 0.55-0.11 0.75-0.31 0.199-0.21 0.31-0.47 0.31-0.76v-4.26c0-0.59-0.474-1.06-1.06-1.06h-20.118v-34.09h-2.115v35.15c0 0.59 0.474 1.07 1.058 1.07h20.117v2.13h-23.294v-40.48h6.354v33.02c0 0.59 0.472 1.07 1.056 1.07h20.119v10.65h-31.764v-45.8c0-0.59-0.474-1.07-1.06-1.07-0.584 0-1.058 0.48-1.058 1.07v46.87c0 0.58 0.474 1.06 1.058 1.06h33.882c0.283 0 0.552-0.11 0.75-0.31 0.199-0.2 0.31-0.47 0.31-0.75v-12.79z"/>
    <g id="Group-9" transform="translate(226 315)">
     <g id="Group-3">
      <mask id="mask-12" fill="white">
       <use xlink:href="#path-11"/>
      </mask>
      <path id="Fill-1" fill="#fff" mask="url(#mask-12)" d="m46.163 13.267c-0.255-0.808-0.865-1.464-1.628-1.868l-15.515-7.3696c-0.407-0.2019-0.864-0.2524-1.271-0.2524-0.408 0-0.865 0-1.272 0.1009l-15.515 7.4201c-0.763 0.354-1.3224 1.01-1.5259 1.868l-3.8153 16.608c-0.1526 0.857 0.0512 1.715 0.5598 2.422l10.733 13.175c0.61 0.606 1.475 1.01 2.34 1.06h17.091c0.916 0.101 1.78-0.303 2.34-1.06l10.733-13.175c0.509-0.707 0.712-1.565 0.611-2.422l-3.866-16.507z"/>
     </g>
     <path id="Fill-4" fill="#772953" d="m36.351 31.062c-0.768 1.186-1.843 2.225-3.071 2.966l-1.996-4.647c-0.102-0.396 0.103-0.792 0.461-0.94 0.153-0.049 0.307-0.099 0.46-0.099l5.118 0.841c-0.256 0.692-0.563 1.335-0.972 1.879zm-6.244 4.301c-0.716 0.149-1.433 0.247-2.201 0.247-1.074 0-2.2-0.197-3.224-0.494l2.508-4.4c0.256-0.297 0.665-0.396 1.023-0.198 0.154 0.099 0.256 0.198 0.41 0.346l2.456 4.302c-0.307 0.049-0.614 0.098-0.972 0.197zm-11.618-6.131l5.067-0.84c0.41 0 0.819 0.247 0.87 0.642 0.051 0.149 0.051 0.347-0.051 0.495l-1.945 4.549c-1.791-1.137-3.224-2.868-3.941-4.846zm0.871-8.356l3.787 3.263c0.358 0.297 0.409 0.791 0.102 1.138-0.102 0.148-0.205 0.198-0.409 0.247l-4.965 1.384c-0.153-2.076 0.359-4.202 1.485-6.032zm6.243-4.351l1.024-0.198-0.256 4.945c0 0.445-0.41 0.791-0.87 0.791-0.154 0-0.256-0.05-0.41-0.099l-4.247-2.917c1.33-1.236 2.968-2.126 4.759-2.522zm9.264 2.522l-4.197 2.867c-0.358 0.198-0.87 0.149-1.126-0.197-0.102-0.099-0.153-0.198-0.153-0.346l-0.308-4.994c2.252 0.247 4.248 1.186 5.784 2.67zm2.763 4.746c0.256 1.039 0.307 2.077 0.205 3.115l-4.862-1.335c-0.461-0.098-0.716-0.544-0.614-0.988 0.051-0.149 0.102-0.248 0.205-0.347l3.838-3.362c0.563 0.89 0.972 1.879 1.228 2.917zm-8.342 3.214l-1.382 0.643-1.382-0.643-0.358-1.434 0.973-1.186h1.535l0.973 1.186-0.359 1.434zm14.791 1.533c-0.051 0-0.103 0-0.103-0.049 0-0.05-0.102-0.05-0.204-0.05-0.205-0.049-0.41-0.049-0.614-0.049-0.103 0-0.205 0-0.307-0.05h-0.052c-0.563-0.049-1.177-0.148-1.74-0.296-0.153-0.05-0.307-0.198-0.358-0.346 0.051 0 0 0 0 0l-0.409-0.1c0.204-1.433 0.102-2.917-0.205-4.351-0.358-1.433-0.973-2.818-1.791-4.054l0.307-0.297v-0.049c0-0.148 0.051-0.346 0.153-0.445 0.461-0.396 0.921-0.692 1.433-0.989 0.103-0.049 0.205-0.099 0.307-0.148 0.205-0.099 0.358-0.198 0.563-0.297 0.052-0.049 0.103-0.049 0.154-0.099 0.051-0.049 0-0.049 0-0.099 0.46-0.346 0.563-0.939 0.205-1.384-0.154-0.198-0.461-0.346-0.717-0.346s-0.512 0.099-0.717 0.247l-0.051 0.049c-0.051 0.05-0.102 0.099-0.153 0.099-0.154 0.148-0.307 0.297-0.41 0.445-0.051 0.099-0.153 0.149-0.204 0.198-0.359 0.396-0.819 0.791-1.28 1.088-0.102 0.049-0.205 0.099-0.307 0.099-0.051 0-0.154 0-0.205-0.05h-0.051l-0.409 0.248c-0.41-0.396-0.87-0.792-1.28-1.187-1.893-1.434-4.247-2.324-6.653-2.571l-0.051-0.396v0.05c-0.153-0.099-0.205-0.248-0.256-0.396 0-0.544 0-1.088 0.103-1.681v-0.05c0-0.098 0.051-0.197 0.051-0.296 0.051-0.198 0.051-0.396 0.102-0.594v-0.296c0.051-0.4947-0.358-0.9891-0.87-1.0385-0.307-0.0495-0.614 0.0989-0.87 0.3461-0.205 0.1977-0.307 0.445-0.307 0.6924v0.247c0 0.198 0.051 0.396 0.102 0.593 0.051 0.099 0.051 0.198 0.051 0.297v0.049c0.103 0.544 0.103 1.088 0.103 1.681-0.052 0.149-0.103 0.297-0.256 0.396v0.099l-0.051 0.395c-0.563 0.05-1.126 0.149-1.741 0.248-2.405 0.494-4.605 1.73-6.294 3.461l-0.307-0.198h-0.052c-0.051 0-0.102 0.05-0.204 0.05-0.103 0-0.205-0.05-0.307-0.099-0.461-0.346-0.922-0.742-1.28-1.137-0.051-0.099-0.153-0.149-0.205-0.198-0.153-0.149-0.255-0.297-0.409-0.445-0.051-0.05-0.103-0.05-0.153-0.099l-0.052-0.05c-0.205-0.148-0.46-0.247-0.716-0.247-0.307 0-0.563 0.099-0.717 0.346-0.307 0.445-0.205 1.039 0.205 1.385 0.051 0 0.051 0.049 0.051 0.049s0.102 0.099 0.154 0.099c0.153 0.099 0.358 0.198 0.563 0.297 0.102 0.049 0.204 0.099 0.307 0.148 0.512 0.297 1.023 0.593 1.433 0.989 0.102 0.099 0.204 0.297 0.153 0.445v-0.05l0.307 0.297c-0.051 0.099-0.102 0.148-0.153 0.247-1.587 2.423-2.252 5.291-1.792 8.109l-0.409 0.099c0 0.049-0.051 0.049-0.051 0.049-0.051 0.149-0.205 0.248-0.358 0.346-0.563 0.149-1.126 0.248-1.74 0.297-0.103 0-0.205 0-0.308 0.05-0.204 0-0.409 0.049-0.614 0.049-0.051 0-0.102 0.05-0.204 0.05-0.052 0-0.052 0-0.103 0.049-0.563 0.099-0.921 0.593-0.819 1.137 0.103 0.445 0.563 0.742 1.024 0.693 0.102 0 0.154 0 0.256-0.05 0.051 0 0.051 0 0.051-0.049 0-0.05 0.154 0 0.205 0 0.204-0.05 0.409-0.149 0.563-0.198 0.102-0.05 0.204-0.099 0.307-0.099h0.051c0.563-0.198 1.075-0.346 1.689-0.445h0.051c0.154 0 0.307 0.049 0.409 0.148 0.052 0 0.052 0.05 0.052 0.05l0.46-0.05c0.768 2.275 2.201 4.302 4.197 5.785 0.461 0.346 0.87 0.643 1.382 0.89l-0.256 0.346c0 0.05 0.051 0.05 0.051 0.05 0.102 0.148 0.102 0.346 0.051 0.494-0.204 0.495-0.512 0.989-0.819 1.434v0.049c-0.051 0.1-0.102 0.149-0.204 0.248-0.103 0.099-0.205 0.297-0.359 0.494-0.051 0.05-0.051 0.099-0.102 0.149 0 0 0 0.049-0.051 0.049-0.256 0.495-0.051 1.088 0.409 1.335 0.103 0.049 0.256 0.099 0.359 0.099 0.409 0 0.767-0.247 0.972-0.593 0 0 0-0.05 0.051-0.05 0-0.049 0.051-0.099 0.102-0.148 0.052-0.198 0.154-0.346 0.205-0.544l0.103-0.297c0.153-0.544 0.409-1.038 0.665-1.532 0.102-0.149 0.256-0.248 0.409-0.297 0.051 0 0.051 0 0.051-0.049l0.205-0.396c1.433 0.544 2.917 0.791 4.453 0.791 0.921 0 1.842-0.099 2.763-0.346 0.563-0.099 1.126-0.297 1.638-0.445l0.205 0.346c0.051 0 0.051 0 0.051 0.05 0.154 0.049 0.307 0.148 0.409 0.296 0.256 0.494 0.512 0.989 0.666 1.533v0.049l0.102 0.297c0.051 0.198 0.102 0.396 0.205 0.544 0.051 0.049 0.051 0.099 0.102 0.148 0 0 0 0.05 0.051 0.05 0.205 0.346 0.563 0.593 0.973 0.593 0.153 0 0.256-0.05 0.409-0.099 0.205-0.099 0.41-0.297 0.461-0.544s0.051-0.494-0.051-0.742c0-0.049-0.052-0.049-0.052-0.049 0-0.049-0.051-0.099-0.102-0.148-0.102-0.198-0.205-0.346-0.358-0.495-0.051-0.099-0.103-0.148-0.205-0.247v-0.099c-0.358-0.445-0.614-0.939-0.819-1.434-0.051-0.148-0.051-0.346 0.051-0.494 0-0.05 0.052-0.05 0.052-0.05l-0.154-0.395c2.61-1.533 4.606-3.906 5.527-6.725l0.41 0.05c0.051 0 0.051-0.05 0.051-0.05 0.102-0.098 0.256-0.148 0.409-0.148h0.051c0.564 0.099 1.127 0.247 1.638 0.445h0.051c0.103 0.05 0.205 0.099 0.308 0.099 0.204 0.099 0.358 0.198 0.562 0.247 0.052 0 0.103 0.05 0.205 0.05 0.051 0 0.051 0 0.103 0.049 0.102 0.05 0.153 0.05 0.255 0.05 0.461 0 0.87-0.297 1.024-0.693-0.051-0.544-0.461-0.939-0.921-1.038z"/>
    </g>
    <path id="Fill-88" fill="#fff" d="m190 224c-19.88 0-36-15.89-36-35.5s16.12-35.5 36-35.5 36 15.89 36 35.5-16.12 35.5-36 35.5"/>
    <path id="Fill-90" fill="#fff" d="m189.5 145.87c-23.62 0-42.75 19.31-42.75 43.13 0 23.83 19.13 43.13 42.75 43.13s42.76-19.3 42.76-43.13c0-23.82-19.14-43.13-42.76-43.13m56.5 43.13c0 31.48-25.3 57-56.5 57s-56.5-25.52-56.5-57 25.3-57 56.5-57 56.5 25.52 56.5 57"/>
   </g>
  </g>
 </g>
</svg>
