<?xml version="1.0" encoding="UTF-8"?>
<svg width="237px" height="44px" viewBox="0 0 237 44" version="1.1" xmlns="http://www.w3.org/2000/svg" xmlns:xlink="http://www.w3.org/1999/xlink">
    <!-- Generator: Sketch 56 (81588) - https://sketch.com -->
    <title>Group 35</title>
    <desc>Created with Sketch.</desc>
    <defs>
        <polygon id="path-1" points="0 0.0487532164 34.8251839 0.0487532164 34.8251839 34 0 34"></polygon>
    </defs>
    <g id="Homepage" stroke="none" stroke-width="1" fill="none" fill-rule="evenodd">
        <g id="Partner-logos---MouseOver-Public-Cloud-Copy" transform="translate(-760.000000, -765.000000)">
            <g id="Group-35" transform="translate(760.000000, 765.000000)">
                <g id="Group-20">
                    <g id="Group-8" fill="#FFFFFF">
                        <path d="M43.1742264,21.9243544 C43.1742264,33.8423725 33.5121165,43.5093544 21.5871495,43.5093544 C9.66508352,43.5093544 7.25274725e-05,33.8423725 7.25274725e-05,21.9243544 C7.25274725e-05,10.0012599 9.66508352,0.3393544 21.5871495,0.3393544 C33.5142923,0.340079605 43.1742264,10.0012599 43.1742264,21.9243544" id="Fill-6"></path>
                    </g>
                    <g id="Group-2" transform="translate(6.000000, 6.000000)">
                        <g id="Group-3" transform="translate(0.000000, 0.000000)">
                            <mask id="mask-2" fill="white">
                                <use xlink:href="#path-1"></use>
                            </mask>
                            <g id="Clip-2"></g>
                        </g>
                        <path d="M23.3202116,20.7525045 C22.627497,21.8522919 21.6576964,22.8146058 20.549353,23.5019729 L18.7482949,19.1944724 C18.6559329,18.8278766 18.8406568,18.461054 19.1639237,18.3238074 C19.3024666,18.2779829 19.4410095,18.2321585 19.5795525,18.2321585 L24.1976502,19.0111745 C23.9667453,19.6524903 23.6896595,20.2484353 23.3202116,20.7525045 L23.3202116,20.7525045 Z M17.6859038,24.7392337 C17.0395987,24.876934 16.393065,24.9683561 15.7001217,24.9683561 C14.7303212,24.9683561 13.7143397,24.7850582 12.7907201,24.5101113 L15.053588,20.4317332 C15.2847215,20.1567864 15.6539407,20.0651374 15.9772076,20.2484353 C16.1157505,20.3400843 16.2083411,20.4317332 16.346884,20.5689798 L18.5635709,24.5561627 C18.2864851,24.6017603 18.0093992,24.6475848 17.6859038,24.7392337 L17.6859038,24.7392337 Z M7.20259322,19.0567721 L11.7747386,18.2779829 C12.1441864,18.2779829 12.5136343,18.5071053 12.5598152,18.8737011 C12.6059962,19.0111745 12.6059962,19.1944724 12.5136343,19.331719 L10.7587571,23.5477974 C9.1424229,22.4938345 7.84935552,20.8897511 7.20259322,19.0567721 L7.20259322,19.0567721 Z M7.98789846,11.3124361 L11.4052908,14.3368514 C11.7285576,14.6117982 11.7747386,15.0700429 11.4976528,15.3908143 C11.4052908,15.5285145 11.3129288,15.574339 11.1282049,15.6199366 L6.6486501,16.9030219 C6.51010717,14.9786208 6.97191695,13.0079416 7.98789846,11.3124361 L7.98789846,11.3124361 Z M13.6219777,7.27988244 L14.5455973,7.09658454 L14.3146924,11.6790319 C14.3146924,12.0914522 13.9452446,12.4122235 13.5296158,12.4122235 C13.3910728,12.4122235 13.2987109,12.366399 13.1601679,12.3205745 L9.32714681,9.61693059 C10.5278522,8.47131875 12.0056435,7.64647823 13.6219777,7.27988244 L13.6219777,7.27988244 Z M21.9809633,9.61693059 L18.1941231,12.2747501 C17.8708563,12.4580479 17.4090465,12.4122235 17.1781416,12.0914522 C17.085551,11.9998032 17.0395987,11.9081543 17.0395987,11.7706808 L16.7622842,7.14240902 C18.7944758,7.37153138 20.595534,8.24219638 21.9809633,9.61693059 L21.9809633,9.61693059 Z M24.4747361,14.0160801 C24.7058696,14.9786208 24.7518219,15.9407079 24.65946,16.9030219 L20.2722671,15.6657611 C19.8566383,15.574339 19.6257334,15.1616919 19.7180954,14.7494985 C19.7642764,14.6117982 19.8104573,14.5201493 19.9028193,14.4287272 L23.3663926,11.3124361 C23.8743834,12.1372766 24.2438312,13.0537661 24.4747361,14.0160801 L24.4747361,14.0160801 Z M16.9472367,16.9948977 L15.7001217,17.5906158 L14.4532353,16.9948977 L14.1299685,15.6657611 L15.0076357,14.5659737 L16.393065,14.5659737 L17.2705036,15.6657611 L16.9472367,16.9948977 Z M30.2937679,18.4152295 L30.2937679,18.4152295 C30.2475869,18.4152295 30.2014059,18.4152295 30.2014059,18.3696319 C30.2014059,18.3238074 30.109044,18.3238074 30.016682,18.3238074 C29.8319581,18.2779829 29.6472342,18.2779829 29.4625103,18.2779829 C29.3701483,18.2779829 29.2777864,18.2779829 29.1854244,18.2321585 L29.1392434,18.2321585 C28.6310241,18.1861071 28.077081,18.0944582 27.5688616,17.9572116 C27.4305473,17.9113872 27.2920043,17.7739137 27.2455947,17.6364403 C27.2920043,17.6364403 27.2455947,17.6364403 27.2455947,17.6364403 L26.8763755,17.5445645 C27.0608708,16.2158816 26.9685089,14.8409206 26.6916516,13.5120108 C26.3683848,12.1831011 25.8139844,10.9000158 25.0750888,9.75440401 L25.3521747,9.47945717 L25.3521747,9.43363269 C25.3521747,9.29615927 25.3983556,9.11286138 25.4909462,9.02121243 C25.906575,8.65461664 26.3219752,8.3796698 26.783785,8.10472296 C26.8763755,8.05889849 26.9685089,8.01307401 27.0608708,7.96724954 C27.2455947,7.87560059 27.3841377,7.78395165 27.5688616,7.6923027 C27.6152712,7.64647823 27.6614522,7.64647823 27.7074045,7.60065375 C27.7538141,7.55482928 27.7074045,7.55482928 27.7074045,7.50900481 C28.1232619,7.18823349 28.2156239,6.63833981 27.892357,6.22569269 C27.7538141,6.04262165 27.4767282,5.90514823 27.2455947,5.90514823 C27.0149185,5.90514823 26.783785,5.99679718 26.5990611,6.1342706 L26.5531087,6.18009507 C26.5066991,6.22569269 26.4605181,6.27151717 26.4145658,6.27151717 C26.2757942,6.40899059 26.1372513,6.54646401 26.0448893,6.68416428 C25.9987083,6.77581323 25.906575,6.8216377 25.8601654,6.86723532 C25.5368986,7.23405796 25.1212698,7.60065375 24.7058696,7.87560059 C24.613279,7.92142507 24.5209171,7.96724954 24.4285551,7.96724954 C24.3823741,7.96724954 24.2900122,7.96724954 24.2438312,7.92142507 L24.1976502,7.92142507 L23.8282024,8.15054743 C23.4587546,7.78395165 23.0431258,7.41735586 22.673678,7.05076007 C20.9649818,5.72185034 18.8406568,4.89678296 16.6701509,4.66788744 L16.6237413,4.3010648 L16.6237413,4.34711613 C16.485427,4.25524033 16.4390174,4.11776691 16.393065,3.98029349 C16.393065,3.47622428 16.393065,2.97215507 16.485427,2.42226139 L16.485427,2.37643691 C16.485427,2.28478797 16.5316079,2.19313902 16.5316079,2.10149007 C16.5777889,1.91819218 16.5777889,1.73489428 16.6237413,1.55159639 L16.6237413,1.27664955 C16.6701509,0.818404812 16.3004744,0.360160076 15.8386647,0.314335603 C15.5615788,0.268511129 15.2847215,0.40598455 15.053588,0.635106918 C14.8688641,0.818404812 14.7765022,1.04752718 14.7765022,1.27664955 L14.7765022,1.50577192 C14.7765022,1.68906981 14.8229118,1.8723677 14.8688641,2.0556656 C14.9150451,2.14731455 14.9150451,2.23896349 14.9150451,2.33061244 L14.9150451,2.37643691 C15.0076357,2.88050612 15.0076357,3.38457533 15.0076357,3.93446901 C14.9612261,4.07194243 14.9150451,4.20964271 14.7765022,4.3010648 L14.7765022,4.39271375 L14.7303212,4.75930954 C14.2225591,4.80536087 13.7143397,4.89678296 13.1601679,4.98843191 C10.989662,5.4469035 9.00387996,6.59251533 7.4799077,8.19637191 L7.20282184,8.01307401 L7.15664086,8.01307401 C7.11045988,8.01307401 7.0642789,8.05889849 6.97191695,8.05889849 C6.87955499,8.05889849 6.78719304,8.01307401 6.69483108,7.96724954 C6.27897367,7.64647823 5.86357349,7.27988244 5.54030664,6.91328665 C5.49389705,6.8216377 5.40176371,6.77581323 5.35535411,6.72998875 C5.21681118,6.59251533 5.12467784,6.45504191 4.98613491,6.31756849 C4.93995393,6.27151717 4.89354434,6.27151717 4.84759198,6.22591955 L4.801411,6.18009507 C4.61645847,6.04262165 4.3857822,5.95074585 4.15464869,5.95074585 C3.87779145,5.95074585 3.64665794,6.04262165 3.50811501,6.27151717 C3.23102914,6.68416428 3.3233911,7.23405796 3.69283892,7.55482928 C3.73924852,7.55482928 3.73924852,7.60065375 3.73924852,7.60065375 C3.73924852,7.60065375 3.83138185,7.6923027 3.87779145,7.6923027 C4.01610576,7.78395165 4.20105829,7.87560059 4.3857822,7.96724954 C4.47814416,8.01307401 4.57027749,8.05889849 4.66286807,8.10472296 C5.12467784,8.3796698 5.58648762,8.65461664 5.95593544,9.02121243 C6.0482974,9.11286138 6.14043073,9.29615927 6.09447837,9.43363269 L6.09447837,9.38780822 L6.37156424,9.66275506 C6.32538326,9.75440401 6.27897367,9.80022848 6.23302131,9.89187743 C4.801411,12.1372766 4.20105829,14.7950961 4.61645847,17.4073179 L4.24701065,17.49874 C4.24701065,17.5445645 4.20105829,17.5445645 4.20105829,17.5445645 C4.15464869,17.6822648 4.01610576,17.7739137 3.87779145,17.8653358 C3.36957208,18.0030361 2.86158132,18.0944582 2.30740959,18.1402827 C2.21504764,18.1402827 2.12268568,18.1402827 2.03032372,18.1861071 C1.84559981,18.1861071 1.6608759,18.2321585 1.47615199,18.2321585 C1.42997102,18.2321585 1.38379004,18.2779829 1.29142808,18.2779829 C1.24524711,18.2779829 1.24524711,18.2779829 1.19906613,18.3238074 C0.691075374,18.4152295 0.36780853,18.8737011 0.460170486,19.3775435 C0.552532441,19.7901906 0.968161239,20.0651374 1.38379004,20.0193129 C1.47615199,20.0193129 1.52233297,20.0193129 1.61469493,19.9732616 C1.6608759,19.9732616 1.6608759,19.9732616 1.6608759,19.927664 C1.6608759,19.8818395 1.79941884,19.927664 1.84559981,19.927664 C2.03032372,19.8818395 2.21504764,19.7901906 2.35381919,19.7443661 C2.44595252,19.6985416 2.53831448,19.6524903 2.63067643,19.6524903 L2.67708603,19.6524903 C3.18484816,19.4694193 3.64665794,19.331719 4.20105829,19.2402969 L4.24701065,19.2402969 C4.3857822,19.2402969 4.52432513,19.2861214 4.61645847,19.3775435 C4.66286807,19.3775435 4.66286807,19.4235948 4.66286807,19.4235948 L5.07826825,19.3775435 C5.77121153,21.4856961 7.0642789,23.3644995 8.86533703,24.7392337 C9.28096583,25.060005 9.65041365,25.3349519 10.1122234,25.5640742 L9.88131854,25.8848456 C9.88131854,25.93067 9.92749952,25.93067 9.92749952,25.93067 C10.0198615,26.0683703 10.0198615,26.2514413 9.97368049,26.3891416 C9.78895658,26.8471595 9.51187072,27.3056311 9.23478485,27.7178245 L9.23478485,27.763649 C9.18860387,27.8555248 9.1424229,27.9013492 9.05006094,27.9929982 C8.95769899,28.0844203 8.86533703,28.267945 8.7267941,28.4512429 C8.68061312,28.4970674 8.68061312,28.5428919 8.63443214,28.5887163 C8.63443214,28.5887163 8.63443214,28.634314 8.58825116,28.634314 C8.35734628,29.0927856 8.54207019,29.6424524 8.95769899,29.8715748 C9.05006094,29.9173992 9.18860387,29.9634506 9.28096583,29.9634506 C9.65041365,29.9634506 9.97368049,29.7343282 10.1584044,29.4135569 C10.1584044,29.4135569 10.1584044,29.3677324 10.2045854,29.3677324 C10.2045854,29.3216811 10.2507664,29.2758566 10.2969473,29.230259 C10.3431283,29.0469611 10.4354903,28.9094877 10.4816712,28.7259629 L10.5740332,28.4512429 C10.7125761,27.9471737 10.943481,27.4887021 11.1743859,27.0306842 C11.2667479,26.892984 11.4052908,26.801335 11.5438337,26.7557374 C11.5900147,26.7557374 11.5900147,26.7557374 11.5900147,26.7099129 L11.7747386,26.3433171 C13.067806,26.8471595 14.4070543,27.0765087 15.7927123,27.0765087 C16.6237413,27.0765087 17.4552275,26.9848598 18.2864851,26.7557374 C18.7944758,26.6640885 19.3024666,26.4805637 19.7642764,26.3433171 L19.9490003,26.6640885 C19.9951813,26.6640885 19.9951813,26.6640885 19.9951813,26.7099129 C20.1337242,26.7557374 20.2722671,26.8471595 20.3646291,26.9848598 C20.595534,27.4428777 20.8264389,27.9013492 20.9649818,28.4051916 L20.9649818,28.4512429 L21.0573437,28.7259629 C21.1035247,28.9094877 21.1497057,29.0927856 21.2420677,29.230259 C21.2882486,29.2758566 21.2882486,29.3216811 21.3344296,29.3677324 C21.3344296,29.3677324 21.3344296,29.4135569 21.3806106,29.4135569 C21.5653345,29.7343282 21.8886013,29.9634506 22.2580492,29.9634506 C22.3965921,29.9634506 22.488954,29.9173992 22.627497,29.8715748 C22.8122209,29.7801527 22.9969448,29.5966279 23.0431258,29.3677324 C23.0893068,29.13861 23.0893068,28.9094877 22.9969448,28.6801384 C22.9969448,28.634314 22.9507638,28.634314 22.9507638,28.634314 C22.9507638,28.5887163 22.9045828,28.5428919 22.8584019,28.4970674 C22.7660399,28.3135427 22.673678,28.1762961 22.535135,28.0385958 C22.488954,27.9471737 22.4427731,27.9013492 22.3504111,27.8094734 L22.3504111,27.7178245 C22.0271443,27.3056311 21.7962394,26.8471595 21.6115155,26.3891416 C21.5653345,26.2514413 21.5653345,26.0683703 21.6576964,25.93067 C21.6576964,25.8848456 21.7038774,25.8848456 21.7038774,25.8848456 L21.5653345,25.5184766 C23.9205644,24.0976911 25.7216225,21.8981164 26.5531087,19.2861214 L26.9223279,19.331719 C26.9685089,19.331719 26.9685089,19.2861214 26.9685089,19.2861214 C27.0608708,19.1944724 27.1996424,19.1486479 27.3381853,19.1486479 L27.3841377,19.1486479 C27.892357,19.2402969 28.4003478,19.3775435 28.8621576,19.5610682 L28.9083386,19.5610682 C29.0007005,19.6068927 29.0928338,19.6524903 29.1854244,19.6524903 C29.3701483,19.7443661 29.5086913,19.836015 29.6934152,19.8818395 C29.7395962,19.8818395 29.7857771,19.927664 29.8781391,19.927664 C29.9243201,19.927664 29.9243201,19.927664 29.970501,19.9732616 C30.062863,20.0193129 30.109044,20.0193129 30.2014059,20.0193129 C30.6170347,20.0193129 30.9864825,19.7443661 31.1250255,19.3775435 C31.0788445,18.8737011 30.7093967,18.5071053 30.2937679,18.4152295 L30.2937679,18.4152295 Z" id="Fill-4" fill="#772953"></path>
                    </g>
                </g>
                <path d="M64.064,23.884 C64.8080037,24.3880025 65.6059957,25.035996 66.458,25.828 C67.3100043,26.620004 68.1499959,27.4779954 68.978,28.402 C69.8060041,29.3260046 70.5859963,30.2739951 71.318,31.246 C72.0500037,32.2180049 72.6679975,33.1359957 73.172,34 L70.4,34 C69.8239971,33.0399952 69.1700037,32.0980046 68.438,31.174 C67.7059963,30.2499954 66.938004,29.3800041 66.134,28.564 C65.329996,27.7479959 64.526004,27.0040034 63.722,26.332 C62.917996,25.6599966 62.1560036,25.0960023 61.436,24.64 L61.436,34 L59.096,34 L59.096,6.496 L61.436,6.064 L61.436,23.776 C62.036003,23.1999971 62.7079963,22.5400037 63.452,21.796 C64.1960037,21.0519963 64.9459962,20.2960038 65.702,19.528 C66.4580038,18.7599962 67.1719966,18.0160036 67.844,17.296 C68.5160034,16.5759964 69.0919976,15.9400028 69.572,15.388 L72.38,15.388 C71.8279972,15.9640029 71.2040035,16.6119964 70.508,17.332 C69.8119965,18.0520036 69.0860038,18.8019961 68.33,19.582 C67.5739962,20.3620039 66.8240037,21.1239963 66.08,21.868 C65.3359963,22.6120037 64.664003,23.283997 64.064,23.884 Z M91.208,33.352 C90.5119965,33.544001 89.5760059,33.7599988 88.4,34 C87.2239941,34.2400012 85.7840085,34.36 84.08,34.36 C82.687993,34.36 81.5240047,34.156002 80.588,33.748 C79.6519953,33.339998 78.8960029,32.7640037 78.32,32.02 C77.7439971,31.2759963 77.3300013,30.3760053 77.078,29.32 C76.8259987,28.2639947 76.7,27.1000064 76.7,25.828 L76.7,15.388 L79.04,15.388 L79.04,25.072 C79.04,26.3920066 79.135999,27.5079954 79.328,28.42 C79.520001,29.3320046 79.8319978,30.0699972 80.264,30.634 C80.6960022,31.1980028 81.2539966,31.6059987 81.938,31.858 C82.6220034,32.1100013 83.4559951,32.236 84.44,32.236 C85.5440055,32.236 86.5039959,32.1760006 87.32,32.056 C88.1360041,31.9359994 88.6519989,31.8280005 88.868,31.732 L88.868,15.388 L91.208,15.388 L91.208,33.352 Z M99.74,16.504 C100.148002,16.1919984 100.801995,15.8620017 101.702,15.514 C102.602005,15.1659983 103.663994,14.992 104.888,14.992 C106.232007,14.992 107.425995,15.2319976 108.47,15.712 C109.514005,16.1920024 110.395996,16.8639957 111.116,17.728 C111.836004,18.5920043 112.381998,19.6179941 112.754,20.806 C113.126002,21.9940059 113.312,23.2959929 113.312,24.712 C113.312,26.2240076 113.090002,27.579994 112.646,28.78 C112.201998,29.980006 111.578004,30.9999958 110.774,31.84 C109.969996,32.6800042 109.010006,33.3219978 107.894,33.766 C106.777994,34.2100022 105.536007,34.432 104.168,34.432 C102.511992,34.432 101.144005,34.3240011 100.064,34.108 C98.9839946,33.8919989 98.0960035,33.6640012 97.4,33.424 L97.4,6.496 L99.74,6.064 L99.74,16.504 Z M99.74,31.804 C100.100002,31.9240006 100.633996,32.0379995 101.342,32.146 C102.050004,32.2540005 102.979994,32.308 104.132,32.308 C106.14801,32.308 107.767994,31.6540065 108.992,30.346 C110.216006,29.0379935 110.828,27.1600122 110.828,24.712 C110.828,23.6799948 110.720001,22.7020046 110.504,21.778 C110.287999,20.8539954 109.940002,20.0500034 109.46,19.366 C108.979998,18.6819966 108.350004,18.136002 107.57,17.728 C106.789996,17.319998 105.824006,17.116 104.672,17.116 C104.119997,17.116 103.592003,17.1699995 103.088,17.278 C102.583997,17.3860005 102.116002,17.5239992 101.684,17.692 C101.251998,17.8600008 100.874002,18.039999 100.55,18.232 C100.225998,18.424001 99.9560011,18.6039992 99.74,18.772 L99.74,31.804 Z M117.272,24.676 C117.272,23.0439918 117.505998,21.6220061 117.974,20.41 C118.442002,19.1979939 119.053996,18.1840041 119.81,17.368 C120.566004,16.5519959 121.429995,15.946002 122.402,15.55 C123.374005,15.153998 124.375995,14.956 125.408,14.956 C127.688011,14.956 129.505993,15.6999926 130.862,17.188 C132.218007,18.6760074 132.896,20.9679845 132.896,24.064 C132.896,24.256001 132.89,24.447999 132.878,24.64 C132.866,24.832001 132.848,25.0119992 132.824,25.18 L119.756,25.18 C119.828,27.4600114 120.391995,29.2119939 121.448,30.436 C122.504005,31.6600061 124.183988,32.272 126.488,32.272 C127.760006,32.272 128.767996,32.1520012 129.512,31.912 C130.256004,31.6719988 130.795998,31.4680008 131.132,31.3 L131.564,33.316 C131.227998,33.508001 130.598005,33.7359987 129.674,34 C128.749995,34.2640013 127.664006,34.396 126.416,34.396 C124.783992,34.396 123.392006,34.1560024 122.24,33.676 C121.087994,33.1959976 120.140004,32.5240043 119.396,31.66 C118.651996,30.7959957 118.112002,29.7700059 117.776,28.582 C117.439998,27.3939941 117.272,26.0920071 117.272,24.676 Z M130.484,23.2 C130.436,21.2559903 129.980004,19.7440054 129.116,18.664 C128.251996,17.5839946 127.028008,17.044 125.444,17.044 C124.603996,17.044 123.854003,17.2119983 123.194,17.548 C122.533997,17.8840017 121.958002,18.3339972 121.466,18.898 C120.973998,19.4620028 120.590001,20.1159963 120.314,20.86 C120.037999,21.6040037 119.876,22.3839959 119.828,23.2 L130.484,23.2 Z M144.452,15.028 C145.220004,15.028 145.945997,15.0879994 146.63,15.208 C147.314003,15.3280006 147.787999,15.4479994 148.052,15.568 L147.584,17.584 C147.391999,17.4879995 147.002003,17.3860005 146.414,17.278 C145.825997,17.1699995 145.052005,17.116 144.092,17.116 C143.083995,17.116 142.274003,17.1879993 141.662,17.332 C141.049997,17.4760007 140.648001,17.5959995 140.456,17.692 L140.456,34 L138.116,34 L138.116,16.252 C138.716003,15.9879987 139.543995,15.7180014 140.6,15.442 C141.656005,15.1659986 142.939992,15.028 144.452,15.028 Z M151.58,16.036 C152.276003,15.843999 153.211994,15.6280012 154.388,15.388 C155.564006,15.1479988 157.003991,15.028 158.708,15.028 C160.124007,15.028 161.305995,15.231998 162.254,15.64 C163.202005,16.048002 163.957997,16.6299962 164.522,17.386 C165.086003,18.1420038 165.487999,19.0479947 165.728,20.104 C165.968001,21.1600053 166.088,22.3239936 166.088,23.596 L166.088,34 L163.748,34 L163.748,24.352 C163.748,23.0319934 163.658001,21.9160046 163.478,21.004 C163.297999,20.0919954 162.998002,19.3480029 162.578,18.772 C162.157998,18.1959971 161.606003,17.7820013 160.922,17.53 C160.237997,17.2779987 159.380005,17.152 158.348,17.152 C157.243994,17.152 156.290004,17.2119994 155.486,17.332 C154.681996,17.4520006 154.160001,17.5599995 153.92,17.656 L153.92,34 L151.58,34 L151.58,16.036 Z M170.948,24.676 C170.948,23.0439918 171.181998,21.6220061 171.65,20.41 C172.118002,19.1979939 172.729996,18.1840041 173.486,17.368 C174.242004,16.5519959 175.105995,15.946002 176.078,15.55 C177.050005,15.153998 178.051995,14.956 179.084,14.956 C181.364011,14.956 183.181993,15.6999926 184.538,17.188 C185.894007,18.6760074 186.572,20.9679845 186.572,24.064 C186.572,24.256001 186.566,24.447999 186.554,24.64 C186.542,24.832001 186.524,25.0119992 186.5,25.18 L173.432,25.18 C173.504,27.4600114 174.067995,29.2119939 175.124,30.436 C176.180005,31.6600061 177.859988,32.272 180.164,32.272 C181.436006,32.272 182.443996,32.1520012 183.188,31.912 C183.932004,31.6719988 184.471998,31.4680008 184.808,31.3 L185.24,33.316 C184.903998,33.508001 184.274005,33.7359987 183.35,34 C182.425995,34.2640013 181.340006,34.396 180.092,34.396 C178.459992,34.396 177.068006,34.1560024 175.916,33.676 C174.763994,33.1959976 173.816004,32.5240043 173.072,31.66 C172.327996,30.7959957 171.788002,29.7700059 171.452,28.582 C171.115998,27.3939941 170.948,26.0920071 170.948,24.676 Z M184.16,23.2 C184.112,21.2559903 183.656004,19.7440054 182.792,18.664 C181.927996,17.5839946 180.704008,17.044 179.12,17.044 C178.279996,17.044 177.530003,17.2119983 176.87,17.548 C176.209997,17.8840017 175.634002,18.3339972 175.142,18.898 C174.649998,19.4620028 174.266001,20.1159963 173.99,20.86 C173.713999,21.6040037 173.552,22.3839959 173.504,23.2 L184.16,23.2 Z M193.988,15.388 L201.404,15.388 L201.404,17.368 L193.988,17.368 L193.988,27.268 C193.988,28.3240053 194.077999,29.1819967 194.258,29.842 C194.438001,30.5020033 194.695998,31.0119982 195.032,31.372 C195.368002,31.7320018 195.775998,31.9719994 196.256,32.092 C196.736002,32.2120006 197.263997,32.272 197.84,32.272 C198.824005,32.272 199.615997,32.1580011 200.216,31.93 C200.816003,31.7019989 201.283998,31.492001 201.62,31.3 L202.196,33.244 C201.859998,33.4600011 201.272004,33.7059986 200.432,33.982 C199.591996,34.2580014 198.680005,34.396 197.696,34.396 C196.543994,34.396 195.578004,34.2460015 194.798,33.946 C194.017996,33.6459985 193.394002,33.1900031 192.926,32.578 C192.457998,31.9659969 192.128001,31.2040046 191.936,30.292 C191.743999,29.3799954 191.648,28.3000062 191.648,27.052 L191.648,9.916 L193.988,9.484 L193.988,15.388 Z M204.608,24.676 C204.608,23.0439918 204.841998,21.6220061 205.31,20.41 C205.778002,19.1979939 206.389996,18.1840041 207.146,17.368 C207.902004,16.5519959 208.765995,15.946002 209.738,15.55 C210.710005,15.153998 211.711995,14.956 212.744,14.956 C215.024011,14.956 216.841993,15.6999926 218.198,17.188 C219.554007,18.6760074 220.232,20.9679845 220.232,24.064 C220.232,24.256001 220.226,24.447999 220.214,24.64 C220.202,24.832001 220.184,25.0119992 220.16,25.18 L207.092,25.18 C207.164,27.4600114 207.727995,29.2119939 208.784,30.436 C209.840005,31.6600061 211.519988,32.272 213.824,32.272 C215.096006,32.272 216.103996,32.1520012 216.848,31.912 C217.592004,31.6719988 218.131998,31.4680008 218.468,31.3 L218.9,33.316 C218.563998,33.508001 217.934005,33.7359987 217.01,34 C216.085995,34.2640013 215.000006,34.396 213.752,34.396 C212.119992,34.396 210.728006,34.1560024 209.576,33.676 C208.423994,33.1959976 207.476004,32.5240043 206.732,31.66 C205.987996,30.7959957 205.448002,29.7700059 205.112,28.582 C204.775998,27.3939941 204.608,26.0920071 204.608,24.676 Z M217.82,23.2 C217.772,21.2559903 217.316004,19.7440054 216.452,18.664 C215.587996,17.5839946 214.364008,17.044 212.78,17.044 C211.939996,17.044 211.190003,17.2119983 210.53,17.548 C209.869997,17.8840017 209.294002,18.3339972 208.802,18.898 C208.309998,19.4620028 207.926001,20.1159963 207.65,20.86 C207.373999,21.6040037 207.212,22.3839959 207.164,23.2 L217.82,23.2 Z M229.268,32.344 C230.612007,32.344 231.721996,32.1220022 232.598,31.678 C233.474004,31.2339978 233.912,30.4840053 233.912,29.428 C233.912,28.9239975 233.834001,28.4920018 233.678,28.132 C233.521999,27.7719982 233.264002,27.4480014 232.904,27.16 C232.543998,26.8719986 232.070003,26.5960013 231.482,26.332 C230.893997,26.0679987 230.168004,25.7560018 229.304,25.396 C228.607997,25.1079986 227.948003,24.8140015 227.324,24.514 C226.699997,24.2139985 226.148002,23.866002 225.668,23.47 C225.187998,23.073998 224.804001,22.6000028 224.516,22.048 C224.227999,21.4959972 224.084,20.824004 224.084,20.032 C224.084,18.5199924 224.653994,17.2960047 225.794,16.36 C226.934006,15.4239953 228.49999,14.956 230.492,14.956 C231.764006,14.956 232.813996,15.0639989 233.642,15.28 C234.470004,15.4960011 235.051998,15.6879992 235.388,15.856 L234.848,17.944 C234.559999,17.7999993 234.074003,17.6080012 233.39,17.368 C232.705997,17.1279988 231.704007,17.008 230.384,17.008 C229.855997,17.008 229.358002,17.0619995 228.89,17.17 C228.421998,17.2780005 228.008002,17.4459989 227.648,17.674 C227.287998,17.9020011 227.000001,18.1899983 226.784,18.538 C226.567999,18.8860017 226.46,19.3119975 226.46,19.816 C226.46,20.3200025 226.555999,20.7519982 226.748,21.112 C226.940001,21.4720018 227.221998,21.7899986 227.594,22.066 C227.966002,22.3420014 228.421997,22.5999988 228.962,22.84 C229.502003,23.0800012 230.119997,23.3439986 230.816,23.632 C231.536004,23.9200014 232.225997,24.2139985 232.886,24.514 C233.546003,24.8140015 234.127997,25.1739979 234.632,25.594 C235.136003,26.0140021 235.543998,26.5179971 235.856,27.106 C236.168002,27.6940029 236.324,28.4319956 236.324,29.32 C236.324,31.0000084 235.694006,32.2719957 234.434,33.136 C233.173994,34.0000043 231.452011,34.432 229.268,34.432 C227.635992,34.432 226.388004,34.2940014 225.524,34.018 C224.659996,33.7419986 224.084001,33.5320007 223.796,33.388 L224.408,31.264 C224.48,31.3120002 224.635999,31.3899995 224.876,31.498 C225.116001,31.6060005 225.439998,31.7259993 225.848,31.858 C226.256002,31.9900007 226.741997,32.1039995 227.306,32.2 C227.870003,32.2960005 228.523996,32.344 229.268,32.344 Z" id="kubernetes" fill="#FFFFFF" fill-rule="nonzero"></path>
            </g>
        </g>
    </g>
</svg>