<?xml version="1.0" encoding="UTF-8" standalone="no"?>
<svg xmlns="http://www.w3.org/2000/svg" height="40px" width="225px" version="1.1" xmlns:xlink="http://www.w3.org/1999/xlink" viewBox="0 0 225 40"><!-- Generator: Sketch 56 (81588) - https://sketch.com -->
 <title>Group 24</title>
 <desc>Created with Sketch.</desc>
 <defs>
  <polygon id="path-1" points="0.15746 0.00027059 17.377 0.00027059 17.377 27.832 0.15746 27.832"/>
  <polygon id="path-3" points="0.043477 0.11543 16.952 0.11543 16.952 21.224 0.043477 21.224"/>
  <polygon id="path-5" points="0.000057789 0.065716 38.223 0.065716 38.223 38.418 0.000057789 38.418"/>
 </defs>
 <g id="Homepage" fill-rule="evenodd" fill="none">
  <g id="OVERVIEW-page" transform="translate(-1051 -1777)">
   <g id="Group-27" transform="translate(1026 1757)">
    <g id="Group-24" transform="translate(25.809 20)">
     <polygon id="Fill-1" points="67.571 30.022 67.571 32.34 52.367 32.34 52.367 5.1064 54.991 5.1064 54.991 30.022" fill="#fff"/>
     <g id="Group-23">
      <path id="Fill-2" fill="#fff" d="m77.963 30.554c0.986 0 1.85-0.033 2.591-0.098 0.74-0.065 1.369-0.149 1.889-0.254v-7.114c-0.286-0.13-0.74-0.267-1.364-0.411-0.623-0.143-1.48-0.215-2.571-0.215-0.623 0-1.273 0.046-1.948 0.137s-1.299 0.287-1.87 0.586c-0.571 0.3-1.039 0.711-1.402 1.232-0.364 0.521-0.546 1.212-0.546 2.071 0 0.757 0.123 1.395 0.37 1.916s0.598 0.938 1.052 1.251c0.454 0.312 1 0.541 1.637 0.684 0.636 0.143 1.356 0.215 2.162 0.215m-0.234-18.842c1.325 0 2.448 0.19 3.37 0.567 0.921 0.378 1.668 0.899 2.24 1.564 0.571 0.664 0.987 1.453 1.247 2.365 0.259 0.912 0.389 1.902 0.389 2.97v12.744c-0.26 0.078-0.637 0.163-1.13 0.254-0.493 0.092-1.065 0.19-1.714 0.293-0.649 0.104-1.37 0.189-2.162 0.254-0.793 0.065-1.604 0.098-2.435 0.098-1.065 0-2.045-0.117-2.941-0.352-0.896-0.234-1.675-0.606-2.338-1.114-0.662-0.508-1.182-1.159-1.558-1.954-0.377-0.795-0.565-1.765-0.565-2.913 0-1.094 0.208-2.032 0.623-2.814s1-1.427 1.753-1.935 1.65-0.879 2.689-1.114c1.038-0.235 2.168-0.352 3.389-0.352 0.363 0 0.746 0.02 1.149 0.059s0.792 0.091 1.169 0.156c0.376 0.066 0.701 0.131 0.974 0.196s0.461 0.124 0.565 0.176v-1.252c0-0.703-0.052-1.387-0.156-2.052-0.104-0.664-0.331-1.264-0.682-1.798-0.35-0.534-0.844-0.964-1.48-1.29-0.637-0.326-1.474-0.489-2.513-0.489-1.48 0-2.585 0.105-3.311 0.313-0.728 0.209-1.26 0.378-1.598 0.508l-0.35-2.228c0.441-0.208 1.123-0.404 2.045-0.586s2.032-0.274 3.331-0.274"/>
      <path id="Fill-4" fill="#fff" d="m90.452 12.885c0.753-0.208 1.766-0.443 3.039-0.704 1.272-0.26 2.831-0.391 4.675-0.391 1.532 0 2.814 0.222 3.834 0.665 1.03 0.443 1.85 1.075 2.46 1.896s1.04 1.805 1.3 2.951c0.26 1.147 0.39 2.411 0.39 3.792v11.297h-2.53v-10.476c0-1.433-0.1-2.645-0.29-3.636-0.2-0.99-0.52-1.798-0.98-2.423-0.45-0.626-1.05-1.075-1.79-1.349-0.738-0.273-1.667-0.41-2.783-0.41-1.195 0-2.228 0.065-3.098 0.195-0.87 0.131-1.435 0.248-1.694 0.352v17.747h-2.533v-19.506z"/>
      <path id="Fill-6" fill="#fff" d="m125.19 15.856c-0.24-0.182-0.53-0.378-0.88-0.586-0.35-0.209-0.76-0.404-1.23-0.587-0.46-0.182-0.97-0.332-1.52-0.449-0.54-0.118-1.11-0.177-1.71-0.177-1.25 0-2.29 0.222-3.14 0.665-0.84 0.444-1.52 1.036-2.04 1.779s-0.9 1.616-1.13 2.619c-0.23 1.004-0.35 2.066-0.35 3.186 0 2.658 0.66 4.697 1.99 6.117 1.32 1.421 3.07 2.131 5.25 2.131 1.25 0 2.26-0.059 3.02-0.176 0.77-0.117 1.35-0.241 1.74-0.372v-14.15zm2.53 15.91c-0.75 0.26-1.71 0.508-2.88 0.742-1.17 0.235-2.65 0.352-4.44 0.352-1.48 0-2.83-0.241-4.04-0.723-1.2-0.482-2.24-1.179-3.11-2.091s-1.55-2.02-2.03-3.323-0.72-2.775-0.72-4.417c0-1.538 0.2-2.951 0.6-4.242 0.41-1.29 1-2.404 1.78-3.342s1.73-1.667 2.86-2.189c1.13-0.521 2.42-0.782 3.88-0.782 1.32 0 2.47 0.189 3.44 0.567 0.98 0.378 1.69 0.737 2.13 1.075v-10.867l2.53-0.4692v29.709z"/>
      <path id="Fill-8" fill="#fff" d="m137.49 30.593c1.45 0 2.65-0.241 3.6-0.723s1.42-1.296 1.42-2.444c0-0.547-0.08-1.016-0.25-1.407s-0.45-0.742-0.84-1.055-0.9-0.612-1.54-0.899c-0.63-0.287-1.42-0.626-2.35-1.017-0.76-0.312-1.47-0.631-2.15-0.957-0.67-0.326-1.27-0.704-1.79-1.134s-0.93-0.944-1.25-1.544c-0.31-0.599-0.46-1.329-0.46-2.189 0-1.642 0.61-2.971 1.85-3.987 1.23-1.017 2.92-1.525 5.08-1.525 1.38 0 2.51 0.117 3.41 0.352 0.9 0.234 1.53 0.443 1.89 0.626l-0.58 2.267c-0.32-0.157-0.84-0.365-1.58-0.626-0.74-0.26-1.83-0.391-3.26-0.391-0.57 0-1.11 0.06-1.61 0.177-0.51 0.117-0.96 0.3-1.35 0.548s-0.7 0.562-0.93 0.94c-0.24 0.379-0.35 0.842-0.35 1.39 0 0.549 0.1 1.019 0.31 1.411s0.51 0.738 0.91 1.038c0.41 0.301 0.9 0.58 1.49 0.84 0.58 0.259 1.25 0.544 2 0.856 0.78 0.311 1.53 0.629 2.24 0.953 0.72 0.325 1.35 0.715 1.89 1.17 0.55 0.457 0.99 1.004 1.33 1.642 0.33 0.639 0.5 1.44 0.5 2.405 0 1.824-0.68 3.205-2.04 4.143-1.37 0.938-3.23 1.407-5.59 1.407-1.77 0-3.12-0.15-4.06-0.45-0.93-0.299-1.55-0.527-1.87-0.684l0.67-2.306c0.07 0.053 0.24 0.137 0.5 0.254 0.26 0.118 0.61 0.248 1.06 0.391 0.44 0.144 0.96 0.268 1.57 0.372s1.32 0.156 2.13 0.156"/>
      <path id="Fill-10" fill="#fff" d="m157.69 32.821c-1.56 0-2.94-0.248-4.13-0.743-1.2-0.494-2.19-1.205-2.98-2.13-0.8-0.925-1.4-2.033-1.82-3.323-0.41-1.29-0.62-2.716-0.62-4.28 0-1.589 0.22-3.036 0.64-4.339 0.43-1.303 1.05-2.424 1.85-3.362 0.81-0.938 1.78-1.661 2.93-2.17 1.14-0.508 2.42-0.762 3.85-0.762 1.09 0 2.11 0.092 3.06 0.274 0.95 0.183 1.68 0.417 2.2 0.703l-0.66 2.189c-0.52-0.259-1.1-0.469-1.75-0.625s-1.52-0.234-2.61-0.234c-2.24 0-3.93 0.722-5.09 2.169-1.15 1.446-1.73 3.499-1.73 6.157 0 1.199 0.13 2.3 0.39 3.303s0.68 1.863 1.27 2.58c0.58 0.717 1.33 1.277 2.25 1.681 0.93 0.404 2.05 0.606 3.37 0.606 1.1 0 2.01-0.124 2.75-0.372 0.74-0.247 1.28-0.462 1.62-0.645l0.54 2.19c-0.46 0.26-1.2 0.514-2.2 0.762-1 0.247-2.04 0.371-3.13 0.371"/>
      <path id="Fill-12" fill="#fff" d="m173.17 30.554c0.99 0 1.85-0.033 2.59-0.098s1.37-0.149 1.89-0.254v-7.114c-0.28-0.13-0.74-0.267-1.36-0.411-0.62-0.143-1.48-0.215-2.57-0.215-0.63 0-1.28 0.046-1.95 0.137-0.68 0.091-1.3 0.287-1.87 0.586-0.57 0.3-1.04 0.711-1.4 1.232-0.37 0.521-0.55 1.212-0.55 2.071 0 0.757 0.12 1.395 0.37 1.916s0.6 0.938 1.05 1.251c0.46 0.312 1 0.541 1.64 0.684s1.36 0.215 2.16 0.215m-0.23-18.842c1.32 0 2.45 0.19 3.37 0.567 0.92 0.378 1.67 0.899 2.24 1.564 0.57 0.664 0.99 1.453 1.24 2.365 0.26 0.912 0.39 1.902 0.39 2.97v12.744c-0.26 0.078-0.63 0.163-1.13 0.254-0.49 0.092-1.06 0.19-1.71 0.293-0.65 0.104-1.37 0.189-2.16 0.254s-1.61 0.098-2.44 0.098c-1.06 0-2.04-0.117-2.94-0.352-0.89-0.234-1.67-0.606-2.34-1.114-0.66-0.508-1.18-1.159-1.55-1.954-0.38-0.795-0.57-1.765-0.57-2.913 0-1.094 0.21-2.032 0.62-2.814 0.42-0.782 1-1.427 1.76-1.935 0.75-0.508 1.65-0.879 2.69-1.114 1.03-0.235 2.16-0.352 3.39-0.352 0.36 0 0.74 0.02 1.14 0.059 0.41 0.039 0.8 0.091 1.17 0.156 0.38 0.066 0.7 0.131 0.98 0.196 0.27 0.065 0.46 0.124 0.56 0.176v-1.252c0-0.703-0.05-1.387-0.15-2.052-0.11-0.664-0.33-1.264-0.69-1.798-0.35-0.534-0.84-0.964-1.48-1.29-0.63-0.326-1.47-0.489-2.51-0.489-1.48 0-2.58 0.105-3.31 0.313-0.73 0.209-1.26 0.378-1.6 0.508l-0.35-2.228c0.44-0.208 1.12-0.404 2.05-0.586 0.92-0.182 2.03-0.274 3.33-0.274"/>
      <g id="Group-16" transform="translate(185.5 11.79)">
       <mask id="mask-2" fill="white">
        <use xlink:href="#path-1"/>
       </mask>
       <path id="Fill-14" fill="#fff" mask="url(#mask-2)" d="m2.6896 16.966c0.234 0.182 0.5263 0.378 0.8767 0.586 0.3506 0.209 0.7599 0.404 1.2272 0.586 0.4677 0.183 0.9742 0.332 1.5197 0.45 0.5451 0.117 1.1161 0.176 1.714 0.176 1.2465 0 2.2918-0.216 3.1358-0.645 0.844-0.43 1.526-1.017 2.046-1.759 0.519-0.743 0.896-1.616 1.13-2.62 0.233-1.002 0.35-2.064 0.35-3.185 0-2.6584-0.662-4.6973-1.987-6.118-1.324-1.42-3.0777-2.1305-5.259-2.1305-1.2469 0-2.254 0.0588-3.0197 0.1761-0.7665 0.1169-1.344 0.2412-1.7337 0.3715v14.112zm0 10.867h-2.5321l-0.00004-26.738c0.75299-0.26053 1.7142-0.50851 2.8827-0.74296 1.1691-0.23445 2.6494-0.35177 4.4415-0.35177 1.4806 5.9e-7 2.8243 0.24141 4.0323 0.72307 1.207 0.48246 2.246 1.1796 3.116 2.0915 0.87 0.9125 1.545 2.0196 2.027 3.3225 0.48 1.3035 0.72 2.7757 0.72 4.4177 0 1.538-0.201 2.951-0.604 4.241s-0.993 2.398-1.772 3.323c-0.78 0.925-1.734 1.648-2.864 2.169s-2.4219 0.782-3.8761 0.782c-1.3247 0-2.4742-0.189-3.4483-0.567-0.9736-0.377-1.6817-0.736-2.123-1.075v8.405z"/>
      </g>
      <g id="Group-19" transform="translate(206.31 11.597)">
       <mask id="mask-4" fill="white">
        <use xlink:href="#path-3"/>
       </mask>
       <path id="Fill-17" fill="#fff" mask="url(#mask-4)" d="m14.342 9.0672c-0.053-2.1112-0.546-3.7529-1.481-4.9255-0.935-1.1727-2.259-1.7591-3.9732-1.7591-0.9098 0-1.7214 0.1827-2.4351 0.5472-0.7148 0.3653-1.3382 0.8541-1.8702 1.466-0.5329 0.6123-0.9482 1.3228-1.2466 2.1302-0.2991 0.8083-0.4744 1.6554-0.5262 2.5412h11.532zm-14.299 1.6028c0-1.7721 0.25369-3.3162 0.76012-4.6326 0.5064-1.3155 1.1685-2.4166 1.9868-3.303 0.8183-0.8854 1.753-1.5441 2.8049-1.974 1.052-0.43004 2.1363-0.64497 3.2532-0.64497 2.4675 0 4.4345 0.80811 5.9025 2.4236 1.467 1.6158 2.201 4.1043 2.201 7.466 0 0.209-0.007 0.418-0.02 0.626-0.013 0.209-0.032 0.404-0.058 0.586h-14.142c0.0777 2.476 0.6879 4.378 1.8308 5.707 1.1427 1.329 2.9609 1.994 5.4542 1.994 1.377 0 2.467-0.13 3.273-0.391 0.804-0.26 1.389-0.482 1.753-0.664l0.467 2.188c-0.364 0.209-1.045 0.457-2.045 0.743-1 0.287-2.176 0.43-3.5258 0.43-1.7663 0-3.2725-0.26-4.519-0.781-1.2467-0.522-2.273-1.251-3.0779-2.19-0.8055-0.938-1.3898-2.052-1.7533-3.342-0.36368-1.29-0.54552-2.703-0.54552-4.241h-0.000003z"/>
      </g>
      <g id="Group-22">
       <mask id="mask-6" fill="white">
        <use xlink:href="#path-5"/>
       </mask>
       <path id="Fill-20" fill="#fff" mask="url(#mask-6)" d="m28.78 31.135c-0.102 0.103-0.241 0.16-0.386 0.16h-17.473c-0.302 0-0.546-0.245-0.546-0.547v-24.107c0-0.3031 0.244-0.5484 0.546-0.5484s0.546 0.2453 0.546 0.548v23.559h16.381v-5.479h-10.375c-0.301 0-0.545-0.245-0.545-0.548v-16.984l-3.277-0.0005v20.82h12.013v-1.096h-10.375c-0.301 0-0.546-0.245-0.546-0.548v-18.08l1.092 0.0002v17.533h10.375c0.302 0 0.546 0.245 0.546 0.547v2.192c0 0.145-0.057 0.285-0.16 0.387-0.102 0.103-0.241 0.161-0.386 0.161h-13.105c-0.301 0-0.546-0.245-0.546-0.548v-21.915c0-0.3029 0.245-0.5484 0.546-0.5484h4.368c0.145 0 0.284 0.0578 0.387 0.1604 0.102 0.1029 0.16 0.2422 0.16 0.3876v16.984h10.374c0.302 0 0.546 0.245 0.546 0.548v6.575c0 0.145-0.057 0.284-0.16 0.387m-9.668-31.069c-10.554 0-19.112 8.5844-19.112 19.176 0.000057789 10.589 8.5581 19.176 19.112 19.176 10.556 0 19.111-8.587 19.111-19.176 0-10.592-8.555-19.176-19.111-19.176"/>
      </g>
     </g>
    </g>
   </g>
  </g>
 </g>
</svg>
