<?xml version="1.0" encoding="UTF-8"?>
<svg width="183px" height="43px" viewBox="0 0 183 43" version="1.1" xmlns="http://www.w3.org/2000/svg" xmlns:xlink="http://www.w3.org/1999/xlink">
    <!-- Generator: Sketch 56 (81588) - https://sketch.com -->
    <title>Group 25</title>
    <desc>Created with Sketch.</desc>
    <g id="Homepage" stroke="none" stroke-width="1" fill="none" fill-rule="evenodd">
        <g id="OVERVIEW-page" transform="translate(-467.000000, -1776.000000)" fill-rule="nonzero">
            <g id="Group-25" transform="translate(467.000000, 1776.000000)">
                <g id="Group-24">
                    <g id="Group-23">
                        <g id="picto-ubuntu">
                            <path d="M43.0638298,21.4782193 C43.0638298,33.3341964 33.4282979,42.9564387 21.5319149,42.9564387 C9.63553191,42.9564387 0,33.3341964 0,21.4782193 C0,9.61150316 9.63553191,0 21.5319149,0 C33.4282979,0 43.0638298,9.61150316 43.0638298,21.4782193 Z" id="Shape" fill="#FFFFFF"></path>
                            <path d="M6.91174468,18.0436532 C5.31838298,18.0436532 4.03723404,19.3323463 4.03723404,20.9109955 C4.03723404,22.4896446 5.32914894,23.7783377 6.91174468,23.7783377 C8.49434043,23.7783377 9.78625532,22.4896446 9.78625532,20.9109955 C9.78625532,19.3216072 8.49434043,18.0436532 6.91174468,18.0436532 Z M27.4424255,31.0701932 C26.064383,31.8648873 25.6014468,33.6153622 26.3873617,34.9899682 C27.1840426,36.3645743 28.9388936,36.8370951 30.3169362,36.042401 C31.6949787,35.2477069 32.1579149,33.497232 31.372,32.122626 C30.5645532,30.758759 28.8097021,30.2862382 27.4424255,31.0701932 Z M13.156,20.9109955 C13.156,18.0758705 14.5663404,15.5736579 16.7302979,14.0594435 L14.6309362,10.5477546 C12.1117021,12.2230557 10.2491915,14.7897029 9.4632766,17.7859145 C10.367617,18.5269131 10.9489787,19.6545196 10.9489787,20.9109955 C10.9489787,22.1674713 10.367617,23.2950778 9.4632766,24.0360764 C10.2384255,27.032288 12.1117021,29.5989352 14.6309362,31.2742363 L16.7302979,27.7625474 C14.5663404,26.248333 13.156,23.7461204 13.156,20.9109955 Z M21.5534468,12.5344899 C25.9459574,12.5344899 29.5417872,15.8850921 29.9185957,20.1699969 L34.0204255,20.1055622 C33.8158723,16.948264 32.4378298,14.113139 30.3061702,12.0297518 C29.2080426,12.4378379 27.9484255,12.3734033 26.8610638,11.7505349 C25.7629362,11.1169274 25.0846809,10.0644947 24.8908936,8.90467084 C23.8250638,8.61471488 22.7054043,8.45362824 21.5534468,8.45362824 C19.5617447,8.45362824 17.6884681,8.91540995 16.0197447,9.7423214 L18.0222128,13.3077058 C19.0880426,12.8137068 20.2938298,12.5344899 21.5534468,12.5344899 Z M21.5534468,29.287501 C20.2938298,29.287501 19.0880426,29.0082841 18.0114468,28.5142851 L16.0089787,32.0796695 C17.6777021,32.906581 19.5617447,33.3683627 21.5426809,33.3683627 C22.6946383,33.3683627 23.8142979,33.207276 24.8801277,32.9173201 C25.0631489,31.7682353 25.7521702,30.7050635 26.8502979,30.071456 C27.9376596,29.4378485 29.2080426,29.384153 30.2954043,29.7922392 C32.4162979,27.7088519 33.8051064,24.8737269 34.0096596,21.7164287 L29.9078298,21.651994 C29.5417872,25.9261597 25.9459574,29.287501 21.5534468,29.287501 L21.5534468,29.287501 Z M27.4316596,10.7410586 C28.8097021,11.5357527 30.5645532,11.0632319 31.361234,9.68862585 C32.1579149,8.31401981 31.6842128,6.56354493 30.3061702,5.76885082 C28.9281277,4.9741567 27.1732766,5.44667753 26.3765957,6.82128357 C25.5906809,8.1958896 26.064383,9.94636448 27.4316596,10.7410586 Z" id="Shape" fill="#772953"></path>
                        </g>
                    </g>
                </g>
                <path d="M63.8380426,32.7883404 C65.7820523,32.7883404 67.2940372,32.434344 68.3740426,31.7263404 C69.454048,31.0183369 69.9940426,29.8723483 69.9940426,28.2883404 C69.9940426,27.3763359 69.8200443,26.6143435 69.4720426,26.0023404 C69.1240408,25.3903374 68.6620454,24.8743425 68.0860426,24.4543404 C67.5100397,24.0343383 66.8500463,23.6743419 66.1060426,23.3743404 C65.3620388,23.0743389 64.5820466,22.7563421 63.7660426,22.4203404 C62.7340374,22.0123384 61.8100466,21.5923426 60.9940426,21.1603404 C60.1780385,20.7283383 59.4820454,20.2423431 58.9060426,19.7023404 C58.3300397,19.1623377 57.8920441,18.5443439 57.5920426,17.8483404 C57.2920411,17.1523369 57.1420426,16.3363451 57.1420426,15.4003404 C57.1420426,13.2643297 57.8500355,11.6443459 59.2660426,10.5403404 C60.6820496,9.43633491 62.65003,8.88434043 65.1700426,8.88434043 C65.8420459,8.88434043 66.5020393,8.93233995 67.1500426,9.02834043 C67.7980458,9.12434091 68.4040397,9.25033965 68.9680426,9.40634043 C69.5320454,9.56234121 70.0480402,9.73633947 70.5160426,9.92834043 C70.9840449,10.1203414 71.374041,10.3243393 71.6860426,10.5403404 L70.8220426,12.5923404 C70.1260391,12.112338 69.2800475,11.7283419 68.2840426,11.4403404 C67.2880376,11.152339 66.2140483,11.0083404 65.0620426,11.0083404 C64.2700386,11.0083404 63.5440459,11.0863396 62.8840426,11.2423404 C62.2240393,11.3983412 61.654045,11.6503387 61.1740426,11.9983404 C60.6940402,12.3463422 60.3160439,12.7843378 60.0400426,13.3123404 C59.7640412,13.8403431 59.6260426,14.4763367 59.6260426,15.2203404 C59.6260426,15.9883443 59.7700411,16.6363378 60.0580426,17.1643404 C60.346044,17.6923431 60.74804,18.1483385 61.2640426,18.5323404 C61.7800451,18.9163423 62.3860391,19.2643389 63.0820426,19.5763404 C63.778046,19.888342 64.5340385,20.2123387 65.3500426,20.5483404 C66.3340475,20.9563425 67.2640382,21.3643384 68.1400426,21.7723404 C69.0160469,22.1803425 69.7780393,22.6603377 70.4260426,23.2123404 C71.0740458,23.7643432 71.5900406,24.4363365 71.9740426,25.2283404 C72.3580445,26.0203444 72.5500426,26.9923347 72.5500426,28.1443404 C72.5500426,30.4003517 71.7640504,32.0923348 70.1920426,33.2203404 C68.6200347,34.3483461 66.490056,34.9123404 63.8020426,34.9123404 C62.8420378,34.9123404 61.9660465,34.852341 61.1740426,34.7323404 C60.3820386,34.6123398 59.6740457,34.4623413 59.0500426,34.2823404 C58.4260394,34.1023395 57.8980447,33.9163414 57.4660426,33.7243404 C57.0340404,33.5323395 56.6980438,33.3643411 56.4580426,33.2203404 L57.2500426,31.0963404 C57.4900438,31.2403411 57.8140405,31.4083395 58.2220426,31.6003404 C58.6300446,31.7923414 59.1100398,31.9783395 59.6620426,32.1583404 C60.2140453,32.3383413 60.8380391,32.4883398 61.5340426,32.6083404 C62.230046,32.728341 62.9980384,32.7883404 63.8380426,32.7883404 Z M75.8260426,25.0483404 C75.8260426,23.4163323 76.0600402,21.9943465 76.5280426,20.7823404 C76.9960449,19.5703344 77.6080388,18.5563445 78.3640426,17.7403404 C79.1200463,16.9243363 79.9840377,16.3183424 80.9560426,15.9223404 C81.9280474,15.5263384 82.9300374,15.3283404 83.9620426,15.3283404 C86.242054,15.3283404 88.0600358,16.072333 89.4160426,17.5603404 C90.7720493,19.0483479 91.4500426,21.3403249 91.4500426,24.4363404 C91.4500426,24.6283414 91.4440426,24.8203395 91.4320426,25.0123404 C91.4200425,25.2043414 91.4020427,25.3843396 91.3780426,25.5523404 L78.3100426,25.5523404 C78.3820429,27.8323518 78.9460373,29.5843343 80.0020426,30.8083404 C81.0580478,32.0323465 82.738031,32.6443404 85.0420426,32.6443404 C86.3140489,32.6443404 87.3220388,32.5243416 88.0660426,32.2843404 C88.8100463,32.0443392 89.3500409,31.8403413 89.6860426,31.6723404 L90.1180426,33.6883404 C89.7820409,33.8803414 89.1520472,34.1083391 88.2280426,34.3723404 C87.3040379,34.6363417 86.2180488,34.7683404 84.9700426,34.7683404 C83.3380344,34.7683404 81.9460483,34.5283428 80.7940426,34.0483404 C79.6420368,33.568338 78.6940463,32.8963447 77.9500426,32.0323404 C77.2060388,31.1683361 76.6660442,30.1423464 76.3300426,28.9543404 C75.9940409,27.7663345 75.8260426,26.4643475 75.8260426,25.0483404 Z M89.0380426,23.5723404 C88.9900423,21.6283307 88.5340469,20.1163458 87.6700426,19.0363404 C86.8060382,17.956335 85.5820505,17.4163404 83.9980426,17.4163404 C83.1580384,17.4163404 82.4080459,17.5843387 81.7480426,17.9203404 C81.0880393,18.2563421 80.512045,18.7063376 80.0200426,19.2703404 C79.5280401,19.8343432 79.1440439,20.4883367 78.8680426,21.2323404 C78.5920412,21.9763441 78.4300428,22.7563363 78.3820426,23.5723404 L89.0380426,23.5723404 Z M104.374043,34.7683404 C102.934035,34.7683404 101.662048,34.5403427 100.558043,34.0843404 C99.454037,33.6283381 98.5360462,32.9743447 97.8040426,32.1223404 C97.0720389,31.2703362 96.5140445,30.2503464 96.1300426,29.0623404 C95.7460406,27.8743345 95.5540426,26.5603476 95.5540426,25.1203404 C95.5540426,23.6563331 95.7520406,22.3243464 96.1480426,21.1243404 C96.5440445,19.9243344 97.1140388,18.8923447 97.8580426,18.0283404 C98.6020463,17.1643361 99.5020373,16.4983428 100.558043,16.0303404 C101.614048,15.5623381 102.802036,15.3283404 104.122043,15.3283404 C105.130048,15.3283404 106.072038,15.4123396 106.948043,15.5803404 C107.824047,15.7483413 108.50204,15.9643391 108.982043,16.2283404 L108.370043,18.2443404 C107.89004,18.0043392 107.350046,17.8123411 106.750043,17.6683404 C106.15004,17.5243397 105.346048,17.4523404 104.338043,17.4523404 C102.274032,17.4523404 100.708048,18.1183338 99.6400426,19.4503404 C98.5720372,20.7823471 98.0380426,22.6723282 98.0380426,25.1203404 C98.0380426,26.2243459 98.1580414,27.2383358 98.3980426,28.1623404 C98.6380438,29.086345 99.0280399,29.8783371 99.5680426,30.5383404 C100.108045,31.1983437 100.804038,31.7143386 101.656043,32.0863404 C102.508047,32.4583423 103.546036,32.6443404 104.770043,32.6443404 C105.778048,32.6443404 106.624039,32.5303416 107.308043,32.3023404 C107.992046,32.0743393 108.490041,31.8763413 108.802043,31.7083404 L109.306043,33.7243404 C108.87404,33.9643416 108.196047,34.1983393 107.272043,34.4263404 C106.348038,34.6543416 105.382048,34.7683404 104.374043,34.7683404 Z M127.522043,33.7243404 C126.826039,33.9163414 125.890048,34.1323392 124.714043,34.3723404 C123.538037,34.6123416 122.098051,34.7323404 120.394043,34.7323404 C119.002036,34.7323404 117.838047,34.5283425 116.902043,34.1203404 C115.966038,33.7123384 115.210045,33.1363441 114.634043,32.3923404 C114.05804,31.6483367 113.644044,30.7483457 113.392043,29.6923404 C113.140041,28.6363351 113.014043,27.4723468 113.014043,26.2003404 L113.014043,15.7603404 L115.354043,15.7603404 L115.354043,25.4443404 C115.354043,26.764347 115.450042,27.8803359 115.642043,28.7923404 C115.834044,29.704345 116.14604,30.4423376 116.578043,31.0063404 C117.010045,31.5703432 117.568039,31.9783392 118.252043,32.2303404 C118.936046,32.4823417 119.770038,32.6083404 120.754043,32.6083404 C121.858048,32.6083404 122.818038,32.548341 123.634043,32.4283404 C124.450047,32.3083398 124.966041,32.2003409 125.182043,32.1043404 L125.182043,15.7603404 L127.522043,15.7603404 L127.522043,33.7243404 Z M140.050043,15.4003404 C140.818046,15.4003404 141.544039,15.4603398 142.228043,15.5803404 C142.912046,15.700341 143.386041,15.8203398 143.650043,15.9403404 L143.182043,17.9563404 C142.990042,17.8603399 142.600045,17.758341 142.012043,17.6503404 C141.42404,17.5423399 140.650047,17.4883404 139.690043,17.4883404 C138.682038,17.4883404 137.872046,17.5603397 137.260043,17.7043404 C136.648039,17.8483411 136.246044,17.9683399 136.054043,18.0643404 L136.054043,34.3723404 L133.714043,34.3723404 L133.714043,16.6243404 C134.314046,16.3603391 135.142037,16.0903418 136.198043,15.8143404 C137.254048,15.538339 138.538035,15.4003404 140.050043,15.4003404 Z M149.518043,34.3723404 L147.178043,34.3723404 L147.178043,15.7603404 L149.518043,15.7603404 L149.518043,34.3723404 Z M150.058043,10.1443404 C150.058043,10.6963432 149.890044,11.1343388 149.554043,11.4583404 C149.218041,11.782342 148.810045,11.9443404 148.330043,11.9443404 C147.85004,11.9443404 147.442044,11.782342 147.106043,11.4583404 C146.770041,11.1343388 146.602043,10.6963432 146.602043,10.1443404 C146.602043,9.59233767 146.770041,9.15434205 147.106043,8.83034043 C147.442044,8.50633881 147.85004,8.34434043 148.330043,8.34434043 C148.810045,8.34434043 149.218041,8.50633881 149.554043,8.83034043 C149.890044,9.15434205 150.058043,9.59233767 150.058043,10.1443404 Z M157.906043,15.7603404 L165.322043,15.7603404 L165.322043,17.7403404 L157.906043,17.7403404 L157.906043,27.6403404 C157.906043,28.6963457 157.996042,29.5543371 158.176043,30.2143404 C158.356043,30.8743437 158.614041,31.3843386 158.950043,31.7443404 C159.286044,32.1043422 159.69404,32.3443398 160.174043,32.4643404 C160.654045,32.584341 161.18204,32.6443404 161.758043,32.6443404 C162.742047,32.6443404 163.53404,32.5303416 164.134043,32.3023404 C164.734046,32.0743393 165.202041,31.8643414 165.538043,31.6723404 L166.114043,33.6163404 C165.778041,33.8323415 165.190047,34.078339 164.350043,34.3543404 C163.510038,34.6303418 162.598047,34.7683404 161.614043,34.7683404 C160.462037,34.7683404 159.496046,34.6183419 158.716043,34.3183404 C157.936039,34.0183389 157.312045,33.5623435 156.844043,32.9503404 C156.37604,32.3383374 156.046044,31.576345 155.854043,30.6643404 C155.662042,29.7523359 155.566043,28.6723467 155.566043,27.4243404 L155.566043,10.2883404 L157.906043,9.85634043 L157.906043,15.7603404 Z M174.718043,34.7683404 C173.926039,33.3043331 173.164046,31.7803483 172.432043,30.1963404 C171.700039,28.6123325 171.016046,27.0103485 170.380043,25.3903404 C169.744039,23.7703323 169.162045,22.1503485 168.634043,20.5303404 C168.10604,18.9103323 167.650044,17.3203482 167.266043,15.7603404 L169.750043,15.7603404 C170.014044,16.9123462 170.350041,18.1543338 170.758043,19.4863404 C171.166045,20.8183471 171.62804,22.1923333 172.144043,23.6083404 C172.660045,25.0243475 173.230039,26.476333 173.854043,27.9643404 C174.478046,29.4523479 175.150039,30.9163332 175.870043,32.3563404 C176.398045,30.868333 176.866041,29.464347 177.274043,28.1443404 C177.682045,26.8243338 178.060041,25.510347 178.408043,24.2023404 C178.756044,22.8943339 179.092041,21.5563473 179.416043,20.1883404 C179.740044,18.8203336 180.082043,17.3443483 180.442043,15.7603404 L182.782043,15.7603404 C182.014039,19.2403578 181.138047,22.624324 180.154043,25.9123404 C179.170038,29.2003569 178.102048,32.2123267 176.950043,34.9483404 C176.49404,36.0283458 176.026045,36.9583365 175.546043,37.7383404 C175.06604,38.5183443 174.532045,39.1603379 173.944043,39.6643404 C173.35604,40.1683429 172.672046,40.5403392 171.892043,40.7803404 C171.112039,41.0203416 170.194048,41.1403404 169.138043,41.1403404 C168.53804,41.1403404 167.992045,41.0683411 167.500043,40.9243404 C167.00804,40.7803397 166.702043,40.6723408 166.582043,40.6003404 L167.050043,38.6563404 C167.146043,38.7283408 167.41604,38.8303398 167.860043,38.9623404 C168.304045,39.0943411 168.76604,39.1603404 169.246043,39.1603404 C169.918046,39.1603404 170.52404,39.0883411 171.064043,38.9443404 C171.604045,38.8003397 172.09004,38.5543422 172.522043,38.2063404 C172.954045,37.8583387 173.344041,37.4083432 173.692043,36.8563404 C174.040044,36.3043377 174.382041,35.6083446 174.718043,34.7683404 Z" id="Security" fill="#FFFFFF"></path>
            </g>
        </g>
    </g>
</svg>