<?xml version="1.0" encoding="UTF-8" standalone="no"?>
<svg xmlns="http://www.w3.org/2000/svg" height="40px" width="152px" version="1.1" xmlns:xlink="http://www.w3.org/1999/xlink" viewBox="0 0 152 40"><!-- Generator: Sketch 56 (81588) - https://sketch.com -->
 <title>Group 29</title>
 <desc>Created with Sketch.</desc>
 <defs>
  <polygon id="path-1" points="0.059321 0.14342 18.1 0.14342 18.1 29.046 0.059321 29.046"/>
 </defs>
 <g id="Homepage" fill-rule="evenodd" fill="none">
  <g id="OVERVIEW-page" transform="translate(-170 -2084)">
   <g id="Group-28" transform="translate(144 2064)">
    <g id="Group-29" transform="translate(26 20)">
     <path id="Fill-1" fill="#fff" d="m62.384 30.479c-0.271-0.677-0.656-1.572-1.156-2.684-0.501-1.112-1.062-2.325-1.685-3.64-0.622-1.314-1.258-2.67-1.907-4.066-0.65-1.396-1.272-2.705-1.867-3.925s-1.123-2.29-1.583-3.213c-0.46-0.921-0.798-1.572-1.014-1.951-0.351 3.389-0.627 7.069-0.829 11.041-0.202 3.971-0.383 8.14-0.545 12.504h-2.707c0.242-5.124 0.518-10.03 0.828-14.721 0.31-4.69 0.693-9.177 1.152-13.46l2.424-0.0004c0.809 1.3559 1.673 2.9216 2.591 4.6974 0.917 1.775 1.828 3.619 2.732 5.53 0.904 1.912 1.782 3.796 2.632 5.653s1.599 3.532 2.247 5.022c0.648-1.49 1.397-3.165 2.247-5.022s1.727-3.741 2.631-5.653c0.904-1.911 1.815-3.755 2.733-5.53 0.918-1.7758 1.781-3.3415 2.591-4.6974h2.303c0.458 4.2834 0.842 8.7704 1.152 13.46 0.309 4.691 0.586 9.597 0.828 14.721h-2.788c-0.161-4.364-0.343-8.533-0.545-12.504-0.202-3.972-0.479-7.652-0.829-11.041-0.215 0.379-0.552 1.03-1.01 1.951-0.458 0.923-0.983 1.993-1.575 3.213-0.593 1.22-1.213 2.529-1.859 3.925-0.647 1.396-1.28 2.752-1.899 4.066-0.62 1.315-1.179 2.528-1.677 3.64s-0.882 2.007-1.151 2.684h-2.465z"/>
     <path id="Fill-3" fill="#fff" d="m93.534 9.5356c-1.027 2.3404-2.026 4.7164-2.999 7.1264s-1.979 5.009-3.02 7.798h12.105c-1.047-2.792-2.067-5.396-3.059-7.809s-2.001-4.785-3.027-7.1154zm9.756 25.009c-0.54-1.384-1.04-2.715-1.49-3.993-0.45-1.277-0.89-2.522-1.3-3.733h-13.858c-0.473 1.217-0.937 2.465-1.389 3.744-0.453 1.278-0.933 2.606-1.438 3.982h-2.906c1.077-2.933 2.094-5.667 3.052-8.201 0.958-2.533 1.898-4.931 2.819-7.191 0.921-2.261 1.836-4.434 2.744-6.518 0.908-2.085 1.862-4.1752 2.863-6.2714h2.453c1.001 2.0867 1.95 4.1744 2.848 6.2624 0.898 2.089 1.809 4.263 2.732 6.523 0.92 2.259 1.86 4.658 2.81 7.195 0.95 2.538 1.99 5.271 3.13 8.201h-3.07z"/>
     <path id="Fill-5" fill="#fff" d="m118.99 9.5356c-1.03 2.3404-2.03 4.7164-3 7.1264s-1.98 5.009-3.02 7.798h12.1c-1.04-2.792-2.06-5.396-3.05-7.809-1-2.413-2.01-4.785-3.03-7.1154zm9.76 25.009c-0.54-1.384-1.04-2.715-1.5-3.993-0.45-1.277-0.88-2.522-1.3-3.733h-13.85c-0.48 1.217-0.94 2.465-1.39 3.744-0.46 1.278-0.94 2.606-1.44 3.982h-2.91c1.08-2.933 2.1-5.667 3.06-8.201 0.95-2.533 1.89-4.931 2.81-7.191 0.93-2.261 1.84-4.434 2.75-6.518 0.91-2.085 1.86-4.1752 2.86-6.2714h2.45c1.01 2.0867 1.95 4.1744 2.85 6.2624 0.9 2.089 1.81 4.263 2.74 6.523 0.92 2.259 1.86 4.658 2.8 7.195 0.95 2.538 2 5.271 3.14 8.201h-3.07z"/>
     <g id="Group-9" transform="translate(133.64 5.4545)">
      <mask id="mask-2" fill="white">
       <use xlink:href="#path-1"/>
      </mask>
      <path id="Fill-7" fill="#fff" mask="url(#mask-2)" d="m8.333 26.687c2.179 0 3.875-0.393 5.085-1.182 1.211-0.788 1.817-2.063 1.817-3.826 0-1.015-0.196-1.863-0.586-2.544s-0.908-1.256-1.554-1.723c-0.645-0.467-1.386-0.867-2.219-1.198-0.835-0.331-1.7094-0.682-2.6237-1.053-1.1572-0.45-2.1934-0.913-3.1077-1.39-0.915-0.477-1.6951-1.015-2.341-1.615-0.6456-0.6-1.1369-1.285-1.473-2.059-0.33661-0.7723-0.50445-1.6787-0.50445-2.7181 0-2.3716 0.79325-4.1704 2.3812-5.3966 1.5872-1.2254 3.7938-1.8389 6.619-1.8389 0.7526 0.00002 1.4926 0.05384 2.2196 0.15992 0.727 0.10686 1.406 0.24678 2.038 0.41974 0.632 0.17375 1.211 0.36674 1.736 0.57964 0.524 0.2137 0.961 0.4397 1.311 0.6796l-0.968 2.2786c-0.781-0.5328-1.729-0.9594-2.846-1.2792-1.116-0.3198-2.32-0.4797-3.6117-0.4797-0.8879 0-1.7021 0.0868-2.442 0.2598-0.7402 0.1736-1.379 0.4536-1.9169 0.8395-0.5386 0.3867-0.9624 0.8733-1.2715 1.4591-0.3095 0.5865-0.4641 1.2928-0.4641 2.1187 0 0.8533 0.1616 1.5729 0.4845 2.1586 0.3227 0.5866 0.773 1.0933 1.352 1.5193 0.5783 0.426 1.2576 0.813 2.0382 1.159 0.78 0.347 1.6276 0.707 2.5425 1.079 1.103 0.454 2.146 0.907 3.128 1.36s1.836 0.986 2.563 1.599c0.726 0.613 1.305 1.359 1.735 2.238 0.43 0.88 0.646 1.959 0.646 3.238 0 2.506-0.881 4.384-2.644 5.637-1.762 1.253-4.15 1.879-7.1633 1.879-1.0765 0-2.0584-0.067-2.9463-0.2-0.8881-0.134-1.6819-0.3-2.3812-0.5-0.7001-0.2-1.2915-0.406-1.7758-0.62-0.48452-0.213-0.86135-0.399-1.1301-0.559l0.88773-2.359c0.26877 0.16 0.63197 0.347 1.0897 0.56 0.4574 0.214 0.9952 0.42 1.6144 0.62 0.6188 0.199 1.3181 0.366 2.0987 0.499 0.7802 0.134 1.641 0.2 2.5832 0.2"/>
     </g>
     <g id="Group-12" fill="#fff">
      <path id="Fill-10" d="m39.884 20.058c0 11.014-8.928 19.942-19.942 19.942s-19.942-8.928-19.942-19.942c0.000040201-11.014 8.9285-19.942 19.942-19.942 11.014-0.00038 19.942 8.9281 19.942 19.942"/>
     </g>
     <path id="Fill-13" fill="#772953" d="m17.808 27.274c-2.537 0.005-6.963 0.054-8.7218 0.357-0.9509 0.169-0.8768 0.874-0.9044 1.455v0.007 0.003c0.0276 0.581-0.0465 1.286 0.9044 1.455 2.3428 0.404 9.4128 0.357 10.454 0.356h0.007c1.041 0.001 8.111 0.048 10.454-0.356 0.951-0.169 0.881-0.874 0.908-1.455-0.029-0.583 0.048-1.295-0.908-1.465-2.343-0.404-9.413-0.357-10.454-0.357-0.257 0-0.894-0.001-1.739 0"/>
     <path id="Fill-17" fill="#772953" d="m17.808 9.0926c-2.537 0.0049-6.963 0.0536-8.7218 0.3567-0.9509 0.1686-0.8768 0.8737-0.9044 1.4547v0.007 0.003c0.0276 0.582-0.0465 1.286 0.9044 1.455 2.3428 0.404 9.4128 0.357 10.454 0.356h0.007c1.041 0.001 8.111 0.048 10.454-0.356 0.951-0.169 0.881-0.873 0.908-1.455-0.029-0.583 0.048-1.2952-0.908-1.4647-2.343-0.4038-9.413-0.3567-10.454-0.3567-0.257 0-0.894-0.0016-1.739 0"/>
     <path id="Fill-21" fill="#772953" d="m17.808 21.214c-2.537 0.005-6.963 0.053-8.7218 0.357-0.9509 0.168-0.8768 0.873-0.9044 1.454v0.007 0.003c0.0276 0.582-0.0465 1.287 0.9044 1.455 2.3428 0.404 9.4128 0.357 10.454 0.357h0.007c1.041 0 8.111 0.047 10.454-0.357 0.951-0.168 0.881-0.873 0.908-1.455-0.029-0.583 0.048-1.295-0.908-1.464-2.343-0.404-9.413-0.357-10.454-0.357-0.257 0-0.894-0.002-1.739 0"/>
     <path id="Fill-25" fill="#772953" d="m17.808 15.153c-2.537 0.005-6.963 0.054-8.7218 0.357-0.9509 0.169-0.8768 0.873-0.9044 1.454v0.007 0.004c0.0276 0.581-0.0465 1.286 0.9044 1.454 2.3428 0.404 9.4128 0.357 10.454 0.357h0.007c1.041 0 8.111 0.047 10.454-0.357 0.951-0.168 0.881-0.873 0.908-1.454-0.029-0.583 0.048-1.296-0.908-1.465-2.343-0.404-9.413-0.357-10.454-0.357-0.257 0-0.894-0.001-1.739 0"/>
    </g>
   </g>
  </g>
 </g>
</svg>
