<?xml version="1.0" encoding="UTF-8" standalone="no"?>
<svg xmlns="http://www.w3.org/2000/svg" height="44px" width="132px" version="1.1" xmlns:xlink="http://www.w3.org/1999/xlink" viewBox="0 0 132 44"><!-- Generator: Sketch 56 (81588) - https://sketch.com -->
 <title>Group 22</title>
 <desc>Created with Sketch.</desc>
 <g id="Homepage" fill-rule="evenodd" fill="none">
  <g id="OVERVIEW-page" transform="translate(-465 -2082)">
   <g id="Group-32" transform="translate(438 2064)">
    <g id="Group-22" transform="translate(27 18)">
     <polygon id="Fill-1" points="76.6 35.373 76.6 37.92 59 37.92 59 8 62.038 8 62.038 35.373" fill="#fff"/>
     <g id="Group-21">
      <path id="Fill-2" fill="#fff" d="m100.19 8h3.32l-9.875 14.493c1.915 2.576 3.786 5.16 5.614 7.75 1.831 2.59 3.421 5.157 4.781 7.705h-3.19c-0.45-0.871-1.018-1.835-1.7-2.895-0.682-1.055-1.422-2.17-2.219-3.338-0.798-1.163-1.625-2.332-2.482-3.498-0.855-1.168-1.674-2.268-2.457-3.298-0.791 1.03-1.618 2.129-2.481 3.298-0.864 1.166-1.697 2.33-2.502 3.497-0.805 1.168-1.545 2.279-2.235 3.338-0.688 1.059-1.239 2.023-1.661 2.896h-3.103c1.364-2.55 2.959-5.115 4.787-7.697 1.835-2.577 3.698-5.142 5.592-7.694l-9.901-14.557h3.402l8.152 12.11 8.168-12.11h-0.01z"/>
      <path id="Fill-4" fill="#fff" d="m110.82 35.108c0.17 0.029 0.62 0.087 1.33 0.173 0.71 0.085 1.85 0.129 3.42 0.129 2.18 0 4.08-0.294 5.72-0.884 1.62-0.593 2.99-1.434 4.09-2.529 1.11-1.095 1.93-2.429 2.48-3.999 0.56-1.57 0.84-3.331 0.84-5.292 0-1.959-0.28-3.716-0.84-5.275-0.55-1.552-1.37-2.876-2.48-3.973-1.1-1.093-2.47-1.938-4.09-2.528-1.64-0.59-3.54-0.884-5.72-0.884-1.57 0-2.71 0.044-3.42 0.129-0.71 0.086-1.16 0.145-1.33 0.171v24.762zm21.02-12.402c0 2.565-0.41 4.795-1.22 6.696-0.82 1.903-1.96 3.486-3.43 4.754-1.46 1.269-3.21 2.218-5.25 2.854-2.04 0.633-4.28 0.949-6.72 0.949-1.22 0-2.5-0.065-3.84-0.194s-2.51-0.326-3.53-0.584v-28.865c1.02-0.2883 2.19-0.4974 3.53-0.6268s2.62-0.1933 3.84-0.1933c2.44 0 4.68 0.3169 6.72 0.9493 2.04 0.6361 3.79 1.5858 5.25 2.8538 1.47 1.265 2.61 2.85 3.43 4.751 0.8 1.901 1.22 4.119 1.22 6.656z"/>
      <g id="Group-8" fill="#fff">
       <path id="Fill-6" d="m43.174 21.73c0 11.81-9.662 21.39-21.587 21.39-11.922 0-21.587-9.58-21.587-21.39 0.000072527-11.816 9.6651-21.391 21.587-21.391 11.927 0.00107 21.587 9.5752 21.587 21.391"/>
      </g>
      <polygon id="Fill-9" points="22.022 28.631 27.84 25.303 27.84 18.647 22.022 21.977" fill="#772953"/>
      <polygon id="Fill-11" points="31.685 16.447 31.685 27.507 22.021 33.034 22.021 35.103 33.493 28.54 33.493 15.413" fill="#772953"/>
      <polygon id="Fill-13" points="21.59 14.578 15.772 17.906 21.59 21.236 27.408 17.908" fill="#772953"/>
      <polygon id="Fill-15" points="21.59 10.178 31.253 15.706 33.062 14.672 21.59 8.1087 10.118 14.672 11.926 15.706" fill="#772953"/>
      <polygon id="Fill-17" points="11.494 16.452 9.6867 15.415 9.6867 28.54 21.158 35.104 21.158 33.033 11.494 27.507" fill="#772953"/>
      <polygon id="Fill-19" points="15.34 25.303 21.159 28.632 21.159 21.996 15.34 18.657" fill="#772953"/>
     </g>
    </g>
   </g>
  </g>
 </g>
</svg>
