<?xml version="1.0" encoding="UTF-8"?>
<svg width="206px" height="44px" viewBox="0 0 206 44" version="1.1" xmlns="http://www.w3.org/2000/svg" xmlns:xlink="http://www.w3.org/1999/xlink">
    <!-- Generator: Sketch 56 (81588) - https://sketch.com -->
    <title>Group 36</title>
    <desc>Created with Sketch.</desc>
    <g id="Homepage" stroke="none" stroke-width="1" fill="none" fill-rule="evenodd">
        <g id="Partner-logos---MouseOver-Public-Cloud-Copy" transform="translate(-1053.000000, -458.000000)">
            <g id="Group-36" transform="translate(1053.000000, 458.000000)">
                <g id="Group-17">
                    <g id="Group-13" fill="#FFFFFF">
                        <g id="Group-8">
                            <path d="M21.5871495,43.5093544 C9.66508352,43.5093544 7.25274725e-05,33.8423725 7.25274725e-05,21.9243544 C7.25274725e-05,10.0012599 9.66508352,0.3393544 21.5871495,0.3393544 C33.5142923,0.340079605 43.1742264,10.0012599 43.1742264,21.9243544 C43.1742264,33.8423725 33.5121165,43.5093544 21.5871495,43.5093544 Z" id="Fill-6"></path>
                        </g>
                    </g>
                    <g id="snapcraft-logo--web" transform="translate(8.000000, 9.000000)" fill="#772953" fill-rule="nonzero">
                        <path d="M17.0786447,7.03949051 L23.3663661,9.83807175 L17.0786447,16.1257932 L17.0786447,7.03949051 L17.0786447,7.03949051 Z M5.06655246,28.1378854 L12.7808235,13.6724915 L16.1700144,17.0344235 L5.06655246,28.1378854 Z M0.66878195,0.878977269 L16.5425528,6.62152059 L16.5425528,16.6618851 L0.66878195,0.878977269 Z" id="Combined-Shape"></path>
                        <polygon id="Shape" points="26.5920036 6.62152059 17.4420968 6.62152059 29.1997725 11.8461446"></polygon>
                    </g>
                </g>
                <path d="M60.236,29.588 C61.6040068,29.588 62.6179967,29.4080018 63.278,29.048 C63.9380033,28.6879982 64.268,28.112004 64.268,27.32 C64.268,26.5039959 63.9440032,25.8560024 63.296,25.376 C62.6479968,24.8959976 61.5800074,24.356003 60.092,23.756 C59.3719964,23.4679986 58.6820033,23.1740015 58.022,22.874 C57.3619967,22.5739985 56.7920024,22.220002 56.312,21.812 C55.8319976,21.403998 55.4480014,20.9120029 55.16,20.336 C54.8719986,19.7599971 54.728,19.0520042 54.728,18.212 C54.728,16.5559917 55.3399939,15.2420049 56.564,14.27 C57.7880061,13.2979951 59.4559894,12.812 61.568,12.812 C62.0960026,12.812 62.6239974,12.8419997 63.152,12.902 C63.6800026,12.9620003 64.1719977,13.0339996 64.628,13.118 C65.0840023,13.2020004 65.4859983,13.2919995 65.834,13.388 C66.1820017,13.4840005 66.451999,13.5679996 66.644,13.64 L66.032,16.52 C65.6719982,16.327999 65.1080038,16.130001 64.34,15.926 C63.5719962,15.721999 62.6480054,15.62 61.568,15.62 C60.6319953,15.62 59.8160035,15.8059981 59.12,16.178 C58.4239965,16.5500019 58.076,17.131996 58.076,17.924 C58.076,18.332002 58.1539992,18.6919984 58.31,19.004 C58.4660008,19.3160016 58.7059984,19.5979987 59.03,19.85 C59.3540016,20.1020013 59.7559976,20.3359989 60.236,20.552 C60.7160024,20.7680011 61.2919966,20.9959988 61.964,21.236 C62.8520044,21.5720017 63.6439965,21.9019984 64.34,22.226 C65.0360035,22.5500016 65.6299975,22.9279978 66.122,23.36 C66.6140025,23.7920022 66.9919987,24.3139969 67.256,24.926 C67.5200013,25.5380031 67.652,26.2879956 67.652,27.176 C67.652,28.9040086 67.0100064,30.2119956 65.726,31.1 C64.4419936,31.9880044 62.6120119,32.432 60.236,32.432 C58.5799917,32.432 57.2840047,32.2940014 56.348,32.018 C55.4119953,31.7419986 54.7760017,31.5320007 54.44,31.388 L55.052,28.508 C55.4360019,28.6520007 56.0479958,28.8679986 56.888,29.156 C57.7280042,29.4440014 58.843993,29.588 60.236,29.588 Z M71.936,13.82 C72.7040038,13.627999 73.7239936,13.4240011 74.996,13.208 C76.2680064,12.9919989 77.7319917,12.884 79.388,12.884 C80.8760074,12.884 82.1119951,13.0939979 83.096,13.514 C84.0800049,13.9340021 84.8659971,14.5219962 85.454,15.278 C86.0420029,16.0340038 86.4559988,16.9399947 86.696,17.996 C86.936,19.0520053 87.056,20.2159936 87.056,21.488 L87.056,32 L83.708,32 L83.708,22.208 C83.708,21.0559942 83.6300008,20.0720041 83.474,19.256 C83.3179992,18.4399959 83.0600018,17.7800025 82.7,17.276 C82.3399982,16.7719975 81.860003,16.4060011 81.26,16.178 C80.659997,15.9499989 79.9160044,15.836 79.028,15.836 C78.6679982,15.836 78.2960019,15.8479999 77.912,15.872 C77.5279981,15.8960001 77.1620017,15.9259998 76.814,15.962 C76.4659983,15.9980002 76.1540014,16.0399998 75.878,16.088 C75.6019986,16.1360002 75.4040006,16.1719999 75.284,16.196 L75.284,32 L71.936,32 L71.936,13.82 Z M98.936,29.588 C99.728004,29.588 100.429997,29.5700002 101.042,29.534 C101.654003,29.4979998 102.163998,29.4320005 102.572,29.336 L102.572,23.756 C102.331999,23.6359994 101.942003,23.5340004 101.402,23.45 C100.861997,23.3659996 100.208004,23.324 99.44,23.324 C98.9359975,23.324 98.4020028,23.3599996 97.838,23.432 C97.2739972,23.5040004 96.7580023,23.6539989 96.29,23.882 C95.8219977,24.1100011 95.4320016,24.421998 95.12,24.818 C94.8079984,25.214002 94.652,25.7359968 94.652,26.384 C94.652,27.584006 95.0359962,28.4179977 95.804,28.886 C96.5720038,29.3540023 97.6159934,29.588 98.936,29.588 Z M98.648,12.812 C99.9920067,12.812 101.125995,12.9859983 102.05,13.334 C102.974005,13.6820017 103.717997,14.1739968 104.282,14.81 C104.846003,15.4460032 105.247999,16.2019956 105.488,17.078 C105.728001,17.9540044 105.848,18.9199947 105.848,19.976 L105.848,31.676 C105.559999,31.7240002 105.158003,31.7899996 104.642,31.874 C104.125997,31.9580004 103.544003,32.0359996 102.896,32.108 C102.247997,32.1800004 101.546004,32.2459997 100.79,32.306 C100.033996,32.3660003 99.2840037,32.396 98.54,32.396 C97.4839947,32.396 96.5120044,32.2880011 95.624,32.072 C94.7359956,31.8559989 93.9680032,31.5140023 93.32,31.046 C92.6719968,30.5779977 92.1680018,29.9600038 91.808,29.192 C91.4479982,28.4239962 91.268,27.5000054 91.268,26.42 C91.268,25.3879948 91.4779979,24.5000037 91.898,23.756 C92.3180021,23.0119963 92.8879964,22.4120023 93.608,21.956 C94.3280036,21.4999977 95.1679952,21.1640011 96.128,20.948 C97.0880048,20.7319989 98.0959947,20.624 99.152,20.624 C99.4880017,20.624 99.8359982,20.6419998 100.196,20.678 C100.556002,20.7140002 100.897998,20.7619997 101.222,20.822 C101.546002,20.8820003 101.827999,20.9359998 102.068,20.984 C102.308001,21.0320002 102.476,21.0679999 102.572,21.092 L102.572,20.156 C102.572,19.6039972 102.512001,19.0580027 102.392,18.518 C102.271999,17.9779973 102.056002,17.4980021 101.744,17.078 C101.431998,16.6579979 101.006003,16.3220013 100.466,16.07 C99.9259973,15.8179987 99.2240043,15.692 98.36,15.692 C97.2559945,15.692 96.2900041,15.7699992 95.462,15.926 C94.6339959,16.0820008 94.016002,16.2439992 93.608,16.412 L93.212,13.64 C93.6440022,13.447999 94.363995,13.2620009 95.372,13.082 C96.380005,12.9019991 97.4719941,12.812 98.648,12.812 Z M124.388,22.676 C124.388,20.4919891 123.848005,18.8120059 122.768,17.636 C121.687995,16.4599941 120.248009,15.872 118.448,15.872 C117.439995,15.872 116.654003,15.9079996 116.09,15.98 C115.525997,16.0520004 115.076002,16.1359995 114.74,16.232 L114.74,28.04 C115.148002,28.3760017 115.735996,28.6999984 116.504,29.012 C117.272004,29.3240016 118.111995,29.48 119.024,29.48 C119.984005,29.48 120.805997,29.3060017 121.49,28.958 C122.174003,28.6099983 122.731998,28.1300031 123.164,27.518 C123.596002,26.9059969 123.907999,26.1860041 124.1,25.358 C124.292001,24.5299959 124.388,23.6360048 124.388,22.676 Z M127.88,22.676 C127.88,24.0920071 127.694002,25.399994 127.322,26.6 C126.949998,27.800006 126.404004,28.8319957 125.684,29.696 C124.963996,30.5600043 124.082005,31.2319976 123.038,31.712 C121.993995,32.1920024 120.800007,32.432 119.456,32.432 C118.375995,32.432 117.422004,32.2880014 116.594,32 C115.765996,31.7119986 115.148002,31.4360013 114.74,31.172 L114.74,38.66 L111.392,38.66 L111.392,13.856 C112.184004,13.663999 113.173994,13.4540011 114.362,13.226 C115.550006,12.9979989 116.923992,12.884 118.484,12.884 C119.924007,12.884 121.219994,13.1119977 122.372,13.568 C123.524006,14.0240023 124.507996,14.6719958 125.324,15.512 C126.140004,16.3520042 126.769998,17.3779939 127.214,18.59 C127.658002,19.8020061 127.88,21.1639924 127.88,22.676 Z M140.516,32.396 C139.075993,32.396 137.804006,32.1680023 136.7,31.712 C135.595994,31.2559977 134.678004,30.6020043 133.946,29.75 C133.213996,28.8979957 132.656002,27.8780059 132.272,26.69 C131.887998,25.5019941 131.696,24.1880072 131.696,22.748 C131.696,21.2839927 131.893998,19.952006 132.29,18.752 C132.686002,17.551994 133.255996,16.5200043 134,15.656 C134.744004,14.7919957 135.643995,14.1260023 136.7,13.658 C137.756005,13.1899977 138.943993,12.956 140.264,12.956 C141.272005,12.956 142.213996,13.0399992 143.09,13.208 C143.966004,13.3760008 144.643998,13.5919987 145.124,13.856 L144.512,15.872 C144.031998,15.6319988 143.492003,15.4400007 142.892,15.296 C142.291997,15.1519993 141.488005,15.08 140.48,15.08 C138.41599,15.08 136.850005,15.7459933 135.782,17.078 C134.713995,18.4100067 134.18,20.2999878 134.18,22.748 C134.18,23.8520055 134.299999,24.8659954 134.54,25.79 C134.780001,26.7140046 135.169997,27.5059967 135.71,28.166 C136.250003,28.8260033 136.945996,29.3419981 137.798,29.714 C138.650004,30.0860019 139.687994,30.272 140.912,30.272 C141.920005,30.272 142.765997,30.1580011 143.45,29.93 C144.134003,29.7019989 144.631998,29.5040008 144.944,29.336 L145.448,31.352 C145.015998,31.5920012 144.338005,31.8259989 143.414,32.054 C142.489995,32.2820011 141.524005,32.396 140.516,32.396 Z M155.708,13.028 C156.476004,13.028 157.201997,13.0879994 157.886,13.208 C158.570003,13.3280006 159.043999,13.4479994 159.308,13.568 L158.84,15.584 C158.647999,15.4879995 158.258003,15.3860005 157.67,15.278 C157.081997,15.1699995 156.308005,15.116 155.348,15.116 C154.339995,15.116 153.530003,15.1879993 152.918,15.332 C152.305997,15.4760007 151.904001,15.5959995 151.712,15.692 L151.712,32 L149.372,32 L149.372,14.252 C149.972003,13.9879987 150.799995,13.7180014 151.856,13.442 C152.912005,13.1659986 154.195992,13.028 155.708,13.028 Z M168.704,30.308 C169.616005,30.308 170.413997,30.2780003 171.098,30.218 C171.782003,30.1579997 172.363998,30.0800005 172.844,29.984 L172.844,23.432 C172.579999,23.3119994 172.160003,23.1860007 171.584,23.054 C171.007997,22.9219993 170.216005,22.856 169.208,22.856 C168.631997,22.856 168.032003,22.8979996 167.408,22.982 C166.783997,23.0660004 166.208003,23.2459986 165.68,23.522 C165.151997,23.7980014 164.720002,24.1759976 164.384,24.656 C164.047998,25.1360024 163.88,25.771996 163.88,26.564 C163.88,27.2600035 163.993999,27.8479976 164.222,28.328 C164.450001,28.8080024 164.773998,29.1919986 165.194,29.48 C165.614002,29.7680014 166.117997,29.9779993 166.706,30.11 C167.294003,30.2420007 167.959996,30.308 168.704,30.308 Z M168.488,12.956 C169.712006,12.956 170.749996,13.1299983 171.602,13.478 C172.454004,13.8260017 173.143997,14.3059969 173.672,14.918 C174.200003,15.5300031 174.583999,16.2559958 174.824,17.096 C175.064001,17.9360042 175.184,18.8479951 175.184,19.832 L175.184,31.568 C174.943999,31.6400004 174.596002,31.7179996 174.14,31.802 C173.683998,31.8860004 173.156003,31.9759995 172.556,32.072 C171.955997,32.1680005 171.290004,32.2459997 170.558,32.306 C169.825996,32.3660003 169.076004,32.396 168.308,32.396 C167.323995,32.396 166.418004,32.2880011 165.59,32.072 C164.761996,31.8559989 164.042003,31.5140023 163.43,31.046 C162.817997,30.5779977 162.338002,29.9780037 161.99,29.246 C161.641998,28.5139963 161.468,27.6200053 161.468,26.564 C161.468,25.555995 161.659998,24.6920036 162.044,23.972 C162.428002,23.2519964 162.968,22.6580023 163.664,22.19 C164.360003,21.7219977 165.187995,21.3800011 166.148,21.164 C167.108005,20.9479989 168.151994,20.84 169.28,20.84 C169.616002,20.84 169.969998,20.8579998 170.342,20.894 C170.714002,20.9300002 171.073998,20.9779997 171.422,21.038 C171.770002,21.0980003 172.069999,21.1579997 172.322,21.218 C172.574001,21.2780003 172.748,21.3319998 172.844,21.38 L172.844,20.228 C172.844,19.5799968 172.796,18.9500031 172.7,18.338 C172.604,17.7259969 172.394002,17.1740025 172.07,16.682 C171.745998,16.1899975 171.290003,15.7940015 170.702,15.494 C170.113997,15.1939985 169.340005,15.044 168.38,15.044 C167.011993,15.044 165.992003,15.139999 165.32,15.332 C164.647997,15.524001 164.156002,15.6799994 163.844,15.8 L163.52,13.748 C163.928002,13.555999 164.557996,13.3760008 165.41,13.208 C166.262004,13.0399992 167.287994,12.956 168.488,12.956 Z M188,4.064 C189.008005,4.064 189.829997,4.14199922 190.466,4.298 C191.102003,4.45400078 191.515999,4.5919994 191.708,4.712 L191.24,6.728 C190.975999,6.6079994 190.586003,6.48200066 190.07,6.35 C189.553997,6.21799934 188.900004,6.152 188.108,6.152 C186.451992,6.152 185.270004,6.5719958 184.562,7.412 C183.853996,8.2520042 183.5,9.59599076 183.5,11.444 L183.5,13.388 L190.988,13.388 L190.988,15.368 L183.5,15.368 L183.5,32 L181.16,32 L181.16,11.372 C181.16,8.94798788 181.717994,7.12400612 182.834,5.9 C183.950006,4.67599388 185.671988,4.064 188,4.064 Z M196.892,13.388 L204.308,13.388 L204.308,15.368 L196.892,15.368 L196.892,25.268 C196.892,26.3240053 196.981999,27.1819967 197.162,27.842 C197.342001,28.5020033 197.599998,29.0119982 197.936,29.372 C198.272002,29.7320018 198.679998,29.9719994 199.16,30.092 C199.640002,30.2120006 200.167997,30.272 200.744,30.272 C201.728005,30.272 202.519997,30.1580011 203.12,29.93 C203.720003,29.7019989 204.187998,29.492001 204.524,29.3 L205.1,31.244 C204.763998,31.4600011 204.176004,31.7059986 203.336,31.982 C202.495996,32.2580014 201.584005,32.396 200.6,32.396 C199.447994,32.396 198.482004,32.2460015 197.702,31.946 C196.921996,31.6459985 196.298002,31.1900031 195.83,30.578 C195.361998,29.9659969 195.032001,29.2040046 194.84,28.292 C194.647999,27.3799954 194.552,26.3000062 194.552,25.052 L194.552,7.916 L196.892,7.484 L196.892,13.388 Z" id="snapcraft" fill="#FFFFFF" fill-rule="nonzero"></path>
            </g>
        </g>
    </g>
</svg>