<svg xmlns="http://www.w3.org/2000/svg" xmlns:xlink="http://www.w3.org/1999/xlink" width="112" height="34" viewBox="0 0 112 34">
  <defs>
    <polygon id="group-3-a" points="0 0 112 0 112 34 0 34"/>
  </defs>
  <g fill="none" fill-rule="evenodd">
    <mask id="group-3-b" fill="#fff">
      <use xlink:href="#group-3-a"/>
    </mask>
    <path fill="#0091BD" d="M67.7209302,0.895977809 L75.25074,0.895977809 L75.25074,3.8668516 C77.7606765,0.801664355 80.744186,0.0471567268 83.2067653,0.0471567268 C86.5691332,0.0471567268 89.7420719,1.65048544 91.541649,4.7628294 C94.2410148,0.943134535 98.2663848,0.0471567268 101.107822,0.0471567268 C105.038478,0.0471567268 108.448203,1.88626907 110.295137,5.09292649 C110.910782,6.17753121 112,8.53536755 112,13.2038835 L112,33.0568655 L104.47019,33.0568655 L104.47019,15.3730929 C104.47019,11.7891817 104.091332,10.3273232 103.759831,9.66712899 C103.286258,8.44105409 102.149683,6.83772538 99.4503171,6.83772538 C97.6033827,6.83772538 95.9932347,7.82801664 94.9987315,9.19556172 C93.6727273,11.0346741 93.5306554,13.7697642 93.5306554,16.5048544 L93.5306554,33.0568655 L86.0008457,33.0568655 L86.0008457,15.3730929 C86.0008457,11.7891817 85.6219873,10.3273232 85.2904863,9.66712899 C84.8169133,8.44105409 83.6803383,6.83772538 80.9809725,6.83772538 C79.1340381,6.83772538 77.5238901,7.82801664 76.5293869,9.19556172 C75.2033827,11.0346741 75.0613108,13.7697642 75.0613108,16.5048544 L75.0613108,33.0568655 L67.7209302,33.0568655 L67.7209302,0.895977809 Z M41.7217759,0.895977809 L49.2515856,0.895977809 L49.2515856,3.77253814 C50.1040169,2.78224688 51.3353066,1.69764216 52.377167,1.08460472 C53.8452431,0.235783634 55.2659619,0 56.9708245,0 C58.817759,0 60.8067653,0.282940361 62.8904863,1.50901526 L59.8122622,8.29958391 C58.1073996,7.2149792 56.7340381,7.16782247 55.9763214,7.16782247 C54.3661734,7.16782247 52.7560254,7.4036061 51.2879493,8.91262136 C49.2042283,11.1289875 49.2042283,14.1941748 49.2042283,16.3162275 L49.2042283,32.962552 L41.6744186,32.962552 L41.6744186,0.895977809 L41.7217759,0.895977809 Z M7.67188161,17.0707351 C7.67188161,22.6357004 11.1763214,27.3037448 16.6224101,27.3037448 C21.3581395,27.3037448 25.7623679,23.8613037 25.7623679,17.1650485 C25.7623679,10.1386963 21.4054968,6.79056865 16.6224101,6.79056865 C11.1763214,6.79056865 7.67188161,11.3647712 7.67188161,17.0707351 L7.67188161,17.0707351 Z M25.2887949,0.895977809 L32.8186047,0.895977809 L32.8186047,33.0101803 L25.2887949,33.0101803 L25.2887949,29.6615811 C21.9737844,33.4817476 17.9484144,34 15.627907,34 C5.68287526,34 0,25.7475728 0,16.9292649 C0,6.46047157 7.19830867,0.0471567268 15.7226216,0.0471567268 C18.0904863,0.0471567268 22.2579281,0.660194175 25.2887949,4.62135922 L25.2887949,0.895977809 Z" mask="url(#group-3-b)"/>
  </g>
</svg>
