<svg xmlns="http://www.w3.org/2000/svg" width="135" height="32" viewBox="0 0 135 32">
  <g fill="none">
    <polygon fill="#999" points=".309 20.478 6.719 20.478 6.719 14 .309 14"/>
    <polygon fill="#999" points="18.36 20.478 24.77 20.478 24.77 14 18.36 14"/>
    <polygon fill="#999" points="36.41 20.478 42.82 20.478 42.82 14 36.41 14"/>
    <polygon fill="#999" points="53.062 20.478 59.471 20.478 59.471 14 53.062 14"/>
    <path fill="#999" d="M71.0381747 10.3184716C71.0381747 11.2758069 70.9645424 11.6436501 70.7436455 11.864356 70.5963809 12.0124364 70.2282194 12.086005 69.7864256 12.086005L69.5645848 12.086005 69.5645848 12.674554 73.9117223 12.674554C75.6798414 12.674554 77.0797991 12.2331423 78.1115952 11.2022383 79.290656 10.0977657 79.8797144 8.40493273 79.8797144 6.56458522 79.8797144 4.87146928 79.3642883 3.47281649 78.4797567 2.29505822 77.3752723 1.043637 75.9753146.454682413 73.9117223.454682413L69.5645848.454682413 69.5645848 1.043637 69.7864256 1.043637C70.2282194 1.043637 70.5963809 1.11720563 70.7436455 1.2644372 70.9645424 1.48533172 71.0381747 1.8533635 71.0381747 2.81032157L71.0381747 10.3184716zM72.7336055 2.66308999C72.7336055 1.8533635 72.8072378 1.6325633 72.9545024 1.41166878 73.1753993 1.19086858 73.6171931 1.043637 74.2808278 1.043637 76.8589022 1.043637 77.8906984 2.66308999 77.8906984 6.56458522 77.8906984 10.5401207 76.9325345 12.0124364 74.2808278 12.0124364 72.9545024 12.0124364 72.7336055 11.7907873 72.7336055 10.3920402L72.7336055 2.66308999zM87.9103548 8.40493273C87.8367225 5.68119578 86.5103971 3.98817416 84.4477488 3.98817416 82.5323651 3.98817416 81.1324074 5.82852167 81.1324074 8.40493273 81.1324074 11.2022383 82.5323651 12.9688286 84.6686457 12.9688286 86.0686034 12.9688286 87.0267672 12.2331423 87.7630902 10.6136893L87.2476641 10.3184716C86.5840294 11.7172187 85.9213388 12.2331423 84.9631749 12.2331423 83.489585 12.2331423 82.9005266 11.1286697 82.8268943 8.40493273L87.9103548 8.40493273 87.9103548 8.40493273zM82.9005266 7.74243781C82.9005266 5.82852167 83.5641613 4.65066908 84.5950134 4.65066908 85.6268096 4.65066908 86.215868 5.82852167 86.215868 7.74243781L82.9005266 7.74243781zM94.9856634 12.8216913L97.4872734 12.674554 97.4872734 12.1595737 97.2701526 12.1595737C96.5338296 12.1595737 96.382789 11.864356 96.382789 10.6136893L96.382789 4.13540573 93.5838177 4.20897436 93.5838177 4.79790065 93.8783469 4.79790065C94.6175019 4.79790065 94.8346227 5.09226948 94.8346227 6.27021639L94.8346227 8.5521643C94.8346227 9.58278532 94.6930222 10.244903 94.3210847 10.9079638 93.9519792 11.6436501 93.3629208 12.0124364 92.7002301 12.0124364 92.3311246 12.0124364 91.9629632 11.7907873 91.8156986 11.4229442 91.668434 11.0551011 91.5948017 10.6872579 91.5948017 9.95062846L91.5948017 4.13540573 88.8685187 4.20897436 88.8685187 4.79790065 89.0894156 4.79790065C89.9003148 4.79790065 90.0475794 5.09226948 90.0475794 6.27021639L90.0475794 9.43564806C90.0475794 10.8343952 90.1212117 11.4229442 90.4893732 12.0124364 90.8575347 12.6009854 91.4475371 12.8952599 92.2574923 12.8952599 93.5101854 12.8952599 94.3210847 12.2331423 94.9856634 10.8343952L94.9856634 12.8216913 94.9856634 12.8216913zM100.876247 4.87146928L103.387297 4.87146928 103.387297 4.20897436 100.876247 4.20897436 100.876247 1.043637 100.366485 1.043637C100.139924 3.25201629 99.6207221 3.98817416 98.0064755 4.35620593L98.0064755 4.87146928 99.3280809 4.87146928 99.3280809 9.95062846C99.3280809 11.2758069 99.4791215 11.7907873 99.847283 12.2331423 100.215444 12.674554 100.734647 12.8952599 101.47097 12.8952599 102.943615 12.8952599 103.679938 11.9379246 103.679938 10.1713343L103.679938 9.8034912 103.009696 9.8034912 103.009696 10.0241971C103.009696 11.3493756 102.641534 12.086005 101.905211 12.086005 101.47097 12.086005 101.168888 11.864356 101.027288 11.4229442 100.951767 11.0551011 100.876247 10.6872579 100.876247 9.95062846L100.876247 4.87146928zM109.721563 4.20897436L109.12684 4.20897436C109.12684 4.50343751 108.98524 4.65066908 108.90972 4.65066908 108.834199 4.65066908 108.683159 4.57710045 108.617078 4.57710045 108.097876 4.20897436 107.437074 4.06174279 106.842351 4.06174279 105.369705 4.06174279 104.416261 5.01870085 104.416261 6.3436907 104.416261 7.59520623 105.077064 8.3313641 106.54971 8.84662745 107.729715 9.21465923 107.729715 9.21465923 108.173397 9.50921669 108.617078 9.8034912 108.90972 10.244903 108.90972 10.8343952 108.90972 11.6436501 108.314997 12.3067109 107.437074 12.3067109 106.700751 12.3067109 105.964428 11.9379246 105.520746 11.2758069 105.228105 10.9079638 105.077064 10.466552 104.784423 9.58278532L104.265221 9.58278532 104.265221 12.674554 104.784423 12.674554 104.859943 12.5274168C104.926023 12.2331423 105.077064 12.1595737 105.152584 12.1595737 105.228105 12.1595737 105.294185 12.1595737 105.369705 12.2331423 106.257069 12.7481227 106.700751 12.8952599 107.437074 12.8952599 109.05132 12.8952599 110.231325 11.7907873 110.231325 10.1713343 110.231325 9.3618908 109.863163 8.69939588 109.202361 8.18413253 108.834199 7.88966938 108.314997 7.66877486 107.144432 7.30074309 105.964428 6.93261699 105.596266 6.56458522 105.596266 5.9020903 105.596266 5.16593243 106.181549 4.57710045 106.993392 4.57710045 108.173397 4.57710045 108.834199 5.313164 109.12684 6.93261699L109.721563 6.93261699 109.721563 4.20897436zM117.235833 10.3184716C116.716631 11.6436501 116.055828 12.2331423 115.092945 12.2331423 113.695819 12.2331423 113.035016 11.0551011 113.035016 8.40493273 113.035016 5.9020903 113.771339 4.65066908 115.168465 4.65066908 115.904788 4.65066908 116.49951 5.01870085 116.792151 5.60762715L116.57503 5.60762715C116.131349 5.60762715 115.763187 5.97565892 115.763187 6.49101659 115.763187 7.07994289 116.131349 7.52163761 116.641111 7.52163761 117.311353 7.52163761 117.745595 7.00627994 117.745595 6.3436907 117.745595 5.01870085 116.49951 3.98817416 115.026864 3.98817416 112.817895 3.98817416 111.269729 5.82852167 111.269729 8.40493273 111.269729 11.1286697 112.666855 12.9688286 114.800303 12.9688286 116.206869 12.9688286 117.160313 12.2331423 117.821116 10.5401207L117.235833 10.3184716 117.235833 10.3184716zM124.306422 12.674554L127.034593 12.674554 127.034593 12.1595737 126.808032 12.1595737C126.005629 12.1595737 125.854588 11.864356 125.854588 10.6136893L125.854588 7.66877486C125.854588 6.04932187 125.703547 5.46039558 125.269306 4.87146928 124.901144 4.35620593 124.306422 4.06174279 123.494578 4.06174279 122.465614 4.06174279 121.729291 4.57710045 121.134569 5.75485872L121.134569.307479135 118.415838.454682413 118.415838.969974057 118.632959.969974057C119.444802.969974057 119.595843 1.2644372 119.595843 2.44228979L119.595843 10.6136893C119.595843 11.864356 119.444802 12.1595737 118.632959 12.1595737L118.340318 12.1595737 118.340318 12.674554 122.390094 12.674554 122.390094 12.1595737 122.097453 12.1595737C121.285609 12.1595737 121.134569 11.864356 121.134569 10.6136893L121.134569 8.62573293C121.134569 7.37431171 121.285609 6.63824816 121.578251 5.97565892 121.946412 5.23959537 122.541135 4.87146928 123.126417 4.87146928 123.494578 4.87146928 123.86274 5.01870085 124.013781 5.38682695 124.230901 5.75485872 124.306422 6.1228905 124.306422 7.22708014L124.306422 12.674554 124.306422 12.674554zM134.699904 8.40493273C134.624383 5.68119578 133.293338 3.98817416 131.23541 3.98817416 129.319082 3.98817416 127.921956 5.82852167 127.921956 8.40493273 127.921956 11.2022383 129.319082 12.9688286 131.452531 12.9688286 132.849656 12.9688286 133.81254 12.2331423 134.548863 10.6136893L134.029661 10.3184716C133.368858 11.7172187 132.708056 12.2331423 131.745172 12.2331423 130.272526 12.2331423 129.687243 11.1286697 129.611723 8.40493273L134.699904 8.40493273 134.699904 8.40493273zM129.687243 7.74243781C129.687243 5.82852167 130.348046 4.65066908 131.37701 4.65066908 132.415414 4.65066908 133.000697 5.82852167 133.000697 7.74243781L129.687243 7.74243781zM74.8698862 19.4466405L75.0907831 19.4466405C76.9325345 19.4466405 77.7434338 20.4039759 78.1115952 23.1279015L78.6270213 23.0543328 78.553389 18.8580915 69.4909525 18.8580915 69.4173202 23.0543328 69.9336902 23.1279015C70.0073225 22.0969975 70.1545871 21.5820171 70.375484 20.9925249 70.8172778 20.0361327 71.7018094 19.4466405 72.7336055 19.4466405L73.1753993 19.4466405 73.1753993 28.7219467C73.1753993 29.6792821 73.101767 30.0471252 72.8808701 30.2678311 72.6590292 30.4149683 72.2908678 30.488537 71.9227063 30.488537L71.4809125 30.488537 71.4809125 31.0780292 76.4907407 31.0780292 76.4907407 30.488537 76.1225792 30.488537C75.6798414 30.488537 75.3116799 30.4149683 75.0907831 30.2678311 74.8698862 30.0471252 74.8698862 29.6792821 74.8698862 28.7219467L74.8698862 19.4466405 74.8698862 19.4466405zM85.479545 26.8082192C85.4059127 24.0842936 84.0795873 22.391272 82.0896273 22.391272 80.1006113 22.391272 78.7006536 24.2314309 78.7006536 26.8082192 78.7006536 29.6057134 80.1006113 31.3723037 82.2368919 31.3723037 83.6368495 31.3723037 84.5950134 30.6356742 85.4059127 29.0162212L84.8159103 28.7219467C84.1532196 30.1206938 83.5632173 30.6356742 82.5323651 30.6356742 81.0587751 30.6356742 80.4687728 29.5321448 80.4687728 26.8082192L85.479545 26.8082192 85.479545 26.8082192zM80.4687728 26.1461016C80.4687728 24.2314309 81.1324074 23.0543328 82.1632596 23.0543328 83.1950558 23.0543328 83.7841141 24.2314309 83.7841141 26.1461016L80.4687728 26.1461016zM89.2366801 18.7109542L86.5103971 18.8580915 86.5103971 19.3730719 86.732238 19.3730719C87.468561 19.3730719 87.6894579 19.6673464 87.6894579 20.8453876L87.6894579 29.0162212C87.6894579 30.2678311 87.468561 30.5621056 86.732238 30.5621056L86.4367648 30.5621056 86.4367648 31.0780292 90.4157409 31.0780292 90.4157409 30.5621056 90.1212117 30.5621056C89.3839447 30.5621056 89.2366801 30.2678311 89.2366801 29.0162212L89.2366801 18.7109542zM98.0819958 26.8082192C98.0064755 24.0842936 96.6754302 22.391272 94.6930222 22.391272 92.7738624 22.391272 91.3739048 24.2314309 91.3739048 26.8082192 91.3739048 29.6057134 92.6992861 31.3723037 94.8346227 31.3723037 96.2317484 31.3723037 97.1946323 30.6356742 98.0064755 29.0162212L97.4117531 28.7219467C96.8264708 30.1206938 96.1656681 30.6356742 95.1272639 30.6356742 93.7310823 30.6356742 93.0683916 29.5321448 93.0683916 26.8082192L98.0819958 26.8082192 98.0819958 26.8082192zM93.0683916 26.1461016C93.0683916 24.2314309 93.7310823 23.0543328 94.7591024 23.0543328 95.7975066 23.0543328 96.382789 24.2314309 96.382789 26.1461016L93.0683916 26.1461016zM107.512594 31.0780292L107.512594 30.5621056 107.361553 30.5621056C106.776271 30.5621056 106.47419 30.2678311 105.888907 29.3850075L103.679938 25.8508839 105.662346 24.010725C106.47419 23.3486073 106.700751 23.2014701 107.210513 23.2014701L107.437074 23.2014701 107.437074 22.6119779 103.755459 22.6119779 103.755459 23.2014701 104.0481 23.2014701C104.633382 23.2014701 104.859943 23.3486073 104.859943 23.6428819 104.859943 23.8635877 104.633382 24.1578622 104.340741 24.4530799L101.839131 26.5875133 101.839131 18.7109542 99.11096 18.8580915 99.11096 19.3730719 99.3280809 19.3730719C100.139924 19.3730719 100.290965 19.6673464 100.290965 20.8453876L100.290965 29.0162212C100.290965 30.2678311 100.139924 30.5621056 99.3280809 30.5621056L99.0354397 30.5621056 99.0354397 31.0780292 103.085216 31.0780292 103.085216 30.5621056 102.792575 30.5621056C101.980732 30.5621056 101.839131 30.2678311 101.839131 29.0162212L101.839131 27.4703369 102.575454 26.8082192 105.228105 31.0780292 107.512594 31.0780292 107.512594 31.0780292zM111.855011 22.391272C109.570522 22.391272 108.097876 24.1578622 108.097876 26.8817878 108.097876 29.5321448 109.570522 31.3723037 111.779491 31.3723037 114.06398 31.3723037 115.536626 29.5321448 115.536626 26.8817878 115.536626 24.2314309 114.06398 22.391272 111.855011 22.391272L111.855011 22.391272zM111.779491 22.9807642C112.440294 22.9807642 113.035016 23.3486073 113.327657 24.0842936 113.620299 24.7473544 113.771339 25.630178 113.771339 26.8817878 113.771339 29.4585762 113.110537 30.7837547 111.779491 30.7837547 110.457886 30.7837547 109.863163 29.4585762 109.863163 26.8082192 109.863163 25.630178 110.014204 24.7473544 110.306845 24.0842936 110.599486 23.422176 111.194209 22.9807642 111.779491 22.9807642L111.779491 22.9807642zM126.515391 31.0780292L129.168041 31.0780292 129.168041 30.5621056 128.95092 30.5621056C128.214597 30.5621056 128.063557 30.2678311 128.063557 29.0162212L128.063557 25.7037466C128.063557 24.6002172 127.912516 23.9371564 127.544355 23.422176 127.176193 22.8326838 126.515391 22.4648406 125.703547 22.4648406 124.674583 22.4648406 123.93826 22.9807642 123.419058 24.1578622 122.984816 22.9807642 122.314574 22.4648406 121.285609 22.4648406 120.332166 22.4648406 119.444802 23.0543328 119.152161 24.010725L119.152161 22.5384093 116.57503 22.6119779 116.57503 23.2014701 116.716631 23.2014701C117.528474 23.2014701 117.679515 23.4957446 117.679515 24.6737858L117.679515 29.0162212C117.679515 30.2678311 117.528474 30.5621056 116.716631 30.5621056L116.42399 30.5621056 116.42399 31.0780292 120.398246 31.0780292 120.398246 30.5621056 120.181125 30.5621056C119.369282 30.5621056 119.227681 30.2678311 119.227681 29.0162212L119.227681 26.7346506C119.227681 25.3359035 119.293761 24.7473544 119.595843 24.1578622 119.888484 23.5693132 120.332166 23.2750387 120.841928 23.2750387 121.285609 23.2750387 121.653771 23.4957446 121.804812 23.8635877 122.021932 24.3049995 122.097453 24.6737858 122.097453 26.2196702L122.097453 31.0780292 124.825624 31.0780292 124.825624 30.5621056 124.599063 30.5621056C123.78722 30.5621056 123.645619 30.2678311 123.645619 29.0162212L123.645619 26.7346506C123.645619 25.1887662 123.721139 24.7473544 124.013781 24.1578622 124.306422 23.5693132 124.825624 23.2750387 125.335386 23.2750387 125.703547 23.2750387 126.071709 23.422176 126.222749 23.7900191 126.43987 24.1578622 126.515391 24.7473544 126.515391 25.9244525L126.515391 31.0780292z"/>
    <path fill="#E50765" d="M50.040698,2.00059507 L50.7033886,2.00059507 C55.1977908,2.00059507 57.2613831,4.50343751 58.1449707,11.2758069 L59.5449283,11.1286697 L59.3240314,0.528185018 L36.6311238,0.528185018 L36.4102269,11.1287923 L37.7365523,11.2759296 C37.9574492,8.77318144 38.2519784,7.37443433 38.8419808,5.97578154 C39.8728329,3.47293911 42.0836898,2.00071769 44.8099728,2.00071769 L45.7671927,2.00071769 L45.7671927,25.2625518 C45.7671927,27.6922029 45.6199281,28.5014578 45.104502,29.0164381 C44.6627083,29.4587931 43.7045444,29.7530676 42.6727482,29.7530676 L41.5682638,29.7530676 L41.5682638,31.2253833 L54.2405709,31.2253833 L54.2405709,29.7530676 L53.1351424,29.7530676 C52.1033463,29.7530676 51.1461264,29.4587931 50.7033886,29.0164381 C50.1879626,28.5014578 50.040698,27.6922029 50.040698,25.2625518 L50.040698,2.00071769 L50.040698,2.00059507 Z"/>
  </g>
</svg>
