<?xml version="1.0" encoding="UTF-8" standalone="no"?>
<svg xmlns="http://www.w3.org/2000/svg" height="57px" width="122px" version="1.1" xmlns:xlink="http://www.w3.org/1999/xlink" viewBox="0 0 122 57"><!-- Generator: Sketch 55 (78076) - https://sketchapp.com -->
 <title>Group 18</title>
 <desc>Created with Sketch.</desc>
 <defs>
  <polygon id="path-1" points="0.12716 0.13912 10.672 0.13912 10.672 37.174 0.12716 37.174"/>
 </defs>
 <g id="Homepage" fill-rule="evenodd" fill="none">
  <g id="OVERVIEW-page" transform="translate(-728 -3795)">
   <g id="Group-4" transform="translate(432 3795)">
    <g id="Group-18" transform="translate(296)">
     <path id="Fill-1" fill="#E60012" d="m6.6868 33.349h6.1682c1.17 0 2.262 0.855 2.321 1.988h0.056v-4.657h-8.5452l-0.0042-8.176h8.2454c1.174 0 2.267 0.853 2.329 1.983h0.054l-0.009-4.661-17.302 0.007v0.052c1.1651 0.063 2.0389 1.298 2.0389 2.453v21.417c0 1.149-0.8738 2.39-2.0389 2.456v0.05h8.7299v-0.05c-1.1664-0.066-2.0473-1.307-2.0473-2.456l0.0042-10.406z"/>
     <path id="Fill-3" fill="#E60012" d="m24.906 39.249c0 2.761 2.317 5.149 5.177 5.149 2.857 0 5.182-2.419 5.182-5.182v-16.866c0-1.16-0.888-2.402-2.071-2.465v-0.051l8.847-0.008v0.059c-1.181 0.063-2.076 1.305-2.076 2.465v16.389c0 5.274-4.4 8.348-9.859 8.348-5.468 0-9.916-3.074-9.916-8.348l0.012-16.389c0-1.16-0.893-2.402-2.067-2.465v-0.059h8.833v0.059c-1.177 0.07-2.066 1.312-2.066 2.465l0.004 16.899z"/>
     <path id="Fill-5" fill="#E60012" d="m96.436 24.574c-1.458-2.328-4.785-2.047-4.785-2.047-5.44 0-5.183 4.102-5.183 4.102s-0.374 2.058 2.36 3.461l5.439 2.857c5.251 2.785 4.629 6.742 4.629 6.742s0.237 7.393-10.745 7.393c0 0-3.191 0.096-4.997-0.573l-1.546-4.788h0.054c1.673 2.384 6.534 2.728 6.534 2.728 6.171-0.268 6.213-4.412 6.213-4.412s0.278-1.785-2.138-3.077l-5.414-2.856c-5.652-2.985-5.005-7.005-5.005-7.005s-0.133-7.273 9.583-7.273c0 0 4.361 0.111 5.056 0.784v3.964h-0.055z"/>
     <path id="Fill-7" fill="#E60012" d="m53.182 10.928c0.946 0.936 2.266 1.51 3.706 1.51 2.903 0 5.253-2.309 5.253-5.1622 0-2.8454-2.35-5.1583-5.253-5.1583 0 0-4.043-0.3773-5.863 4.7092l0.006-3.8179c1.354-1.7424 3.451-3.0088 5.857-3.0088 4.096 0 7.409 3.2544 7.409 7.2758 0 4.0152-3.313 7.2822-7.409 7.2822-2.045 0-3.896-0.811-5.233-2.134l-2.548-2.8158c-0.698-0.6857-1.659-1.103-2.712-1.103-2.122 0-3.842 1.6858-3.842 3.7688 0 2.091 1.72 3.78 3.842 3.78 0 0 2.837 0.374 4.63-3.082l0.006 3.057c-1.098 1.309-2.775 2.145-4.636 2.145-3.313 0-6.003-2.642-6.003-5.9 0-3.2529 2.69-5.8885 6.003-5.8885 1.65 0 3.148 0.6517 4.236 1.7272l2.551 2.8153z"/>
     <path id="Fill-9" fill="#E60012" d="m54.688 22.276c0-1.156-0.83-2.34-1.931-2.4v-0.05h8.243v0.05c-1.094 0.065-1.928 1.25-1.928 2.4v21.474c0 1.153 0.834 2.393 1.928 2.462v0.049h-8.243v-0.049c1.101-0.069 1.931-1.309 1.931-2.462v-21.474z"/>
     <g id="Group-13" transform="translate(40.392 19.826)">
      <mask id="mask-2" fill="white">
       <use xlink:href="#path-1"/>
      </mask>
      <path id="Fill-11" fill="#E60012" mask="url(#mask-2)" d="m8.6405 2.6559c0-1.1598 0.8721-2.4016 2.0315-2.4653v-0.05148h-8.6909v0.05145c1.1632 0.06376 2.0309 1.3055 2.0309 2.4653l0.0073 26.965s-0.0974 4.761-3.8921 7.501l0.00921 0.052c0.74892-0.124 8.5104-1.571 8.5104-9.15l-0.0063-25.368z"/>
     </g>
     <path id="Fill-14" fill="#E60012" d="m61.824 24.59h0.052c1.165-2.06 2.962-2.084 2.962-2.084h4.659l0.003 21.255c0 1.15-0.867 2.382-2.014 2.451v0.049h8.618v-0.049c-1.157-0.069-2.027-1.309-2.027-2.451l0.006-21.255 3.895-0.009c1.182 0 2.118 0.931 2.152 2.093h0.047l1.431-4.764h-18.349l-1.435 4.764z"/>
     <path id="Fill-16" fill="#E60012" d="m104.87 39.249c0 2.761 2.32 5.149 5.18 5.149 2.85 0 5.18-2.419 5.18-5.182v-16.866c0-1.16-0.89-2.402-2.07-2.465v-0.051l8.84-0.008v0.059c-1.17 0.063-2.07 1.305-2.07 2.465v16.389c0 5.274-4.4 8.348-9.86 8.348s-9.91-3.074-9.91-8.348l0.01-16.389c0-1.16-0.895-2.402-2.075-2.465v-0.059h8.845v0.059c-1.19 0.07-2.08 1.312-2.08 2.465l0.01 16.899z"/>
    </g>
   </g>
  </g>
 </g>
</svg>
