<svg xmlns="http://www.w3.org/2000/svg" width="130" height="54" viewBox="0 0 130 54">
  <g fill="none" fill-rule="evenodd">
    <path fill="#00A982" d="M2.93428571,10.0330787 L41.7096019,10.0330787 L41.7096019,3.09741573 L2.93428571,3.09741573 L2.93428571,10.0330787 Z M0,12.9569663 L44.6438876,12.9569663 L44.6438876,0.17352809 L0,0.17352809 L0,12.9569663 Z"/>
    <polyline fill="#1A1919" points="10.795 21.014 10.795 33.306 8.223 33.306 8.223 28.141 2.637 28.141 2.637 33.306 .065 33.306 .065 21.014 2.637 21.014 2.637 25.899 8.223 25.899 8.223 21.014 10.795 21.014"/>
    <path fill="#1A1919" d="M14.9734426,27.780573 L18.3689696,27.780573 C18.3086885,26.8197978 17.7661593,26.1390337 16.7815691,26.1390337 C15.9580328,26.1390337 15.2544496,26.659618 14.9734426,27.780573 Z M14.8930679,29.4023933 C15.0940047,30.8637303 16.1589696,31.4647079 17.4851522,31.4647079 C18.4694379,31.4647079 19.1727166,31.2441573 20.0568384,30.6835281 L20.0568384,32.7258202 C19.3130679,33.266427 18.3086885,33.5066966 17.1033724,33.5066966 C14.3706323,33.5066966 12.5019204,31.7447191 12.5019204,28.9018315 C12.5019204,26.0989888 14.2701639,24.1571124 16.7215925,24.1571124 C19.333466,24.1571124 20.6797424,25.9588315 20.6797424,28.6014944 L20.6797424,29.4023933 L14.8930679,29.4023933 L14.8930679,29.4023933 Z"/>
    <polyline fill="#1A1919" points="30.364 30.063 31.971 24.357 34.382 24.357 31.65 33.306 29.359 33.306 27.892 27.821 26.426 33.306 24.135 33.306 21.403 24.357 23.894 24.357 25.502 30.063 26.968 24.357 28.877 24.357 30.364 30.063"/>
    <path fill="#1A1919" d="M43.516815 27.780573L46.9123419 27.780573C46.8520609 26.8197978 46.3095316 26.1390337 45.3249415 26.1390337 44.5014052 26.1390337 43.797822 26.659618 43.516815 27.780573zM43.4364403 29.4023933C43.637377 30.8637303 44.7023419 31.4647079 46.0285246 31.4647079 47.0128103 31.4647079 47.716089 31.2441573 48.6002108 30.6835281L48.6002108 32.7258202C47.8564403 33.266427 46.8520609 33.5066966 45.6467447 33.5066966 42.9140047 33.5066966 41.0452927 31.7447191 41.0452927 28.9018315 41.0452927 26.0989888 42.8135363 24.1571124 45.2649649 24.1571124 47.8768384 24.1571124 49.2231148 25.9588315 49.2231148 28.6014944L49.2231148 29.4023933 43.4364403 29.4023933 43.4364403 29.4023933zM71.7825293 23.1960337L69.4720609 23.1960337 69.4720609 26.8598427 71.7825293 26.8598427C73.1087119 26.8598427 73.7517096 26.0989888 73.7517096 25.0377978 73.7517096 23.9365618 73.1087119 23.1960337 71.7825293 23.1960337zM69.4720609 29.0419888L69.4720609 33.3064719 66.9204684 33.3064719 66.9204684 21.0135843 71.9435831 21.0135843C74.5554567 21.0135843 76.2835129 22.4151573 76.2835129 25.0377978 76.2835129 27.6404157 74.5554567 29.0419888 71.9435831 29.0419888L69.4720609 29.0419888 69.4720609 29.0419888zM82.3910773 30.2233146C82.1700468 29.7427753 81.50726 29.4424382 80.8039813 29.4424382 80.0203279 29.4424382 79.2165808 29.7828202 79.2165808 30.5433708 79.2165808 31.3245506 80.0203279 31.6446067 80.8039813 31.6446067 81.50726 31.6446067 82.1700468 31.3442697 82.3910773 30.8637303L82.3910773 30.2233146zM82.3910773 27.720809C82.3910773 26.8598427 81.6479157 26.319236 80.3820141 26.319236 79.478103 26.319236 78.6338642 26.5795281 77.9308899 27.0400449L77.9308899 24.8976404C78.5738876 24.4974944 79.7390164 24.1571124 80.9245433 24.1571124 83.3957611 24.1571124 84.7822248 25.4182247 84.7822248 27.6003708L84.7822248 33.3064719 82.3910773 33.3064719 82.3910773 32.8259326C82.0899766 33.1262697 81.2055504 33.4666517 80.2212646 33.4666517 78.4131382 33.4666517 76.9061124 32.4257865 76.9061124 30.5636966 76.9061124 28.8617865 78.4131382 27.7004831 80.3820141 27.7004831 81.1656674 27.7004831 82.0296956 27.9610787 82.3910773 28.2210674L82.3910773 27.720809 82.3910773 27.720809zM91.1345667 24.1571124C92.0387822 24.1571124 92.9225995 24.3573371 93.5655972 24.8575955L93.5655972 27.1198315C92.9627869 26.5795281 92.2394145 26.319236 91.4356674 26.319236 90.1097892 26.319236 89.064918 27.2402697 89.064918 28.841764 89.064918 30.4235393 90.1097892 31.3642921 91.4356674 31.3642921 92.2394145 31.3642921 92.9627869 31.0842809 93.5655972 30.5636966L93.5655972 32.8059101C92.9225995 33.3064719 92.0387822 33.5066966 91.1345667 33.5066966 88.5826698 33.5066966 86.5937002 31.7049775 86.5937002 28.841764 86.5937002 25.9588315 88.5826698 24.1571124 91.1345667 24.1571124"/>
    <polyline fill="#1A1919" points="104.238 33.306 101.324 33.306 98.09 29.182 98.09 33.306 95.598 33.306 95.598 20.293 98.09 20.293 98.09 27.901 101.163 24.357 104.157 24.357 100.42 28.461 104.238 33.306"/>
    <path fill="#1A1919" d="M110.084426 30.2233146C109.863396 29.7427753 109.200609 29.4424382 108.49733 29.4424382 107.713677 29.4424382 106.90993 29.7828202 106.90993 30.5433708 106.90993 31.3245506 107.713677 31.6446067 108.49733 31.6446067 109.200609 31.6446067 109.863396 31.3442697 110.084426 30.8637303L110.084426 30.2233146zM110.084426 27.720809C110.084426 26.8598427 109.341265 26.319236 108.075363 26.319236 107.171452 26.319236 106.327213 26.5795281 105.624239 27.0400449L105.624239 24.8976404C106.267237 24.4974944 107.432365 24.1571124 108.617892 24.1571124 111.08911 24.1571124 112.475269 25.4182247 112.475269 27.6003708L112.475269 33.3064719 110.084426 33.3064719 110.084426 32.8259326C109.783326 33.1262697 108.898899 33.4666517 107.914614 33.4666517 106.106487 33.4666517 104.599461 32.4257865 104.599461 30.5636966 104.599461 28.8617865 106.106487 27.7004831 108.075363 27.7004831 108.859016 27.7004831 109.72274 27.9610787 110.084426 28.2210674L110.084426 27.720809 110.084426 27.720809zM120.29445 26.7997753C119.952857 26.5992472 119.510796 26.4991348 119.048642 26.4991348 118.205012 26.4991348 117.521827 26.9399326 117.340984 27.7608539L117.340984 33.3064719 114.849368 33.3064719 114.849368 24.3573371 117.340984 24.3573371 117.340984 25.2380225C117.722763 24.5976067 118.465925 24.1571124 119.350351 24.1571124 119.772014 24.1571124 120.153794 24.2368989 120.29445 24.3169888L120.29445 26.7997753M127.447494 27.3601011C127.166183 26.7597303 126.482998 26.319236 125.75993 26.319236 124.413653 26.319236 123.610211 27.4001461 123.610211 28.841764 123.610211 30.2633596 124.413653 31.3442697 125.75993 31.3442697 126.503396 31.3442697 127.166183 30.9237978 127.447494 30.3031011L127.447494 27.3601011zM127.447494 32.5656404C127.045925 33.0458764 126.161803 33.5066966 125.197307 33.5066966 122.585433 33.5066966 121.118595 31.4043371 121.118595 28.841764 121.118595 26.279191 122.585433 24.1571124 125.197307 24.1571124 126.161803 24.1571124 127.045925 24.6173258 127.447494 25.0978652L127.447494 20.2927753 129.958899 20.2927753 129.958899 33.3064719 127.447494 33.3064719 127.447494 32.5656404 127.447494 32.5656404zM39.7096721 31.7796067C38.9588993 31.7796067 38.5019204 31.3703596 38.4870023 30.5761348L38.5244496 30.5761348 38.5244496 21.1015618 36.0328337 21.1015618 36.0328337 30.6980899C36.0328337 32.7203596 37.2987354 33.8816629 39.2073302 33.8816629 39.7900468 33.8816629 40.2321077 33.8018764 40.5937939 33.6410899L40.5937939 31.5390337C40.3325761 31.7195393 40.0110773 31.7796067 39.7096721 31.7796067M60.2417564 26.7645843L62.5092974 26.7645843 62.5092974 24.7423146 60.2417564 24.7423146 60.2417564 21.1015618 57.750445 21.1015618 57.750445 24.7423146 54.1527635 24.7423146 54.1527635 21.1015618 51.661452 21.1015618 51.661452 24.7423146 50.0268618 24.7423146 50.0268618 26.7645843 51.661452 26.7645843 51.661452 30.6980899C51.661452 32.7203596 52.9273536 33.8816629 54.8359485 33.8816629 55.4183607 33.8816629 55.8604215 33.8018764 56.2221077 33.6410899L56.2221077 31.5390337C55.9611944 31.7195393 55.6396956 31.7796067 55.3382904 31.7796067 54.5872131 31.7796067 54.1302342 31.3703596 54.1153162 30.5761348L54.1527635 30.5761348 54.1527635 26.7645843 57.750445 26.7645843 57.750445 30.6980899C57.750445 32.7203596 59.0160422 33.8816629 60.924637 33.8816629 61.5073536 33.8816629 61.949719 33.8018764 62.3114052 33.6410899L62.3114052 31.5390337C62.0498829 31.7195393 61.7286885 31.7796067 61.4272834 31.7796067 60.6762061 31.7796067 60.2192272 31.3703596 60.2043091 30.5761348L60.2417564 30.5761348 60.2417564 26.7645843"/>
    <polyline fill="#1A1919" points="8.121 38.184 8.121 39.596 1.785 39.596 1.785 43.51 7.535 43.51 7.535 44.922 1.785 44.922 1.785 49.138 8.121 49.138 8.121 50.57 .206 50.57 .206 38.184 8.121 38.184"/>
    <path fill="#1A1919" d="M10.5105152 41.6133708L12.0291101 41.6133708 12.0291101 42.7431236C12.5555035 42.0368764 13.5273068 41.4319551 14.681171 41.4319551 16.7261593 41.4319551 17.8395316 42.7431236 17.8395316 44.6998652L17.8395316 50.5703933 16.3008431 50.5703933 16.3008431 44.9419551C16.3008431 43.6911573 15.6730679 42.8238202 14.3167447 42.8238202 13.2639578 42.8238202 12.3530445 43.529764 12.0291101 44.4981236L12.0291101 50.5703933 10.5105152 50.5703933 10.5105152 41.6133708M27.6184543 45.1640225L32.2543091 45.1640225C32.1937237 43.8525506 31.5257611 42.7231011 30.0680562 42.7231011 28.8737002 42.7231011 27.901897 43.5097416 27.6184543 45.1640225zM27.5371663 46.3541461C27.5980562 48.4319326 28.914192 49.420618 30.5536534 49.420618 31.5662529 49.420618 32.2951054 49.1785281 33.104637 48.5733034L33.104637 49.9651685C32.376089 50.5300449 31.4447775 50.7521124 30.371897 50.7521124 27.7804215 50.7521124 26.039274 48.9971124 26.039274 46.1727303 26.039274 43.3886966 27.6589461 41.4319551 30.0476581 41.4319551 32.4771663 41.4319551 33.7324122 43.1869551 33.7324122 45.8095955L33.7324122 46.3541461 27.5371663 46.3541461 27.5371663 46.3541461zM40.4135597 43.1262809C40.1706089 42.965191 39.786089 42.884191 39.4012646 42.884191 38.4498595 42.884191 37.6196253 43.5097416 37.316089 44.5587978L37.316089 50.5703933 35.7977986 50.5703933 35.7977986 41.6133708 37.316089 41.6133708 37.316089 42.7834719C37.7006089 42.0168539 38.5509368 41.4319551 39.5431382 41.4319551 39.9276581 41.4319551 40.2515925 41.4923258 40.4135597 41.5730225L40.4135597 43.1262809M43.5104215 47.9077079C43.9759251 48.8354157 44.8667447 49.3799663 45.8181499 49.3799663 47.5388993 49.3799663 48.5514988 47.9881011 48.5514988 46.0917303 48.5514988 44.1953596 47.5388993 42.8034944 45.8181499 42.8034944 44.8667447 42.8034944 43.9759251 43.3480449 43.5104215 44.2763596L43.5104215 47.9077079zM43.5104215 54L41.9921311 54 41.9921311 41.6133708 43.5104215 41.6133708 43.5104215 42.662427C43.9759251 42.0168539 44.9273302 41.4319551 46.041007 41.4319551 48.6930679 41.4319551 50.0898829 43.610764 50.0898829 46.0917303 50.0898829 48.5733034 48.6930679 50.7521124 46.041007 50.7521124 44.9273302 50.7521124 43.9759251 50.1669101 43.5104215 49.5213371L43.5104215 54 43.5104215 54zM57.0757845 43.1262809C56.8328337 42.965191 56.4483138 42.884191 56.0634895 42.884191 55.1117799 42.884191 54.2818501 43.5097416 53.9783138 44.5587978L53.9783138 50.5703933 52.4600234 50.5703933 52.4600234 41.6133708 53.9783138 41.6133708 53.9783138 42.7834719C54.3631382 42.0168539 55.2131616 41.4319551 56.2050585 41.4319551 56.5898829 41.4319551 56.9138173 41.4923258 57.0757845 41.5730225L57.0757845 43.1262809M58.9588056 50.5703933L60.4774005 50.5703933 60.4774005 41.6133708 58.9588056 41.6133708 58.9588056 50.5703933zM59.7077518 39.8783933C59.1816628 39.8783933 58.7362529 39.4345618 58.7362529 38.9103371 58.7362529 38.3654831 59.1816628 37.9416742 59.7077518 37.9416742 60.2545433 37.9416742 60.6999532 38.3654831 60.6999532 38.9103371 60.6999532 39.4345618 60.2545433 39.8783933 59.7077518 39.8783933L59.7077518 39.8783933zM62.6636534 48.2505169C63.4938876 49.0171348 64.5262763 49.4609663 65.619555 49.4609663 66.6117564 49.4609663 67.482178 49.0978315 67.482178 48.2101685 67.482178 47.5442697 66.9758782 47.1811348 66.1864403 46.9190225L64.9515925 46.4952135C63.5952693 46.0516854 62.6840515 45.4061124 62.6840515 43.953573 62.6840515 42.3799888 64.0808665 41.4319551 65.8625059 41.4319551 66.8748009 41.4319551 67.8061124 41.7143933 68.5349649 42.2185955L68.5349649 43.7921798C67.7857143 43.1669326 66.9557845 42.7231011 65.8625059 42.7231011 64.9311944 42.7231011 64.1618501 43.1262809 64.1618501 43.8928989 64.1618501 44.6191685 64.6480562 44.8612584 65.4980796 45.1640225L66.8748009 45.6278764C68.2311241 46.0917303 68.9803747 46.8786742 68.9803747 48.1497978 68.9803747 49.8037753 67.5025761 50.7521124 65.619555 50.7521124 64.4455972 50.7521124 63.3319204 50.3886742 62.6636534 49.8644494L62.6636534 48.2505169M72.0778454 45.1640225L76.7140047 45.1640225C76.6531148 43.8525506 75.9851522 42.7231011 74.5274473 42.7231011 73.3327869 42.7231011 72.3612881 43.5097416 72.0778454 45.1640225zM71.9965574 46.3541461C72.0574473 48.4319326 73.3735831 49.420618 75.0133489 49.420618 76.025644 49.420618 76.754192 49.1785281 77.5643326 48.5733034L77.5643326 49.9651685C76.8354801 50.5300449 75.9038642 50.7521124 74.8309836 50.7521124 72.2395082 50.7521124 70.4986651 48.9971124 70.4986651 46.1727303 70.4986651 43.3886966 72.1183372 41.4319551 74.5073536 41.4319551 76.9365574 41.4319551 78.1918033 43.1869551 78.1918033 45.8095955L78.1918033 46.3541461 71.9965574 46.3541461 71.9965574 46.3541461zM24.0667447 49.420618C23.1759251 49.420618 22.5889461 48.8560449 22.5889461 47.7863596L22.5889461 47.012764 22.6263934 47.012764 22.6263934 42.8942022 25.0111475 42.8942022 25.0111475 41.6300562 22.6263934 41.6300562 22.6263934 39.4054382 21.0907494 39.4054382 21.0907494 41.6300562 19.0238407 41.6300562 19.0238407 42.8942022 21.0907494 42.8942022 21.0907494 47.9080112C21.0907494 49.7033596 22.2650117 50.7521124 23.8438876 50.7521124 24.3300937 50.7521124 24.6741218 50.6914382 25.0184543 50.5506742L25.0184543 49.1782247C24.7350117 49.3602472 24.3906792 49.420618 24.0667447 49.420618"/>
  </g>
</svg>
