<svg xmlns="http://www.w3.org/2000/svg" width="88" height="36" viewBox="0 0 88 36">
  <path fill="#1F70C1" d="M0,0 L0,2.38256061 L16.9936034,2.38256061 L16.9936034,0 L0,0 Z M19.4022097,0 L19.4022097,2.38256061 L43.6195961,2.38256061 C43.6195961,2.38256061 41.1458372,0 37.8688703,0 L19.4022097,0 Z M48.3706382,0 L48.3706382,2.38256061 L63.0218058,2.38256061 L62.1534452,0 L48.3706382,0 L48.3706382,0 Z M73.5245917,0 L72.6552131,2.38256061 L87.1730217,2.38256061 L87.1730217,0 L73.5266278,0 L73.5245917,0 Z M0,4.63355758 L0,7.01611818 L16.9946214,7.01611818 L16.9946214,4.63355758 L0,4.63355758 L0,4.63355758 Z M19.4022097,4.63700909 L19.4022097,7.01611818 L46.4282795,7.01611818 C46.4282795,7.01611818 46.1126971,5.18234848 45.5619549,4.63700909 L19.4022097,4.63700909 Z M48.3706382,4.63700909 L48.3706382,7.01611818 L64.628222,7.01611818 L63.8229779,4.63700909 L48.3706382,4.63700909 Z M71.7858345,4.63700909 L70.9816084,7.01611818 L87.1740397,7.01611818 L87.1740397,4.63700909 L71.7858345,4.63700909 Z M4.88541919,9.26721667 L4.88541919,11.6529242 L12.2448008,11.6529242 L12.2448008,9.26721667 L4.88541919,9.26721667 Z M24.2876289,9.26721667 L24.2876289,11.6529242 L31.6468069,11.6529242 L31.6468069,9.26721667 L24.2866109,9.26721667 L24.2876289,9.26721667 Z M38.8044194,9.26721667 L38.8044194,11.6529242 L46.1635974,11.6529242 C46.1635974,11.6529242 46.631881,10.3931212 46.631881,9.26721667 L38.8034014,9.26721667 L38.8044194,9.26721667 Z M53.2560574,9.26721667 L53.2560574,11.6529242 L66.3038628,11.6529242 L65.4344842,9.26721667 L53.2580935,9.26721667 L53.2560574,9.26721667 L53.2560574,9.26721667 Z M70.1834903,9.26721667 L69.3110577,11.6529242 L82.4240155,11.6529242 L82.4240155,9.26721667 L70.1834903,9.26721667 Z M4.8864372,13.9045303 L4.8864372,16.2870909 L12.2460224,16.2870909 L12.2460224,13.9045303 L4.8864372,13.9045303 L4.8864372,13.9045303 Z M24.2876289,13.9045303 L24.2876289,16.2870909 L43.08616,16.2870909 C43.08616,16.2870909 44.658982,15.0638333 45.1598418,13.9045303 L24.2886469,13.9045303 L24.2876289,13.9045303 L24.2876289,13.9045303 Z M53.2570755,13.9045303 L53.2570755,16.2870909 L60.6162535,16.2870909 L60.6162535,14.9602879 L61.083519,16.2870909 L74.5649957,16.2870909 L75.0658555,14.9602879 L75.0658555,16.2870909 L82.4260515,16.2870909 L82.4260515,13.9045303 L68.6106683,13.9045303 L67.8777028,15.9226515 L67.1406651,13.9045303 L53.2540214,13.9045303 L53.2570755,13.9045303 L53.2570755,13.9045303 Z M4.8864372,18.5376818 L4.8864372,20.9202424 L12.2463278,20.9202424 L12.2463278,18.5376818 L4.8864372,18.5376818 Z M24.2886469,18.5376818 L24.2886469,20.9202424 L45.1608598,20.9202424 C44.66,19.7639848 43.087178,18.5376818 43.087178,18.5376818 L24.2896649,18.5376818 L24.2886469,18.5376818 Z M53.2570755,18.5376818 L53.2570755,20.9202424 L60.6172715,20.9202424 L60.6172715,18.5376818 L53.2570755,18.5376818 Z M61.9518796,18.5376818 L62.8416184,20.9202424 L72.9504354,20.9202424 L73.7953818,18.5376818 L61.9508616,18.5376818 L61.9518796,18.5376818 Z M75.0668735,18.5376818 L75.0668735,20.9202424 L82.4270695,20.9202424 L82.4270695,18.5376818 L75.0658555,18.5376818 L75.0668735,18.5376818 L75.0668735,18.5376818 Z M4.88745521,23.1708333 L4.88745521,25.5544091 L12.2466332,25.5544091 L12.2466332,23.1708333 L4.88745521,23.1708333 Z M24.2896649,23.1708333 L24.2896649,25.5544091 L31.6488429,25.5544091 L31.6488429,23.1708333 L24.2886469,23.1708333 L24.2896649,23.1708333 Z M38.8064554,23.1708333 L38.8064554,25.5544091 L46.632899,25.5544091 C46.632899,24.4296212 46.1656335,23.1708333 46.1656335,23.1708333 L38.8084915,23.1708333 L38.8064554,23.1708333 L38.8064554,23.1708333 Z M53.2580935,23.1708333 L53.2580935,25.5544091 L60.6182895,25.5544091 L60.6182895,23.1708333 L53.2570755,23.1708333 L53.2580935,23.1708333 Z M63.6254844,23.1708333 L64.488755,25.5544091 L71.2646145,25.5544091 L72.1350112,23.1708333 L63.6244664,23.1708333 L63.6254844,23.1708333 L63.6254844,23.1708333 Z M75.0678915,23.1708333 L75.0678915,25.5544091 L82.4270695,25.5544091 L82.4270695,23.1708333 L75.0668735,23.1708333 L75.0678915,23.1708333 Z M0.137431046,27.8039848 L0.137431046,30.1895909 L17.1310344,30.1895909 L17.1310344,27.8039848 L0.137431046,27.8039848 Z M19.4062817,27.8039848 L19.4062817,30.1895909 L45.5660269,30.1895909 C46.1167691,29.6434394 46.4323515,27.8039848 46.4323515,27.8039848 L19.4062817,27.8039848 Z M48.5080693,27.8039848 L48.5080693,30.1895909 L60.6182895,30.1895909 L60.6182895,27.8039848 L48.5070513,27.8039848 L48.5080693,27.8039848 Z M65.3001071,27.8039848 L66.1867919,30.1895909 L69.6347841,30.1895909 L70.4664965,27.8039848 L65.2990891,27.8039848 L65.3001071,27.8039848 Z M75.0689095,27.8039848 L75.0689095,30.1895909 L87.3114707,30.1895909 L87.3114707,27.8039848 L75.0689095,27.8039848 Z M0.138449054,32.4422121 L0.138449054,34.8247727 L17.1320524,34.8247727 L17.1320524,32.4422121 L0.138449054,32.4422121 L0.138235272,32.4422121 L0.138449054,32.4422121 Z M19.4072997,32.4422121 L19.4072997,34.8217273 L37.8739603,34.8217273 C41.1509273,34.8217273 43.6246861,32.4422121 43.6246861,32.4422121 L19.4072997,32.4422121 Z M48.5090873,32.4422121 L48.5090873,34.8247727 L60.6193075,34.8247727 L60.6193075,32.4422121 L48.5080693,32.4422121 L48.5090873,32.4422121 Z M66.9818559,32.4422121 L67.8349464,34.8186818 L67.9815395,34.8217273 L68.8478641,32.4422121 L66.9798199,32.4422121 L66.9818559,32.4422121 Z M75.0699275,32.4422121 L75.0699275,34.8247727 L87.3114707,34.8247727 L87.3114707,32.4422121 L75.0699275,32.4422121 Z" transform="translate(0 .593)"/>
</svg>
