<svg xmlns="http://www.w3.org/2000/svg" width="91" height="60" viewBox="0 0 91 60">
  <g fill="#0071C5" transform="translate(.305 .303)">
    <path d="M26.7119908,25.2818849 L26.7119908,39.8775577 L22.0517996,39.8775577 L22.0517996,21.5311303 L31.6735926,21.5406526 C35.7596177,21.5406526 37.1520501,24.4142914 37.1520501,27.0234201 L37.1520501,39.8775577 L32.5003494,39.8775577 L32.5003494,27.047755 C32.5003494,25.9547989 31.9325511,25.2818849 30.5634674,25.2818849 L26.7119908,25.2818849 Z M58.4025643,25.0628705 C56.8095452,25.0628705 55.5773698,25.8786199 55.0626368,26.9874467 C54.7569809,27.6529543 54.6519117,28.16293 54.6158273,28.9776214 L61.7860053,28.9776214 C61.694733,26.9874467 60.7894397,25.0628705 58.4025643,25.0628705 Z M54.6158273,32.1390473 C54.6158273,34.515407 56.0984707,36.2654064 58.7443045,36.2654064 C60.8021753,36.2654064 61.8252736,35.6961805 63.016058,34.515407 L65.8943177,37.2557326 C64.0508306,39.0702726 62.1171325,40.1716931 58.7092815,40.1716931 C54.2486157,40.1716931 49.9789848,37.7466636 49.9789848,30.677893 C49.9789848,24.6385961 53.7062887,21.2200663 58.6052736,21.2200663 C63.5700593,21.2200663 66.4387673,25.2226346 66.4387673,30.4652268 L66.4387673,32.1390473 L54.6158273,32.1390473 L54.6158273,32.1390473 Z M46.0447264,39.8542808 C42.2473764,39.8542808 40.6373764,37.2197592 40.6373764,34.6169789 L40.6373764,16.5329455 L45.2901384,16.5329455 L45.2901384,21.5311303 L48.7977521,21.5311303 L48.7977521,25.2818849 L45.2901384,25.2818849 L45.2901384,34.3260177 C45.2901384,35.3925228 45.7953197,35.9839676 46.905445,35.9839676 L48.7977521,35.9839676 L48.7977521,39.8542808 L46.0447264,39.8542808 Z M17.9042189,18.9960645 L13.2121885,18.9960645 L13.2121885,14.5522932 L17.9042189,14.5522932 L17.9042189,18.9960645 Z M17.9158932,40.0701212 C14.4019117,39.7336642 13.206882,37.6091183 13.206882,35.1565797 L13.2121885,21.5311303 L17.9158932,21.5311303 L17.9158932,40.0701212 Z M73.844555,39.6786461 C70.3380026,39.341131 69.1482795,37.2197592 69.1482795,34.7703948 L69.1482795,13.9195848 L73.844555,13.9195848 L73.844555,39.6786461 Z M90.2629466,16.932885 C86.0071127,-3.75392876 45.7263349,-5.06378327 19.7636256,10.6936184 L19.7636256,12.4330374 C45.6998022,-0.854896966 82.4846407,-0.776601947 85.8362426,18.2765968 C86.9580422,24.5772297 83.3963019,31.145547 77.0358998,34.9216946 L77.0358998,39.8606291 C84.6910943,37.0695174 92.5426302,28.0158623 90.2629466,16.932885 Z M43.0677653,53.1274027 C25.1497495,54.7779463 6.47714568,52.1857463 3.86421226,38.2270141 C2.58523336,31.3455167 5.72966842,24.0503254 9.90102241,19.5197947 L9.90102241,17.0968813 C2.39165129,23.6620244 -1.68418523,31.9729349 0.66236058,41.7926116 C3.65704548,54.3854132 19.6830725,61.5218984 44.1429736,59.151887 C53.8210158,58.2102307 66.4876935,55.108055 75.2944041,50.2897372 L75.2944041,43.4442133 C67.3038372,48.1874102 54.0810356,52.1106255 43.0678715,53.1274027 L43.0677653,53.1274027 Z"/>
    <path d="M79.2731312,15.3045602 C79.2731312,15.0770814 79.140468,15.0051346 78.8369347,15.0051346 L78.5429532,15.0051346 L78.5429532,15.6473654 C78.5854054,15.6473654 78.7987278,15.6558297 78.8369347,15.6558297 C79.140468,15.6558297 79.2731312,15.5542578 79.2731312,15.3415916 L79.2731312,15.3045602 L79.2731312,15.3045602 Z M79.731615,16.8969116 L79.3835069,16.8969116 C79.3516678,16.8969116 79.3240738,16.8778668 79.3113382,16.8514158 L78.8369347,16.0494209 C78.8284443,16.0335503 78.7870534,16.0134475 78.7711338,16.0134475 L78.5578115,16.0134475 L78.5578115,16.8090942 C78.5578115,16.8514158 78.5280949,16.8969116 78.4729071,16.8969116 L78.1576994,16.8969116 C78.1184311,16.8969116 78.0791628,16.8514158 78.0791628,16.8090942 L78.0791628,14.7977586 C78.0791628,14.6813741 78.1247989,14.6327043 78.2235003,14.6178917 C78.3349374,14.6030791 78.6363481,14.5924987 78.7987278,14.5924987 C79.3771391,14.5924987 79.7263085,14.7628433 79.7263085,15.3045602 L79.7263085,15.3415916 C79.7263085,15.6769905 79.5586223,15.8536833 79.2996638,15.9404427 L79.7921094,16.7688886 C79.7952933,16.7858173 79.8059064,16.8090942 79.8059064,16.8281389 C79.8059064,16.8609382 79.7868029,16.8969116 79.731615,16.8969116 L79.731615,16.8969116 Z M78.9059196,14.2295907 C78.0494463,14.2295907 77.3574753,14.9342459 77.3574753,15.7827946 C77.3574753,16.6324014 78.0494463,17.3254181 78.9059196,17.3254181 C79.7570864,17.3254181 80.4554252,16.6324014 80.4554252,15.7827946 C80.4554252,14.9342459 79.7570864,14.2295907 78.9059196,14.2295907 L78.9059196,14.2295907 Z M78.9059196,17.6460045 C77.8658405,17.6460045 77.0358998,16.8090942 77.0358998,15.7827946 C77.0358998,14.7586111 77.8658405,13.9195848 78.9059196,13.9195848 C79.9343243,13.9195848 80.7791233,14.7586111 80.7791233,15.7827946 C80.7791233,16.8090942 79.9343243,17.6460045 78.9059196,17.6460045 Z"/>
  </g>
</svg>
