<svg xmlns="http://www.w3.org/2000/svg" xmlns:xlink="http://www.w3.org/1999/xlink" width="165" height="34" viewBox="0 0 165 34">
  <defs>
    <polygon id="group-14-a" points="0 .276 23.491 .276 23.491 33.893 0 33.893"/>
  </defs>
  <g fill="none" fill-rule="evenodd">
    <path fill="#E60012" d="M69.0297323,7.46341463 C66.0256988,7.46341463 62.6089383,8.8565383 60.521777,11.6451389 L60.5227853,11.6394238 L60.521777,11.6407686 L60.5227853,7.90145521 L53.358209,7.90145521 L53.358209,34 L60.521777,34 L60.521777,19.1493152 C60.521777,16.4766962 62.5934779,13.6356517 66.4296872,13.6356517 C69.3940613,13.6356517 72.4616172,15.6981068 72.4616172,19.1493152 L72.4616172,34 L79.6268657,34 L79.6268657,17.8214101 C79.6268657,11.8189432 75.3332286,7.46341463 69.0297323,7.46341463"/>
    <polygon fill="#E60012" points="130.484 8.293 123.956 25.81 117.428 8.293 109.179 8.293 119.999 34 127.912 34 138.731 8.293"/>
    <path fill="#E60012" d="M45.8753009,25.6719183 C42.8779343,27.8673471 41.1651057,28.3914066 38.4316624,28.3914066 C35.9721648,28.3914066 34.045859,27.6352401 32.6884916,26.3100474 L50.8955224,18.8346782 C50.4983012,16.0490625 49.429913,13.5603587 47.7859049,11.6677932 C45.3938915,8.91821691 41.8529766,7.46341463 37.541673,7.46341463 C29.7108357,7.46341463 23.8059701,13.1811182 23.8059701,20.7328645 C23.8059701,28.4800173 29.7248671,34 38.3264272,34 C43.1462006,34 48.0738819,31.7397663 50.3790346,29.0983083 L45.8753009,25.6719183 Z M32.1927167,15.6291537 C33.4057615,14.0172989 35.3377467,13.0713468 37.670962,13.0713468 C40.2373653,13.0713468 42.184384,14.5218508 43.1909674,16.6630552 L30.7481544,21.7717256 C30.408395,19.1497752 31.0865775,17.0991652 32.1927167,15.6291537 L32.1927167,15.6291537 Z"/>
    <mask id="group-14-b" fill="#fff">
      <use xlink:href="#group-14-a"/>
    </mask>
    <polygon fill="#E60012" points="23.491 27.369 7.245 27.369 7.245 .276 0 .276 0 33.893 23.491 33.893" mask="url(#group-14-b)"/>
    <path fill="#E60012" d="M150.997614 34C143.19952 34 137.089552 28.2566399 137.089552 20.7318727 137.089552 13.2914304 143.241665 7.46341463 151.093276 7.46341463 158.891705 7.46341463 165 13.2067747 165 20.7318727 165 28.1703308 158.849226 34 150.997614 34M150.997614 13.5043924C147.015616 13.5043924 144.12436 16.4878444 144.12436 20.7318727 144.12436 24.7841029 147.18687 27.9590223 151.093276 27.9590223 155.076612 27.9590223 157.96653 24.89356 157.96653 20.7318727 157.96653 16.6796425 154.905358 13.5043924 150.997614 13.5043924M96.8171719 34C89.0190776 34 82.9104478 28.2566399 82.9104478 20.7318727 82.9104478 13.2914304 89.0615567 7.46341463 96.9141714 7.46341463 104.711262 7.46341463 110.820896 13.2067747 110.820896 20.7318727 110.820896 28.1703308 104.669118 34 96.8171719 34M96.8171719 13.5043924C92.8351734 13.5043924 89.945256 16.4878444 89.945256 20.7318727 89.945256 24.7841029 93.0064278 27.9590223 96.9141714 27.9590223 100.89617 27.9590223 103.786087 24.89356 103.786087 20.7318727 103.786087 16.6796425 100.724916 13.5043924 96.8171719 13.5043924"/>
  </g>
</svg>
