<svg xmlns="http://www.w3.org/2000/svg" xmlns:xlink="http://www.w3.org/1999/xlink" width="166" height="34" viewBox="0 0 166 34">
  <defs>
    <polygon id="group-9-a" points=".058 .206 119.198 .206 119.198 22.558 .058 22.558"/>
    <polygon id="group-9-c" points="0 34 165.178 34 165.178 0 0 0"/>
  </defs>
  <g fill="none" fill-rule="evenodd">
    <g transform="translate(46.02 4.857)">
      <mask id="group-9-b" fill="#fff">
        <use xlink:href="#group-9-a"/>
      </mask>
      <path fill="#706D6E" d="M19.2590735,6.43135828 L19.2590735,22.2040045 L22.8877349,22.2040045 L22.8877349,1.70705442 L17.865824,1.70705442 L11.4805764,16.930805 L5.28516059,1.70705442 L0.0584615842,1.70705442 L0.0584615842,22.2028866 L3.46852891,22.2028866 L3.46852891,6.43024036 L3.58587941,6.43024036 L10.1275943,22.2028866 L12.7012517,22.2028866 L19.141723,6.43135828 L19.2590735,6.43135828 Z M28.1305408,1.25765306 C27.5460893,1.25765306 27.0352695,1.45105215 26.6164893,1.8344966 C26.1954081,2.21905896 25.981416,2.70423356 25.981416,3.27548753 C25.981416,3.83779819 26.1919566,4.31291156 26.6095863,4.6874127 C27.0237646,5.06079592 27.5357349,5.25084127 28.1305408,5.25084127 C28.7264972,5.25084127 29.2407685,5.06079592 29.6595487,4.68853061 C30.0817804,4.31291156 30.2957725,3.83779819 30.2957725,3.27548753 C30.2957725,2.72435601 30.0875329,2.24365306 29.6768061,1.85014739 C29.2672299,1.45664172 28.7472061,1.25765306 28.1305408,1.25765306 L28.1305408,1.25765306 Z M26.3104576,22.2040045 L29.8666378,22.2040045 L29.8666378,7.51461678 L26.3104576,7.51461678 L26.3104576,22.2040045 Z M40.4707507,7.1602381 C38.8404992,7.1602381 37.385123,7.50120181 36.1471903,8.1708322 C34.9069566,8.84269841 33.9474438,9.80075057 33.2951131,11.0203946 C32.6450834,12.2366848 32.3160418,13.6575533 32.3160418,15.2416372 C32.3160418,16.6300862 32.6358794,17.90339 33.2675012,19.0257755 C33.9002735,20.1503968 34.7953586,21.0290771 35.9285962,21.639458 C37.0606834,22.2487211 38.3676457,22.5583832 39.816119,22.5583832 C41.5061962,22.5583832 42.948917,22.2297166 44.1051646,21.5824444 L44.1523349,21.5567324 L44.1523349,18.3908005 L44.0027705,18.4970023 C43.4792952,18.8681497 42.8936933,19.1632789 42.263222,19.3768005 C41.6350517,19.590322 41.0621051,19.6976417 40.5593388,19.6976417 C39.1637883,19.6976417 38.0443566,19.2739524 37.2309566,18.4377528 C36.4164061,17.5993175 36.0022279,16.42439 36.0022279,14.9442721 C36.0022279,13.4552109 36.4336636,12.2489819 37.2827289,11.3591224 C38.1294933,10.4714989 39.2512259,10.0209796 40.6168636,10.0209796 C41.786917,10.0209796 42.9259071,10.405542 44.0027705,11.1657234 L44.1523349,11.2708073 L44.1523349,7.93495238 L44.1040141,7.90924036 C43.6990398,7.68789342 43.1456517,7.50567347 42.4588061,7.36817007 C41.7754121,7.23066667 41.1069745,7.1602381 40.4707507,7.1602381 L40.4707507,7.1602381 Z M50.3937705,10.0589887 L50.3937705,7.51461678 L46.8398913,7.51461678 L46.8398913,22.2028866 L50.3937705,22.2028866 L50.3937705,14.6893878 C50.3937705,13.4116122 50.6940497,12.3618912 51.2819527,11.5692902 C51.8629527,10.7867506 52.6360853,10.3887732 53.5817923,10.3887732 C53.9016299,10.3887732 54.2617349,10.4401973 54.6506022,10.5419274 C55.036018,10.6425397 55.3155883,10.7520952 55.4801091,10.8672404 L55.6296735,10.9734422 L55.6296735,7.49002268 L55.5709982,7.46542857 C55.2396556,7.32904308 54.7725547,7.25973243 54.1788992,7.25973243 C53.286115,7.25973243 52.486521,7.53921088 51.8008259,8.08810658 C51.2002675,8.57104535 50.7653804,9.23285034 50.4328873,10.0578707 L50.3937705,10.0578707 L50.3937705,10.0589887 Z M63.8706695,7.1602381 C61.3775467,7.1602381 59.3975448,7.87011338 57.9858873,9.27085941 C56.5753804,10.6704875 55.858622,12.6078322 55.858622,15.0292336 C55.858622,17.3299002 56.558123,19.1789297 57.936416,20.5271338 C59.3124081,21.8753379 61.187715,22.5583832 63.5059626,22.5583832 C65.9220022,22.5583832 67.8628873,21.8384467 69.2745448,20.4186961 C70.6816002,19.0011814 71.3937566,17.0817234 71.3937566,14.7173356 C71.3937566,12.3820136 70.72762,10.5184512 69.4045507,9.17919048 C68.0803309,7.83992971 66.2188299,7.16135601 63.8706695,7.16135601 L63.8706695,7.1602381 Z M63.7096002,19.6976417 C62.4037883,19.6976417 61.3717943,19.2773061 60.6481329,18.4478141 C59.9175685,17.6138503 59.5471091,16.4266259 59.5471091,14.9163243 C59.5471091,13.3590703 59.9175685,12.1394263 60.6481329,11.2909297 C61.3729448,10.4491406 62.3945844,10.0209796 63.6808378,10.0209796 C64.929125,10.0209796 65.9220022,10.4290181 66.6341586,11.2361519 C67.3497665,12.0455215 67.7121725,13.2551043 67.7121725,14.8313628 C67.7121725,16.4266259 67.3716259,17.6518594 66.6985863,18.4712902 C66.0301487,19.2851315 65.024616,19.6976417 63.7096002,19.6976417 L63.7096002,19.6976417 Z M78.8846299,7.1602381 C77.1922517,7.1602381 75.7897982,7.58169161 74.7198378,8.4134195 C73.6383725,9.24850113 73.0976398,10.3451746 73.0976398,11.6721383 C73.0976398,12.3618912 73.2126893,12.9745079 73.4427883,13.49322 C73.6843923,14.0152857 74.0410457,14.4736304 74.5242537,14.8593107 C74.9959566,15.2405193 75.7322735,15.6407324 76.7101943,16.048771 C77.5270457,16.3763197 78.1368081,16.6535624 78.5279764,16.8715556 C78.9076398,17.086195 79.1837586,17.3019524 79.333323,17.5110023 C79.4828873,17.7166984 79.551917,17.9972948 79.551917,18.3438481 C79.551917,19.330966 78.7925903,19.810551 77.227917,19.810551 C76.6526695,19.810551 75.9853824,19.6931701 75.2605705,19.460644 C74.5357586,19.2292358 73.8569665,18.8960975 73.2472042,18.4679365 L73.0976398,18.3639705 L73.0976398,21.731127 L73.1551646,21.7557211 C73.6613824,21.9848934 74.3056596,22.1771746 75.0534814,22.3292109 C75.8128081,22.4801293 76.5031051,22.5583832 77.1013626,22.5583832 C78.9421547,22.5583832 80.4147883,22.1346939 81.4962537,21.2984943 C82.589224,20.4567052 83.1414616,19.3343197 83.1414616,17.9626395 C83.1414616,16.9721678 82.8423329,16.1225533 82.2555804,15.43839 C81.6803329,14.7586984 80.6678972,14.1349025 79.2642933,13.583771 C78.1368081,13.1466667 77.4235012,12.7844626 77.1243725,12.506102 C76.8367487,12.2366848 76.6986893,11.8565941 76.6986893,11.3747732 C76.6986893,10.9466122 76.8712636,10.6045306 77.239422,10.327288 C77.6075804,10.0489274 78.1253032,9.90695238 78.7695804,9.90695238 C79.3678378,9.90695238 79.9891051,9.99973923 80.597717,10.1797234 C81.2086299,10.3597075 81.7378576,10.6022948 82.1865507,10.897424 L82.336115,10.9946825 L82.336115,7.80080272 L82.2785903,7.77732653 C81.8644121,7.6051678 81.3236794,7.45760317 80.6678972,7.33910431 C80.0006101,7.22060544 79.4138576,7.1602381 78.8846299,7.1602381 L78.8846299,7.1602381 Z M92.7020754,7.1602381 C90.2170061,7.1602381 88.2266497,7.87011338 86.8230457,9.2697415 C85.4079368,10.6704875 84.6946299,12.6078322 84.6946299,15.0292336 C84.6946299,17.3287823 85.3964319,19.1789297 86.765521,20.5260159 C88.146115,21.87422 90.021422,22.5572653 92.333917,22.5572653 C94.7614616,22.5572653 96.6942933,21.8384467 98.1094022,20.4186961 C99.5130061,19.0011814 100.237818,17.0817234 100.237818,14.7173356 C100.237818,12.3808957 99.5590259,10.5173333 98.2359566,9.17919048 C96.9128873,7.83992971 95.0490853,7.1602381 92.7020754,7.1602381 L92.7020754,7.1602381 Z M92.5410061,19.6976417 C91.2397962,19.6976417 90.2055012,19.2761882 89.4806893,18.4478141 C88.7558774,17.6138503 88.3762141,16.4255079 88.3762141,14.9163243 C88.3762141,13.3579524 88.7558774,12.1394263 89.4806893,11.2909297 C90.2055012,10.4480227 91.2294418,10.0209796 92.5179962,10.0209796 C93.7605309,10.0209796 94.7614616,10.4290181 95.4632636,11.235034 C96.1880754,12.0455215 96.5447289,13.2551043 96.5447289,14.8313628 C96.5447289,16.4255079 96.1995804,17.6507415 95.5322933,18.4712902 C94.8650061,19.2840136 93.8525705,19.6976417 92.5410061,19.6976417 L92.5410061,19.6976417 Z M119.197976,10.3328776 L119.197976,7.51461678 L115.596927,7.51461678 L115.596927,3.13351247 L115.481877,3.17040363 L112.099422,4.17540816 L112.030392,4.19553061 L112.030392,7.51461678 L106.692095,7.51461678 L106.692095,5.6655873 C106.692095,4.80367574 106.887679,4.14522449 107.278848,3.70588435 C107.670016,3.27213379 108.222254,3.05190476 108.924056,3.05190476 C109.441778,3.05190476 109.959501,3.1681678 110.488729,3.39734014 L110.626788,3.45435374 L110.626788,0.487410431 L110.569264,0.465052154 C110.074551,0.29177551 109.395759,0.205696145 108.567402,0.205696145 C107.508947,0.205696145 106.554036,0.427043084 105.725679,0.867501134 C104.897323,1.30795918 104.241541,1.93734467 103.781343,2.73777098 C103.319994,3.53707937 103.091046,4.45935828 103.091046,5.48113152 L103.091046,7.51461678 L100.582967,7.51461678 L100.582967,10.3317596 L103.091046,10.3317596 L103.091046,22.2028866 L106.692095,22.2028866 L106.692095,10.3317596 L112.030392,10.3317596 L112.030392,17.8765601 C112.030392,20.9832426 113.537541,22.5572653 116.504668,22.5572653 C117.000531,22.5572653 117.518254,22.5013696 118.034826,22.392932 C118.576709,22.2811406 118.933363,22.1693492 119.151957,22.0497324 L119.197976,22.0229025 L119.197976,19.1789297 L119.048412,19.2728345 C118.864333,19.3991587 118.610073,19.5031247 118.335105,19.5791429 C118.047481,19.6573968 117.805877,19.6976417 117.621798,19.6976417 C116.919996,19.6976417 116.402273,19.5143039 116.09164,19.1543356 C115.757996,18.7910136 115.596927,18.1560385 115.596927,17.2672971 L115.596927,10.3317596 L119.197976,10.3317596 L119.197976,10.3328776 Z" mask="url(#group-9-b)"/>
    </g>
    <mask id="group-9-d" fill="#fff">
      <use xlink:href="#group-9-c"/>
    </mask>
    <polygon fill="#F1511B" points="0 16.19 16.436 16.19 16.436 0 0 0" mask="url(#group-9-d)"/>
    <polygon fill="#80CC28" points="18.901 16.19 35.337 16.19 35.337 0 18.901 0" mask="url(#group-9-d)"/>
    <polygon fill="#00ADEF" points="0 34 16.436 34 16.436 17.81 0 17.81" mask="url(#group-9-d)"/>
    <polygon fill="#FBBC09" points="18.901 34 35.337 34 35.337 17.81 18.901 17.81" mask="url(#group-9-d)"/>
  </g>
</svg>
