<svg xmlns="http://www.w3.org/2000/svg" xmlns:xlink="http://www.w3.org/1999/xlink" width="107" height="39" viewBox="0 0 107 39">
  <defs>
    <polygon id="group-11-a" points="0 .592 41.125 .592 41.125 39 0 39"/>
    <polygon id="group-11-c" points=".517 .005 18.75 .005 18.75 20.487 .517 20.487"/>
  </defs>
  <g fill="none" fill-rule="evenodd">
    <mask id="group-11-b" fill="#fff">
      <use xlink:href="#group-11-a"/>
    </mask>
    <path fill="#007BC2" d="M5.05498941,18.6266229 C5.05498941,10.7341371 10.8233814,5.34210857 15.3559312,5.54268 C13.2081617,7.65536571 11.9057308,10.7341371 11.9057308,13.7103943 C11.9057308,18.83388 16.024076,22.4274514 20.562269,22.4274514 C25.0982047,22.4274514 29.2188071,18.83388 29.2188071,13.7103943 C29.2188071,10.7341371 27.9163762,7.65536571 25.7686067,5.54268 C30.3011566,5.34210857 36.0706772,10.7341371 36.0706772,18.6266229 C36.0706772,27.26568 29.0483851,34.0059943 20.562269,34.0059943 C12.0761529,34.0059943 5.05498941,27.26568 5.05498941,18.6266229 L5.05498941,18.6266229 Z M24.2257791,13.4585657 C24.2257791,15.6804514 22.7405113,17.42988 20.562269,17.42988 C18.3862839,17.42988 16.8998874,15.6804514 16.8998874,13.4585657 C16.8998874,10.4310514 18.9844541,7.74228 20.562269,6.81853714 C22.1412125,7.74339429 24.2257791,10.4310514 24.2257791,13.4585657 L24.2257791,13.4585657 Z M-0.000112862297,18.7235657 C-0.000112862297,30.1572514 9.46451934,39.0002229 20.562269,39.0002229 C31.65889,39.0002229 41.1246508,30.1572514 41.1246508,18.7235657 C41.1246508,8.23590857 33.7310417,0.591908571 25.5440107,0.591908571 C23.6829115,0.590794286 21.8511564,0.988594286 20.562269,1.51230857 C19.2722529,0.988594286 17.4382406,0.590794286 15.5805272,0.590794286 C7.39123895,0.590794286 -0.000112862297,8.23590857 -0.000112862297,18.7224514 L-0.000112862297,18.7235657 Z" mask="url(#group-11-b)"/>
    <polygon fill="#231F20" points="59.201 9.128 59.201 13.227 61.424 13.227 61.424 20.768 55.452 9.128 48.562 9.128 48.562 13.227 50.782 13.227 50.782 25.775 48.562 25.775 48.562 29.872 57.675 29.872 57.675 25.775 55.452 25.775 55.452 18.232 61.424 29.872 66.093 29.872 66.093 13.227 68.315 13.227 68.315 9.128"/>
    <polygon fill="#231F20" points="88.069 17.096 88.069 9.128 70.785 9.128 70.785 17.096 74.709 17.096 74.709 13.228 76.82 13.228 76.82 25.776 73.954 25.776 73.954 29.872 84.9 29.872 84.9 25.776 82.034 25.776 82.034 13.228 84.146 13.228 84.146 17.096"/>
    <g transform="translate(88.07 9.128)">
      <mask id="group-11-d" fill="#fff">
        <use xlink:href="#group-11-c"/>
      </mask>
      <polygon fill="#231F20" points="18.75 7.873 18.75 .005 .517 .005 .517 7.873 4.653 7.873 4.653 4.054 6.882 4.054 6.882 16.443 3.859 16.443 3.859 20.487 15.405 20.487 15.405 16.443 12.382 16.443 12.382 4.054 14.61 4.054 14.61 7.873" mask="url(#group-11-d)"/>
    </g>
  </g>
</svg>
