<svg xmlns="http://www.w3.org/2000/svg" xmlns:xlink="http://www.w3.org/1999/xlink" width="166" height="34" viewBox="0 0 166 34">
  <defs>
    <polygon id="group-18-a" points="0 .147 22.86 .147 22.86 33.076 0 33.076"/>
    <polygon id="group-18-c" points=".157 .014 18.012 .014 18.012 25.707 .157 25.707"/>
    <polygon id="group-18-e" points=".025 .148 30.394 .148 30.394 32.977 .025 32.977"/>
  </defs>
  <g fill="none" fill-rule="evenodd">
    <path fill="#EC1B24" d="M80.2952159.829268293L75.108836.829268293C75.108836.829268293 74.4904085 1.21544877 74.4904085 2.18077875 74.4904085 3.33932018 75.108836 3.58077389 75.108836 3.58077389L79.7241024 3.58077389C86.3855801 3.58077389 90.6201837 8.11821267 90.6201837 17.048121 90.6201837 26.6541483 86.480686 30.8054066 79.1056749 30.8054066L76.1081652 30.8054066C75.6799496 30.8054066 75.2990479 30.2744993 75.2990479 29.9848034L75.2990479 15.9863066C75.2990479 11.3523833 72.1588794 8.79384669 67.1151584 8.79384669 63.6891941 8.79384669 61.262798 10.3385686 59.8828061 12.9935897L59.8828061 10.0971149C59.8828061 9.66269215 59.5972494 9.42148087 59.2641396 9.42148087L50.6995874 9.42148087C50.6995874 9.42148087 50.1287129 9.90414586 50.1287129 10.8212336 50.1287129 11.786806 50.6520345 12.172744 50.6520345 12.172744L52.6029009 12.172744C53.0786695 12.172744 53.6495441 12.7038937 53.6495441 13.3312855L53.6495441 29.9848034C53.6495441 30.3709839 53.1737755 30.7571643 52.8406657 30.7571643L50.9851442 30.7571643 50.1762658 33.1707317 62.4045471 33.1707317C62.4045471 33.1707317 62.8327628 32.7845512 62.8327628 31.9157058 62.8327628 31.0951026 62.4045471 30.7571643 62.4045471 30.7571643L60.9294493 30.7571643C60.5014726 30.7571643 60.2159159 30.4192261 60.2159159 30.0330456L60.2159159 17.048121C61.4054569 13.7174659 63.7367471 11.786806 65.6876135 11.786806 67.4958211 11.786806 68.6375702 13.1865587 68.6375702 15.2621879L68.6375702 29.8398342C68.6375702 30.3709839 68.2569075 30.7571643 67.9240367 30.7571643L66.1633822 30.7571643C66.1633822 30.7571643 65.6876135 31.0951026 65.6876135 31.9157058 65.6876135 32.7845512 66.1633822 33.1707317 66.1633822 33.1707317L80.5805337 33.1707317C94.9023404 33.1707317 98.6138614 24.4337924 98.6138614 17.048121 98.6138614 5.31846482 90.6201837.829268293 80.294977.829268293M39.4439315 26.7189787C38.4394586 28.1084759 36.8129861 29.249982 35.0430861 29.249982 32.794614 29.249982 31.5030459 28.1084759 31.5030459 25.4782762 31.5030459 22.4014435 32.8902323 20.7634569 39.4439315 20.7634569L39.4439315 26.7189787 39.4439315 26.7189787zM47.7199617 30.3416408C46.1410581 30.1928462 45.9498214 29.249982 45.9498214 28.1580741L45.9498214 15.0564245C45.9498214 13.1706962 45.2800127 10.9375313 43.7493988 9.59738315 41.7880219 7.91004762 38.9655996 7.46341463 36.5258909 7.46341463 33.320755 7.46341463 30.8332371 7.86044942 28.2498606 8.75371538 27.9627654 8.9027592 27.8671471 9.15075017 27.8671471 9.54778496L27.8671471 13.1706962C27.8671471 13.4682854 28.058624 13.6669274 28.2976698 13.6669274L29.6372873 13.6669274C29.9241423 13.6669274 30.2112375 13.5181328 30.4027144 13.2202944 31.1679013 12.1782339 32.0769961 11.3343169 32.8421829 10.8876839 33.5119917 10.5404965 34.6123231 10.0938636 35.7126546 10.0938636 38.3436 10.0938636 39.4439315 12.0787883 39.4439315 14.4113988L39.4439315 18.0340608C29.5414288 17.4388825 25.4752475 20.4658678 25.4752475 25.2798834 25.4752475 30.8381212 29.1587152 33.1707317 32.7943738 33.1707317 36.0473187 33.1707317 38.5348366 31.880431 39.8744542 29.895257 40.1613091 31.6321908 41.1660223 32.8232951 42.4575904 32.8232951L47.6241031 32.8232951 48.4851485 30.34189 47.7197214 30.34189 47.7199617 30.3416408zM114.627832 30.726724L111.955354 30.726724C111.533446 30.726724 111.299183 30.4824705 111.299183 30.0914195L111.299183 10.0506054C111.299183 9.46415157 111.111537 9.12195122 110.455366 9.12195122L102.251463 9.12195122C102.251463 9.12195122 101.688762 9.65979984 101.688762 10.4905072 101.688762 11.2726093 102.251463 11.8593086 102.251463 11.8593086L104.548179 11.8593086C104.688972 11.8593086 104.829765 11.95701 104.829765 12.2015089L104.829765 30.0425688C104.829765 30.4336198 104.501562 30.726724 104.220212 30.726724L101.595057 30.726724C101.595057 30.726724 101.079208 31.0689244 101.079208 31.8998772 101.079208 32.6819793 101.595057 33.1707317 101.595057 33.1707317L114.627597 33.1707317C114.627597 33.1707317 115.049505 32.6819793 115.049505 31.8998772 115.049505 31.1177751 114.627597 30.726724 114.627597 30.726724"/>
    <mask id="group-18-b" fill="#fff">
      <use xlink:href="#group-18-a"/>
    </mask>
    <path fill="#EC1B24" d="M10.8995479,12.1036126 C6.2697136,10.5126281 5.35343512,9.16279722 5.35343512,7.28247677 C5.35343512,5.2576094 7.23419177,3.18455973 11.2853876,3.18455973 C12.6839052,3.18455973 14.1308646,3.66662489 15.5293822,4.5343906 C16.3492613,5.06488019 17.265782,5.9326459 18.2784598,7.66817732 C18.3748592,7.86114866 18.6160998,7.95751326 18.7609411,7.95751326 L20.2076584,7.95751326 C20.4006993,7.95751326 20.4970987,7.81296635 20.4970987,7.57181271 L20.4970987,2.07564038 C20.4970987,1.78654656 20.3040577,1.59357522 20.0146174,1.44902831 C17.265782,0.581262596 14.564904,0.14737974 10.9959473,0.14737974 C4.38871475,0.14737974 0.000121104742,3.90777853 0.000121104742,9.64486238 C0.000121104742,15.2855816 4.29231537,17.6479672 9.83867035,19.3834987 C13.4073849,20.4442357 17.603422,21.9386135 17.603422,25.4099185 C17.603422,27.4829681 15.6742234,29.8932939 11.8640261,29.8932939 C8.97059156,29.8932939 7.04139302,28.832799 5.93207358,27.6756973 C4.77455446,26.5188378 3.71367692,25.4099185 2.70075685,23.2886865 C2.60435748,23.0475328 2.41155873,22.8063792 2.17031808,22.8063792 C1.59143742,22.8063792 0.482360188,22.7581969 0.482360188,22.7581969 C0.241119541,22.8063792 0.0483207921,22.9509261 0.0483207921,23.2886865 L0.0483207921,29.7005647 C0.0483207921,29.9414762 0.192919854,30.3271768 0.4341605,30.4719658 C3.7618766,32.3520442 8.05407087,33.0755051 11.6230276,33.0755051 C17.9892617,33.0270806 22.8603366,28.832799 22.8603366,22.0831604 C22.8603366,14.8516988 16.2046622,13.9355086 10.8995479,12.1036126" mask="url(#group-18-b)"/>
    <g transform="translate(116.693 8.293)">
      <mask id="group-18-d" fill="#fff">
        <use xlink:href="#group-18-c"/>
      </mask>
      <path fill="#EC1B24" d="M10.7642158,9.55565934 C5.96430659,8.36313933 4.95645101,7.46837495 4.95645101,5.72901288 C4.95645101,4.23823808 6.20439847,2.64787862 8.74826355,2.64787862 C11.2441585,2.64787862 13.5481727,4.18857054 14.6522097,5.92793261 C14.7961202,6.17627028 14.9880008,6.27560535 15.2760629,6.27560535 L16.4760402,6.27560535 C16.715891,6.27560535 16.8120724,6.12660275 16.8120724,5.97760014 L16.8120724,1.65402875 C16.8120724,1.35577395 16.6679208,1.05751916 16.3321297,0.958184087 C14.5080581,0.411591617 11.7241012,0.0140017523 8.70005233,0.0140017523 C4.6204188,0.0140017523 0.204270944,2.44895889 0.204270944,7.61762714 C0.204270944,12.0902011 3.66029233,14.5254079 6.63637101,15.3208372 C11.7241012,16.7616949 13.2118995,17.5072071 13.2118995,19.7434941 C13.2118995,21.6817758 11.7241012,22.8745454 9.18023609,22.8745454 C6.58840084,22.8745454 4.18844626,20.9365132 2.79634725,17.407872 C2.55625537,17.0599497 2.41258593,16.9606146 2.17225299,16.9606146 C1.50042962,16.9109471 0.780395036,16.9606146 0.588514376,16.9606146 C0.348422495,16.9606146 0.156541835,17.0599497 0.156541835,17.407872 L0.156541835,22.5268727 C0.156541835,22.924213 0.684454706,23.3218028 0.684454706,23.3218028 C0.684454706,23.3218028 2.12428283,24.2659852 3.75647372,24.8624948 C5.14833167,25.3097522 6.82825167,25.707342 9.18023609,25.707342 C15.1798815,25.707342 18.0118086,21.8806956 18.0118086,17.3582045 C18.0118086,13.3328879 15.8039758,10.7983461 10.7642158,9.55565934" mask="url(#group-18-d)"/>
    </g>
    <path fill="#EC1B24" d="M104.844587,5.80487805 L110.588051,5.80487805 C110.909491,5.80487805 111.139322,5.66926014 111.231393,5.39779716 L112.563766,1.32698828 C112.655606,1.01031933 112.425775,0.829268293 112.104335,0.829268293 L106.08512,0.829268293 C105.763449,0.829268293 105.579769,1.01031933 105.533618,1.28155515 L104.431076,4.99071627 C104.247165,5.44300313 104.476996,5.80487805 104.844587,5.80487805"/>
    <g transform="translate(135.594)">
      <mask id="group-18-f" fill="#fff">
        <use xlink:href="#group-18-e"/>
      </mask>
      <path fill="#EC1B24" d="M29.1250658,30.5797536 C27.6601861,30.5797536 26.5861698,30.0905467 25.9513232,29.1610291 C25.6582982,28.7207183 18.0416101,17.0763173 17.8461783,16.7829406 C19.7992696,14.1410761 20.7756926,13.1135205 22.4848007,12.232899 C23.6076137,11.6456542 25.70734,11.2053435 27.2695678,11.2053435 C27.2695678,11.2053435 27.6113894,10.9119668 27.6113894,10.0802414 C27.6113894,9.19937416 27.2695678,8.85710136 27.2695678,8.85710136 L19.6040831,8.90599747 C19.3110581,8.90599747 18.9692365,9.10158193 18.6764567,9.49324228 C18.5298216,9.73772285 12.5244031,18.3485991 10.9131335,20.6479451 L10.9131335,1.02905438 C10.9131335,0.539847516 10.6201085,0.197328997 10.0831003,0.197328997 C9.49705034,0.197328997 0.513075727,0.148432882 0.513075727,0.148432882 C0.513075727,0.148432882 0.0248642127,0.539847516 0.0248642127,1.32267678 C0.0248642127,2.15415646 0.513075727,2.59446721 0.513075727,2.59446721 L3.58922512,2.59446721 C3.97984337,2.59446721 4.12623326,2.79029738 4.12623326,3.18171201 L4.12623326,29.9438584 C4.12623326,30.335273 3.93104674,30.5308575 3.68681838,30.5308575 L0.757304088,30.5308575 C0.757304088,30.5308575 0.269092574,30.9222721 0.269092574,31.7051014 C0.269092574,32.4879306 0.757304088,32.9771375 0.757304088,32.9771375 L13.5008261,32.9771375 C13.5008261,32.9771375 13.8914444,32.4387888 13.8914444,31.7051014 C13.8914444,30.9711682 13.5008261,30.5308575 13.5008261,30.5308575 L11.4501416,30.5308575 C11.1573618,30.5308575 10.9131335,30.2863769 10.9131335,29.9925088 L10.9131335,23.7790164 C11.4989382,23.1431212 12.6219964,22.0177734 12.7198348,21.8710851 C13.1102079,21.4796705 13.5496228,21.6266045 13.7448093,21.9688773 C14.0380795,22.360292 18.8716432,29.8460661 18.9692365,30.0416506 C19.2134648,30.3839234 19.0668297,30.5797536 18.8228466,30.5797536 L17.3091702,30.5797536 C17.3091702,30.5797536 16.9187971,31.1669984 16.9187971,31.7539975 C16.9187971,32.3898927 17.2603736,32.9771375 17.2603736,32.9771375 L30.0038956,32.9771375 C30.0038956,32.9771375 30.3945138,32.4879306 30.3945138,31.8028936 C30.3945138,31.1178565 29.9063023,30.5797536 29.9063023,30.5797536 L29.1250658,30.5797536" mask="url(#group-18-f)"/>
    </g>
  </g>
</svg>
