<svg xmlns="http://www.w3.org/2000/svg" xmlns:xlink="http://www.w3.org/1999/xlink" width="205" height="50" viewBox="0 0 205 50">
  <defs>
    <polygon id="group-36-a" points=".117 .454 11.388 .454 11.388 14.754 .117 14.754"/>
    <polygon id="group-36-c" points=".284 .454 11.852 .454 11.852 14.754 .284 14.754"/>
    <polygon id="group-36-e" points="0 .069 44.013 .069 44.013 43.323 0 43.323"/>
  </defs>
  <g fill="none" fill-rule="evenodd">
    <path fill="#030404" d="M58.0419824,11.5602749 L58.0419824,25.0569217 C58.0419824,26.4930728 57.3222528,26.7152398 56.6299042,26.9413741 L56.6299042,27.4134791 L62.7749868,27.4134791 L62.7749868,26.9413741 C62.0826382,26.7152398 61.3629086,26.4930728 61.3629086,25.0569217 L61.3629086,11.5602749 C61.3629086,10.7469849 61.6132494,10.5525887 62.6615512,10.5525887 C65.5404696,10.5525887 66.9525477,10.6081305 67.9734685,12.2347105 L68.3333333,12.0165107 L67.1715959,8.56102004 L52.2059142,8.56102004 L51.0441767,12.0165107 L51.4040415,12.2347105 C52.647922,10.6398686 53.6179923,10.5525887 56.7433399,10.5525887 C57.7916417,10.5525887 58.0419824,10.7469849 58.0419824,11.5602749"/>
    <path fill="#030404" d="M64.2168675 13.9362342C65.1463759 14.1821132 65.6250927 14.3934155 65.6250927 15.7611177L65.6250927 25.1314142C65.6250927 26.5183257 65.1463759 26.7373117 64.2168675 26.9562977L64.2168675 27.4134791 76.0371833 27.4134791 77.3895582 24.1555818 77.022542 23.9097027C75.8377179 25.4003444 74.5970435 25.7537955 72.9614278 25.7537955L69.9135975 25.7537955C68.9561638 25.7537955 68.7287734 25.7307444 68.7287734 24.8317491L68.7287734 20.9207356 72.4228714 20.9207356C73.8630111 20.9207356 74.0904016 21.2434519 74.3177921 22.0617681L74.8802843 22.0617681 74.8802843 18.1545964 74.3177921 18.1545964C74.0904016 18.9652289 73.8630111 19.3148382 72.4228714 19.3148382L68.7287734 19.3148382 68.7287734 16.0300479C68.7287734 15.3461968 68.9561638 15.1348945 69.9135975 15.1348945L72.5106361 15.1348945C74.174177 15.1348945 75.0478352 15.5421316 76.320424 16.848364L76.6874403 16.5986431 75.5026162 13.4790528 64.2168675 13.4790528 64.2168675 13.9362342M97.8456391 15.8955828L100.068378 21.981089 95.5349092 21.981089 97.8456391 15.8955828zM79.7194167 15.5421316L83.1816859 20.4558706 79.9068766 25.1314142C78.9045401 26.5413768 78.3115548 26.7373117 77.3895582 26.9562977L77.3895582 27.4134791 82.6422605 27.4134791 82.6422605 26.9562977C81.639924 26.7680466 81.2037929 26.3800187 81.8809438 25.3273491L84.1763709 21.7198425 86.590395 25.2159351C87.4817859 26.4914327 86.5368351 26.8448838 85.7257842 26.9562977L85.7257842 27.4134791 95.2212008 27.4134791 95.2212008 26.9562977C94.2724243 26.7910977 93.8401188 26.4683815 94.3259842 25.1621491L94.9457495 23.5255167 100.630757 23.5255167 101.227568 25.1621491C101.606314 26.2225025 101.472414 26.7910977 100.359132 26.9562977L100.359132 27.4134791 106.204819 27.4134791 106.204819 26.9562977C105.527668 26.7373117 104.907903 26.1687164 104.609497 25.3811351L100.091332 13.4790528 97.0078082 13.4790528 92.6771025 24.5628189C92.2141913 25.7192188 91.7971888 26.2570792 91.3381033 26.564428 90.9784864 26.3416001 90.6494752 25.9958327 90.2133441 25.3811351L86.4105866 19.9641125 89.4864588 15.5959177C90.2975097 14.4318341 90.9746607 14.1859551 91.7857116 13.9362342L91.7857116 13.4790528 86.8314149 13.4790528 86.8314149 13.9362342C87.8605313 14.0207551 88.1589369 14.5893504 87.5659515 15.4921875L85.4159015 18.6809313 83.4800914 15.7611177C82.6652148 14.5586155 83.2620258 14.0706993 84.1534166 13.9362342L84.1534166 13.4790528 77.5808438 13.4790528 77.5808438 13.9362342C78.4990146 14.1859551 78.9581001 14.4548853 79.7194167 15.5421316L79.7194167 15.5421316zM107.176355 27.1615414C107.176355 26.9371594 107.39158 26.4687129 107.664456 26.4687129 108.287073 26.7678888 109.347828 27.4134791 111.307919 27.4134791 114.593954 27.4134791 116.907631 25.7404556 116.907631 22.9022206 116.907631 20.2253831 115.466387 19.1507116 112.691513 18.5051214L110.162611 17.918579C108.725211 17.5800378 108.26017 17.1667026 108.26017 16.2534287 108.26017 15.1905667 109.074953 14.4977382 110.873625 14.4977382 112.879835 14.4977382 114.459438 15.4661235 115.600903 16.8045423L115.954488 16.5604777 114.920636 12.8837627 114.267272 12.8837627C114.267272 13.1908117 114.132756 13.5214798 113.863724 13.5214798 113.260324 13.1908117 112.337928 12.6593807 110.762168 12.6593807 107.933488 12.6593807 105.735111 14.159197 105.735111 16.8911458 105.735111 18.981441 106.957286 20.2883675 109.620704 20.9024655L112.015089 21.4575157C113.617752 21.819676 114.186563 22.4022818 114.186563 23.4336516 114.186563 24.8547373 113.072001 25.6026772 111.25027 25.6026772 108.694464 25.6026772 107.064898 24.2406393 105.735111 22.6542195L105.381526 22.9022206 106.496088 27.1615414 107.176355 27.1615414M55.9839357 31.172207C56.7530451 31.4261122 57.374654 31.644312 57.374654 33.048725L57.374654 47.1960038C57.374654 48.6202531 56.7530451 48.8463874 55.9839357 49.0725217L55.9839357 49.5446266 61.746988 49.5446266 61.746988 49.0725217C60.9778786 48.8463874 60.3562697 48.6202531 60.3562697 47.1960038L60.3562697 33.048725C60.3562697 31.644312 60.9778786 31.4261122 61.746988 31.172207L61.746988 30.6921676 55.9839357 30.6921676 55.9839357 31.172207M73.1225359 35.2678903C73.9216602 35.5246228 74.3777642 35.7532753 74.3777642 37.1733272L74.3777642 43.1343359 74.2948362 43.1343359 67.4155821 34.7905282 63.3935743 34.7905282 63.3935743 35.2678903C64.1926986 35.6369433 64.7241917 35.9257674 64.7241917 37.1733272L64.7241917 46.9652668C64.7241917 48.3211356 64.2718572 48.6340284 63.3935743 48.8626808L63.3935743 49.3400428 67.9508446 49.3400428 67.9508446 48.8626808C67.2346483 48.6340284 66.5372992 48.3211356 66.5372992 46.9652668L66.5372992 38.5051272 66.6202272 38.5051272 75.7083816 49.5446266 76.1871023 49.5446266 76.1871023 37.1733272C76.1871023 35.7532753 76.8542957 35.5246228 77.3895582 35.2678903L77.3895582 34.7905282 73.1225359 34.7905282 73.1225359 35.2678903"/>
    <g transform="translate(78.213 33.97)">
      <mask id="group-36-b" fill="#fff">
        <use xlink:href="#group-36-a"/>
      </mask>
      <path fill="#030404" d="M7.26532958,6.1164641 L4.79598699,5.55173827 C3.38654488,5.2312182 2.93176489,4.8267524 2.93176489,3.93387507 C2.93176489,2.903632 3.73232801,2.23206614 5.48755326,2.23206614 C7.45325519,2.23206614 8.99424524,3.17836348 10.1105234,4.46807518 L10.4563065,4.23150085 L9.44526672,0.667622951 L8.81007814,0.667622951 C8.81007814,0.965248728 8.6747717,1.2857688 8.40791732,1.2857688 C7.82534791,0.965248728 6.92330496,0.453942906 5.3785564,0.453942906 C2.61604985,0.453942906 0.462422298,1.91154607 0.462422298,4.55965235 C0.462422298,6.57816563 1.65762921,7.84498304 4.26227824,8.4402346 L6.60383141,8.97825042 C8.17113105,9.33692764 8.72739087,9.89402205 8.72739087,10.8937394 C8.72739087,12.2712125 7.64118081,13.0038298 5.85964598,13.0038298 C3.36023529,13.0038298 1.76286756,11.675961 0.462422298,10.1420435 L0.116639165,10.3786179 L1.20660774,14.5072216 L1.87186441,14.5072216 C1.87186441,14.301173 2.0823411,13.8356557 2.34919548,13.8356557 C2.96183298,14.1370972 3.99542387,14.7552431 5.91226515,14.7552431 C9.12579317,14.7552431 11.3884176,13.1373799 11.3884176,10.3786179 C11.3884176,7.79156303 9.97897547,6.74224138 7.26532958,6.1164641" mask="url(#group-36-b)"/>
    </g>
    <path fill="#030404" d="M90.8414321 34.7905282L89.7389558 38.3788255 90.0887069 38.6170208C91.5675458 36.634621 91.9705199 36.4502118 93.9321673 36.4502118 94.605058 36.4502118 94.81795 36.5001559 94.81795 37.3415233L94.81795 46.4505733C94.81795 47.8336429 94.4187776 48.0487871 93.3124996 48.2677731L93.3124996 48.7249545 99.2278551 48.7249545 99.2278551 48.2677731C98.155792 48.0487871 97.7224048 47.8336429 97.7224048 46.4505733L97.7224048 37.3415233C97.7224048 36.5001559 97.9390984 36.4502118 98.6119891 36.4502118 100.573637 36.4502118 101.083057 36.634621 102.561895 38.6170208L102.911647 38.3788255 101.812972 34.7905282 90.8414321 34.7905282M109.884415 41.6059543L107.441 41.6059543 107.441 37.7565377C107.441 36.8291601 107.660985 36.5693345 108.356298 36.5693345L109.939411 36.5693345C111.663944 36.5693345 112.661737 37.2488784 112.661737 38.943741 112.661737 40.7225472 111.526452 41.6059543 109.884415 41.6059543M114.967661 44.9956794C114.107359 43.5806291 113.219558 42.9570476 112.190338 42.7052166L112.190338 42.6212729C114.633753 42.2215412 116.024379 40.9264104 116.024379 38.8038349 116.024379 35.9777315 113.80095 34.7905282 110.218322 34.7905282L102.911647 34.7905282 102.911647 35.266209C103.826945 35.5260346 104.298344 35.7498844 104.298344 37.1649347L104.298344 46.9223864C104.298344 48.3574233 103.826945 48.5852704 102.911647 48.8131175L102.911647 49.2887983 108.882693 49.2887983 108.882693 48.8131175C108.022391 48.5852704 107.441 48.3574233 107.441 46.9223864L107.441 43.3008169 108.91412 43.3008169C110.634724 43.3008169 110.886136 44.0043447 111.997851 46.3827486 112.913149 48.3294421 114.134857 49.5446266 116.440781 49.5446266 117.607492 49.5446266 118.07889 49.3207768 118.554217 49.0689458L118.554217 48.6732114C116.692193 48.3894019 116.079375 46.8304481 114.967661 44.9956794M127.104097 35.266209C127.815299 35.4380936 128.499444 35.7498844 128.499444 37.1649347L128.499444 44.3161355C128.499444 46.6945393 127.625903 47.7418365 125.024605 47.7418365 122.264834 47.7418365 121.279201 46.6945393 121.279201 44.3161355L121.279201 37.1649347C121.279201 35.7498844 121.801007 35.4380936 122.647491 35.266209L122.647491 34.7905282 116.907631 34.7905282 116.907631 35.266209C117.754115 35.4141097 118.302977 35.7498844 118.302977 37.1649347L118.302977 44.5399853C118.302977 48.4133858 121.553632 49.5446266 124.618757 49.5446266 128.035617 49.5446266 130.466844 48.3574233 130.466844 44.3161355L130.466844 37.1649347C130.466844 35.7498844 130.876558 35.4700722 131.726908 35.266209L131.726908 34.7905282 127.104097 34.7905282 127.104097 35.266209M141.717701 44.2195382L137.629808 34.7905282 132.550201 34.7905282 132.550201 35.2669835C133.459923 35.5232284 133.928449 35.7514464 133.928449 37.164797L133.928449 46.9421398C133.928449 48.2153564 133.405261 48.5516778 132.550201 48.8319456L132.550201 49.3084009 137.051959 49.3084009 137.051959 48.8319456C136.111001 48.5837084 135.697136 48.2153564 135.697136 46.9421398L135.697136 37.8134168 140.807979 49.5446266 141.190609 49.5446266 146.160893 37.8134168 146.160893 46.9421398C146.160893 48.3795133 145.555713 48.6397619 144.868541 48.8319456L144.868541 49.3084009 150.662651 49.3084009 150.662651 48.8319456C149.752929 48.6077313 149.288306 48.3795133 149.288306 46.9421398L149.288306 37.164797C149.288306 35.7514464 149.752929 35.5232284 150.662651 35.2669835L150.662651 34.7905282 145.66894 34.7905282 141.717701 44.2195382M160.234493 47.0729547L157.186663 47.0729547C156.229229 47.0729547 156.001839 47.0422198 156.001839 46.1509083L156.001839 42.2322111 159.695937 42.2322111C161.140066 42.2322111 161.363467 42.562611 161.590858 43.3732435L162.149361 43.3732435 162.149361 39.4660719 161.590858 39.4660719C161.363467 40.2728625 161.140066 40.6339973 159.695937 40.6339973L156.001839 40.6339973 156.001839 37.3415233C156.001839 36.6653559 156.229229 36.4463699 157.186663 36.4463699L159.783702 36.4463699C161.443253 36.4463699 162.320901 36.8536071 163.59349 38.1598395L163.960506 37.9178023 162.775682 34.7905282 151.485944 34.7905282 151.485944 35.2477096C152.419442 35.4935886 152.902148 35.7125746 152.902148 37.0687512L152.902148 46.4505733C152.902148 47.8298011 152.419442 48.0487871 151.485944 48.2677731L151.485944 48.7249545 163.30626 48.7249545 164.658635 45.4670572 164.295608 45.2211781C163.110784 46.7195035 161.870109 47.0729547 160.234493 47.0729547M175.214659 35.2678903C176.010014 35.5246228 176.466118 35.7532753 176.466118 37.1733272L176.466118 43.1343359 176.386959 43.1343359 169.507705 34.7905282 165.481928 34.7905282 165.481928 35.2678903C166.277283 35.6369433 166.812545 35.9257674 166.812545 37.1733272L166.812545 46.9652668C166.812545 48.3211356 166.356441 48.6340284 165.481928 48.8626808L165.481928 49.3400428 170.039198 49.3400428 170.039198 48.8626808C169.319232 48.6340284 168.625653 48.3211356 168.625653 46.9652668L168.625653 38.5051272 168.704811 38.5051272 177.800504 49.5446266 178.275456 49.5446266 178.275456 37.1733272C178.275456 35.7532753 178.946419 35.5246228 179.477912 35.2678903L179.477912 34.7905282 175.214659 34.7905282 175.214659 35.2678903M180.58419 34.7905282L179.477912 38.3788255 179.827663 38.6170208C181.3027 36.634621 181.713277 36.4502118 183.671123 36.4502118 184.340212 36.4502118 184.556906 36.5001559 184.556906 37.3415233L184.556906 46.4505733C184.556906 47.8336429 184.153932 48.0487871 183.047654 48.2677731L183.047654 48.7249545 188.966811 48.7249545 188.966811 48.2677731C187.890946 48.0487871 187.461361 47.8336429 187.461361 46.4505733L187.461361 37.3415233C187.461361 36.5001559 187.674253 36.4502118 188.350945 36.4502118 190.312592 36.4502118 190.822012 36.634621 192.300851 38.6170208L192.650602 38.3788255 191.551928 34.7905282 180.58419 34.7905282"/>
    <g transform="translate(192.65 33.97)">
      <mask id="group-36-d" fill="#fff">
        <use xlink:href="#group-36-c"/>
      </mask>
      <path fill="#030404" d="M7.62420934,6.1164641 L5.08486446,5.55173827 C3.63766943,5.2312182 3.17070783,4.8267524 3.17070783,3.93387507 C3.17070783,2.903632 3.99271461,2.23206614 5.79109563,2.23206614 C7.81330949,2.23206614 9.39557605,3.17836348 10.5417545,4.46807518 L10.8967997,4.23150085 L9.86253765,0.667622951 L9.2064759,0.667622951 C9.2064759,0.965248728 9.07140437,1.2857688 8.79354292,1.2857688 C8.19536898,0.965248728 7.26916416,0.453942906 5.68689759,0.453942906 C2.84653614,0.453942906 0.635222139,1.91154607 0.635222139,4.55965235 C0.635222139,6.57816563 1.86630271,7.84498304 4.54071913,8.4402346 L6.94499247,8.97825042 C8.55041416,9.33692764 9.12543298,9.89402205 9.12543298,10.8937394 C9.12543298,12.2712125 8.01012801,13.0038298 6.17701431,13.0038298 C3.61451431,13.0038298 1.97050075,11.675961 0.635222139,10.1420435 L0.284036145,10.3786179 L1.39934111,14.5072216 L2.08241717,14.5072216 C2.08241717,14.301173 2.30239081,13.8356557 2.57253389,13.8356557 C3.20158133,14.1370972 4.26285768,14.7552431 6.23104292,14.7552431 C9.53064759,14.7552431 11.853878,13.1373799 11.853878,10.3786179 C11.853878,7.79156303 10.406683,6.74224138 7.62420934,6.1164641" mask="url(#group-36-d)"/>
    </g>
    <g transform="translate(0 .364)">
      <mask id="group-36-f" fill="#fff">
        <use xlink:href="#group-36-e"/>
      </mask>
      <path fill="#DF2C29" d="M32.3541867,2.47687598 L28.2188419,2.47687598 L27.4254996,6.52247024 L31.564677,6.52247024 L32.3541867,2.47687598 Z M27.6554539,26.5836529 L31.242741,8.26405396 L27.1073961,8.26405396 L23.5162765,26.5836529 L27.6554539,26.5836529 Z M41.5868519,13.6594726 L41.5868519,8.26405396 L33.0440496,8.26405396 L31.967097,13.7060182 L35.0408195,13.7060182 L34.0558486,18.7057987 L30.9821261,18.7057987 L29.9166712,24.1206113 C29.8361872,24.4929767 29.774866,24.7567355 29.7365403,25.0088578 C29.4835906,26.6651078 30.2002815,26.5836529 32.4998245,26.5836529 L31.4496998,31.9170106 L27.4293322,31.9170106 C23.6274211,31.9170106 20.5345357,31.870465 21.3393758,27.9373561 C21.4658506,27.3245048 21.6191535,26.7349263 21.7264655,26.1453479 L23.1636799,18.7057987 L20.2087671,18.7057987 L21.1975706,13.7060182 L24.1486508,13.7060182 L25.2256034,8.26405396 L22.4623193,8.26405396 L22.4623193,0.0681376854 L12.2370181,0.0681376854 L12.2370181,16.7508807 L-0.000383257167,16.7508807 C0.302389904,21.0757489 4.08513814,21.7041154 5.46486394,24.7722507 C6.41150914,26.8939574 7.24317719,30.6137319 10.0179591,30.6447624 C12.1412038,30.6757928 12.1412038,27.8714164 14.8738274,27.8714164 C17.606451,27.8714164 18.8175436,33.1116828 21.2473941,37.4404298 C23.0678656,40.8421424 26.0955972,43.1151225 28.835886,43.3013051 C31.0856055,43.4603362 32.1740559,42.6962115 32.1740559,42.6962115 C31.5685096,41.4549937 31.2657364,40.2176547 31.2657364,38.3713432 C31.2657364,35.5902396 33.3889811,32.8168935 35.814999,30.9628245 C39.1570015,28.4842677 42.7979445,27.5533543 44.0128698,27.2508075 L44.0128698,18.6049497 C44.0128698,18.6049497 41.5868519,17.2861558 41.5868519,13.6594726 L41.5868519,13.6594726 Z" mask="url(#group-36-f)"/>
    </g>
  </g>
</svg>
