<svg xmlns="http://www.w3.org/2000/svg" xmlns:xlink="http://www.w3.org/1999/xlink" width="156" height="37" viewBox="0 0 156 37">
  <defs>
    <polygon id="group-6-a" points=".006 .001 36.972 .001 36.972 36.946 .006 36.946"/>
  </defs>
  <g fill="none" fill-rule="evenodd">
    <path fill="#363435" d="M95.4917618,28.0973827 C97.910214,27.9110999 99.8814871,27.1997114 101.406066,25.9630568 C101.842738,25.6088622 102.531315,24.8808165 102.860058,24.4256608 C103.814388,23.1043272 104.418422,21.4885188 104.676686,19.5659704 C104.754655,18.9856442 104.753524,16.9505655 104.674961,16.388664 C104.394875,14.3866856 103.813634,12.8282404 102.875199,11.5629844 C102.525873,11.0919748 101.78546,10.3360777 101.309884,9.96485103 C99.8755061,8.8453328 98.0125926,8.17234713 95.7243768,7.94723302 C95.4529657,7.92050641 93.9305958,7.90068909 92.1512017,7.90068909 L89.050908,7.90068909 L89.050908,18.0226828 L89.050908,28.1446765 L91.964226,28.1446765 C93.566559,28.1446765 95.1539663,28.1234131 95.4917618,28.0973827 L95.4917618,28.0973827 Z M81.025341,18.011328 L81.0368182,2.02265602 L87.954918,2.00942662 C95.2243381,1.99555449 96.730543,2.02126345 98.1582396,2.18355128 C103.046657,2.73923981 107.02121,4.73248786 109.605946,7.92452344 C111.469291,10.2255292 112.515762,12.8009246 112.916547,16.0713725 C113.015531,16.879116 113.029703,19.0655026 112.941603,19.9291095 C112.700313,22.2939057 112.095094,24.3469271 111.115115,26.124809 C108.688903,30.5265584 104.098893,33.1622092 97.6813708,33.8387834 C96.3063183,33.9837177 95.402423,33.999143 88.2402849,33.9995715 L81.0139177,34 L81.025341,18.011328 Z M40.2817798,18.0000268 L40.2817798,2 L43.7636763,2 L47.2455728,2 L52.4047542,7.92339867 C55.2422582,11.1812599 57.5756822,13.8467973 57.5900691,13.8467973 C57.6044021,13.8467973 59.9369101,11.1812599 62.7734442,7.92339867 L67.9307397,2 L71.4129056,2 L74.8950177,2 L74.8950177,18.0000268 L74.8950177,34 L70.89945,34 L66.9038284,34 L66.9038284,24.033117 C66.9038284,18.5507342 66.8863163,14.0729827 66.8649245,14.0813381 C66.8434789,14.0896399 64.8884246,16.3381566 62.5204613,19.0780357 L58.2149019,24.0595758 L57.5896381,24.0595758 L56.9643203,24.0595758 L52.6528876,19.0688769 C50.2815835,16.3239631 48.3260443,14.0771604 48.3071851,14.0759285 C48.2883798,14.0747501 48.2729691,18.5571614 48.2729691,24.0368663 L48.2729691,34 L44.2773475,34 L40.2817798,34 L40.2817798,18.0000268 Z M22.869226,22.011964 C22.8041347,21.7646224 17.7427518,9.72532919 17.7154329,9.75291881 C17.6884911,9.78012141 13.0203499,22.0480101 13.0203499,22.0916083 C13.0203499,22.1004993 15.2420735,22.1077835 17.9574236,22.1077835 L22.8944434,22.1077835 L22.869226,22.011964 Z M0.0258640697,33.9190168 C0.040089308,33.8744546 2.95637093,26.679587 6.50648391,17.9303448 L12.9612397,2.02265602 L17.6137009,2.02265602 L22.2661621,2.02265602 L29.3992031,17.9773172 C33.3223514,26.7523755 36.5333217,33.9473502 36.5347773,33.9662034 C36.5361776,33.9850567 34.5943248,33.9952867 32.2194643,33.988913 L27.9016734,33.977344 L26.593652,30.8340483 L25.2856844,27.6908062 L18.0848041,27.6908062 C12.365935,27.6908062 10.8795593,27.7024288 10.862586,27.7475266 C10.8508394,27.7787523 10.3112502,29.1983155 9.66351692,30.9021235 L8.48583961,34 L4.24289287,34 L0,34 L0.0258640697,33.9190168 Z"/>
    <g transform="translate(119)">
      <mask id="group-6-b" fill="#fff">
        <use xlink:href="#group-6-a"/>
      </mask>
      <path fill="#00A774" d="M31.918302,31.6176904 L26.9086093,26.6078368 L26.9086093,18.3485788 L26.9086093,10.0893209 L18.6491904,10.0893209 L10.3897716,10.0893209 L5.34570638,5.04514841 L0.301694783,0.000922318841 L18.6266151,0.000922318841 L36.951589,0.000922318841 L36.9553426,18.1441672 C36.9574339,28.12296 36.9640296,36.3300962 36.9699281,36.382218 C36.9758267,36.4343397 36.9688557,36.51086 36.9543238,36.5522571 C36.9348049,36.6079716 35.6262383,35.3257875 31.9182484,31.6176904 L31.918302,31.6176904 Z M0.00612376812,29.6867194 L0.00612376812,22.4270513 L5.18666,17.2466759 L10.3672499,12.0663006 L10.3672499,19.3257542 L10.3672499,26.5852614 L17.6267035,26.5852614 L24.8862107,26.5852614 L19.7058354,31.7658513 L14.5254064,36.9463875 L7.26579188,36.9463875 L0.00612376812,36.9463875 L0.00612376812,29.6867194 Z" mask="url(#group-6-b)"/>
    </g>
  </g>
</svg>
