<svg xmlns="http://www.w3.org/2000/svg" width="135" height="38" viewBox="0 0 135 38">
  <g fill="#02489D">
    <path d="M24.1171226,6.32090446 C24.1171226,6.32090446 23.4507608,5.57021394 22.5713111,5.57021394 C22.5713111,5.57021394 20.6448975,5.57021394 19.3368084,9.80827839 C19.3368084,9.80827839 18.2196362,13.5134329 18.2196362,19.0106351 C18.2196362,19.0106351 18.2196362,24.1942134 19.2653685,27.8510697 C19.2653685,27.8510697 20.3123324,31.5555969 21.8335095,31.5555969 C21.8335095,31.5555969 22.9038761,31.5555969 23.8079603,29.5220586 C23.8079603,29.5220586 24.7108128,27.4872658 25.0914149,24.1691234 L27.9453155,23.4427701 C27.9453155,23.4427701 27.2075139,29.6186548 24.9251324,33.6142252 C24.9251324,33.6142252 22.5713111,37.6348854 19.5991652,37.6348854 C19.5991652,37.6348854 16.0320974,37.6348854 13.5119936,32.185354 C13.5119936,32.185354 10.9910276,26.7370771 10.9910276,19.0106351 C10.9910276,19.0106351 10.9910276,11.2855731 13.5119936,5.78824538 C13.5119936,5.78811993 16.0320974,0.314878347 19.5991652,0.314878347 C19.5991652,0.314878347 23.166233,0.314878347 25.7097395,5.88496704 L24.1171226,6.32090446"/>
    <path d="M34.1507325 13.7555506C34.1507325 13.7555506 29.2287701 17.8966425 21.3826991 19.9075999 21.3826991 19.9075999 13.5119936 21.8934674 7.25730778 20.5850278 7.25780047 20.5850278 1.00410002 19.2289175.0767362985 15.3299433.0767744819 15.3299433-.707907758 12.0848126 2.73996625 8.50059157 2.73996625 8.50059157 6.14025883 4.94045686 12.2513258 2.56707554L12.6559466 4.16555457C12.6559466 4.16555457 9.08875567 5.7154846 7.11516703 7.67714028 7.11516703 7.67714028 5.09403391 9.73564306 5.54582965 11.5036045 5.54582965 11.5036045 6.14025883 13.7555506 10.3252817 14.4342331 10.3252817 14.4342331 14.486286 15.0878256 19.8836931 13.7317152 19.8836931 13.7317152 25.2342947 12.3754794 28.6584827 9.78406662 28.6584827 9.78406662 32.0346335 7.16856753 31.4643461 4.89203331 31.4643461 4.89203331 30.9889013 2.93037763 27.5647133 2.08271456L27.0412313-1.55431223e-15C27.0412313-1.55431223e-15 31.4877488.169532614 34.436492 1.67098891 34.436492 1.67098891 37.4566751 3.17262084 38.0749997 5.7154846 38.0749997 5.7154846 39.049292 9.59037241 34.1507325 13.7555506M62.3054408 5.20992264L62.3054408 5.32395634 62.495126 5.49506962 62.7328484 5.32395634 62.8523255 5.15296851 63.0900479 5.20992264C63.0900479 5.20992264 63.3745757 5.38103592 63.6122981 5.20992264L63.683738 5.20992264 62.495126 4.86782153 62.3054408 5.20992264"/>
    <path d="M54.8621429.84763798C54.790703.920285854 54.6958604.944510175 54.6958604.944510175L55.0050227 1.67098891 54.790703 1.67098891 55.0050227 2.37338133C55.1479025 3.17262084 55.1479025 4.74676265 55.1479025 4.74676265L55.0530599 5.1584883 54.9335828 5.59442572 55.0050227 6.39353979C54.98162 6.70841833 54.6244205 7.07172042 54.6244205 7.07172042L54.6244205 7.45910884C53.2448915 7.96780705 53.0552063 8.23413659 53.0552063 8.23413659L52.3174046 8.45216802C51.9848396 8.67007401 51.2950751 8.936529 51.2950751 8.936529 50.8442648 9.39655275 50.3675882 9.46931353 50.3675882 9.46931353L50.2973801 9.51773708 50.2259402 9.51773708 50.2259402 9.54194885 50.0350232 9.54194885C50.2973801 9.00916433 50.0350232 8.45216802 50.0350232 8.45216802L49.8687407 8.16150126 49.6790555 7.43489707C49.5115412 6.85368899 49.3932959 6.80526543 49.3932959 6.80526543L49.1789762 7.14435575 49.0126937 7.58029318 48.8698139 7.58029318 48.5606516 8.37940724 48.2761238 9.10601143 47.8955216 10.1715805C47.9189243 10.2926394 47.4668822 11.2371495 47.4668822 11.2371495L47.277197 11.4309692C47.277197 12.1090244 46.9914374 12.3027186 46.9914374 12.3027186L46.8017522 12.7870796C46.6588724 13.1508835 46.6354697 13.1019581 46.6354697 13.1019581 46.6588724 13.2951505 46.5159926 14.3125469 46.5159926 14.3125469 46.4445527 15.3299433 46.7771177 15.5243902 46.7771177 15.5243902 46.9199975 15.7414181 46.8485576 15.8141789 46.8485576 15.8141789L47.2057571 16.5405322 47.3240024 16.5166967 47.4668822 16.7588145C47.7046046 17.3158108 48.2046839 17.1702892 48.2046839 17.1702892L49.1075363 16.904336 49.2984533 17.7272855C49.3932959 18.2604464 49.5829811 18.405968 49.5829811 18.405968L50.2727456 18.5514895 50.9859128 18.6242503 51.6756773 18.3093718 53.2214888 17.9455679C54.2204156 17.7272855 54.7192631 17.4613323 54.7192631 17.4613323 55.123268 18.236611 55.0530599 18.8663681 55.0530599 18.8663681L54.98162 20.1246277 55.123268 20.6577886 55.2193424 21.1671141 55.2661478 23.5155309 55.5038702 24.2418842 55.4090276 24.5329273 55.4090276 25.4048022 55.64675 26.1311555 55.7181899 26.954105 55.8610697 26.954105 55.7896298 26.2039162 56.0507549 26.2528416 56.0987921 26.615391 56.170232 26.5915556 56.1221948 26.1311555C55.8610697 26.0345593 55.8610697 25.5503237 55.8610697 25.5503237 55.8610697 25.1137591 56.0507549 24.8239704 56.0507549 24.8239704 56.1936347 24.8716413 56.4079544 25.6707554 56.4079544 25.6707554 56.5976396 26.276677 56.6222741 26.6643163 56.6222741 26.6643163L57.1211216 26.6643163 57.1211216 26.8825987 56.9782418 26.7609125C56.7405194 26.9064341 56.693714 27.6817127 56.693714 27.6817127 56.6690795 28.4557369 56.8119593 28.4808268 56.8119593 28.4808268 56.8833992 28.4808268 57.2640014 28.1897837 57.2640014 28.1897837L57.1691588 28.3353052 57.1691588 28.408066 57.3120386 28.408066 57.3822467 28.8195408C57.549761 28.8195408 57.549761 27.8259798 57.549761 27.8259798L57.6446036 27.8259798 57.8108861 27.9715014 57.882326 27.8987406 57.882326 26.954105 58.0720112 27.1247164 58.3097336 26.9064341 58.4526134 26.5915556C58.5006506 26.3732732 58.3811735 25.7435161 58.3811735 25.7435161 58.5720905 24.7750451 58.5954932 24.2669741 58.5954932 24.2669741L58.5954932 23.7338133 59.2852577 22.1594205C59.4749429 21.5534989 59.4995774 20.5850278 59.4995774 20.5850278L59.5697855 18.9629643 59.8555451 18.5514895C60.117902 18.3093718 60.1413047 18.1638502 60.1413047 18.1638502L60.6881894 16.5894575C61.115597 15.4516295 61.4013566 15.3299433 61.4013566 15.3299433L62.7808856 15.0150648C63.683738 14.7240217 63.6122981 14.2397862 63.6122981 14.2397862 64.0643402 14.2397862 64.2552572 12.2300833 64.2552572 12.2300833L64.6346276 10.2442158 64.9684244 9.59037241 65.1113042 8.06465415 65.3724293 6.56314767C65.4438692 5.86075526 65.0398643 5.52166494 65.0398643 5.52166494 64.7775074 5.27954718 64.0409375 5.08585297 64.0409375 5.08585297L63.9694976 5.13427652C64.1357801 5.23112363 64.4929796 5.35218251 64.4929796 5.35218251 64.8255446 5.52166494 64.8969845 5.78811993 64.8969845 5.78811993 64.9918271 6.1756338 64.7541047 6.80526543 64.7541047 6.80526543 64.539785 7.36226174 64.1838173 7.67714028 64.1838173 7.67714028L64.20722 7.94346982C64.1123774 8.28256014 63.5654927 8.936529 63.5654927 8.936529L62.8042883 10.0020981 62.1379265 10.4380355C61.2350741 10.4622473 60.9493145 10.7527886 60.9493145 10.7527886L60.8310692 10.6559415C60.6881894 10.4380355 60.6881894 9.32391742 60.6881894 9.32391742L60.5933468 8.45216802C60.7349948 8.23413659 60.7349948 8.08886593 60.7349948 8.08886593L60.7349948 7.60450495C60.9727172 7.31383819 62.3756489 6.78105366 62.3756489 6.78105366 63.6369326 6.24826913 63.7785806 5.73969638 63.7785806 5.73969638L63.8500205 5.81233171C63.8266178 6.03023769 64.0409375 6.0787867 64.0409375 6.0787867 64.0409375 5.7154846 64.2786599 5.7154846 64.2786599 5.7154846L64.7775074 5.81233171 64.7775074 5.73969638 63.9694976 5.37639428C63.9694976 5.57021394 63.8266178 5.57021394 63.8266178 5.57021394L63.5174555 5.52166494 63.4940528 5.66706105 63.6122981 5.73969638 63.4460156 6.00602592 63.3745757 6.00602592C63.3745757 5.88496704 62.9225336 5.88496704 62.9225336 5.88496704L63.0654134 5.35218251C62.6614085 5.1584883 62.6380058 5.52166494 62.6380058 5.52166494L62.5899686 5.52166494 62.5185287 5.37639428 62.4470888 5.37639428 62.4236861 5.49745317 62.1379265 5.49745317 61.9482413 5.7154846 61.7339216 5.64284927 61.8768014 5.49745317 61.7339216 5.20691185C62.0196812 5.20691185 62.162561 4.86782153 62.162561 4.86782153L60.4024298 4.98888041C60.4024298 5.23112363 60.9025091 5.1584883 60.9025091 5.1584883 61.4493938 5.08585297 61.5208337 5.27954718 61.5208337 5.27954718L60.9727172 5.23112363 60.4738697 5.30375896 60.4024298 5.52166494 60.25955 5.42481784 60.117902 5.30375896 59.7607025 5.1584883C59.5463828 5.30375896 59.4281375 5.27954718 59.4281375 5.27954718L59.1904151 5.13427652 58.9526927 4.89203331C58.6669331 4.67412732 57.4068812 2.49444021 57.4068812 2.49444021 56.4793943.920298399 54.8621429.84763798 54.8621429.84763798L54.8621429.84763798zM54.6244205 9.73561797L54.9101801 10.8981596 55.0764626 11.6730619C55.2193424 12.1574229 55.1479025 12.4723014 55.1479025 12.4723014L54.6958604 13.1508584 54.1489757 13.8772117C53.5072484 14.2886864 53.0318036 14.434208 53.0318036 14.434208L51.8185571 14.603565C51.2236352 14.6763257 50.5585052 15.3060828 50.5585052 15.3060828 49.8921434 15.8869146 49.654421 15.8630791 49.654421 15.8630791 49.5361757 15.9358399 49.3932959 15.9596753 49.3932959 15.9596753 49.2504161 15.5958714 49.5361757 15.3788436 49.5361757 15.3788436 49.4413331 15.233322 49.6076156 14.8218473 49.6076156 14.8218473L49.9635833 14.3852826 50.2259402 13.8772117 50.3675882 13.2474546C50.6299451 13.0780976 50.5819079 12.8836507 50.5819079 12.8836507L51.8185571 11.4309441 53.3163314 10.7527635C54.3866981 10.2926143 54.6244205 9.73561797 54.6244205 9.73561797L54.6244205 9.73561797zM78.9497042 4.86782153L79.8771911 4.50451944 80.8280807 4.2381899 81.6841277 4.14134279 82.0413272 3.99594669 83.0156195 3.94752313 83.9911436 3.99594669 84.3717457 4.02015846 84.7757507 4.16555457 85.0602785 4.60149199 85.3940753 5.23112363C85.3940753 5.23112363 85.2031583 6.1756338 85.3940753 6.36932801 85.3940753 6.36932801 85.2511955 6.65999478 85.1797556 8.52480335L84.9900703 10.5348826 84.8471906 11.9637537 84.9654359 13.973833C84.9654359 13.973833 84.9654359 14.3614723 84.7757507 15.0150648 84.7757507 15.0150648 84.9900703 16.0324612 84.7757507 16.2507435 84.7757507 16.2507435 85.2511955 19.3016782 85.1797556 19.4710352L84.9186304 20.1246277 84.7043108 20.7543848 84.680908 21.1181887 84.7757507 21.2398748 84.7043108 21.675185 84.7523479 22.0866598C84.7523479 22.0866598 84.7043108 22.4015383 84.561431 22.4015383L84.2042315 22.1594205 83.9197037 21.8207066 83.9197037 21.7968712C83.9197037 21.7968712 83.3013791 21.2637103 83.0156195 21.4092318 83.0156195 21.4092318 83.0156195 22.3049421 83.5871386 23.2006524L83.705384 23.2734132C83.705384 23.2734132 83.7768239 23.6848879 84.4431856 24.7512097L84.5133938 24.8967312 85.0602785 26.5426302C85.0602785 26.5426302 85.4655151 27.1247164 87.0347294 27.8510697L87.1776091 27.8259798 87.1776091 27.7055482C87.1776091 27.7055482 87.3192572 27.7055482 87.6530539 27.3179088 87.6530539 27.3179088 88.0804616 26.7609125 88.1284988 26.1311555L88.1284988 24.8967312 88.2713785 24.0248564 88.2713785 23.1278916 88.0570589 22.3287775C88.0570589 22.3287775 87.9375818 21.6990204 88.1999386 21.6024242 88.1999386 21.6024242 88.1999386 20.3190746 88.0804616 20.2463139 88.0804616 20.2463139 88.2947813 19.2527529 88.1519015 18.1149249L88.1999386 17.2192146 88.1999386 16.2984144 88.0570589 14.2887115 88.0090217 12.2300833 87.9375818 10.3896119 87.7244938 8.64586223C87.7244938 8.64586223 87.7959337 8.13728948 87.9141791 7.94346982 87.9141791 7.94346982 87.8427392 7.6529285 87.9375818 6.73263011 87.9375818 6.73263011 87.6284195 6.70841833 87.7959337 5.57021394L88.0090217 4.16555457C88.0090217 4.16555457 87.9375818 3.80225248 87.3192572 3.00301296L86.4398075 2.01007923C86.4398075 2.01007923 85.8929228 1.71953792 85.6071632 1.79217324L83.705384 2.08271456C83.705384 2.08271456 82.3738922 2.22811067 82.0166927 2.63971086L81.5412479 2.59128731 81.0424004 2.71247164 80.9709605 2.78510697 80.0668763 2.88195408 79.3537091 3.02722474 79.092584 3.02722474 78.1650971 3.36631505 77.3324528 3.7780407 76.5010403 4.09279379C76.5010403 4.09279379 75.7632386 4.72255087 75.3826364 4.64991555 75.3826364 4.64991555 73.7666168 5.06151574 73.1236577 5.44902961 73.1236577 5.44902961 73.1236577 5.49745317 73.5522971 5.59442572 73.5522971 5.59442572 73.9797047 5.7154846 74.0277419 5.95760237L74.5031867 6.10299847C74.5031867 6.10299847 75.6449933 6.29669268 76.2867206 5.86075526 76.2867206 5.86075526 76.4296004 5.93339059 77.2376102 5.57021394 77.2376102 5.57021394 77.4038927 5.35218251 77.8078976 5.35218251L78.3079769 5.06151574 78.9497042 4.86782153"/>
    <path d="M58.1582318 27.2451481L58.0720112 28.238709C58.0720112 28.238709 58.6693965 28.238709 58.6693965 27.7783089 58.6693965 27.7783089 58.8393742 27.3417443 58.1582318 27.2451481M56.0753894 27.7783089L56.2724649 28.1897837 56.3512952 28.1897837 56.5089556 27.9715014 56.5089556 27.5361912 56.3907103 27.5361912 56.3512952 27.5600266 56.4695405 27.3179088 55.9189606 27.1247164C55.9189606 27.1247164 55.8007153 27.3417443 56.0753894 27.7783089"/>
    <path d="M56.7589953,28.4808268 L56.9129605,28.408066 C56.9129605,28.408066 57.1445243,27.6817127 56.6813967,27.5361912 C56.6813967,27.5361912 56.0643039,27.7055482 56.5274315,28.4808268 L56.7589953,28.4808268"/>
    <polyline points="55.979 30.176 55.979 32.888 58.215 32.888 58.215 30.176 60.141 30.176 60.141 36.69 58.215 36.69 58.215 33.905 55.979 33.905 55.979 36.69 54.029 36.69 54.029 30.176 55.979 30.176"/>
    <path d="M49.4413331 31.7011185C49.4413331 31.7011185 48.8698139 32.2832047 48.8698139 33.4210328L48.8698139 33.4937935C48.8698139 33.4937935 48.8698139 34.6805469 49.3932959 35.2613787 49.3932959 35.2613787 50.0116205 35.818375 50.9144729 35.818375L52.0328768 35.6979433 52.746044 35.5273319 52.746044 36.4970574 52.0328768 36.7140852 50.7962276 36.786846C50.7962276 36.786846 49.0360964 36.786846 47.9189243 35.987732 47.9189243 35.987732 46.8485576 35.1886179 46.8485576 33.6142252L46.8485576 33.3244366C46.8485576 33.3244366 46.8485576 31.8466401 47.9669615 30.9747652 47.9669615 30.9747652 49.0841336 30.0552195 50.7728249 30.0552195L51.9848396 30.1267258 52.746044 30.3211727 52.746044 31.3385691 52.0562795 31.1692121 51.0819872 31.0964513C51.0819872 31.0964513 50.0350232 31.0964513 49.4413331 31.7011185M82.968814 13.1019581C82.968814 13.1019581 83.0156195 13.5134329 82.5401747 14.0465937L82.3972949 14.2397862 82.3738922 14.3125469 82.2310124 14.60359 82.1595725 14.942304 81.9464845 15.0878256 81.8750446 15.2333471 81.9464845 15.2571826C81.9464845 15.2571826 82.1842069 15.3299433 82.5882119 15.111661L82.968814 15.0150648 83.4196244 14.9673939 83.7287867 14.942304 83.9197037 14.8946332C83.9197037 14.8946332 84.3471113 15.0389002 84.680908 14.5308293L84.7523479 13.8772368 84.680908 13.5134329 84.561431 13.2474797 84.4185512 13.1747189 84.2042315 13.0781227 83.705384 13.0291973 83.6339441 12.9564366 83.1584993 12.7381542 82.8012998 12.5938872 82.968814 13.1019581"/>
    <path d="M81.3281599 5.86075526L80.7098354 6.03023769 80.0200709 6.1756338 78.7119818 6.46617512 78.04562 6.85368899 77.4753326 6.99908509C77.4753326 6.99908509 77.38049 7.07172042 77.2376102 7.0959322L76.9764851 7.14435575 76.7141282 7.21699108 75.7632386 7.6529285 75.2877938 7.94346982 74.9552288 8.0162306 74.8603862 8.08886593 74.812349 8.13728948 74.6460665 8.35519547 74.3135015 8.52480335 73.9082648 8.81534467C73.9082648 8.81534467 73.1716949 8.81534467 73.3145747 9.37234097L73.4574545 9.37234097C73.4574545 9.37234097 73.4574545 9.46931353 74.3603069 9.85670195L74.3849413 10.2926394C74.3849413 10.2926394 74.4551495 10.6075179 74.6694692 10.7527886L75.6203588 10.7527886 75.9295211 10.8012121 76.4296004 10.8012121C76.4296004 10.8012121 76.5724801 10.8012121 76.5724801 10.8981847L76.6426883 11.3825457 76.6907255 11.7457223 76.6426883 12.3027186 76.4764058 12.6666479 76.0724009 12.7381542 75.7632386 12.9326011 74.8603862 13.2951505 74.5031867 13.5861936 73.956302 13.9499975 73.6705424 14.2397862 73.6951769 14.3614723 73.6951769 14.4580685 73.4094173 14.7240217 73.4574545 15.0150648 73.5522971 15.0878256 73.8848621 15.4027041 74.3603069 15.4754649 74.5746266 15.8631042 74.8603862 16.1528928 75.2163539 16.2256536 75.5021135 16.1779828 75.4540763 16.3950106C75.4540763 16.3950106 75.3592337 16.6132929 75.4540763 16.6132929L75.3111965 17.0975285 75.144914 17.4374969 75.0734741 17.6068539 74.6460665 17.9455679 74.4317468 18.236611 74.2174271 18.6242503 74.2174271 18.7936073 74.0511446 19.1561567 73.9082648 19.374439 73.9082648 19.6654821 74.0991818 20.1973885 74.3135015 20.537357C74.3135015 20.537357 74.4551495 20.7305494 74.5031867 20.681624 74.5031867 20.681624 74.5031867 20.7305494 74.7409091 20.8271456 74.7409091 20.8271456 75.2397566 20.8999064 75.5255162 20.8271456L76.5010403 20.6101178 77.047925 20.3190746 78.0222173 19.9803607 78.236537 19.8110037C78.236537 19.8110037 78.3794168 19.8110037 78.9497042 19.374439 78.9497042 19.374439 79.0691812 19.4471998 79.3537091 19.1561567 79.3537091 19.1561567 79.3537091 19.1812466 79.7343113 18.9629643L80.0668763 18.8663681C80.0668763 18.8663681 80.2577933 18.7936073 80.4240758 18.6719212L80.8995206 18.5263996 81.5412479 18.0910894 82.0166927 17.6796147C82.0166927 17.6796147 82.2544151 17.5340931 82.325855 17.24305L82.4453321 17.0247677 82.516772 16.904336 82.2310124 16.904336C82.2310124 16.904336 82.0413272 16.904336 82.1595725 16.6132929L82.325855 16.2984144 81.7555676 16.2507435C81.7555676 16.2507435 81.3983681 16.2507435 81.3983681 16.105222L80.4006731 16.1779828 80.4955157 15.7903434 80.5435528 15.4754649 80.6852009 15.0878256C80.6852009 15.0878256 80.5669556 15.0878256 80.5669556 14.8695432L80.7098354 14.7491116 80.9709605 14.7240217 81.5412479 13.9010722 82.1595725 13.2474797 82.1842069 13.0781227 82.325855 12.7870796 82.325855 12.4723265 82.2544151 12.1090244 81.8750446 11.7215105 81.1852802 11.2371495 80.8995206 11.0918789 80.7812752 10.97082 80.5435528 10.8012121 80.613761 10.6801532C80.613761 10.6801532 80.613761 10.3652747 80.7812752 10.0020981L81.4944425 9.22707031C81.4944425 9.22707031 81.6841277 9.22707031 82.0166927 8.52480335L82.2544151 8.20992481 82.325855 7.89504627 82.3024523 7.58029318 82.3738922 7.36226174 82.325855 7.02329687 81.9698873 6.39353979 81.8036048 6.15142203C81.8036048 6.15142203 81.8036048 5.86075526 81.3281599 5.86075526M75.4306736 22.4015383L74.8837889 22.5470599 74.0511446 22.5470599 73.6705424 22.6198206 73.2431348 22.5959852 73.6951769 23.6121271C73.6951769 23.6121271 74.1459872 24.4601665 74.288867 24.484002L74.7175064 24.6056881 75.3826364 24.4112412C75.3826364 24.4112412 75.8580812 24.314645 75.9295211 24.1691234L76.0724009 24.1691234C76.0724009 24.1691234 76.6907255 24.0248564 76.8336053 23.806574L77.5948097 23.6121271 78.3079769 23.2734132 78.6405419 23.1768169 79.1640239 22.9108638 79.7343113 22.5470599 81.2086829 21.4819926C81.2086829 21.4819926 81.8036048 21.0943533 83.1584993 20.4395063L83.4910643 20.1246277 83.4910643 20.0531215 83.2779763 20.0531215C83.2779763 20.0531215 83.0870594 20.1973885 82.325855 20.3918354L81.6126878 20.681624 81.3983681 20.7305494 80.7566408 20.9726672 80.0200709 21.0943533 79.0211441 21.5296635 78.5222965 21.6262597 78.0222173 21.8683774 77.7376894 21.8934674 77.047925 22.0389889C77.047925 22.0389889 76.4764058 22.3287775 76.3347577 22.3777029L76.000961 22.3049421 75.4306736 22.4015383M71.911643 6.85368899L71.6973233 7.50765785C71.6973233 7.50765785 71.5790779 7.87083449 71.6258834 8.28256014L71.6973233 8.5732269 71.6973233 9.59037241 71.7687632 10.220004 71.6492861 10.6801532 71.6258834 11.455181 71.4830036 11.7941458 71.2699157 12.7143188 71.3401238 12.8836758 71.3401238 13.6589544 71.2218785 14.0955191 71.2218785 14.4342331 71.1504386 15.111661 71.0321932 15.5958965 70.9361189 17.1226184 70.8893135 17.1226184 70.8178736 17.581764 70.6515911 17.9694033C70.6515911 17.9694033 70.5801512 18.5263996 70.723031 18.8663681L70.7464337 19.3255137 70.7932391 19.9552708C70.7932391 19.9552708 70.8178736 20.2952392 70.6749938 20.4645962L70.6035539 21.0454279C70.6035539 21.0454279 70.532114 22.3777029 71.2933184 23.0312954 71.2933184 23.0312954 71.5544435 23.2734132 71.7687632 23.2006524L71.9350457 22.98237C71.9350457 22.98237 72.2208053 22.5959852 72.2208053 21.8934674L72.1259627 20.7305494 72.0545228 20.3918354 72.1961708 19.3016782C72.1961708 19.3016782 72.1961708 18.8174427 72.2676107 18.6242503 72.2676107 18.6242503 71.911643 18.3821325 72.1493654 17.2192146L72.1961708 16.5405322 72.2208053 16.105222C72.2208053 16.105222 72.2922452 15.7414181 72.3390506 15.7414181L72.4104905 15.3788687 72.4819304 15.111661 72.8391299 13.3930012 73.1716949 12.3996912 73.1716949 12.2300833 73.0288151 11.9637537 73.0288151 11.5762399 73.1236577 11.3097849 73.2431348 10.7285768 73.1950976 10.7285768 73.2431348 10.2926394 73.1950976 9.85670195C73.1950976 9.85670195 73.0288151 9.85670195 73.0288151 8.67007401L72.8144954 7.96780705 72.6248102 7.74977561 72.4104905 7.31383819 72.1961708 6.635783 72.0064856 6.46617512 71.911643 6.85368899"/>
    <polyline points="63.67 5.931 63.824 5.662 63.208 5.304 63.208 5.841 63.67 5.931"/>
    <polyline points="63.967 5.931 63.351 5.304 63.351 5.931 63.967 5.931"/>
    <polyline points="72.553 30.176 72.553 36.69 71.721 36.69 67.417 32.598 67.417 36.69 66.014 36.69 66.014 30.176 67.061 30.176 71.198 34.051 71.198 30.176 72.553 30.176"/>
    <polyline points="64.112 30.176 64.112 36.69 62.163 36.69 62.163 30.176 64.112 30.176"/>
    <path d="M76.2152807,30.1756511 L73.3145747,36.6902498 L74.8837889,36.6902498 L75.5255162,35.140947 L78.4028195,35.140947 L79.0211441,36.6902498 L81.0424004,36.6902498 L78.0222173,30.1756511 L76.2152807,30.1756511 L76.2152807,30.1756511 Z M76.9284479,31.7738793 L78.0222173,34.1963114 L75.9295211,34.1963114 L76.9284479,31.7738793 Z"/>
    <polyline points="84.063 30.176 89.816 30.176 89.816 31.12 87.938 31.12 87.938 36.69 85.988 36.69 85.988 31.12 84.063 31.12 84.063 30.176"/>
    <path d="M126.079095 4.43188411L126.337756 4.09279379 126.596418 4.14134279 126.768859 4.09279379 127.557161 4.02015846C127.557161 4.02015846 127.60643 4.16555457 126.842762 4.16555457L126.41166 4.35924878 126.670321 4.50451944 127.483258 4.60149199C127.483258 4.60149199 127.74192 4.64991555 128.099119 4.94045686L128.579491 5.44902961 128.222291 5.86075526 127.914361 6.00602592 127.60643 6.03023769 126.362391 6.29669268 125.413964 6.36932801 124.650297 6.58735945 123.058911 6.78105366 122.39255 6.99908509 121.988545 7.24120286 121.917105 7.24120286 121.845665 7.0959322 121.65598 7.28962641C121.65598 7.28962641 121.58454 7.43489707 121.58454 7.6529285 121.58454 7.6529285 121.58454 7.96780705 121.774225 8.08886593L122.202864 8.20992481C122.202864 8.20992481 122.488624 8.35519547 122.630272 8.35519547L123.529429 8.08886593 124.514807 7.89504627 125.413964 7.6529285 126.892031 7.43489707 131.547942 7.31383819 132.742712 7.14435575 133.087594 7.21699108 133.420159 7.24120286C133.420159 7.24120286 133.851262 7.02329687 133.999069 7.0959322L134.048338 6.85368899 134.048338 6.36932801 134.331634 6.1756338C134.331634 6.1756338 134.898226 5.78811993 134.688833 5.49745317L133.925166 5.27954718 133.075277 5.30375896 131.831238 5.30375896C131.831238 5.30375896 131.3755 5.30375896 131.400135 5.06151574L131.449404 4.72255087C131.449404 4.72255087 131.313914 4.28661345 131.3755 4.14134279L131.338549 3.39052683 130.858177 3.02722474 130.574881 3.00301296 130.26695 2.73668342 128.93669 2.15534989 128.431684 2.01007923 128.148388 2.08271456 127.692651 2.8577423 127.668016 2.93037763 127.409355 2.8577423 127.101424 3.07564829 127.126058 3.09986006 126.953617 3.2210444 126.41166 3.63277004C126.41166 3.63277004 126.079095 3.94752313 126.337756 3.8748878L126.41166 3.8748878 126.263853 3.99594669 125.574088 4.2381899 125.512502 4.45609589 125.697261 4.52873121 126.079095 4.43188411M100.921167 4.14134279L100.849727 4.94045686C100.849727 4.94045686 100.445722 5.59442572 100.350879 5.93339059 100.350879 5.93339059 100.017082 8.52480335 99.8039944 8.79113289L99.3987578 9.15443498 98.9479474 9.37234097 98.4478682 9.71143129 97.211219 10.6075179 97.1878163 10.6559415 97.6866638 10.7285768 97.9724234 11.0434553 98.5427108 10.8739729 99.1610354 10.8012121 99.1856698 11.2855731 99.3039152 11.455181 98.8999103 12.1090244C98.8999103 12.1090244 98.8999103 12.6666479 96.9734966 13.973833 96.9734966 13.973833 96.9020567 13.7555506 96.9734966 13.0053619L97.1163764 12.0121773 97.0695709 11.6004516 96.7838114 11.0918789C96.7838114 11.0918789 96.4512463 10.6559415 96.4266119 10.4622473 96.4266119 10.4622473 96.022607 10.3896119 95.9992042 10.0263098L95.7848846 9.59037241C95.7848846 9.59037241 95.7134447 9.59037241 95.5951993 10.0263098L95.3808797 10.5348826 95.3094398 10.8012121 95.2379999 10.8254239C95.2379999 10.8254239 95.2379999 11.0434553 94.9522403 11.4309692L94.6677124 11.939542C94.6677124 11.939542 94.5962725 12.254295 94.6677124 13.6827898L94.5482354 15.111661 94.3339157 16.5166967 94.0493878 17.4613323C94.0493878 17.4613323 93.8350682 17.9455679 94.0493878 18.4787288 94.0493878 18.4787288 94.1676332 18.6957566 94.6196753 18.9629643 94.6196753 18.9629643 95.0717174 19.1812466 95.3094398 19.2289175L95.5951993 19.543796C95.5951993 19.543796 95.7368474 19.9075999 95.8563245 19.9552708L96.5694917 20.4645962 97.2592562 20.5850278 97.8295436 20.8033102 98.2335485 22.4742991C98.2335485 22.4742991 98.590748 23.9031702 99.04279 24.0486918L99.0895955 24.0486918C99.0895955 24.0486918 99.1142299 24.1942134 99.3753551 24.3874058L99.7325545 24.6056881C99.7325545 24.6056881 100.374282 25.0409983 100.873129 25.1865198L102.133181 25.3809667 103.228182 25.4048022 104.488234 25.5252338C104.488234 25.5252338 105.557369 25.4048022 105.676846 25.1865198L106.770616 25.0409983C106.770616 25.0409983 107.959228 24.7512097 107.887788 24.6295235L108.030668 24.6056881 110.171401 24.0486918 110.693651 23.8304095 110.598809 23.8304095 110.693651 23.6121271 110.765091 23.6121271 110.741688 23.4678601 110.813128 23.4678601 110.884568 23.5393663 110.907971 23.4678601 110.884568 23.3950993 110.979411 23.2495777 110.884568 23.2734132 111.050851 22.9585346 111.311976 22.6925814 111.33661 22.6925814 111.33661 22.838103 111.526296 22.5959852 111.574333 22.5959852 111.574333 22.6198206 111.478258 22.6925814 111.526296 22.7653422C111.526296 22.7653422 111.478258 22.838103 111.574333 22.8130131L111.597735 22.6674915 111.715981 22.5959852 111.740615 22.6198206 111.858861 22.4742991 111.9303 22.4504637 111.9303 22.2321813 111.787421 22.1594205 111.715981 22.2560168 111.715981 22.0866598 111.644541 22.0389889 111.644541 22.1104952 111.574333 22.0866598 111.574333 21.9662281 111.478258 21.8683774 111.644541 21.7479458 111.597735 21.675185 111.406818 21.8683774 111.478258 21.6262597 111.597735 21.6262597 111.644541 21.5534989 111.33661 21.5296635 111.240536 21.6024242 111.193731 21.5534989 111.240536 21.3841419 111.027448 21.3364711 111.169096 21.2637103 111.097656 21.1909495 111.097656 21.1181887 111.193731 21.1671141 111.193731 21.1181887 111.050851 20.9726672 111.027448 21.0215925 110.907971 20.876071 110.884568 20.8271456 110.741688 20.876071 110.693651 20.8033102 110.693651 20.8999064 110.813128 20.8999064 110.813128 21.1181887 110.765091 21.1181887 110.622211 20.8271456 110.550771 20.8033102 110.480563 20.8271456 110.622211 20.7305494 110.670249 20.7305494 110.409123 20.681624C110.409123 20.681624 110.266244 20.681624 110.241609 20.8033102L109.980484 20.9488317 109.576479 21.2398748 109.14784 21.3364711 108.720432 21.5296635 107.3175 21.7968712 106.128888 22.1594205 105.700249 22.2321813 103.394465 22.4742991 102.799543 22.2560168C102.799543 22.2560168 102.680066 22.2560168 102.609858 22.1594205L102.538418 21.8934674C102.538418 21.8934674 102.062973 20.8999064 102.133181 20.6577886L102.799543 19.7620783 103.156743 19.4471998C103.156743 19.4471998 103.394465 19.2527529 103.79847 19.3016782L104.202475 19.2289175 104.701322 19.1561567 105.010485 18.9629643 105.415721 18.8902035 105.819726 18.7936073 106.200328 18.6957566 107.816348 18.4787288 108.030668 18.3093718 108.221585 18.0183287 108.55415 17.5340931C108.55415 17.5340931 108.910117 17.24305 108.934752 16.9532614L108.934752 16.5894575 109.052997 16.1528928 108.697029 15.3061079 108.316427 14.5069938 109.006192 12.7143188 109.124437 12.254295C109.124437 12.254295 109.21928 11.8911184 109.338757 11.8911184L109.433599 11.3825457 109.553076 10.8254239C109.553076 10.8254239 109.694724 10.5106708 109.647919 10.3168511L109.576479 9.85670195 109.647919 9.54194885 109.553076 9.17864676C109.553076 9.17864676 109.410197 8.96074077 109.410197 8.81534467L109.052997 8.28256014 108.768469 7.45910884C108.768469 7.45910884 108.62559 7.0959322 108.030668 6.85368899L107.935825 6.92632432 107.38894 6.70841833C107.38894 6.70841833 107.031741 6.46617512 106.699176 6.56314767L105.962606 6.44196334 104.654517 7.07172042 103.228182 7.87083449 102.799543 7.87083449 103.085303 6.00602592C103.085303 6.00602592 103.156743 5.01309219 102.133181 4.52873121L101.562894 4.2381899 100.921167 4.14134279 100.921167 4.14134279zM105.344281 8.5732269L106.413416 8.81534467 106.390014 8.96074077 106.604333 9.25128209 106.604333 9.46931353C106.604333 9.46931353 106.604333 9.66300774 106.318574 9.9536745L105.986009 9.9536745 105.914569 9.9536745C105.914569 9.9536745 104.797397 10.7527886 104.131035 10.8981847L103.58415 10.97082 103.323025 10.97082C103.323025 10.97082 103.037265 11.0434553 102.728103 10.97082 102.728103 10.97082 102.276061 10.8981847 102.204621 10.6559415L102.276061 10.1473687C102.276061 10.1473687 102.395538 9.78406662 102.490381 9.73564306 102.490381 9.73564306 102.490381 9.54194885 102.822946 9.39655275L103.156743 9.25128209C103.156743 9.25128209 103.44127 9.10601143 103.964752 8.96074077L104.368757 8.74270934 104.915642 8.59743868 105.344281 8.5732269 105.344281 8.5732269zM105.557369 12.7381542L105.628809 12.810915C105.628809 12.810915 105.748286 12.9326011 105.676846 13.0781227L105.439124 14.2397862 105.272841 14.5308293C105.272841 14.5308293 105.081924 14.7967825 104.131035 15.2333471 104.131035 15.2333471 103.156743 15.8869396 102.609858 15.4754649L102.418941 14.9673939 102.538418 14.5797546C102.538418 14.5797546 102.490381 14.2397862 102.585223 14.0465937L102.894386 13.6827898 103.678993 13.2474797 104.701322 12.8836758 105.557369 12.7381542 105.557369 12.7381542zM97.8295436 15.2571826L98.3049884 15.4516295C98.3049884 15.4516295 98.5193081 15.6686573 98.3764283 16.3235043L98.0919004 17.2192146 98.0438633 17.3885716 97.8295436 17.7272855 97.3306961 17.8238817C97.3306961 17.8238817 97.1878163 17.8238817 96.7123715 18.0910894 96.7123715 18.0910894 96.4980518 18.236611 96.2369266 18.3332072L96.0706441 18.5263996 96.022607 18.4787288 96.2135239 17.8728071 96.142084 17.5102577 96.2369266 17.1702892 96.2837321 16.8315753 96.5694917 16.0324612 96.6889687 15.6686573 96.7123715 15.6686573C96.7123715 15.6686573 96.9734966 15.6686573 97.3306961 15.4516295L97.8295436 15.3061079 97.8295436 15.2571826 97.8295436 15.2571826zM118.469514 6.85368899L118.469514 7.07172042C118.469514 7.07172042 118.183755 7.94346982 118.183755 8.35519547L117.70831 9.10601143 117.63687 9.37234097 117.495222 9.66300774 117.089985 10.5348826 116.448258 11.9637537 116.09229 12.3996912 115.545405 13.2474797 115.377891 13.804476 115.188206 14.3853077 115.236243 14.942304 115.259646 15.7903434C115.259646 15.7903434 115.377891 15.8631042 115.449331 15.8869396L115.687053 16.2507435 115.735091 17.0247677 115.687053 17.8238817 115.806531 17.6545248 115.901373 17.3647361 115.901373 17.3158108 115.94941 17.3158108 115.972813 17.3647361 115.901373 17.5102577 115.94941 17.581764 116.02085 17.581764 116.139096 17.3647361 116.353415 16.6860537 116.734017 16.2507435 116.948337 16.105222 118.421477 14.6525154C118.421477 14.6525154 118.850116 14.5069938 119.111241 15.111661L119.182681 15.6686573 119.325561 16.7588145 119.325561 18.1638502 119.159279 18.9629643 118.992996 20.3918354 118.778676 21.0454279 118.492917 22.7402523 118.469514 24.5567627C118.469514 24.5567627 118.469514 25.3320414 119.182681 25.4048022L119.515246 25.0171628C119.515246 25.0171628 120.038728 25.0409983 119.824409 24.7512097L119.824409 24.4601665 120.110168 24.2418842 120.371293 24.2418842 120.728493 23.6610525 120.871373 22.5470599 121.085692 20.1246277 121.1559 19.3016782 121.29878 18.4787288 121.561137 15.2571826C121.561137 15.2571826 121.44166 14.5308293 121.489697 14.2397862L121.704017 13.7317152C121.704017 13.7317152 121.79886 13.5134329 121.79886 12.9326011L121.72742 12.6666479 121.5131 12.4723265 121.29878 12.2300833C121.29878 12.2300833 121.132498 12.1574479 120.918178 12.0363891L120.229645 11.7215105 119.801006 11.8183576 119.895849 11.3825457 120.038728 11.0192436 120.086766 10.2926394 120.181608 9.92946272C120.181608 9.92946272 120.229645 9.44510175 119.943886 8.81534467L119.445038 7.79819916 119.397001 7.50765785 119.159279 6.87790076 118.612394 6.39353979 118.469514 6.85368899"/>
    <polyline points="99.327 30.176 99.327 35.746 102.538 35.746 102.538 36.69 97.402 36.69 97.402 30.176 99.327 30.176"/>
    <polyline points="92.646 31.12 92.646 32.913 95.215 32.913 95.215 33.905 92.646 33.905 92.646 35.746 96.165 35.746 96.165 36.69 90.72 36.69 90.72 30.176 95.951 30.176 95.951 31.12 92.646 31.12"/>
    <polyline points="103.822 30.176 109.078 30.176 109.078 31.12 105.772 31.12 105.772 32.913 108.316 32.913 108.316 33.905 105.772 33.905 105.772 35.746 109.339 35.746 109.339 36.69 103.822 36.69 103.822 30.176"/>
    <path d="M112.739542 31.7011185C112.739542 31.7011185 112.14462 32.3308756 112.14462 33.4210328L112.14462 33.4937935C112.14462 33.4937935 112.14462 34.6805469 112.668102 35.2613787 112.668102 35.2613787 113.333232 35.818375 114.189279 35.818375L115.306451 35.6979433 116.02085 35.5273319 116.02085 36.4970574 115.306451 36.7140852 114.071034 36.786846C114.071034 36.786846 112.2875 36.786846 111.240536 35.987732 111.240536 35.987732 110.123364 35.1886179 110.123364 33.6142252L110.123364 33.3244366C110.123364 33.3244366 110.123364 31.8466401 111.240536 30.9747652 111.240536 30.9747652 112.35894 30.0552195 114.071034 30.0552195L115.259646 30.1267258 116.02085 30.3211727 116.02085 31.3385691 115.377891 31.1692121 114.403599 31.0964513C114.403599 31.0964513 113.356635 31.0964513 112.739542 31.7011185M120.467368 30.0552195C120.467368 30.0552195 118.707237 30.0552195 117.827787 30.9747652 117.827787 30.9747652 116.876897 31.8955654 116.876897 33.2755112L116.876897 33.6393151C116.876897 33.6393151 116.876897 35.140947 117.899227 35.987732 117.899227 35.987732 118.826714 36.786846 120.442733 36.786846 120.442733 36.786846 122.059985 36.786846 122.987472 35.987732 122.987472 35.987732 124.009801 35.140947 124.009801 33.6393151L124.009801 33.2755112C124.009801 33.2755112 124.009801 31.8955654 123.058911 30.9747652 123.058911 30.9747652 122.202864 30.0552195 120.467368 30.0552195L120.467368 30.0552195zM120.442733 31.0236906C120.442733 31.0236906 121.489697 31.0236906 121.72742 31.5555969 121.72742 31.5555969 122.011947 32.210444 122.011947 33.348272L122.011947 33.5414644C122.011947 33.5414644 122.011947 34.7043824 121.65598 35.3341394 121.65598 35.3341394 121.29878 35.8911357 120.442733 35.8911357 120.442733 35.8911357 119.445038 35.8911357 119.159279 35.3579749 119.159279 35.3579749 118.850116 34.9226647 118.850116 33.5414644L118.850116 33.348272C118.850116 33.348272 118.850116 32.041087 119.182681 31.5317615 119.182681 31.5317615 119.445038 31.0236906 120.442733 31.0236906L120.442733 31.0236906zM130.784274 8.64586223L130.500978 8.64586223 130.069875 8.64586223C130.069875 8.64586223 129.577186 8.64586223 129.355476 8.50059157L128.456319 8.50059157 127.692651 8.71849756 126.978252 9.00916433C126.978252 9.00916433 126.842762 9.0333761 126.768859 9.22707031 126.768859 9.22707031 126.670321 9.46931353 126.818128 9.73564306 126.818128 9.73564306 126.978252 9.9536745 127.261548 10.0263098L128.173022 10.5106708 128.382415 10.7285768 129.651089 11.3097849 130.26695 11.455181 131.116839 11.455181 131.400135 11.5762399C131.400135 11.5762399 131.547942 11.6488752 131.671114 11.5762399 131.671114 11.5762399 131.831238 11.455181 132.114534 10.8739729L132.311609 10.6559415 132.311609 10.3652747 132.336244 10.0263098 132.028313 9.73564306 131.831238 9.25128209C131.831238 9.25128209 131.523307 9.15443498 131.3755 9.08179966L131.092204 8.79113289 130.784274 8.64586223M127.310817 12.3027186L125.869702 12.5449618 125.845067 12.7143188C125.845067 12.7143188 125.771164 12.8598404 125.845067 13.0291973L126.079095 13.5134329 126.436294 13.973833 127.101424 14.5308293C127.101424 14.5308293 127.261548 14.7240217 127.60643 14.7967825L128.308512 14.8218724 128.93669 14.942304C128.93669 14.942304 129.219986 14.9673939 129.712675 15.2571826L130.217681 15.1844218 130.574881 15.1844218 130.93208 15.0150648C130.93208 15.0150648 131.313914 14.942304 131.338549 14.8946332 131.338549 14.8946332 131.523307 14.8218724 131.695748 14.5069938L131.905141 13.9499975 131.905141 13.7317152 131.95441 13.5385228C131.95441 13.5385228 131.979044 13.3930012 132.163803 13.3202405L132.39783 13.1747189 132.39783 12.6666479C132.39783 12.6666479 132.39783 12.5938872 132.052948 12.52075L131.59721 12.4723265 131.092204 12.5449618 129.712675 12.2300833 128.961325 12.1816597 127.310817 12.3027186M123.960532 18.3821325L124.182242 19.374439C124.182242 19.374439 124.083704 19.9552708 124.157608 20.4645962L124.182242 21.6262597 124.157608 22.4742991 124.527124 24.0963627 124.601028 24.2669741 124.601028 24.8716413C124.601028 24.8716413 124.674931 25.1865198 124.933593 25.308206L125.364696 25.4048022 125.931288 25.6707554 126.128363 25.9128731C126.128363 25.9128731 126.226901 26.0583947 126.362391 26.0345593 126.362391 26.0345593 126.485563 25.9856339 126.485563 25.6707554L126.768859 25.1626844 126.818128 24.6056881 126.953617 24.0248564 127.052155 23.6121271 127.261548 21.6262597 127.175327 21.3364711 126.978252 21.0454279 127.027521 20.6577886 127.027521 20.2952392 127.101424 20.2463139 128.173022 20.2952392 128.579491 19.8348391C128.579491 19.8348391 129.170717 19.2527529 129.552551 19.1084858L129.712675 19.374439C129.712675 19.374439 129.860482 19.7620783 129.761944 20.368L128.961325 21.3113811 128.456319 21.8207066C128.456319 21.8207066 128.148388 22.0866598 128.074485 22.4015383L127.914361 22.5232244 127.889726 22.7653422 127.840457 23.4427701C127.840457 23.4427701 127.840457 24.0248564 127.914361 24.1691234L128.222291 24.3874058 128.579491 24.5329273 128.862787 24.7750451 129.995971 24.8716413 131.190742 24.6295235 131.880507 24.7750451 132.779664 24.7512097 133.161498 24.5329273 133.444794 24.4112412 133.715773 24.1214526 133.715773 23.7338133 133.777359 22.838103 133.444794 22.6674915 133.383208 22.6198206 133.001374 22.3049421 132.952105 22.013899 133.494063 20.537357 133.518697 19.7382429C133.518697 19.7382429 133.420159 19.543796 133.567966 19.1561567L133.567966 18.405968 133.161498 17.9455679 132.742712 17.2919754 132.237706 16.8805006 132.028313 16.6860537 131.449404 16.5405322 130.858177 16.5894575 130.550246 16.4439359 129.429379 17.2192146 127.199962 18.3332072 126.916666 18.4536388 126.621052 18.5263996C126.621052 18.5263996 126.337756 18.5263996 126.226901 18.405968L125.980557 18.1149249 125.771164 17.8728071 125.623357 17.5102577 125.204572 17.3158108 124.748834 17.1226184C124.748834 17.1226184 124.527124 17.0247677 124.440904 16.8077398L124.317732 16.6622183 124.157608 16.7349791 124.009801 17.6545248 123.960532 18.3821325"/>
    <polyline points="126.362 36.69 125.057 36.69 125.057 30.176 126.486 30.176 129.713 34.923 133.026 30.176 134.282 30.176 134.282 36.69 132.521 36.69 132.521 32.961 129.91 36.69 128.863 36.69 126.362 32.961 126.362 36.69"/>
  </g>
</svg>
