<svg xmlns="http://www.w3.org/2000/svg" xmlns:xlink="http://www.w3.org/1999/xlink" width="101" height="56" viewBox="0 0 101 56">
  <defs>
    <polygon id="group-34-a" points=".117 .629 13.501 .629 13.501 19.179 .117 19.179"/>
    <polygon id="group-34-c" points=".015 .629 13.402 .629 13.402 19.179 .015 19.179"/>
    <polygon id="group-34-e" points="0 .176 4.396 .176 4.396 9.358 0 9.358"/>
  </defs>
  <g fill="none" fill-rule="evenodd">
    <polygon fill="#C31A2D" points="96.894 52.706 96.894 53 97.577 53 97.577 55.176 97.855 55.176 97.855 53 98.537 53 98.537 52.706"/>
    <polygon fill="#C31A2D" points="100.489 52.706 99.791 54.731 99.776 54.731 99.056 52.706 98.537 52.706 98.537 55.176 98.87 55.176 98.87 53.151 98.889 53.151 99.594 55.176 99.911 55.176 100.647 53.151 100.656 53.151 100.656 55.176 101 55.176 101 52.706"/>
    <polygon fill="#C31A2D" points="28.74 55.176 32.846 55.176 32.846 37.059 28.74 37.059"/>
    <g transform="translate(55.198 35.96)">
      <mask id="group-34-b" fill="#fff">
        <use xlink:href="#group-34-a"/>
      </mask>
      <path fill="#C31A2D" d="M13.5008814,6.08093324 C13.3211953,5.98504027 11.8966256,5.12080482 9.77562558,5.12080482 C6.91826512,5.12080482 4.92762558,7.15733191 4.92762558,9.9010697 C4.92762558,12.5620998 6.83135814,14.6825332 9.77562558,14.6825332 C11.8590442,14.6825332 13.3129744,13.8398737 13.5008814,13.7307955 L13.5008814,18.5410269 C12.944207,18.6980516 11.4350791,19.1787152 9.46323023,19.1787152 C4.48369535,19.1787152 0.117206977,15.6714296 0.117206977,9.9010697 C0.117206977,4.54904294 4.06912558,0.629417525 9.46323023,0.629417525 C11.5478233,0.629417525 13.0851372,1.14244495 13.5008814,1.27070181 L13.5008814,6.07973458 L13.5008814,6.08093324 Z" mask="url(#group-34-b)"/>
    </g>
    <g transform="translate(9.077 35.96)">
      <mask id="group-34-d" fill="#fff">
        <use xlink:href="#group-34-c"/>
      </mask>
      <path fill="#C31A2D" d="M13.4024492,6.08093324 C13.2239376,5.98504027 11.7993678,5.12080482 9.67719338,5.12080482 C6.81043756,5.12080482 4.8244957,7.15733191 4.8244957,9.9010697 C4.8244957,12.5620998 6.72587942,14.6825332 9.67719338,14.6825332 C11.7617864,14.6825332 13.2051469,13.8398737 13.4024492,13.7307955 L13.4024492,18.5410269 C12.8469492,18.6980516 11.3378213,19.1787152 9.3565771,19.1787152 C4.38291431,19.1787152 0.0152515175,15.6714296 0.0152515175,9.9010697 C0.0152515175,4.54904294 3.97069338,0.629417525 9.3565771,0.629417525 C11.4411701,0.629417525 12.9784841,1.14244495 13.4024492,1.27070181 L13.4024492,6.07973458 L13.4024492,6.08093324 Z" mask="url(#group-34-d)"/>
    </g>
    <path fill="#C31A2D" d="M82.6367907 41.1511524C80.0049186 41.1511524 78.0530349 43.2607979 78.0530349 45.8618948 78.0530349 48.4665878 80.0049186 50.5750346 82.6367907 50.5750346 85.2569186 50.5750346 87.2111533 48.4665878 87.2111533 45.8618948 87.2135 43.2619965 85.2592674 41.1511524 82.6379651 41.1511524L82.6367907 41.1511524zM91.9064767 45.8606962C91.9064767 50.9849771 88.0320698 55.1383417 82.6367907 55.1383417 77.2321163 55.1383417 73.3659302 50.9849771 73.3659302 45.8606962 73.3659302 40.7436072 77.2321163 36.5902427 82.6367907 36.5902427 88.0344186 36.5902427 91.9064767 40.7460045 91.9064767 45.8606962L91.9064767 45.8606962zM49.7892419 40.9773464C49.7234744 40.9581678 47.8561488 40.4331537 46.3282302 40.4331537 44.5466372 40.4331537 43.583614 41.0384781 43.583614 41.8991176 43.583614 42.9910989 44.8848698 43.3698761 45.6118349 43.6084099L46.8379279 44.0039684C49.7140791 44.935329 51.0247302 46.9454855 51.0247302 49.1246534 51.0247302 53.6268286 47.1491488 55.1383417 43.7539047 55.1383417 41.3968465 55.1383417 39.190114 54.697234 38.9728465 54.6480888L38.9728465 50.5270882C39.3686256 50.6265771 41.2265558 51.191147 43.1596488 51.191147 45.356986 51.191147 46.3763814 50.5366775 46.3763814 49.5190132 46.3763814 48.6092286 45.4979163 48.0890092 44.3951372 47.7354039 44.130893 47.6443056 43.7257186 47.5172474 43.4532535 47.4213544 40.9822767 46.6266413 38.9258698 45.1510882 38.9258698 42.1855979 38.9258698 38.8341383 41.3874512 36.5830507 45.4697302 36.5830507 47.6306605 36.5830507 49.6565326 37.1188527 49.7892419 37.1536139L49.7892419 40.974949 49.7892419 40.9773464z"/>
    <g transform="translate(0 15.245)">
      <mask id="group-34-f" fill="#fff">
        <use xlink:href="#group-34-e"/>
      </mask>
      <path fill="#1D546A" d="M4.3957314,2.40937097 C4.3957314,1.17834488 3.40804535,0.176263278 2.19721977,0.176263278 C0.988743023,0.176263278 -0.00011744186,1.17834488 -0.00011744186,2.40937097 L-0.00011744186,7.11292147 C-0.00011744186,8.35473552 0.988743023,9.35801579 2.19721977,9.35801579 C3.40921977,9.35801579 4.3957314,8.35473552 4.3957314,7.11292147 L4.3957314,2.40937097 Z" mask="url(#group-34-f)"/>
    </g>
    <path fill="#1D546A" d="M16.4731 11.4830641C16.4731 10.2532367 15.4830651 9.24755906 14.2745884 9.24755906 13.0637628 9.24755906 12.0760767 10.2532367 12.0760767 11.4830641L12.0760767 22.3585263C12.0760767 23.6003403 13.0637628 24.6036206 14.2745884 24.6036206 15.4830651 24.6036206 16.4731 23.6003403 16.4731 22.3585263L16.4731 11.4830641zM28.5532872 3.04148548C28.5532872 1.80806207 27.5632523.805980468 26.35595.805980468 25.1392523.805980468 24.1492174 1.80806207 24.1492174 3.04148548L24.1492174 26.8301357C24.1492174 28.0683537 25.1392523 29.0692367 26.35595 29.0692367 27.5632523 29.0692367 28.5532872 28.0695524 28.5532872 26.8301357L28.5532872 3.04148548zM40.6238442 11.4830641C40.6238442 10.2532367 39.6432047 9.24755906 38.426507 9.24755906 37.2203791 9.24755906 36.2291698 10.2532367 36.2291698 11.4830641L36.2291698 22.3585263C36.2291698 23.6003403 37.2203791 24.6036206 38.426507 24.6036206 39.6432047 24.6036206 40.6238442 23.6003403 40.6238442 22.3585263L40.6238442 11.4830641zM52.6960453 17.6548559C52.6960453 16.4238298 51.7071849 15.4217482 50.5092779 15.4217482 49.2925802 15.4217482 48.3119407 16.4238298 48.3119407 17.6548559L48.3119407 22.3584064C48.3119407 23.6002205 49.2925802 24.6035007 50.5092779 24.6035007 51.7071849 24.6035007 52.6960453 23.6002205 52.6960453 22.3584064L52.6960453 17.6548559zM64.778464 11.4830641C64.778464 10.2532367 63.79665 9.24755906 62.5799523 9.24755906 61.37265 9.24755906 60.3931849 10.2532367 60.3931849 11.4830641L60.3931849 22.3585263C60.3931849 23.6003403 61.37265 24.6036206 62.5799523 24.6036206 63.7978244 24.6036206 64.778464 23.6003403 64.778464 22.3585263L64.778464 11.4830641zM76.8575942 3.04148548C76.8575942 1.80806207 75.8769547.805980468 74.6696523.805980468 73.4541291.805980468 72.4734895 1.80806207 72.4734895 3.04148548L72.4734895 26.8301357C72.4734895 28.0683537 73.4541291 29.0692367 74.6696523 29.0692367 75.8769547 29.0692367 76.8575942 28.0695524 76.8575942 26.8301357L76.8575942 3.04148548zM88.93555 11.4830641C88.93555 10.2532367 87.9560849 9.24755906 86.7194221 9.24755906 85.5144686 9.24755906 84.5326547 10.2532367 84.5326547 11.4830641L84.5326547 22.3585263C84.5326547 23.6003403 85.5132942 24.6036206 86.7194221 24.6036206 87.9560849 24.6036206 88.93555 23.6003403 88.93555 22.3585263L88.93555 11.4830641zM100.999648 17.6548559C100.999648 16.4238298 100.017834 15.4217482 98.8128802 15.4217482 97.5950081 15.4217482 96.6131942 16.4238298 96.6131942 17.6548559L96.6131942 22.3584064C96.6131942 23.6002205 97.5950081 24.6035007 98.8128802 24.6035007 100.017834 24.6035007 100.999648 23.6002205 100.999648 22.3584064L100.999648 17.6548559z"/>
  </g>
</svg>
