<svg xmlns="http://www.w3.org/2000/svg" width="61" height="61" viewBox="0 0 61 61">
  <g fill="none" fill-rule="evenodd">
    <rect width="38.09" height="38.18" x=".12" y="13.527"/>
    <path fill="#4987CE" fill-rule="nonzero" d="M30.2879547,60.6010963 C29.9883099,60.6010963 29.6895814,60.5955852 29.3917692,60.5873185 L35.5569391,43.6020741 L44.0422947,43.6020741 C45.5322719,43.6020741 47.1670315,42.4539259 47.6765194,41.0522667 L54.3658387,22.6341333 C55.4599547,19.618637 53.7363096,17.1524148 50.5355161,17.1524148 L38.7641469,17.1524148 L28.8868631,44.3580148 L28.8831977,44.3580148 L23.2843291,59.7790222 C10.0000741,56.6156444 0.119124863,44.6445926 0.119124863,30.3597926 C0.119124863,16.4874074 9.43835457,4.79834074 22.1434794,1.23448889 L16.3650072,17.1524148 L16.3640909,17.1524148 L6.75987783,43.6020741 L13.1532176,43.6020741 L21.3215179,21.127763 L26.1268316,21.127763 L17.9585313,43.6020741 L24.3509548,43.6039111 L31.9621172,22.6350519 C33.0571496,19.6195556 31.3344208,17.1524148 28.1363764,17.1524148 L22.7620124,17.1524148 L28.9335967,0.150637037 C29.3835221,0.130484741 29.8343639,0.118727704 30.2888711,0.118727704 C46.9507741,0.118727704 60.4586173,13.6586092 60.4586173,30.3600314 C60.4577009,47.0623721 46.9498577,60.6022536 30.2879547,60.6022536 L30.2879547,60.6013351 L30.2879547,60.6010963 Z M48.5424655,21.1112296 L43.7380681,21.1112296 L37.0102624,39.6147852 L41.8146598,39.6147852 L48.5424655,21.1112296 Z" transform="translate(.09 .247)"/>
  </g>
</svg>
