<?xml version="1.0" encoding="UTF-8" standalone="no"?>
<svg xmlns="http://www.w3.org/2000/svg" height="25px" width="110px" version="1.1" xmlns:xlink="http://www.w3.org/1999/xlink" viewBox="0 0 110 25">
 <title>XMLID_6_</title>
 <g id="Full-bubble" fill-rule="evenodd" fill="none">
  <g id="K8s---what-is-K8s" fill-rule="nonzero" transform="translate(-336 -2221)">
   <g id="XMLID_6_" transform="translate(336 2221)">
    <polygon id="XMLID_38_" points="45.941 12.941 40.441 12.941 40.441 8.0882 37.934 8.0882 37.934 20.059 40.441 20.059 40.441 15.206 45.941 15.206 45.941 20.059 48.368 20.059 48.368 8.0882 45.941 8.0882" fill="#262729"/>
    <path id="XMLID_37_" fill="#262729" d="m59.691 14.963c0 1.941-0.97 2.993-2.75 2.993-1.779 0-2.75-1.052-2.75-3.074v-6.7938h-2.426v6.8748c0 3.397 1.86 5.338 5.176 5.338s5.177-1.941 5.177-5.419v-6.7938h-2.427v6.8748z"/>
    <polygon id="XMLID_36_" points="87.838 16.338 85.088 8.0882 83.147 8.0882 80.397 16.338 77.728 8.0882 75.14 8.0882 79.346 20.059 81.368 20.059 84.118 12.213 86.787 20.059 88.89 20.059 93.015 8.0882 90.507 8.0882" fill="#262729"/>
    <polygon id="XMLID_35_" points="97.382 14.882 101.83 14.882 101.83 12.699 97.382 12.699 97.382 10.272 103.85 10.272 103.85 8.0882 94.956 8.0882 94.956 20.059 104.1 20.059 104.1 17.875 97.382 17.875" fill="#262729"/>
    <rect id="XMLID_34_" height="11.971" width="2.4265" y="8.0882" x="107.01" fill="#262729"/>
    <path id="XMLID_62_" fill="#262729" d="m72.39 17.551l1.051 2.508h2.588l-5.257-11.971-0.081-0.0806h-2.103l-5.257 12.052h2.507l1.052-2.346 0.081-0.162h5.419zm-2.75-6.47l1.698 4.044 0.081 0.243h-3.72l0.08-0.243 1.861-4.044z"/>
    <g id="XMLID_14_" fill="#CF0A2C">
     <path id="XMLID_31_" d="m13.993 18.846s0.081-0.081 0-0.081c-3.721-8.089-8.8165-14.316-8.8165-14.316 0-0.0005-2.75 2.5878-2.5883 5.2569 0.0809 2.0221 1.6177 3.1541 1.6177 3.1541 2.4265 2.346 8.2501 5.339 9.6251 5.986h0.162"/>
     <path id="XMLID_30_" d="m13.022 20.868c0-0.081-0.162-0.081-0.162-0.081l-9.7056 0.323c1.0515 1.861 2.8309 3.316 4.6912 2.912 1.2941-0.323 4.2054-2.346 5.0954-2.993 0.162-0.161 0.081-0.161 0.081-0.161"/>
     <path id="XMLID_29_" d="m13.184 19.978c0.081-0.081 0-0.162 0-0.162-4.2869-2.912-12.537-7.279-12.537-7.279-0.72788 2.345 0.24271 4.206 0.24271 4.206 1.0515 2.264 3.0735 2.911 3.0735 2.911 0.8897 0.405 1.8603 0.405 1.8603 0.405h7.2795c0.081 0 0.081-0.081 0.081-0.081"/>
     <path id="XMLID_28_" d="m13.831 0.24265c-0.405 0-1.537 0.32353-1.537 0.32353-2.5881 0.64702-3.1543 2.9926-3.1543 2.9926-0.4853 1.4559 0 3.0736 0 3.0736 0.8893 3.8016 5.0953 10.111 5.9853 11.405l0.081 0.081c0.081 0 0.081-0.081 0.081-0.081 1.456-14.155-1.456-17.794-1.456-17.794"/>
     <path id="XMLID_27_" d="m17.066 18.037c0.081 0 0.162-0.081 0.162-0.081 0.971-1.375 5.096-7.603 5.985-11.404 0-0.0005 0.486-1.8608 0-3.0741 0 0-0.647-2.3455-3.235-2.9926 0-0.00001-0.728-0.16177-1.537-0.32354 0 0-2.912 3.7206-1.456 17.713 0 0.162 0.081 0.162 0.081 0.162"/>
     <path id="XMLID_26_" d="m19.331 20.787s-0.081 0-0.081 0.081v0.161c0.971 0.647 3.721 2.67 5.096 2.993 0 0 2.507 0.89 4.691-2.912l-9.706-0.323z"/>
     <path id="XMLID_25_" d="m31.706 12.456s-8.25 4.448-12.537 7.36c0 0-0.081 0.081-0.081 0.162 0 0 0 0.081 0.081 0.081h7.441s0.728 0 1.699-0.405c0 0 2.022-0.647 3.154-2.992 0-0.081 0.971-1.941 0.243-4.206"/>
     <path id="XMLID_24_" d="m18.36 18.846s0.081 0.08 0.162 0c1.375-0.728 7.199-3.64 9.625-5.986 0 0 1.537-1.213 1.618-3.1541 0.161-2.75-2.589-5.2574-2.589-5.2574s-5.095 6.0665-8.816 14.236c0 0-0.081 0.081 0 0.162"/>
     <g id="XMLID_23_" transform="translate(22.647 8.0882)">
      <path id="Path" d="m2.6691 4.7721c2.5883 0 2.5883-4.0442 0-4.0442-2.5882 0.00004-2.5882 4.0442 0 4.0442z"/>
     </g>
    </g>
   </g>
  </g>
 </g>
</svg>
