<svg xmlns="http://www.w3.org/2000/svg" width="100" height="28" viewBox="0 0 100 28">
  <g fill="none" transform="translate(.797 .03)">
    <path fill="#1514A0" d="M99.0461089 22.273806L99.0461089 26.3885133C96.3623488 27.1338119 93.3803932 27.5751312 90.0044579 27.6154176L89.1026422 27.6154176C83.9646423 27.582456 79.1347777 27.2784767 75.3034165 25.9444472 72.5564028 24.9858138 70.3524665 23.5016259 68.9057662 21.245587 67.7437071 19.4326986 67.1202073 17.1052429 67.0614718 14.1615883 67.0334595 12.6609195 67.18075 11.2957596 67.4581623 10.088083 67.8060571 8.56800354 68.3744359 7.28204306 69.1289611 6.1927535 69.8880043 5.09247674 70.8458446 4.19985811 71.9464574 3.45373551 72.3865217 3.15744728 72.8609238 2.89265571 73.3561091 2.64004161 73.8449691 2.3913646 74.3690704 2.18059343 74.9085333 1.97623147 78.6621829.55393812 83.4830112.219194688 88.5695047.159378527 89.1442089.159378527 89.7171058.159378527 90.2890991.159378527 93.3442482.218507987 96.0731895.609249528 98.5491163 1.24866808L98.5491163 4.83150322C98.5491163 4.83928582 98.5491163 4.84313134 98.5400801 4.8450541 97.473805 4.59820829 96.3171677 4.48705442 95.1153492 4.38166884 94.518958 4.32828935 93.9135307 4.2935881 93.2990671 4.25504133 91.4918212 4.14388747 89.4830675 4.11559542 87.6613637 4.23004545 85.2405578 4.38295068 83.0754773 4.82893954 81.4679321 5.81485783 80.6591896 6.3102891 79.982376 6.91760671 79.4329733 7.68304848 78.8926068 8.43686212 78.4977236 9.34641936 78.2410947 10.4011908 78.1127802 10.9212517 78.0233215 11.4852614 77.9618752 12.0849796 77.8389825 13.2697662 77.8633803 14.6706345 78.0287433 15.7949916 78.2844686 17.5071639 78.8311604 18.8842266 79.7293616 19.9646349 80.1775586 20.504839 80.6835874 20.9589767 81.2826894 21.3435288 83.0465614 22.4807042 85.506223 22.9439979 88.2929961 23.0740131 89.5300559 23.1316959 90.8231403 23.1234555 92.0791761 23.0740131 93.2990671 23.0245707 94.5279943 22.9339263 95.7027041 22.8176451 96.8864501 22.7004483 98.025015 22.5777578 99.0461089 22.2737786L99.0461089 22.273806zM65.5921809 22.6299745L65.5921809 26.6018482C65.5921809 26.609173 65.5903737 26.613751 65.5840483 26.6155822 59.6174262 26.6247382 53.5613453 26.6210758 47.5630963 26.6210758 47.2856841 26.6210758 47.0136936 26.6027638 46.7417031 26.590861 45.1269289 26.5148661 43.5943844 26.3363241 42.1467805 26.0698844 41.187133 25.8913424 40.2789919 25.6615268 39.4648277 25.3364887 39.0491611 25.1698495 38.6678322 24.9903918 38.3389135 24.7468422 38.0099948 24.5051237 37.7515586 24.2011444 37.4976406 23.8706128 36.7638987 22.903739 36.228954 21.6997247 36.0943141 20.1129896 36.0509402 19.5846882 36.0780489 19.0142693 36.0780489 18.4346944 36.0780489 12.6828939 36.0726272 6.9329247 36.0696821 1.17563065 36.0696821 1.16775649 36.0696821 1.15805113 36.0780489 1.15612837L64.8304268 1.15612837C64.9117529 1.15612837 65.0030188 1.14459181 65.0536217 1.15612837 65.0725978 1.16189665 65.0798267 1.15036009 65.0897666 1.15612837 65.1033209 1.16391097 65.0978992 1.20566234 65.0978992 1.23267255 65.096092 2.51542843 65.1033209 3.91382461 65.0897666 5.15290636L65.0780195 5.15290636 46.4019409 5.15290636 46.4019409 11.1364452C52.129103 11.1492636 57.8815665 11.1382764 63.6204757 11.1419388 63.6204757 12.3743367 63.6177648 13.7816142 63.6204757 15.0140121 63.6204757 15.0442269 63.6240902 15.0826821 63.6204757 15.1138125 63.6177648 15.1247997 63.6295119 15.1440273 63.600596 15.1385337L46.9585726 15.1385337C46.7787516 15.1385337 46.5944125 15.1211373 46.4263387 15.1385337 46.4182061 15.1385337 46.39923 15.1293777 46.4010372 15.1522677L46.4010372 18.5976712C46.4010372 18.7368425 46.3874829 18.8714357 46.3874829 19.0032821 46.3874829 19.408893 46.4371822 19.7925295 46.5130865 20.1386264 46.6621843 20.8097613 46.9341748 21.3957454 47.3100819 21.8416427 47.3796609 21.9240468 47.4365891 21.9908856 47.5197224 22.0476528 47.6010485 22.1016732 47.6877963 22.1474532 47.7917129 22.1923176 48.1685237 22.3543788 48.6366004 22.4578417 49.1164241 22.5301741 49.3522697 22.5667981 49.6043805 22.6144093 49.8564913 22.6189873 50.6661375 22.6308901 51.5074104 22.6189873 52.3369362 22.6189873L65.5786266 22.6189873C65.5903737 22.6162405 65.5903737 22.6217341 65.5921809 22.6299745L65.5921809 22.6299745zM5.12290945 8.33791321C5.11911424 8.33599045 5.1096262 8.32637664 5.09245736 8.31099456 5.08676454 8.30522628 5.08486693 8.3012892 5.08296932 8.29744368 5.08296932 8.3012892 5.08107171 8.30522628 5.0791741 8.31099456 5.07158367 8.3282994 5.0791741 8.36620525 5.0791741 8.38552442L5.0791741 26.5968124C5.0772765 26.6316052 5.05441484 26.6132932 5.04113158 26.6151244 4.94661262 26.625196 4.84134055 26.6151244 4.73923116 26.6151244L.157935215 26.6151244C.157935215 18.1284261.157935215 9.64264349.157935215 1.15686085 2.08292313 1.15658617 3.99643504 1.15658617 5.91383253 1.15658617 6.37874652 1.15658617 6.81890125 1.20035186 7.25526076 1.23889863 8.33924682 1.33467041 9.37506978 1.4991122 10.3464644 1.71574321 10.5524905 1.7613401 10.7558056 1.79604135 10.9030962 1.87835381 11.0467722 1.9573701 11.1868337 2.06596029 11.3250881 2.17326863 11.457017 2.27682301 11.5907532 2.38925872 11.7136459 2.49848982 12.4799182 3.17008257 13.1739006 3.92847421 13.8760156 4.64053649 14.114572 4.88024062 14.3449959 5.13276315 14.569998 5.37960897 14.797711 5.6321315 15.0353638 5.87504023 15.2612695 6.12573157 15.7139846 6.62958636 16.1676033 7.1289547 16.621222 7.63409133 17.5266522 8.64042751 18.4140099 9.6682803 19.3058857 10.6910057 21.9788024 13.7628444 24.5984052 16.8804631 27.206261 20.0118157 27.2207189 20.0411149 27.2171045 20.0136469 27.2189117 19.9999129 27.2306588 19.9156777 27.2189117 19.8085525 27.2189117 19.7114989L27.2189117 1.15686085C28.8589873 1.15658617 30.4981593 1.15658617 32.1400422 1.15658617L32.1400422 26.3703844C32.1400422 26.4427169 32.1508856 26.5214585 32.1400422 26.5709009 32.1282951 26.6148497 32.1490784 26.6130185 32.1147407 26.6148497L32.0090168 26.6148497 30.6056904 26.6148497C30.1367101 26.6148497 29.6632117 26.6304149 29.1960387 26.6148497 28.4912128 26.5901285 27.7791579 26.6496425 27.1122842 26.5901285 25.1613623 26.4143332 23.2456817 26.2092388 21.4872315 25.8686355 21.2920489 25.8320115 21.0887338 25.7908095 20.9188527 25.7367891 20.7489716 25.6845999 20.601681 25.5793059 20.4679448 25.480421 20.2031833 25.2853982 19.9483616 25.0619918 19.700769 24.8294293 18.7167236 23.9083355 17.8058717 22.9341369 16.9013451 21.9663475 15.9841679 20.9894021 15.1013283 19.9831575 14.2112597 18.9860688 12.8720905 17.4835689 11.5681626 15.9636726 10.2606203 14.4300422 9.39404586 13.4155572 8.52891728 12.408397 7.6580055 11.3673596 6.92164318 10.4874678 6.1319671 9.56271159 5.39497224 8.66716304 5.31572451 8.57331402 5.20981991 8.43579087 5.12478899 8.34011065 5.12478899 8.33809633 5.12478899 8.33809633 5.12289138 8.33809633L5.12290945 8.33791321z"/>
    <path fill="#242424" d="M5.12290945,8.33791321 C5.12480706,8.33791321 5.12480706,8.33791321 5.12480706,8.33992753 L5.12290945,8.33791321 Z"/>
  </g>
</svg>
