<svg xmlns="http://www.w3.org/2000/svg" xmlns:xlink="http://www.w3.org/1999/xlink" width="192" height="25" viewBox="0 0 192 25">
  <defs>
    <polygon id="group-7-a" points="0 .009 185.207 .009 185.207 25 0 25"/>
    <polygon id="group-7-c" points=".073 .115 5.453 .115 5.453 6.17 .073 6.17"/>
  </defs>
  <g fill="none" fill-rule="evenodd">
    <mask id="group-7-b" fill="#fff">
      <use xlink:href="#group-7-a"/>
    </mask>
    <path fill="#EA1B22" d="M168.650457,20.6343125 C165.128379,20.6343125 162.147858,18.1843125 161.244761,14.8061875 L180.842265,14.8061875 L183.551556,10.4405625 L161.244761,10.4405625 C162.147858,7.0811875 165.128379,4.6124375 168.650457,4.6124375 L182.1063,4.6124375 L184.845995,0.2468125 L168.349424,0.2468125 C161.756817,0.2468125 156.428244,5.7968125 156.428244,12.6343125 C156.428244,19.469 161.756817,24.9999375 168.349424,24.9999375 L182.497943,24.9999375 L185.207233,20.6343125 L168.650457,20.6343125 L168.650457,20.6343125 Z M112.567838,24.9999375 C105.975532,24.9999375 100.64726,19.469 100.64726,12.6343125 C100.64726,5.7968125 105.975532,0.2468125 112.567838,0.2468125 L129.034305,0.2468125 L126.355418,4.6124375 L112.86887,4.6124375 C108.624616,4.6124375 105.162744,8.2093125 105.162744,12.6343125 C105.162744,17.0593125 108.624616,20.6343125 112.86887,20.6343125 L129.425647,20.6343125 L126.716356,24.9999375 L112.567838,24.9999375 Z M25.4791933,20.6343125 C29.7421118,20.6343125 33.1979626,17.059625 33.1979626,12.6343125 C33.1979626,8.2093125 29.7421118,4.6124375 25.4791933,4.6124375 L12.2310628,4.6124375 C7.96814439,4.6124375 4.51259461,8.2093125 4.51259461,12.6343125 C4.51259461,17.059625 7.96814439,20.6343125 12.2310628,20.6343125 L25.4791933,20.6343125 Z M11.9270202,24.9999375 C5.34344376,24.9999375 0.00012041292,19.469 0.00012041292,12.6343125 C0.00012041292,5.7968125 5.34344376,0.2468125 11.9270202,0.2468125 L25.7862463,0.2468125 C32.3701237,0.2468125 37.7104368,5.7968125 37.7104368,12.6343125 C37.7104368,19.469 32.3701237,24.9999375 25.7862463,24.9999375 L11.9270202,24.9999375 Z M60.2156116,16.9815 C64.6678793,16.9815 68.2862876,13.2468125 68.2862876,8.6218125 C68.2862876,3.9999375 64.6678793,0.2468125 60.2156116,0.2468125 L40.1487984,0.2468125 L40.1487984,24.9999375 L44.7332193,24.9999375 L44.7332193,4.6124375 L59.911569,4.6124375 C62.0425766,4.6124375 63.7557514,6.4093125 63.7557514,8.6218125 C63.7557514,10.8343125 62.0425766,12.6343125 59.911569,12.6343125 L46.9789203,12.6124375 L60.6731807,25.00025 L67.3320152,25.00025 L58.1231361,16.9815 L60.2156116,16.9815 Z M136.108564,20.6343125 L136.108564,0.2468125 L131.503071,0.2468125 L131.503071,22.6315 C131.503071,23.244 131.743596,23.8343125 132.165342,24.2905625 C132.61689,24.7436875 133.188551,24.9999375 133.850822,24.9999375 L154.772567,24.9999375 L157.481857,20.6343125 L136.108564,20.6343125 Z M79.9512892,16.2686875 L92.1882523,16.2686875 L85.7190681,5.4624375 L73.8433439,24.9999375 L68.4368037,24.9999375 L82.8833439,1.5311875 C83.50919,0.5811875 84.5567824,0.0093125 85.7190681,0.0093125 C86.8298773,0.0093125 87.8834904,0.5624375 88.485555,1.4905625 L102.995011,24.9999375 L97.6068337,24.9999375 L95.0480591,20.6343125 L82.6545593,20.6343125 L79.9512892,16.2686875 Z" mask="url(#group-7-b)"/>
    <g transform="translate(186.256)">
      <mask id="group-7-d" fill="#fff">
        <use xlink:href="#group-7-c"/>
      </mask>
      <path fill="#EA1B22" d="M2.7328,2.88624788 C2.91417652,2.86587436 3.09525074,2.86587436 3.21647072,2.67232598 C3.27692955,2.58743633 3.30685668,2.4991511 3.30685668,2.37011885 C3.30685668,2.20033956 3.1862413,2.0475382 3.06532362,1.96264856 C2.91417652,1.89813243 2.79295655,1.89813243 2.52119406,1.89813243 L2.33951525,1.89813243 L2.33951525,2.88624788 L2.7328,2.88624788 L2.7328,2.88624788 Z M2.52119406,1.34125637 C2.91417652,1.34125637 3.09555304,1.36162988 3.30685668,1.44651952 C3.82105911,1.64006791 3.88151795,2.17657046 3.88151795,2.39388795 C3.88151795,2.43463497 3.88151795,2.54329372 3.85128853,2.67232598 C3.82105911,2.80135823 3.76029798,3.05942275 3.48853549,3.24957555 C3.45800378,3.27334465 3.42807665,3.29371817 3.33738839,3.33786078 L4.03266505,4.73344652 L3.36761781,4.73344652 L2.76302942,3.44312394 L2.33981754,3.44312394 L2.33981754,4.73344652 L1.73522915,4.73344652 L1.73522915,1.34125637 L2.52119406,1.34125637 Z M2.76302942,6.16977929 C4.24427099,6.16977929 5.45344777,4.81833616 5.45344777,3.14431239 C5.45344777,1.47028862 4.24427099,0.115449915 2.76302942,0.115449915 C1.28178785,0.115449915 0.0726110661,1.47028862 0.0726110661,3.14431239 C0.0726110661,4.81833616 1.28178785,6.16977929 2.76302942,6.16977929 L2.76302942,6.16977929 Z M0.64697004,3.12393888 C0.64697004,1.81324278 1.58408205,0.760611205 2.76302942,0.760611205 C3.94197679,0.760611205 4.8790888,1.81324278 4.8790888,3.12393888 C4.8790888,4.45500849 3.94197679,5.50424448 2.76302942,5.50424448 C1.58408205,5.50424448 0.64697004,4.45500849 0.64697004,3.12393888 L0.64697004,3.12393888 Z" mask="url(#group-7-d)"/>
    </g>
  </g>
</svg>
