<?xml version="1.0" encoding="UTF-8" standalone="no"?>
<!-- Generator: Adobe Illustrator 20.0.0, SVG Export Plug-In . SVG Version: 6.00 Build 0)  -->
<svg id="Layer_1" style="enable-background:new 0 0 680 373" xmlns="http://www.w3.org/2000/svg" xml:space="preserve" viewBox="0 0 680 373" version="1.1" y="0px" x="0px" xmlns:xlink="http://www.w3.org/1999/xlink">
<style type="text/css">
	.st0{fill:#00953A;}
	.st1{fill:#FFFFFF;}
	.st2{fill:#003A70;}
	.st3{fill:#D9272E;}
</style>
		<path class="st0" d="m633.7 148.3c-12.2-84.1-153.9-134.4-316.5-112.3-162.6 22-284.5 108.1-272.2 192.2 12.2 84.1 154 134.4 316.5 112.4 162.6-22.1 284.5-108.2 272.2-192.3zm-255.8 166.3c-149 14.9-276.2-33.7-284.2-108.6-7.9-74.8 106.4-147.6 255.3-162.5 149-14.9 276.2 33.7 284.2 108.6s-106.3 147.6-255.3 162.5z"/>
		<path class="st1" d="m349 43.5c-149 14.9-263.3 87.7-255.3 162.5 8 74.9 135.2 123.5 284.2 108.6s263.3-87.7 255.3-162.5c-7.9-74.9-135.2-123.5-284.2-108.6z"/>
			<path class="st2" d="m153.4 172.8h-1.9c-0.7-11.6-8-20.9-19.8-20.9-6.1 0-12.3 4.7-12.3 11.3 0 15.3 38.8 18 38.8 39.6 0 11.5-8.8 21.1-22.4 21.1-4.9 0-8.5-1-11.2-2.1-2.9-1-5-2-7.6-2-2.5 0-3 1.9-3.2 4.1h-1.9v-25h1.9c1.6 17.6 14.7 20.7 21 20.7 7.2 0 14.1-3.9 14.1-11.9 0-16.8-37.7-18.7-37.7-40.6 0-11.2 9.8-19.5 21-19.5 3.9 0 7.1 1 9.6 2.1 2.7 1 4.7 2.1 6.1 2.1 2.6 0 3.2-2 3.6-4.2h1.9v25.2z"/>
			<path class="st2" d="m135.7 225.9c-5.7 0-9.6-1.3-12-2.2-0.5-0.2-1-0.3-1.5-0.5-2-0.7-3.6-1.3-5.4-1.3-0.6 0-1 0-1.2 2.3l-0.2 1.8h-5.7v-29h5.8l0.2 1.8c1.6 17.5 14.9 18.9 19 18.9 6 0 12.1-3.1 12.1-9.9 0-6.7-7.8-11-16-15.6-10.2-5.7-21.7-12.2-21.7-25 0-11.9 10.3-21.5 23-21.5 3.5 0 6.9 0.7 10.4 2.3 0.8 0.3 1.5 0.6 2.3 0.9 1.2 0.5 2.5 1 3 1 0.7 0 1.2 0 1.7-2.6l0.3-1.6h5.6v29.2h-5.8l-0.1-1.9c-0.6-9.5-6.4-19.1-17.8-19.1-4.9 0-10.3 3.8-10.3 9.3 0 5.8 7.7 9.9 15.8 14.3 10.7 5.8 22.9 12.3 22.9 25.2 0 13.2-10.5 23.2-24.4 23.2zm-18.8-8.1c2.4 0 4.5 0.8 6.7 1.6 0.5 0.2 1 0.4 1.5 0.5 2.2 0.9 5.6 2 10.6 2 11.8 0 20.4-8 20.4-19.1 0-10.5-10.6-16.2-20.8-21.7-9.2-5-17.9-9.6-17.9-17.8 0-8 7.4-13.3 14.3-13.3 9.1 0 16.3 5.2 19.7 13.5v-10.9c-0.8 0.8-1.9 1.3-3.6 1.3-1.4 0-2.8-0.6-4.6-1.3-0.7-0.3-1.4-0.6-2.2-0.9-3.2-1.4-6-2-8.9-2-10.5 0-19 7.9-19 17.5 0 10.5 10 16.1 19.7 21.5 9.3 5.2 18 10.1 18 19.1 0 9.6-8.4 13.9-16.1 13.9-2.9 0-15.7-0.8-20.9-13.6v10.8c0.7-0.7 1.7-1.1 3.1-1.1z"/>
			<path class="st2" d="m170.4 174.8c0-7.4 0-9.6-8.1-9.6v-1.6h24.2v1.6c-8.1 0-8.1 2.2-8.1 9.6v23.3c0 3.4 0.3 9.9 1.4 13 2 5.8 7.6 8.5 13.3 8.5 5.6 0 11.7-2.2 15-7.1 2.7-4.2 2.7-11.1 2.7-15.9v-21.7c0-7.4 0-9.6-8.1-9.6v-1.6h19.8v1.6c-8 0-8 2.2-8 9.6v26c0 10.6-4 22.5-21.8 22.5-18.2 0-22.3-10.7-22.3-22.2v-26.4z"/>
			<path class="st2" d="m192.7 225.3c-16.1 0-24.3-8.1-24.3-24.2v-26.3c0-3.2 0-5.5-0.7-6.5-0.4-0.5-1.3-1.2-5.4-1.2h-2v-5.6h28.2v5.6h-2c-4.1 0-5 0.6-5.4 1.2-0.7 1-0.7 3.3-0.7 6.5v23.3c0 3.3 0.3 9.6 1.3 12.3 1.8 5.2 7 7.1 11.4 7.1 4.5 0 10.3-1.6 13.3-6.2 2.4-3.7 2.4-10.4 2.4-14.8v-21.7c0-3.2 0-5.5-0.7-6.5-0.4-0.5-1.3-1.2-5.4-1.2h-2v-5.6h23.8v5.6h-2c-4.1 0-5 0.6-5.4 1.2-0.7 1-0.7 3.3-0.7 6.5v26c0.1 15.8-8.4 24.5-23.7 24.5zm-22.1-59.6c1.6 1.9 1.8 5 1.8 9.2v26.3c0 12.9 5.3 19.2 17 20.1-5.6-1-9.8-4.5-11.5-9.5-1.2-3.5-1.5-10.4-1.5-13.6v-23.3c0-4.2 0.1-7.3 1.8-9.2h-7.6zm37.1 50.3c-2 2-4.4 3.3-6.8 4.2 2.7-0.9 5-2.3 6.8-4.2zm3.3-50.3c1 1.1 1.4 2.6 1.6 4.6 0.2-1.9 0.6-3.5 1.6-4.6h-3.2z"/>
			<path class="st2" d="m241.1 168c1.9-0.5 3.9-0.8 5.8-0.8 7.4 0 11.7 6 11.7 13.2 0 6.3-3.9 12.6-9.4 12.6-2.6 0-5.7-0.4-8.1-0.9v-24.1zm0 26.7c3.2 0.7 6.3 1.3 9.5 1.3 15.2 0 17.6-11.5 17.6-16 0-8.6-6.8-16.3-20.1-16.3h-23.1v1.6c8.1 0 8.1 2.2 8.1 9.6v36c0 7.4 0 9.6-8.1 9.6v1.6h24.2v-1.6c-8.1 0-8.1-2.2-8.1-9.6v-16.2z"/>
			<path class="st2" d="m251.2 224h-28.2v-5.6h2c4.1 0 5-0.6 5.4-1.2 0.7-1 0.7-3.3 0.7-6.5v-36c0-3.2 0-5.5-0.7-6.5-0.4-0.5-1.3-1.2-5.4-1.2h-2v-5.6h25.1c15.3 0 22.1 9.2 22.1 18.3 0 6.7-4.1 18-19.6 18-2.6 0-5.1-0.4-7.5-0.9v13.7c0 3.2 0 5.5 0.7 6.5 0.4 0.5 1.3 1.2 5.4 1.2h2v5.8zm-17.9-4h7.6c-1.6-1.9-1.8-5-1.8-9.2v-44.4l1.5-0.4c0.5-0.2 1.1-0.3 1.6-0.4h-8.9c1.6 1.9 1.8 5 1.8 9.2v36c0 4.3-0.1 7.3-1.8 9.2zm17.7-54.2c5.8 1.8 9.7 7.4 9.7 14.6 0 5.3-2.5 11-6.8 13.4 12-1.7 12.4-12.5 12.4-13.8 0-6.1-4.1-13.2-15.3-14.2zm-7.9 24.7c2 0.3 4.3 0.5 6.1 0.5 4.4 0 7.4-5.5 7.4-10.6 0-5.6-3-11.2-9.7-11.2-1.3 0-2.6 0.1-3.8 0.4v20.9z"/>
			<path class="st2" d="m288.8 189.9h11.4c6.8 0 9.4-0.7 9.9-8.5h1.5v20.4h-1.5c-0.7-7.8-3-8.6-9.9-8.6h-11.4v21.3c0 3.6 1 4.4 4.6 4.4h11.6c7.5 0 10.3-3.6 14.7-11.5h1.6l-4.8 14.6h-43.9v-1.6c8.1 0 8.1-2.2 8.1-9.6v-36c0-7.4 0-9.6-8.1-9.6v-1.6h43.5l0.8 12.8h-1.7c-1.6-8.9-3.9-9.6-12-9.6h-14.5v23.1z"/>
			<path class="st2" d="m318 224h-47.4v-5.6h2c4.1 0 5-0.6 5.4-1.2 0.7-1 0.7-3.3 0.7-6.5v-36c0-3.2 0-5.5-0.7-6.5-0.4-0.5-1.3-1.2-5.4-1.2h-2v-5.6h47.4l1 16.8h-5.5l-0.3-1.6c-1.4-7.7-2.7-8-10-8h-12.5v19.1h9.4c6.1 0 7.5-0.2 7.9-6.7l0.1-1.9h5.4v24.4h-5.4l-0.2-1.8c-0.6-6.4-1.6-6.8-7.9-6.8h-9.4v19.3c0 2.4 0 2.4 2.6 2.4h11.8c6.5 0 8.7-2.9 13-10.4l0.6-1h5.6l-6.2 18.8zm-7.4-4h4.6l1.3-4.1c-1.7 1.9-3.5 3.3-5.9 4.1zm-29.7 0h8.2c-1.5-0.9-2.4-2.5-2.4-5.6v-48.8h-5.8c1.6 1.9 1.8 5 1.8 9.2v36c0 4.3-0.1 7.3-1.8 9.2zm24.6-28.5c1.8 0.4 3.1 1.1 4.1 2.3v-4.5c-1.1 1.2-2.5 1.9-4.1 2.2zm5.4-25.8c1.5 0.5 2.6 1.3 3.6 2.6l-0.2-2.6h-3.4z"/>
			<path class="st2" d="m341.1 167.6c2.3-0.4 4.6-0.8 7-0.8 6.9 0 11.6 5.3 11.6 12.3 0 9.8-8.6 12.8-16.7 12.8h-1.9v-24.3zm40.3 54.4v-1.6c-7.8-0.6-10.9-4.9-15.1-10.9l-11.1-15.9c7.5-1.6 14.1-6.4 14.1-14.8 0-5.1-3-15.2-19.7-15.2h-24.6v1.6c8.1 0 8.1 2.2 8.1 9.6v36c0 7.4 0 9.6-8.1 9.6v1.6h24.2v-1.6c-8.1 0-8.1-2.2-8.1-9.6v-16h5.8l19.3 27.2h15.2z"/>
			<path class="st2" d="m383.4 224h-18.2l-19.3-27.2h-2.8v14c0 3.2 0 5.5 0.7 6.5 0.4 0.5 1.3 1.2 5.4 1.2h2v5.6h-28.2v-5.6h2c4.1 0 5-0.6 5.4-1.2 0.7-1 0.7-3.3 0.7-6.5v-36c0-3.2 0-5.5-0.7-6.5-0.4-0.5-1.3-1.2-5.4-1.2h-2v-5.6h26.6c16 0 21.7 9.2 21.7 17.2 0 7.6-4.7 13.4-12.8 16l9.4 13.5c4 5.7 6.7 9.5 13.6 10.1l1.8 0.1v5.6zm-16.2-4h6.1c-3.6-2.2-6-5.6-8.6-9.4l-12.7-18c-1.1 0.4-2.3 0.7-3.6 0.9l18.8 26.5zm-33.9 0h7.6c-1.6-1.9-1.8-5-1.8-9.2v-44.9l1.6-0.3h-7.5c1.6 1.9 1.8 5 1.8 9.2v36c0 4.3-0.1 7.3-1.7 9.2zm20.2-54.1c5 2.1 8.2 7 8.2 13.3 0 6-2.9 10.4-8.1 12.8l1.2-0.3c3.7-0.8 12.5-3.7 12.5-12.9 0-2.8-1.1-11.5-13.8-12.9zm-10.4 3.4v20.6c5.5 0 14.6-1.5 14.6-10.8 0-6.1-3.9-10.3-9.6-10.3-1.7 0-3.3 0.3-5 0.5z"/>
			<path class="st2" d="m393.9 173.2h-0.2v37.6c0 7.4 0 9.6 8.1 9.6v1.6h-19.8v-1.6c8.1 0 8.1-2.2 8.1-9.6v-36.1c0-7.1-0.9-9.5-8.1-9.5v-1.6h16.1l20.6 45.7 20.3-45.7h16v1.6c-8 0-8 2.2-8 9.6v36c0 7.4 0 9.6 8 9.6v1.6h-24.2v-1.6c8.1 0 8.1-2.2 8.1-9.6v-37.6h-0.2l-21.6 48.8h-1.4l-21.8-48.8z"/>
			<path class="st2" d="m457 224h-28.2v-5.6h2c4.1 0 5-0.6 5.4-1.2 0.7-1 0.7-3.3 0.7-6.5v-28.6l-18.5 41.9h-4l-18.6-41.8v28.6c0 3.2 0 5.5 0.7 6.5 0.4 0.5 1.3 1.2 5.4 1.2h2v5.6h-23.9v-5.6h2c4.1 0 5-0.6 5.4-1.2 0.7-1 0.7-3.3 0.7-6.5v-36.1c0-6.7-0.6-7.5-6.1-7.5h-2v-5.6h19.4l19.3 42.8 19-42.8h19.3v5.6h-2c-4.1 0-5 0.6-5.4 1.2-0.7 1-0.7 3.3-0.7 6.5v36c0 3.2 0 5.5 0.7 6.5 0.4 0.5 1.3 1.2 5.4 1.2h2v5.4zm-17.9-4h7.6c-1.6-1.9-1.8-5-1.8-9.2v-36c0-4.2 0.1-7.3 1.8-9.2h-6.4l-2.5 5.5h3.1v39.6c0 4.4-0.1 7.4-1.8 9.3zm-48.8 0h3.2c-1-1.1-1.4-2.6-1.6-4.6-0.2 2-0.6 3.5-1.6 4.6zm1.7-48.8h3.3l21.1 47.5 2.1-4.8-21.7-48.1h-6.9c1.3 1.2 1.8 3.1 2.1 5.4z"/>
			<path class="st2" d="m474.9 210.8c0 7.4 0 9.6 8.1 9.6v1.6h-24.2v-1.6c8.1 0 8.1-2.2 8.1-9.6v-36c0-7.4 0-9.6-8.1-9.6v-1.6h24.2v1.6c-8.1 0-8.1 2.2-8.1 9.6v36z"/>
			<path class="st2" d="m484.9 224h-28.2v-5.6h2c4.1 0 5-0.6 5.4-1.2 0.7-1 0.7-3.3 0.7-6.5v-36c0-3.2 0-5.5-0.7-6.5-0.4-0.5-1.3-1.2-5.4-1.2h-2v-5.6h28.2v5.6h-2c-4.1 0-5 0.6-5.4 1.2-0.7 1-0.7 3.3-0.7 6.5v36c0 3.2 0 5.5 0.7 6.5 0.4 0.5 1.3 1.2 5.4 1.2h2v5.6zm-17.8-4h7.6c-1.6-1.9-1.8-5-1.8-9.2v-36c0-4.2 0.1-7.3 1.8-9.2h-7.6c1.6 1.9 1.8 5 1.8 9.2v36c-0.1 4.3-0.2 7.3-1.8 9.2z"/>
			<path class="st2" d="m538 182.2h-1.3c-2.7-10-8.4-16.8-19-16.8-11.4 0-19.8 9.1-19.8 28.5 0 19.6 11.4 25.7 21.2 25.7 9.1 0 13.8-4.4 18.9-12.1l1.3 0.9c-5.2 9.9-12.2 15-23.5 15-16.4 0-27.5-12.9-27.5-29.3 0-17.3 11.6-31.6 29-31.6 4.5 0 8.1 1.1 12.1 3.1 0.7 0.4 1.6 0.9 2.5 0.9 1.9 0 3-2.2 3.3-4.1h1.5l1.3 19.8z"/>
			<path class="st2" d="m515.8 225.3c-17.1 0-29.5-13.2-29.5-31.3 0-19.1 13.3-33.6 31-33.6 4.5 0 8.4 1 13 3.3l0.2 0.1c0.4 0.2 1.1 0.6 1.4 0.6 0.4 0 1.1-1.1 1.4-2.4l0.3-1.6h5l1.5 23.8h-5l-0.4-1.5c-2.7-10.3-8.3-15.3-17.1-15.3-11.3 0-17.8 9.6-17.8 26.5 0 21.9 14.7 23.7 19.2 23.7 8.2 0 12.4-3.9 17.3-11.2l1.1-1.7 4.4 3-0.8 1.6c-5.7 10.9-13.7 16-25.2 16zm-9-58.8c-9.9 4.2-16.5 14.5-16.5 27.5 0 15.8 10.7 27.3 25.5 27.3-10.1-1.3-19.9-9-19.9-27.4 0-13.2 3.9-22.8 10.9-27.4zm24.4 1.8c1.6 1.5 3 3.2 4.2 5.3l-0.4-6.5c-0.8 0.8-1.8 1.3-3.1 1.3-0.2 0-0.4 0-0.7-0.1z"/>
			<path class="st2" d="m560 167.6c2.3-0.4 4.6-0.8 7-0.8 6.9 0 11.6 5.3 11.6 12.3 0 9.8-8.6 12.8-16.7 12.8h-1.9v-24.3zm40.3 54.4v-1.6c-7.8-0.6-10.9-4.9-15.1-10.9l-11.1-15.9c7.5-1.6 14-6.4 14-14.8 0-5.1-3-15.2-19.7-15.2h-24.6v1.6c8.1 0 8.1 2.2 8.1 9.6v36c0 7.4 0 9.6-8.1 9.6v1.6h24.2v-1.6c-8 0-8-2.2-8-9.6v-16h5.8l19.3 27.2h15.2z"/>
			<path class="st2" d="m602.3 224h-18.2l-19.3-27.2h-2.8v14c0 3.2 0 5.5 0.7 6.5 0.4 0.5 1.3 1.2 5.4 1.2h2v5.6h-28.2v-5.6h2c4.1 0 5-0.6 5.4-1.2 0.7-1 0.7-3.3 0.7-6.5v-36c0-3.2 0-5.5-0.7-6.5-0.4-0.5-1.3-1.2-5.4-1.2h-2v-5.6h26.6c20.7 0 21.7 14.3 21.7 17.2 0 7.6-4.7 13.4-12.8 16l9.4 13.5c4 5.7 6.7 9.5 13.6 10.1l1.8 0.1v5.6zm-16.1-4h6.1c-3.6-2.2-6-5.6-8.6-9.4l-12.7-18c-1.1 0.4-2.3 0.7-3.6 0.9l0.1 0.1 18.7 26.4zm-34 0h7.6c-1.6-1.9-1.8-5-1.8-9.2v-44.9l1.6-0.3h-7.5c1.6 1.9 1.8 5 1.8 9.2v36c0.1 4.3 0 7.3-1.7 9.2zm20.2-54.1c5 2.1 8.2 7 8.2 13.3 0 6-2.9 10.4-8.1 12.8l1.2-0.3c3.7-0.8 12.5-3.6 12.5-12.9 0-2.8-1.1-11.5-13.8-12.9zm-10.4 3.4v20.6c5.5 0 14.6-1.5 14.6-10.8 0-6.1-3.9-10.3-9.6-10.3-1.6 0-3.3 0.3-5 0.5z"/>
	<ellipse cy="192.5" cx="629.6" rx="28.9" class="st3" ry="29.7"/>
		<path class="st2" d="m641.7 91.3c0 5.6-4.4 10-10.1 10-5.6 0-10.1-4.4-10.1-10 0-5.5 4.5-9.8 10.1-9.8 5.8 0 10.1 4.4 10.1 9.8zm-17.7 0c0 4.4 3.2 7.9 7.7 7.9 4.3 0 7.5-3.5 7.5-7.8 0-4.4-3.2-7.9-7.6-7.9s-7.6 3.5-7.6 7.8zm6.1 5.2h-2.3v-9.8c0.9-0.2 2.2-0.3 3.8-0.3 1.9 0 2.7 0.3 3.4 0.7 0.5 0.4 1 1.2 1 2.2 0 1.1-0.8 1.9-2 2.3v0.1c1 0.4 1.5 1.1 1.8 2.4 0.3 1.5 0.5 2.1 0.7 2.5h-2.5c-0.3-0.4-0.5-1.3-0.8-2.4-0.2-1.1-0.8-1.6-2-1.6h-1.1v3.9zm0.1-5.6h1.1c1.3 0 2.3-0.4 2.3-1.4 0-0.9-0.7-1.5-2.1-1.5-0.6 0-1 0.1-1.3 0.1v2.8z"/>
</svg>
