<svg xmlns="http://www.w3.org/2000/svg" width="121" height="28" viewBox="0 0 121 28">
  <g fill="none" fill-rule="evenodd" transform="translate(0 -5)">
    <rect width="37.593" height="37.932" x="30.78" y=".663"/>
    <g fill-rule="nonzero" transform="translate(.229 5.638)">
      <polygon fill="#CD040B" points="11.841 17.922 5.308 3.787 2.839 9.15 .171 9.15 4.224 .379 6.381 .379 14.489 17.92 14.489 17.922" transform="matrix(1 0 0 -1 105.625 18.264)"/>
      <path fill="#000" d="M48.0392009,2.90110841 L53.3498582,2.90110841 L53.3498582,7.64494168 L48.0392009,7.64494168 L48.0392009,2.90110841 Z M6.26299426,26.5892478 L11.8105149,26.5892478 L17.8320334,9.11379249 L12.5213761,9.11360998 L9.13890695,20.3427079 L9.07017229,20.3427079 L5.68761275,9.11360998 L0.242018377,9.11360998 L6.26317514,26.5890653 L6.26299426,26.5890653 L6.26299426,26.5892478 Z M25.7465589,12.4254597 C27.6069169,12.4254597 28.8929787,13.8244087 29.0955651,15.8721853 L22.0258429,15.8721853 C22.4319201,13.7897316 23.547954,12.4254597 25.7465589,12.4254597 L25.7465589,12.4254597 Z M26.0169756,23.2447286 C23.6836145,23.2447286 22.2627966,21.7088961 21.99238,19.353588 L34.4740527,19.353588 C34.5084201,15.5993309 33.5271422,12.5961078 31.4632935,10.7189792 C30.0090126,9.35379483 28.0808244,8.60257838 25.6452657,8.60257838 C20.4359015,8.60257838 16.8164787,12.5961078 16.8164787,17.8175731 C16.8164787,23.073898 20.2667781,27.101922 25.9835126,27.101922 C28.1486546,27.101922 29.8733521,26.5215362 31.29417,25.5304999 C32.8162811,24.4737596 33.8988521,22.9379271 34.2036361,21.4011821 L29.129028,21.4011821 C28.6225621,22.5628664 27.573454,23.2445461 26.0169756,23.2445461 L26.0169756,23.2447286 Z M35.7257472,26.5892478 L41.0029416,26.5892478 L41.0029416,18.5687895 C41.0029416,14.9176513 43.1671792,13.3124646 46.481818,13.7568795 L46.5831112,13.7568795 L46.5831112,9.1495647 C46.3126946,9.04681085 46.008815,9.01277249 45.5014446,9.01277249 C43.4385002,9.01277249 42.0511453,9.96885785 40.8672811,12.0157219 L40.7650835,12.0157219 L40.7650835,9.11424877 L35.7257472,9.11424877 L35.7257472,26.5897041 L35.7257472,26.5892478 Z M48.0392009,26.5892478 L53.3489538,26.5892478 L53.3489538,9.11379249 L48.0392009,9.11406626 L48.0392009,26.5895216 L48.0392009,26.5892478 Z M54.8041391,26.5892478 L69.6200772,26.5892478 L69.6200772,22.3905758 L61.2308303,22.3905758 L61.2308303,22.289282 L69.2483674,13.2111708 L69.2483674,9.11406626 L54.8041391,9.11406626 L54.8041391,13.3124646 L62.9220649,13.3124646 L62.9220649,13.4155834 L54.8041391,22.5630489 L54.8041391,26.5892478 Z M78.9906019,23.210964 C76.487213,23.210964 75.1685927,21.0947457 75.1685927,17.8871099 C75.1685927,14.6438844 76.487213,12.5614306 78.9906019,12.5614306 C81.4939908,12.5614306 82.8813458,14.6438844 82.8813458,17.8871099 C82.8813458,21.0947457 81.4939908,23.210964 78.9906019,23.210964 L78.9906019,23.210964 Z M79.0249693,8.63652548 C73.5108211,8.63652548 69.823568,12.6309674 69.823568,17.8871099 C69.823568,23.1087577 73.5108211,27.1358691 79.0249693,27.1358691 C84.538213,27.1358691 88.2254661,23.1087577 88.2254661,17.8871099 C88.2254661,12.6307849 84.538213,8.63652548 79.0249693,8.63652548 Z M89.3749629,26.5892478 L94.6548706,26.5892478 L94.6548706,16.862309 C94.6548706,14.6438844 95.9391236,13.0742873 97.8293269,13.0742873 C99.656222,13.0742873 100.605846,14.3701174 100.605846,16.214394 L100.605846,26.5892478 L105.878518,26.5892478 L105.878518,15.1895931 C105.878518,11.3331297 103.581333,8.60257838 99.8642348,8.60257838 C97.4946976,8.60257838 95.8396392,9.62756175 94.5825183,11.5037777 L94.4830339,11.5037777 L94.4830339,9.11406626 L89.3749629,9.11406626 L89.3749629,26.5895216 L89.3749629,26.5892478 Z"/>
    </g>
  </g>
</svg>
